<svg width="349" height="32" viewBox="0 0 349 32" fill="none" xmlns="http://www.w3.org/2000/svg">
<path d="M137.659 7.006H147.361V8.707H139.591V13.411H146.941V15.133H139.591V20.299H147.76L147.445 22H137.659V7.006ZM152.916 16.288L149.283 11.143H151.425L154.008 14.986L156.696 11.143H158.649L155.079 16.267L159.027 22H156.906L153.924 17.611L150.921 22H148.905L152.916 16.288ZM161.683 12.592H160.003V11.143H161.683V8.182H163.51V11.143H166.387V12.592H163.51V18.955C163.51 19.487 163.629 19.914 163.867 20.236C164.105 20.558 164.469 20.719 164.959 20.719C165.267 20.719 165.533 20.698 165.757 20.656C165.995 20.614 166.212 20.558 166.408 20.488L166.723 21.895C166.443 21.993 166.135 22.07 165.799 22.126C165.477 22.196 165.092 22.231 164.644 22.231C164.028 22.231 163.531 22.14 163.153 21.958C162.775 21.776 162.474 21.517 162.25 21.181C162.026 20.845 161.872 20.446 161.788 19.984C161.718 19.522 161.683 19.018 161.683 18.472V12.592ZM177.412 18.955C177.23 20.005 176.761 20.831 176.005 21.433C175.263 22.035 174.192 22.336 172.792 22.336C171.14 22.336 169.873 21.839 168.991 20.845C168.109 19.837 167.668 18.437 167.668 16.645C167.668 15.707 167.794 14.874 168.046 14.146C168.298 13.418 168.648 12.809 169.096 12.319C169.558 11.829 170.104 11.458 170.734 11.206C171.364 10.94 172.05 10.807 172.792 10.807C173.632 10.807 174.353 10.94 174.955 11.206C175.557 11.472 176.047 11.843 176.425 12.319C176.817 12.781 177.104 13.334 177.286 13.978C177.482 14.622 177.58 15.329 177.58 16.099V17.023H169.516C169.516 17.569 169.586 18.08 169.726 18.556C169.88 19.018 170.09 19.424 170.356 19.774C170.636 20.11 170.979 20.376 171.385 20.572C171.791 20.768 172.26 20.866 172.792 20.866C173.702 20.866 174.367 20.698 174.787 20.362C175.207 20.012 175.494 19.543 175.648 18.955H177.412ZM175.753 15.658C175.753 15.14 175.697 14.671 175.585 14.251C175.473 13.831 175.298 13.474 175.06 13.18C174.822 12.872 174.514 12.634 174.136 12.466C173.758 12.298 173.303 12.214 172.771 12.214C171.805 12.214 171.049 12.508 170.503 13.096C169.971 13.684 169.656 14.538 169.558 15.658H175.753ZM180.002 11.143H181.808V12.802C182.34 12.088 182.928 11.577 183.572 11.269C184.216 10.961 184.895 10.807 185.609 10.807C186.841 10.807 187.751 11.143 188.339 11.815C188.941 12.487 189.242 13.474 189.242 14.776V22H187.415V15.133C187.415 14.125 187.233 13.418 186.869 13.012C186.505 12.592 185.945 12.382 185.189 12.382C184.783 12.382 184.377 12.452 183.971 12.592C183.579 12.732 183.222 12.956 182.9 13.264C182.55 13.572 182.284 13.901 182.102 14.251C181.92 14.587 181.829 15.028 181.829 15.574V22H180.002V11.143ZM199.874 20.446C199.426 21.048 198.908 21.517 198.32 21.853C197.732 22.175 197.039 22.336 196.241 22.336C195.443 22.336 194.75 22.189 194.162 21.895C193.588 21.601 193.112 21.202 192.734 20.698C192.356 20.18 192.076 19.571 191.894 18.871C191.712 18.171 191.621 17.422 191.621 16.624C191.621 15.728 191.733 14.923 191.957 14.209C192.181 13.481 192.496 12.865 192.902 12.361C193.322 11.857 193.826 11.472 194.414 11.206C195.016 10.94 195.695 10.807 196.451 10.807C197.025 10.807 197.606 10.926 198.194 11.164C198.782 11.388 199.328 11.822 199.832 12.466V7.006H201.659V22H199.874V20.446ZM199.895 16.246C199.895 15.378 199.797 14.706 199.601 14.23C199.419 13.74 199.111 13.327 198.677 12.991C198.369 12.739 198.054 12.564 197.732 12.466C197.424 12.368 197.081 12.319 196.703 12.319C196.255 12.319 195.835 12.396 195.443 12.55C195.065 12.704 194.729 12.956 194.435 13.306C194.155 13.642 193.931 14.083 193.763 14.629C193.609 15.161 193.532 15.812 193.532 16.582C193.532 17.38 193.616 18.052 193.784 18.598C193.966 19.144 194.197 19.578 194.477 19.9C194.771 20.222 195.093 20.453 195.443 20.593C195.807 20.733 196.178 20.803 196.556 20.803C196.962 20.803 197.326 20.754 197.648 20.656C197.97 20.558 198.292 20.39 198.614 20.152C199.034 19.816 199.349 19.396 199.559 18.892C199.783 18.388 199.895 17.751 199.895 16.981V16.246ZM213.875 18.955C213.693 20.005 213.224 20.831 212.468 21.433C211.726 22.035 210.655 22.336 209.255 22.336C207.603 22.336 206.336 21.839 205.454 20.845C204.572 19.837 204.131 18.437 204.131 16.645C204.131 15.707 204.257 14.874 204.509 14.146C204.761 13.418 205.111 12.809 205.559 12.319C206.021 11.829 206.567 11.458 207.197 11.206C207.827 10.94 208.513 10.807 209.255 10.807C210.095 10.807 210.816 10.94 211.418 11.206C212.02 11.472 212.51 11.843 212.888 12.319C213.28 12.781 213.567 13.334 213.749 13.978C213.945 14.622 214.043 15.329 214.043 16.099V17.023H205.979C205.979 17.569 206.049 18.08 206.189 18.556C206.343 19.018 206.553 19.424 206.819 19.774C207.099 20.11 207.442 20.376 207.848 20.572C208.254 20.768 208.723 20.866 209.255 20.866C210.165 20.866 210.83 20.698 211.25 20.362C211.67 20.012 211.957 19.543 212.111 18.955H213.875ZM212.216 15.658C212.216 15.14 212.16 14.671 212.048 14.251C211.936 13.831 211.761 13.474 211.523 13.18C211.285 12.872 210.977 12.634 210.599 12.466C210.221 12.298 209.766 12.214 209.234 12.214C208.268 12.214 207.512 12.508 206.966 13.096C206.434 13.684 206.119 14.538 206.021 15.658H212.216ZM224.361 20.446C223.913 21.048 223.395 21.517 222.807 21.853C222.219 22.175 221.526 22.336 220.728 22.336C219.93 22.336 219.237 22.189 218.649 21.895C218.075 21.601 217.599 21.202 217.221 20.698C216.843 20.18 216.563 19.571 216.381 18.871C216.199 18.171 216.108 17.422 216.108 16.624C216.108 15.728 216.22 14.923 216.444 14.209C216.668 13.481 216.983 12.865 217.389 12.361C217.809 11.857 218.313 11.472 218.901 11.206C219.503 10.94 220.182 10.807 220.938 10.807C221.512 10.807 222.093 10.926 222.681 11.164C223.269 11.388 223.815 11.822 224.319 12.466V7.006H226.146V22H224.361V20.446ZM224.382 16.246C224.382 15.378 224.284 14.706 224.088 14.23C223.906 13.74 223.598 13.327 223.164 12.991C222.856 12.739 222.541 12.564 222.219 12.466C221.911 12.368 221.568 12.319 221.19 12.319C220.742 12.319 220.322 12.396 219.93 12.55C219.552 12.704 219.216 12.956 218.922 13.306C218.642 13.642 218.418 14.083 218.25 14.629C218.096 15.161 218.019 15.812 218.019 16.582C218.019 17.38 218.103 18.052 218.271 18.598C218.453 19.144 218.684 19.578 218.964 19.9C219.258 20.222 219.58 20.453 219.93 20.593C220.294 20.733 220.665 20.803 221.043 20.803C221.449 20.803 221.813 20.754 222.135 20.656C222.457 20.558 222.779 20.39 223.101 20.152C223.521 19.816 223.836 19.396 224.046 18.892C224.27 18.388 224.382 17.751 224.382 16.981V16.246ZM233.902 7.006H243.604V8.707H235.834V13.411H243.184V15.133H235.834V20.299H244.003L243.688 22H233.902V7.006ZM258.656 17.065C258.572 17.821 258.383 18.528 258.089 19.186C257.795 19.83 257.396 20.39 256.892 20.866C256.388 21.342 255.772 21.713 255.044 21.979C254.33 22.245 253.497 22.378 252.545 22.378C251.509 22.378 250.578 22.203 249.752 21.853C248.926 21.503 248.226 20.992 247.652 20.32C247.078 19.648 246.63 18.829 246.308 17.863C246 16.883 245.846 15.77 245.846 14.524C245.846 13.264 246.014 12.144 246.35 11.164C246.686 10.184 247.155 9.358 247.757 8.686C248.359 8.014 249.066 7.503 249.878 7.153C250.704 6.803 251.593 6.628 252.545 6.628C253.469 6.628 254.267 6.747 254.939 6.985C255.611 7.223 256.178 7.559 256.64 7.993C257.116 8.427 257.494 8.945 257.774 9.547C258.068 10.149 258.292 10.814 258.446 11.542L256.556 11.857C256.43 11.311 256.262 10.821 256.052 10.387C255.856 9.939 255.597 9.561 255.275 9.253C254.967 8.945 254.589 8.714 254.141 8.56C253.707 8.392 253.175 8.308 252.545 8.308C251.803 8.308 251.138 8.462 250.55 8.77C249.976 9.064 249.486 9.484 249.08 10.03C248.688 10.562 248.387 11.213 248.177 11.983C247.967 12.739 247.862 13.579 247.862 14.503C247.862 15.427 247.967 16.274 248.177 17.044C248.387 17.8 248.688 18.451 249.08 18.997C249.486 19.543 249.976 19.963 250.55 20.257C251.138 20.551 251.81 20.698 252.566 20.698C253.252 20.698 253.833 20.614 254.309 20.446C254.799 20.264 255.198 20.012 255.506 19.69C255.828 19.368 256.08 18.983 256.262 18.535C256.444 18.087 256.577 17.597 256.661 17.065H258.656ZM261.28 7.006H263.674L268.504 19.69L273.418 7.006H275.728V22H273.943V10.177L269.239 22H267.664L263.044 10.219V22H261.28V7.006Z" fill="white"/>
<path d="M129 2.89999H128V25.9H129V2.89999Z" fill="white"/>
<path d="M17.1 14.5C17.1 18.3 14.9 22.4 9.09997 22.4C4.89997 22.4 1.09997 20.1 1.09997 14.5C0.999974 9.9 3.89997 6.4 9.59997 6.7C15.7 7 17.1 11.7 17.1 14.5ZM6.19997 11.6C5.69997 12.4 5.49997 13.4 5.49997 14.4C5.49997 16.7 6.59997 18.8 9.09997 18.8C11.5 18.8 12.7 16.9 12.7 14.6C12.7 13 12.3 11.7 11.5 10.9C10.6 10.1 9.59997 10 8.89997 10.1C7.49997 10.2 6.79997 10.7 6.19997 11.6Z" fill="white"/>
<path d="M56.1 8.40001C56.5 7.90001 56.8 7.60001 57.6 7.20001C58.3 6.90001 59.3 6.70001 60.3 6.70001C61.2 6.70001 62.2 6.80001 63 7.30001C64.6 8.10001 65 9.50001 65 11.8V22H60.6V13.6C60.6 12.3 60.6 11.8 60.4 11.4C60.1 10.6 59.3 10.3 58.4 10.3C56.1 10.3 56.1 12.2 56.1 14V22.1H51.7V7.00001H56.1V8.40001Z" fill="white"/>
<path d="M49.6 18.1C49.2 19 47.9 22.3 42.2 22.3C37.8 22.3 34.6 19.6 34.6 14.7C34.6 11.1 36.4 6.6 42.3 6.6C43.2 6.6 45.8 6.5 47.7 8.6C49.6 10.7 49.8 13.6 49.8 15.3H39.1C39.1 17.2 40.1 19 42.5 19C44.9 19 45.7 17.4 46.3 16.4L49.6 18.1ZM45.2 12.6C45.1 12 45 11.1 44.4 10.5C43.9 9.9 43 9.6 42.3 9.6C41.2 9.6 40.5 10.1 40.1 10.6C39.5 11.3 39.4 11.9 39.2 12.6H45.2Z" fill="white"/>
<path d="M110.9 10.1H113.8V6.99999H111V3.89999H106.6V6.99999H105.9L103.9 10.1H106.6V17.2C106.6 18.6 106.6 19.7 107.2 20.6C108.1 22 109.8 22.1 111.3 22.1C112.1 22.1 112.7 22 113.6 21.9V18.5L112 18.6C110.8 18.6 110.8 17.8 110.9 16.9V10.1Z" fill="white"/>
<path d="M67.2 3.89999H71.6V6.99999H76.2L74.2 10.1H71.6V16.7C71.6 17.6 71.6 18.4 72.7 18.4L74.3 18.3V21.7C73.4 21.8 72.8 21.9 72 21.9C70.5 21.9 68.8 21.8 67.9 20.4C67.3 19.5 67.3 18.5 67.3 17V3.89999H67.2Z" fill="white"/>
<path d="M117.9 10.1H117.4V7.5H116.4V7H118.9V7.5H117.9V10.1ZM122.2 10.1H121.7V8.2V7.6L121.6 8.1L121 10.1H120.5L119.9 8.1L119.7 7.6V8.2V10.1H119.2V7H119.9L120.7 9.4L121.5 7H122.2V10.1Z" fill="white"/>
<path d="M89.9 18.1L89.1 19.4C88.3 20.6 86.8 22.3 82.6 22.3C78.2 22.3 75.2 19.6 75.2 14.7C75.2 11.1 77 6.6 82.9 6.6C83.8 6.6 86.4 6.5 88.3 8.6C90.2 10.7 90.4 13.6 90.4 15.3H79.7C79.7 17.2 80.6 19 83 19C85.4 19 86.1 17.4 86.6 16.4L89.9 18.1ZM85.8 12.6C85.7 12 85.6 11.1 85 10.5C84.5 10 83.6 9.7 82.9 9.7C81.8 9.7 81.1 10.2 80.7 10.7C80.1 11.4 80 12 79.8 12.7H85.8V12.6Z" fill="white"/>
<path d="M104.9 22L99.5 14.1L104 7H99L96.9 10.4L94.5 7H89.5L94.4 14.1L89.4 22H94.4L97 17.8L99.9 22H104.9Z" fill="white"/>
<path d="M23.1 8.40001C23.5 7.80001 24.9 6.70001 27 6.70001C30.7 6.70001 33.2 9.50001 33.2 14.5C33.2 17.6 32.1 22.4 26.8 22.4C24.9 22.4 23.4 21.3 23 20.7V26.9H18.6V7.00001H23V8.40001H23.1ZM26.1 10.1C25.3 10.1 24.5 10.4 23.8 11.2C23.2 12 22.9 13.2 22.9 14.5C22.9 16.3 23.4 17.3 24 17.9C24.5 18.5 25.3 18.8 26 18.8C28.1 18.8 29.1 16.5 29.1 14.4C29.1 12.6 28.6 10.6 26.8 10.2C26.5 10.1 26.3 10.1 26.1 10.1Z" fill="white"/>
<path d="M300.863 18.475C300.803 19.015 300.668 19.52 300.458 19.99C300.248 20.45 299.963 20.85 299.603 21.19C299.243 21.53 298.803 21.795 298.283 21.985C297.773 22.175 297.178 22.27 296.498 22.27C295.758 22.27 295.093 22.145 294.503 21.895C293.913 21.645 293.413 21.28 293.003 20.8C292.593 20.32 292.273 19.735 292.043 19.045C291.823 18.345 291.713 17.55 291.713 16.66C291.713 15.76 291.833 14.96 292.073 14.26C292.313 13.56 292.648 12.97 293.078 12.49C293.508 12.01 294.013 11.645 294.593 11.395C295.183 11.145 295.818 11.02 296.498 11.02C297.158 11.02 297.728 11.105 298.208 11.275C298.688 11.445 299.093 11.685 299.423 11.995C299.763 12.305 300.033 12.675 300.233 13.105C300.443 13.535 300.603 14.01 300.713 14.53L299.363 14.755C299.273 14.365 299.153 14.015 299.003 13.705C298.863 13.385 298.678 13.115 298.448 12.895C298.228 12.675 297.958 12.51 297.638 12.4C297.328 12.28 296.948 12.22 296.498 12.22C295.968 12.22 295.493 12.33 295.073 12.55C294.663 12.76 294.313 13.06 294.023 13.45C293.743 13.83 293.528 14.295 293.378 14.845C293.228 15.385 293.153 15.985 293.153 16.645C293.153 17.305 293.228 17.91 293.378 18.46C293.528 19 293.743 19.465 294.023 19.855C294.313 20.245 294.663 20.545 295.073 20.755C295.493 20.965 295.973 21.07 296.513 21.07C297.003 21.07 297.418 21.01 297.758 20.89C298.108 20.76 298.393 20.58 298.613 20.35C298.843 20.12 299.023 19.845 299.153 19.525C299.283 19.205 299.378 18.855 299.438 18.475H300.863ZM302.737 11.29H309.667V12.505H304.117V15.865H309.367V17.095H304.117V20.785H309.952L309.727 22H302.737V11.29ZM314.773 20.92C315.153 20.58 315.563 20.22 316.003 19.84C316.443 19.46 316.888 19.07 317.338 18.67C317.818 18.25 318.238 17.87 318.598 17.53C318.958 17.18 319.258 16.845 319.498 16.525C319.738 16.205 319.918 15.88 320.038 15.55C320.158 15.22 320.218 14.865 320.218 14.485C320.218 13.855 320.048 13.375 319.708 13.045C319.368 12.705 318.893 12.535 318.283 12.535C317.913 12.535 317.598 12.575 317.338 12.655C317.078 12.735 316.858 12.855 316.678 13.015C316.498 13.165 316.348 13.355 316.228 13.585C316.118 13.815 316.018 14.085 315.928 14.395L314.683 14.2C314.773 13.84 314.898 13.49 315.058 13.15C315.218 12.81 315.438 12.51 315.718 12.25C315.998 11.98 316.348 11.765 316.768 11.605C317.188 11.435 317.703 11.35 318.313 11.35C318.843 11.35 319.313 11.425 319.723 11.575C320.133 11.725 320.473 11.935 320.743 12.205C321.023 12.465 321.233 12.78 321.373 13.15C321.523 13.52 321.598 13.93 321.598 14.38C321.598 14.83 321.533 15.25 321.403 15.64C321.283 16.03 321.093 16.415 320.833 16.795C320.573 17.175 320.243 17.565 319.843 17.965C319.443 18.365 318.968 18.8 318.418 19.27C318.128 19.52 317.828 19.775 317.518 20.035C317.218 20.285 316.923 20.54 316.633 20.8H321.703L321.508 22H314.773V20.92ZM323.65 20.92C324.03 20.58 324.44 20.22 324.88 19.84C325.32 19.46 325.765 19.07 326.215 18.67C326.695 18.25 327.115 17.87 327.475 17.53C327.835 17.18 328.135 16.845 328.375 16.525C328.615 16.205 328.795 15.88 328.915 15.55C329.035 15.22 329.095 14.865 329.095 14.485C329.095 13.855 328.925 13.375 328.585 13.045C328.245 12.705 327.77 12.535 327.16 12.535C326.79 12.535 326.475 12.575 326.215 12.655C325.955 12.735 325.735 12.855 325.555 13.015C325.375 13.165 325.225 13.355 325.105 13.585C324.995 13.815 324.895 14.085 324.805 14.395L323.56 14.2C323.65 13.84 323.775 13.49 323.935 13.15C324.095 12.81 324.315 12.51 324.595 12.25C324.875 11.98 325.225 11.765 325.645 11.605C326.065 11.435 326.58 11.35 327.19 11.35C327.72 11.35 328.19 11.425 328.6 11.575C329.01 11.725 329.35 11.935 329.62 12.205C329.9 12.465 330.11 12.78 330.25 13.15C330.4 13.52 330.475 13.93 330.475 14.38C330.475 14.83 330.41 15.25 330.28 15.64C330.16 16.03 329.97 16.415 329.71 16.795C329.45 17.175 329.12 17.565 328.72 17.965C328.32 18.365 327.845 18.8 327.295 19.27C327.005 19.52 326.705 19.775 326.395 20.035C326.095 20.285 325.8 20.54 325.51 20.8H330.58L330.385 22H323.65V20.92ZM332.482 20.245H333.982V22H332.482V20.245ZM335.881 20.92C336.261 20.58 336.671 20.22 337.111 19.84C337.551 19.46 337.996 19.07 338.446 18.67C338.926 18.25 339.346 17.87 339.706 17.53C340.066 17.18 340.366 16.845 340.606 16.525C340.846 16.205 341.026 15.88 341.146 15.55C341.266 15.22 341.326 14.865 341.326 14.485C341.326 13.855 341.156 13.375 340.816 13.045C340.476 12.705 340.001 12.535 339.391 12.535C339.021 12.535 338.706 12.575 338.446 12.655C338.186 12.735 337.966 12.855 337.786 13.015C337.606 13.165 337.456 13.355 337.336 13.585C337.226 13.815 337.126 14.085 337.036 14.395L335.791 14.2C335.881 13.84 336.006 13.49 336.166 13.15C336.326 12.81 336.546 12.51 336.826 12.25C337.106 11.98 337.456 11.765 337.876 11.605C338.296 11.435 338.811 11.35 339.421 11.35C339.951 11.35 340.421 11.425 340.831 11.575C341.241 11.725 341.581 11.935 341.851 12.205C342.131 12.465 342.341 12.78 342.481 13.15C342.631 13.52 342.706 13.93 342.706 14.38C342.706 14.83 342.641 15.25 342.511 15.64C342.391 16.03 342.201 16.415 341.941 16.795C341.681 17.175 341.351 17.565 340.951 17.965C340.551 18.365 340.076 18.8 339.526 19.27C339.236 19.52 338.936 19.775 338.626 20.035C338.326 20.285 338.031 20.54 337.741 20.8H342.811L342.616 22H335.881V20.92Z" fill="white"/>
</svg>
