<?xml version="1.0" encoding="utf-8"?>
<!-- Generator: Adobe Illustrator 24.0.1, SVG Export Plug-In . SVG Version: 6.00 Build 0)  -->
<svg version="1.1" id="Layer_1" xmlns="http://www.w3.org/2000/svg" xmlns:xlink="http://www.w3.org/1999/xlink" x="0px" y="0px"
	 viewBox="0 0 32 32" style="enable-background:new 0 0 32 32;" xml:space="preserve">
<style type="text/css">
	.st0{fill:none;}
	.st1{fill-rule:evenodd;clip-rule:evenodd;fill:#333333;}
	.st2{fill:none;stroke:#2E3D98;}
</style>
<circle id="state" class="st0" cx="16" cy="16" r="14"/>
<path id="metaphor" class="st1" d="M21.182 8.98182H23.636C23.833 8.98182 23.9957 9.15 24 9.36364V12.6682C24 12.85 23.8587 13 23.6874 13H18.3126C18.1413 13 18 12.85 18 12.6682V8.38182C18 8.17273 18.1627 8 18.3597 8H19.833C19.9229 8 20.0086 8.03182 20.0771 8.09091L20.955 8.87727C21.0236 8.93182 21.0921 8.98182 21.182 8.98182ZM21 14.5C21 14.2239 20.7761 14 20.5 14C20.2239 14 20 14.2239 20 14.5V16H16.5C16.2239 16 16 16.2239 16 16.5C16 16.7761 16.2239 17 16.5 17H20V22H16.5C16.2239 22 16 22.2239 16 22.5C16 22.7761 16.2239 23 16.5 23H20.5C20.7761 23 21 22.7761 21 22.5V16.5V14.5ZM14.636 13.9818H12.182C12.0921 13.9818 12.0236 13.9318 11.955 13.8773L11.0771 13.0909C11.0086 13.0318 10.9229 13 10.833 13H9.35974C9.16274 13 9 13.1727 9 13.3818V17.6682C9 17.85 9.14133 18 9.31263 18H14.6874C14.8587 18 15 17.85 15 17.6682V14.3636C14.9957 14.15 14.833 13.9818 14.636 13.9818ZM12.182 19.9818H14.636C14.833 19.9818 14.9957 20.15 15 20.3636V23.6682C15 23.85 14.8587 24 14.6874 24H9.31263C9.14133 24 9 23.85 9 23.6682V19.3818C9 19.1727 9.16274 19 9.35974 19H10.833C10.9229 19 11.0086 19.0318 11.0771 19.0909L11.955 19.8773C12.0236 19.9318 12.0921 19.9818 12.182 19.9818Z"/>
<circle id="focus" class="st2" cx="16" cy="16" r="15.5"/>
</svg>
