<?xml version="1.0" encoding="utf-8"?>
<!-- Generator: Adobe Illustrator 24.2.0, SVG Export Plug-In . SVG Version: 6.00 Build 0)  -->
<svg version="1.1" id="Layer_1" xmlns="http://www.w3.org/2000/svg" xmlns:xlink="http://www.w3.org/1999/xlink" x="0px" y="0px"
	 viewBox="0 0 32 32" style="enable-background:new 0 0 32 32;" xml:space="preserve">
<style type="text/css">
	.st0{fill:#FFFFFF;}
	.st1{fill:none;stroke:#2E3D98;}
	.st2{fill:#333333;}
</style>
<circle id="state" class="st0" cx="16" cy="16" r="14"/>
<circle id="focus" class="st1" cx="16" cy="16" r="15.5"/>
<path id="metaphor" class="st2" d="M17.485,16l3.457-3.457c0.4-0.42,0.385-1.084-0.035-1.485c-0.405-0.387-1.043-0.387-1.449,0
	L16,14.515l-3.458-3.457c-0.4-0.42-1.065-0.435-1.485-0.035c-0.42,0.4-0.435,1.065-0.035,1.485c0.012,0.012,0.023,0.024,0.035,0.035
	L14.515,16l-3.457,3.458c-0.42,0.4-0.435,1.065-0.035,1.485c0.4,0.42,1.065,0.435,1.485,0.035c0.012-0.012,0.024-0.023,0.035-0.036
	L16,17.485l3.457,3.457c0.41,0.41,1.074,0.41,1.484,0s0.41-1.074,0-1.484L17.485,16z"/>
</svg>
