<?xml version="1.0" encoding="utf-8"?>
<!-- Generator: Adobe Illustrator 24.3.0, SVG Export Plug-In . SVG Version: 6.00 Build 0)  -->
<svg version="1.1" id="Layer_1" xmlns="http://www.w3.org/2000/svg" xmlns:xlink="http://www.w3.org/1999/xlink" x="0px" y="0px"
	 viewBox="0 0 16 16" style="enable-background:new 0 0 16 16;" xml:space="preserve">
<style type="text/css">
	.st0{fill:#98A8B2;}
	.st1{fill:#FFFFFF;}
</style>
<path id="colorFirst" class="st0" d="M14.15,4.16H8.42c-0.21,0-0.37-0.11-0.53-0.23L5.84,2.2C5.68,2.07,5.48,2,5.27,2H1.83
	C1.37,2,0.99,2.38,0.99,2.84v9.43c0,0.4,0.33,0.73,0.73,0.73h12.55c0.4,0,0.73-0.33,0.73-0.73V5C14.99,4.53,14.61,4.16,14.15,4.16z"
	/>
<path id="colorSecond" class="st1" d="M5.27,2c0.21,0,0.41,0.07,0.57,0.2l2.05,1.73c0.16,0.12,0.32,0.23,0.53,0.23h5.73
	c0.46,0,0.84,0.37,0.85,0.84v7.27c0,0.4-0.33,0.73-0.73,0.73H1.72c-0.4,0-0.73-0.33-0.73-0.73V2.84C0.99,2.38,1.37,2,1.83,2H5.27
	 M5.27,1H1.83C0.815,1-0.01,1.825-0.01,2.84v9.43c0,0.954,0.776,1.73,1.73,1.73h12.55c0.954,0,1.73-0.776,1.73-1.73V5
	c-0.022-1.024-0.851-1.84-1.85-1.84H8.529C8.525,3.157,8.521,3.153,8.516,3.15L6.485,1.436C6.134,1.151,5.708,1,5.27,1L5.27,1z"/>
</svg>
