<svg width="18" height="18" viewBox="0 0 18 18" fill="none" xmlns="http://www.w3.org/2000/svg">
<path d="M9 17.5C4.313 17.5 0.5 13.687 0.5 9C0.5 4.313 4.313 0.5 9 0.5C13.687 0.5 17.5 4.313 17.5 9C17.5 13.687 13.687 17.5 9 17.5Z" fill="#DF3324"/>
<path d="M9 12C7.34576 12 6 10.6542 6 9C6 7.34576 7.34576 6 9 6C10.6542 6 12 7.34576 12 9C12 10.6542 10.6542 12 9 12Z" fill="white"/>
<path d="M9 1C13.418 1 17 4.582 17 9C17 13.418 13.418 17 9 17C4.582 17 1 13.418 1 9C1 4.582 4.582 1 9 1ZM9 0C4.037 0 0 4.037 0 9C0 13.963 4.037 18 9 18C13.963 18 18 13.963 18 9C18 4.037 13.963 0 9 0Z" fill="white"/>
</svg>
