<svg width="24" height="24" viewBox="0 0 24 24" fill="none" xmlns="http://www.w3.org/2000/svg">
<g clip-path="url(#clip0_1605_3414)">
<path d="M12 1.5H4C2.93913 1.5 1.92172 1.92143 1.17157 2.67157C0.421427 3.42172 0 4.43913 0 5.5L0 9.5C0 10.5609 0.421427 11.5783 1.17157 12.3284C1.92172 13.0786 2.93913 13.5 4 13.5V15.662C4 16.554 4.545 16.768 5.212 16.137L8 13.5H12C13.0609 13.5 14.0783 13.0786 14.8284 12.3284C15.5786 11.5783 16 10.5609 16 9.5V5.5C16 4.43913 15.5786 3.42172 14.8284 2.67157C14.0783 1.92143 13.0609 1.5 12 1.5Z" fill="#333333"/>
<path d="M19.9999 7.5H17.9999V9.5C17.9983 11.0908 17.3657 12.616 16.2408 13.7409C15.1159 14.8658 13.5907 15.4984 11.9999 15.5H8.79591L8.06891 16.188C8.22937 17.1145 8.71162 17.9547 9.43071 18.5605C10.1498 19.1664 11.0596 19.4991 11.9999 19.5H15.9999L18.7879 22.137C19.4549 22.768 19.9999 22.555 19.9999 21.662V19.5C21.0608 19.5 22.0782 19.0786 22.8283 18.3284C23.5785 17.5783 23.9999 16.5609 23.9999 15.5V11.5C23.9999 10.4391 23.5785 9.42172 22.8283 8.67157C22.0782 7.92143 21.0608 7.5 19.9999 7.5Z" fill="#333333"/>
</g>
<defs>
<clipPath id="clip0_1605_3414">
<rect width="24" height="24" fill="white"/>
</clipPath>
</defs>
</svg>
