<svg width="20" height="20" viewBox="0 0 20 20" fill="none" xmlns="http://www.w3.org/2000/svg">
<path d="M19 7V16C19 16.55 18.55 17 18 17H2C1.45 17 1 16.55 1 16V4.01C1 3.46 1.45 3.01 2 3.01L8 3C8.27 3 8.52 3.1 8.71 3.29L11.12 5.7C11.31 5.89 11.56 6 11.83 6H18C18.55 6 19 6.45 19 7Z" fill="#333333"/>
<path d="M15.5 15C16.3284 15 17 14.3284 17 13.5C17 12.6716 16.3284 12 15.5 12C14.6716 12 14 12.6716 14 13.5C14 14.3284 14.6716 15 15.5 15Z" fill="white"/>
<path d="M10.5 15C11.3284 15 12 14.3284 12 13.5C12 12.6716 11.3284 12 10.5 12C9.67157 12 9 12.6716 9 13.5C9 14.3284 9.67157 15 10.5 15Z" fill="white"/>
<path d="M5.5 15C6.32843 15 7 14.3284 7 13.5C7 12.6716 6.32843 12 5.5 12C4.67157 12 4 12.6716 4 13.5C4 14.3284 4.67157 15 5.5 15Z" fill="white"/>
</svg>
