<?xml version="1.0" encoding="utf-8"?>
<!-- Generator: Adobe Illustrator 26.0.2, SVG Export Plug-In . SVG Version: 6.00 Build 0)  -->
<svg version="1.1" id="Layer_1" xmlns="http://www.w3.org/2000/svg" xmlns:xlink="http://www.w3.org/1999/xlink" x="0px" y="0px"
	 width="222" height="342" viewBox="0 0 222 342" style="enable-background:new 0 0 222 342;" xml:space="preserve">
<style type="text/css">
	.st0{fill-rule:evenodd;clip-rule:evenodd;fill:#333333;}
	.st1{fill-rule:evenodd;clip-rule:evenodd;fill:#627783;}
	.st2{fill:#DCE4E8;}
	.st3{fill-rule:evenodd;clip-rule:evenodd;fill:#757575;}
	.st4{fill:#F9F9F9;}
</style>
<path class="st0" d="M222,24c0,1.657-1.343,3-3,3H3c-1.657,0-3-1.343-3-3L0,3c0-1.657,1.343-3,3-3l216,0c1.657,0,3,1.343,3,3V24z
	 M3,3v21h216V3H3z"/>
<path class="st0" d="M222,107c0,1.657-1.343,3-3,3h-30.719c-1.657,0-3-1.343-3-3V31.954c0-1.657,1.343-3,3-3H219
	c1.657,0,3,1.343,3,3V107z M188.281,31.954V107H219V31.954H188.281z"/>
<path class="st0" d="M183.27,107c0,1.657-1.343,3-3,3H3c-1.657,0-3-1.343-3-3l0-75.046c0-1.657,1.343-3,3-3h177.27
	c1.657,0,3,1.343,3,3V107z M3,31.954V107h177.27V31.954H3z"/>
<path class="st1" d="M222,140c0,1.657-1.343,3-3,3H3c-1.657,0-3-1.343-3-3l0-21c0-1.657,1.343-3,3-3h216c1.657,0,3,1.343,3,3V140z
	 M3,119v21h216v-21H3z"/>
<path class="st1" d="M222,223c0,1.657-1.343,3-3,3h-30.719c-1.657,0-3-1.343-3-3v-75.046c0-1.657,1.343-3,3-3H219
	c1.657,0,3,1.343,3,3V223z M188.281,147.954V223H219v-75.046H188.281z"/>
<path class="st1" d="M183.27,223c0,1.657-1.343,3-3,3H3c-1.657,0-3-1.343-3-3l0-75.046c0-1.657,1.343-3,3-3h177.27
	c1.657,0,3,1.343,3,3V223z M3,147.954V223h177.27v-75.046H3z"/>
<path class="st2" d="M219,140H3v-21h216V140z"/>
<path class="st2" d="M219,223h-30.675v-75.046H219V223z"/>
<path class="st2" d="M180.27,223H3v-75.046h177.27V223z"/>
<path class="st3" d="M222,256c0,1.657-1.343,3-3,3H3c-1.657,0-3-1.343-3-3l0-21c0-1.657,1.343-3,3-3h216c1.657,0,3,1.343,3,3V256z
	 M3,235v21h216v-21H3z"/>
<path class="st3" d="M222,339c0,1.657-1.343,3-3,3h-30.719c-1.657,0-3-1.343-3-3v-75.046c0-1.657,1.343-3,3-3H219
	c1.657,0,3,1.343,3,3V339z M188.281,263.954V339H219v-75.046H188.281z"/>
<path class="st3" d="M183.27,339c0,1.657-1.343,3-3,3H3c-1.657,0-3-1.343-3-3l0-75.046c0-1.657,1.343-3,3-3h177.27
	c1.657,0,3,1.343,3,3V339z M3,263.954V339h177.27v-75.046H3z"/>
<path class="st4" d="M219,256H3v-21h216V256z"/>
<path class="st4" d="M219,339h-30.675v-75.046H219V339z"/>
<path class="st4" d="M180.27,339H3v-75.046h177.27V339z"/>
</svg>
