<svg xmlns="http://www.w3.org/2000/svg" width="32" height="32" viewBox="0 0 32 32">
  <title>mime_facets_tree32</title>
  <path d="M30.268,13.92a.555.555,0,0,0,.554-.554V5.609a.555.555,0,0,0-.554-.554H22.51a.555.555,0,0,0-.554.554V7.825a.555.555,0,0,1-.554.554H16.969a.556.556,0,0,0-.554.554v6.1a.556.556,0,0,1-.554.554H13.644a.557.557,0,0,1-.554-.554V12.812a.555.555,0,0,0-.554-.554H4.779a.555.555,0,0,0-.554.554V20.57a.555.555,0,0,0,.554.554h7.757a.555.555,0,0,0,.554-.554V18.353a.557.557,0,0,1,.554-.554h2.217a.556.556,0,0,1,.554.554v6.1a.556.556,0,0,0,.554.554H21.4a.555.555,0,0,1,.554.554v2.216a.555.555,0,0,0,.554.554h7.758a.555.555,0,0,0,.554-.554V20.016a.555.555,0,0,0-.554-.554H22.51a.555.555,0,0,0-.554.554v2.216a.555.555,0,0,1-.554.554H19.186a.556.556,0,0,1-.555-.554V11.15a.556.556,0,0,1,.555-.554H21.4a.555.555,0,0,1,.554.554v2.216a.555.555,0,0,0,.554.554Z" transform="translate(-0.822 -5.055)" style="fill: #0073ab"/>
  <g>
    <g>
      <g>
        <path d="M2.87,24.533A1.772,1.772,0,0,1,1.1,22.762V10.62A1.772,1.772,0,0,1,2.87,8.85h7.693l3.184,3.183V22.762a1.772,1.772,0,0,1-1.771,1.771Z" transform="translate(-0.822 -5.055)" style="fill: #0073ab"/>
        <path d="M11.976,24.809H2.87A2.049,2.049,0,0,1,.822,22.762V10.62A2.05,2.05,0,0,1,2.87,8.572h7.807l3.347,3.347V22.762A2.05,2.05,0,0,1,11.976,24.809ZM2.87,9.127A1.5,1.5,0,0,0,1.376,10.62V22.762A1.5,1.5,0,0,0,2.87,24.255h9.106a1.5,1.5,0,0,0,1.494-1.493V12.148L10.448,9.127Z" transform="translate(-0.822 -5.055)" style="fill: #fff"/>
      </g>
      <polygon points="9.59 4.193 9.59 7.124 12.522 7.124 9.59 4.193" style="fill: #084e8f"/>
    </g>
    <g>
      <rect x="2.999" y="9.143" width="7.203" height="0.554" style="fill: #fff"/>
      <rect x="2.999" y="11.359" width="7.203" height="0.554" style="fill: #fff"/>
      <rect x="2.999" y="13.576" width="7.203" height="0.554" style="fill: #fff"/>
    </g>
  </g>
</svg>
