 <svg version="1.1" xmlns="http://www.w3.org/2000/svg" xmlns:xlink="http://www.w3.org/1999/xlink" x="0px" y="0px"
				viewBox="0 0 32 32" style="enable-background:new 0 0 32 32;" xml:space="preserve">
				<style type="text/css">
					.st0{fill:#FFFFFF;}
					.st1{fill:none;stroke:#2E3D98;}
					.st2{fill:#333333}
				</style>
				<circle id="state" cx="16" cy="16" r="14" class="st0" />
				<circle id="focus" cx="16" cy="16" r="15.5" class="st1" />
				<g>
					<g id="metaphor">
						<path class="st2" d="M21.8,22.6c0,0.1,0,0.2-0.1,0.3c0,0.1-0.1,0.2-0.2,0.3c-0.1,0.1-0.2,0.1-0.3,0.2c-0.1,0-0.2,0.1-0.3,0.1h-3.4
							c-1,0-1.9-0.4-2.6-1.1c-0.7-0.7-1.1-1.6-1.1-2.6v-8.4l-2.2,2.2c-0.1,0.1-0.2,0.1-0.3,0.2c-0.1,0-0.2,0.1-0.3,0.1
							c-0.1,0-0.2,0-0.3-0.1c-0.1,0-0.2-0.1-0.3-0.2c-0.2-0.2-0.2-0.4-0.2-0.6s0.1-0.4,0.2-0.6L14,8.7c0.2-0.2,0.4-0.2,0.6-0.2
							c0.2,0,0.4,0.1,0.6,0.2l3.6,3.6c0.1,0.1,0.1,0.2,0.2,0.3c0,0.1,0.1,0.2,0.1,0.3s0,0.2-0.1,0.3c0,0.1-0.1,0.2-0.2,0.3
							c-0.1,0.1-0.2,0.1-0.3,0.2c-0.1,0-0.2,0.1-0.3,0.1c-0.1,0-0.2,0-0.3-0.1c-0.1,0-0.2-0.1-0.3-0.2l-2.1-2.1v8.3c0,0.3,0,0.5,0.1,0.8
							c0.1,0.2,0.2,0.5,0.4,0.7c0.2,0.2,0.4,0.3,0.7,0.4c0.2,0.1,0.5,0.2,0.8,0.1h3.4c0.2,0,0.4,0.1,0.6,0.3
							C21.7,22.2,21.8,22.4,21.8,22.6z"/>
					</g>
				</g>
				</svg>