<svg viewBox="0 0 42 42" fill="none" xmlns="http://www.w3.org/2000/svg">
<path d="M21 1C32 1 41 10 41 21C41 32 32 41 21 41C10 41 1 32 1 21C1 10 10 1 21 1ZM21 0C9.4 0 0 9.4 0 21C0 32.6 9.4 42 21 42C32.6 42 42 32.6 42 21C42 9.4 32.6 0 21 0Z" fill="#004A70"/>
<path d="M30 23H12C10.9 23 10 22.1 10 21C10 19.9 10.9 19 12 19H30C31.1 19 32 19.9 32 21C32 22.1 31.1 23 30 23Z" fill="white"/>
<path d="M21 32C19.9 32 19 31.1 19 30V12C19 10.9 19.9 10 21 10C22.1 10 23 10.9 23 12V30C23 31.1 22.1 32 21 32Z" fill="white"/>
</svg>
