<svg width="21" height="20" viewBox="0 0 21 20" fill="none" xmlns="http://www.w3.org/2000/svg">
<path fill-rule="evenodd" clip-rule="evenodd" d="M3.5 12C4.74264 12 5.75 10.9926 5.75 9.75C5.75 8.50736 4.74264 7.5 3.5 7.5C2.25736 7.5 1.25 8.50736 1.25 9.75C1.25 10.9926 2.25736 12 3.5 12ZM10.25 12C11.4926 12 12.5 10.9926 12.5 9.75C12.5 8.50736 11.4926 7.5 10.25 7.5C9.00736 7.5 8 8.50736 8 9.75C8 10.9926 9.00736 12 10.25 12ZM19.25 9.75C19.25 10.9926 18.2426 12 17 12C15.7574 12 14.75 10.9926 14.75 9.75C14.75 8.50736 15.7574 7.5 17 7.5C18.2426 7.5 19.25 8.50736 19.25 9.75Z" fill="#627783"/>
</svg>
