<?xml version="1.0" encoding="utf-8"?>
<!-- Generator: Adobe Illustrator 24.3.0, SVG Export Plug-In . SVG Version: 6.00 Build 0)  -->
<svg version="1.1" id="Layer_1" xmlns="http://www.w3.org/2000/svg" xmlns:xlink="http://www.w3.org/1999/xlink" x="0px" y="0px"
	 viewBox="0 0 16 16" style="enable-background:new 0 0 16 16;" xml:space="preserve">
<style type="text/css">
	.st0{fill:#98A8B2;}
	.st1{fill:#FFFFFF;}
</style>
<path id="colorFirst" class="st0" d="M11,15H1V1h10c0.552,0,1,0.448,1,1v12C12,14.552,11.552,15,11,15z M15,5V3
	c0-0.552-0.448-1-1-1h-1v4h1C14.552,6,15,5.552,15,5z M15,10V8c0-0.552-0.448-1-1-1h-1v4h1C14.552,11,15,10.552,15,10z"/>
<path id="colorSecond" class="st1" d="M11,1c0.552,0,1,0.448,1,1v12c0,0.552-0.448,1-1,1H1V1H11 M14,2c0.552,0,1,0.448,1,1v2
	c0,0.552-0.448,1-1,1h-1V2H14 M14,7c0.552,0,1,0.448,1,1v2c0,0.552-0.448,1-1,1h-1V7H14 M11,0H1H0v1v14v1h1h10c1.103,0,2-0.897,2-2
	v-2h1c1.103,0,2-0.897,2-2V8c0-0.597-0.263-1.133-0.678-1.5C15.737,6.133,16,5.597,16,5V3c0-1.103-0.897-2-2-2h-1h-0.268
	C12.385,0.403,11.739,0,11,0L11,0z M8.255,5.752c0,1.203-0.781,2.178-1.745,2.178S4.766,6.954,4.766,5.752
	c0-1.204,0.193-2.178,1.745-2.178S8.255,4.548,8.255,5.752z M10,9.441c0-0.199-0.125-0.381-0.315-0.443
	c-0.953-0.31-2.03-0.487-3.175-0.487S4.289,8.688,3.336,8.998C3.147,9.06,3.022,9.241,3.022,9.441V12H10V9.441z"/>
</svg>
