<?xml version="1.0" encoding="utf-8"?>
<!-- Generator: Adobe Illustrator 24.3.0, SVG Export Plug-In . SVG Version: 6.00 Build 0)  -->
<svg version="1.1" id="Layer_1" xmlns="http://www.w3.org/2000/svg" xmlns:xlink="http://www.w3.org/1999/xlink" x="0px" y="0px"
	 viewBox="0 0 16 16" style="enable-background:new 0 0 16 16;" xml:space="preserve">
<style type="text/css">
	.st0{fill:#98A8B2;}
	.st1{fill:#FFFFFF;}
	.st2{fill:#758B98;}
</style>
<path id="colorFirst" class="st0" d="M12,15H4c-1.105,0-2-0.895-2-2V3c0-1.105,0.895-2,2-2h7l3,3v9C14,14.105,13.105,15,12,15z"/>
<path id="colorSecond" class="st1" d="M9.37,7.28c0.21-0.29,0.34-0.65,0.34-1.04c0-0.69-0.41-1.28-1-1.55V3.21
	C8.71,2.82,8.39,2.5,8,2.5S7.29,2.82,7.29,3.21v1.46C6.68,4.93,6.26,5.54,6.26,6.24c0,0.96,0.77,1.73,1.72,1.73
	c0.16,0,0.32-0.02,0.47-0.06l1.5,5.59l0.67-1.54L9.37,7.28z M7.98,7.02c-0.43,0-0.77-0.35-0.77-0.78c0-0.42,0.34-0.77,0.77-0.77
	s0.78,0.35,0.78,0.77C8.76,6.67,8.41,7.02,7.98,7.02z M6.438,8.01l-1.059,3.952l0.671,1.537l1.335-4.98
	C7.028,8.423,6.707,8.248,6.438,8.01z M11,1l3,3v9c0,1.105-0.895,2-2,2H4c-1.105,0-2-0.895-2-2V3c0-1.105,0.895-2,2-2H11 M11.414,0
	H11H4C2.346,0,1,1.346,1,3v10c0,1.654,1.346,3,3,3h8c1.654,0,3-1.346,3-3V4V3.586l-0.293-0.293l-3-3L11.414,0L11.414,0z"/>
<polygon id="colorThird" class="st2" points="11,1 11,4 14,4 "/>
</svg>
