<?xml version="1.0" encoding="utf-8"?>
<!-- Generator: Adobe Illustrator 24.3.0, SVG Export Plug-In . SVG Version: 6.00 Build 0)  -->
<svg version="1.1" id="Layer_1" xmlns="http://www.w3.org/2000/svg" xmlns:xlink="http://www.w3.org/1999/xlink" x="0px" y="0px"
	 viewBox="0 0 16 16" style="enable-background:new 0 0 16 16;" xml:space="preserve">
<style type="text/css">
	.st0{fill:#98A8B2;}
	.st1{fill:#FFFFFF;}
</style>
<path id="colorFirst" class="st0" d="M14,15H2c-0.55,0-1-0.45-1-1V2c0-0.55,0.45-1,1-1h12c0.55,0,1,0.45,1,1v12
	C15,14.55,14.55,15,14,15z"/>
<path id="colorSecond" class="st1" d="M14,1c0.55,0,1,0.45,1,1v12c0,0.55-0.45,1-1,1H2c-0.55,0-1-0.45-1-1V2c0-0.55,0.45-1,1-1H14
	 M14,0H2C0.897,0,0,0.897,0,2v12c0,1.103,0.897,2,2,2h12c1.103,0,2-0.897,2-2V2C16,0.897,15.103,0,14,0L14,0z M14,8L14,8
	c0-0.413-0.337-0.75-0.75-0.75h-5.5C7.337,7.25,7,7.587,7,8v0c0,0.412,0.337,0.75,0.75,0.75h5.5C13.663,8.75,14,8.413,14,8z M14,12
	L14,12c0-0.413-0.337-0.75-0.75-0.75h-5.5C7.337,11.25,7,11.587,7,12v0c0,0.412,0.337,0.75,0.75,0.75h5.5
	C13.663,12.75,14,12.413,14,12z M14,4L14,4c0-0.413-0.337-0.75-0.75-0.75h-5.5C7.337,3.25,7,3.587,7,4v0
	c0,0.412,0.337,0.75,0.75,0.75h5.5C13.663,4.75,14,4.413,14,4z M5.926,3.496c0.195-0.195,0.195-0.512,0-0.707s-0.512-0.195-0.707,0
	L3.857,4.15L3.354,3.646c-0.195-0.195-0.512-0.195-0.707,0s-0.195,0.512,0,0.707l1.211,1.211L5.926,3.496z M5.926,7.496
	c0.195-0.195,0.195-0.512,0-0.707s-0.512-0.195-0.707,0L3.857,8.15L3.354,7.646c-0.195-0.195-0.512-0.195-0.707,0
	s-0.195,0.512,0,0.707l1.211,1.211L5.926,7.496z M5.926,11.496c0.195-0.195,0.195-0.512,0-0.707s-0.512-0.195-0.707,0L3.857,12.15
	l-0.504-0.504c-0.195-0.195-0.512-0.195-0.707,0s-0.195,0.512,0,0.707l1.211,1.211L5.926,11.496z"/>
</svg>
