<?xml version="1.0" encoding="utf-8"?>
<!-- Generator: Adobe Illustrator 24.3.0, SVG Export Plug-In . SVG Version: 6.00 Build 0)  -->
<svg version="1.1" id="Layer_1" xmlns="http://www.w3.org/2000/svg" xmlns:xlink="http://www.w3.org/1999/xlink" x="0px" y="0px"
	 viewBox="0 0 16 16" style="enable-background:new 0 0 16 16;" xml:space="preserve">
<style type="text/css">
	.st0{fill:#98A8B2;}
	.st1{fill:#FFFFFF;}
	.st2{fill:#758B98;}
</style>
<path id="colorFirst" class="st0" d="M14.16,4.16H8.43c-0.21,0-0.37-0.11-0.53-0.23L5.85,2.2C5.69,2.07,5.49,2,5.28,2H1.84
	C1.38,2,1,2.38,1,2.84v9.43C1,12.67,1.33,13,1.73,13h12.55c0.4,0,0.73-0.33,0.73-0.73V5C15,4.53,14.62,4.16,14.16,4.16z"/>
<path id="colorSecond" class="st1" d="M5.28,2c0.21,0,0.41,0.07,0.57,0.2L7.9,3.93c0.16,0.12,0.32,0.23,0.53,0.23h5.73
	c0.46,0,0.84,0.37,0.85,0.84v7.27c0,0.4-0.33,0.73-0.73,0.73H1.73C1.33,13,1,12.67,1,12.27V2.84C1,2.38,1.38,2,1.84,2H5.28 M5.28,1
	H1.84C0.825,1,0,1.825,0,2.84v9.43C0,13.224,0.776,14,1.73,14h12.55c0.954,0,1.73-0.776,1.73-1.73V5
	c-0.022-1.024-0.851-1.84-1.85-1.84H8.539C8.535,3.157,8.531,3.153,8.526,3.15L6.495,1.436C6.144,1.151,5.718,1,5.28,1L5.28,1z
	 M11.5,5h-7C4.22,5,4,5.22,4,5.5v5C4,10.78,4.22,11,4.5,11h2C6.22,11,6,11.22,6,11.5S6.22,12,6.5,12h3c0.28,0,0.5-0.22,0.5-0.5
	S9.78,11,9.5,11h2c0.28,0,0.5-0.22,0.5-0.5v-5C12,5.22,11.78,5,11.5,5z"/>
<rect id="colorThird" x="5" y="6" class="st2" width="6" height="4"/>
</svg>
