<?xml version="1.0" encoding="utf-8"?>
<!-- Generator: Adobe Illustrator 24.3.0, SVG Export Plug-In . SVG Version: 6.00 Build 0)  -->
<svg version="1.1" id="Layer_1" xmlns="http://www.w3.org/2000/svg" xmlns:xlink="http://www.w3.org/1999/xlink" x="0px" y="0px"
	 viewBox="0 0 16 16" style="enable-background:new 0 0 16 16;" xml:space="preserve">
<style type="text/css">
	.st0{fill:#98A8B2;}
	.st1{fill:#FFFFFF;}
</style>
<path id="colorFirst" class="st0" d="M13,15H3c-1.105,0-2-0.895-2-2V3c0-1.105,0.895-2,2-2h10c1.105,0,2,0.895,2,2v10
	C15,14.105,14.105,15,13,15z"/>
<path id="colorSecond" class="st1" d="M13,1c1.105,0,2,0.895,2,2v10c0,1.105-0.895,2-2,2H3c-1.105,0-2-0.895-2-2V3
	c0-1.105,0.895-2,2-2H13 M13,0H3C1.346,0,0,1.346,0,3v10c0,1.654,1.346,3,3,3h10c1.654,0,3-1.346,3-3V3C16,1.346,14.654,0,13,0L13,0
	z M13.645,8.771c0.485-0.501,0.472-1.3-0.029-1.785c-0.489-0.474-1.266-0.474-1.755,0l-0.45,0.45l1.785,1.785L13.645,8.771z
	 M8.234,10.769L7.788,13l2.231-0.446l2.677-2.677l-1.785-1.785L8.234,10.769z M11.645,4.771c0.485-0.501,0.472-1.3-0.029-1.785
	c-0.489-0.474-1.266-0.474-1.755,0l-0.45,0.45l1.785,1.785L11.645,4.771z M6.234,6.769L5.788,9l2.231-0.446l2.677-2.677L8.911,4.092
	L6.234,6.769z M7,12.5L7,12.5C7,12.224,6.776,12,6.5,12h-4C2.224,12,2,12.224,2,12.5v0C2,12.776,2.224,13,2.5,13h4
	C6.776,13,7,12.776,7,12.5z M5,8.5L5,8.5C5,8.224,4.776,8,4.5,8h-2C2.224,8,2,8.224,2,8.5v0C2,8.776,2.224,9,2.5,9h2
	C4.776,9,5,8.776,5,8.5z"/>
</svg>
