<svg width="20" height="20" viewBox="0 0 20 20" fill="none" xmlns="http://www.w3.org/2000/svg">
<circle cx="10" cy="10" r="9.25" fill="white" stroke="#DF3324" stroke-width="1.5"/>
<path fill-rule="evenodd" clip-rule="evenodd" d="M5.293 5.29289C5.68352 4.90237 6.31669 4.90237 6.70721 5.2929L10 8.58576L13.2929 5.29289C13.6834 4.90237 14.3166 4.90237 14.7071 5.29289C15.0976 5.68342 15.0976 6.31658 14.7071 6.70711L11.4142 9.99998L14.7071 13.2929C15.0976 13.6834 15.0976 14.3166 14.7071 14.7071C14.3166 15.0976 13.6834 15.0976 13.2929 14.7071L10 11.4142L6.70711 14.7071C6.31658 15.0976 5.68342 15.0976 5.29289 14.7071C4.90237 14.3166 4.90237 13.6834 5.29289 13.2929L8.58582 9.99997L5.29299 6.7071C4.90247 6.31658 4.90247 5.68341 5.293 5.29289Z" fill="#DF3324" stroke="#DF3324" stroke-width="0.5" stroke-linecap="round" stroke-linejoin="round"/>
</svg>
