<svg width="347" height="32" viewBox="0 0 347 32" fill="none" xmlns="http://www.w3.org/2000/svg">
<path d="M137.659 7.006H147.361V8.707H139.591V13.411H146.941V15.133H139.591V20.299H147.76L147.445 22H137.659V7.006ZM152.916 16.288L149.283 11.143H151.425L154.008 14.986L156.696 11.143H158.649L155.079 16.267L159.027 22H156.906L153.924 17.611L150.921 22H148.905L152.916 16.288ZM161.683 12.592H160.003V11.143H161.683V8.182H163.51V11.143H166.387V12.592H163.51V18.955C163.51 19.487 163.629 19.914 163.867 20.236C164.105 20.558 164.469 20.719 164.959 20.719C165.267 20.719 165.533 20.698 165.757 20.656C165.995 20.614 166.212 20.558 166.408 20.488L166.723 21.895C166.443 21.993 166.135 22.07 165.799 22.126C165.477 22.196 165.092 22.231 164.644 22.231C164.028 22.231 163.531 22.14 163.153 21.958C162.775 21.776 162.474 21.517 162.25 21.181C162.026 20.845 161.872 20.446 161.788 19.984C161.718 19.522 161.683 19.018 161.683 18.472V12.592ZM177.412 18.955C177.23 20.005 176.761 20.831 176.005 21.433C175.263 22.035 174.192 22.336 172.792 22.336C171.14 22.336 169.873 21.839 168.991 20.845C168.109 19.837 167.668 18.437 167.668 16.645C167.668 15.707 167.794 14.874 168.046 14.146C168.298 13.418 168.648 12.809 169.096 12.319C169.558 11.829 170.104 11.458 170.734 11.206C171.364 10.94 172.05 10.807 172.792 10.807C173.632 10.807 174.353 10.94 174.955 11.206C175.557 11.472 176.047 11.843 176.425 12.319C176.817 12.781 177.104 13.334 177.286 13.978C177.482 14.622 177.58 15.329 177.58 16.099V17.023H169.516C169.516 17.569 169.586 18.08 169.726 18.556C169.88 19.018 170.09 19.424 170.356 19.774C170.636 20.11 170.979 20.376 171.385 20.572C171.791 20.768 172.26 20.866 172.792 20.866C173.702 20.866 174.367 20.698 174.787 20.362C175.207 20.012 175.494 19.543 175.648 18.955H177.412ZM175.753 15.658C175.753 15.14 175.697 14.671 175.585 14.251C175.473 13.831 175.298 13.474 175.06 13.18C174.822 12.872 174.514 12.634 174.136 12.466C173.758 12.298 173.303 12.214 172.771 12.214C171.805 12.214 171.049 12.508 170.503 13.096C169.971 13.684 169.656 14.538 169.558 15.658H175.753ZM180.002 11.143H181.808V12.802C182.34 12.088 182.928 11.577 183.572 11.269C184.216 10.961 184.895 10.807 185.609 10.807C186.841 10.807 187.751 11.143 188.339 11.815C188.941 12.487 189.242 13.474 189.242 14.776V22H187.415V15.133C187.415 14.125 187.233 13.418 186.869 13.012C186.505 12.592 185.945 12.382 185.189 12.382C184.783 12.382 184.377 12.452 183.971 12.592C183.579 12.732 183.222 12.956 182.9 13.264C182.55 13.572 182.284 13.901 182.102 14.251C181.92 14.587 181.829 15.028 181.829 15.574V22H180.002V11.143ZM199.874 20.446C199.426 21.048 198.908 21.517 198.32 21.853C197.732 22.175 197.039 22.336 196.241 22.336C195.443 22.336 194.75 22.189 194.162 21.895C193.588 21.601 193.112 21.202 192.734 20.698C192.356 20.18 192.076 19.571 191.894 18.871C191.712 18.171 191.621 17.422 191.621 16.624C191.621 15.728 191.733 14.923 191.957 14.209C192.181 13.481 192.496 12.865 192.902 12.361C193.322 11.857 193.826 11.472 194.414 11.206C195.016 10.94 195.695 10.807 196.451 10.807C197.025 10.807 197.606 10.926 198.194 11.164C198.782 11.388 199.328 11.822 199.832 12.466V7.006H201.659V22H199.874V20.446ZM199.895 16.246C199.895 15.378 199.797 14.706 199.601 14.23C199.419 13.74 199.111 13.327 198.677 12.991C198.369 12.739 198.054 12.564 197.732 12.466C197.424 12.368 197.081 12.319 196.703 12.319C196.255 12.319 195.835 12.396 195.443 12.55C195.065 12.704 194.729 12.956 194.435 13.306C194.155 13.642 193.931 14.083 193.763 14.629C193.609 15.161 193.532 15.812 193.532 16.582C193.532 17.38 193.616 18.052 193.784 18.598C193.966 19.144 194.197 19.578 194.477 19.9C194.771 20.222 195.093 20.453 195.443 20.593C195.807 20.733 196.178 20.803 196.556 20.803C196.962 20.803 197.326 20.754 197.648 20.656C197.97 20.558 198.292 20.39 198.614 20.152C199.034 19.816 199.349 19.396 199.559 18.892C199.783 18.388 199.895 17.751 199.895 16.981V16.246ZM213.875 18.955C213.693 20.005 213.224 20.831 212.468 21.433C211.726 22.035 210.655 22.336 209.255 22.336C207.603 22.336 206.336 21.839 205.454 20.845C204.572 19.837 204.131 18.437 204.131 16.645C204.131 15.707 204.257 14.874 204.509 14.146C204.761 13.418 205.111 12.809 205.559 12.319C206.021 11.829 206.567 11.458 207.197 11.206C207.827 10.94 208.513 10.807 209.255 10.807C210.095 10.807 210.816 10.94 211.418 11.206C212.02 11.472 212.51 11.843 212.888 12.319C213.28 12.781 213.567 13.334 213.749 13.978C213.945 14.622 214.043 15.329 214.043 16.099V17.023H205.979C205.979 17.569 206.049 18.08 206.189 18.556C206.343 19.018 206.553 19.424 206.819 19.774C207.099 20.11 207.442 20.376 207.848 20.572C208.254 20.768 208.723 20.866 209.255 20.866C210.165 20.866 210.83 20.698 211.25 20.362C211.67 20.012 211.957 19.543 212.111 18.955H213.875ZM212.216 15.658C212.216 15.14 212.16 14.671 212.048 14.251C211.936 13.831 211.761 13.474 211.523 13.18C211.285 12.872 210.977 12.634 210.599 12.466C210.221 12.298 209.766 12.214 209.234 12.214C208.268 12.214 207.512 12.508 206.966 13.096C206.434 13.684 206.119 14.538 206.021 15.658H212.216ZM224.361 20.446C223.913 21.048 223.395 21.517 222.807 21.853C222.219 22.175 221.526 22.336 220.728 22.336C219.93 22.336 219.237 22.189 218.649 21.895C218.075 21.601 217.599 21.202 217.221 20.698C216.843 20.18 216.563 19.571 216.381 18.871C216.199 18.171 216.108 17.422 216.108 16.624C216.108 15.728 216.22 14.923 216.444 14.209C216.668 13.481 216.983 12.865 217.389 12.361C217.809 11.857 218.313 11.472 218.901 11.206C219.503 10.94 220.182 10.807 220.938 10.807C221.512 10.807 222.093 10.926 222.681 11.164C223.269 11.388 223.815 11.822 224.319 12.466V7.006H226.146V22H224.361V20.446ZM224.382 16.246C224.382 15.378 224.284 14.706 224.088 14.23C223.906 13.74 223.598 13.327 223.164 12.991C222.856 12.739 222.541 12.564 222.219 12.466C221.911 12.368 221.568 12.319 221.19 12.319C220.742 12.319 220.322 12.396 219.93 12.55C219.552 12.704 219.216 12.956 218.922 13.306C218.642 13.642 218.418 14.083 218.25 14.629C218.096 15.161 218.019 15.812 218.019 16.582C218.019 17.38 218.103 18.052 218.271 18.598C218.453 19.144 218.684 19.578 218.964 19.9C219.258 20.222 219.58 20.453 219.93 20.593C220.294 20.733 220.665 20.803 221.043 20.803C221.449 20.803 221.813 20.754 222.135 20.656C222.457 20.558 222.779 20.39 223.101 20.152C223.521 19.816 223.836 19.396 224.046 18.892C224.27 18.388 224.382 17.751 224.382 16.981V16.246ZM233.902 7.006H243.604V8.707H235.834V13.411H243.184V15.133H235.834V20.299H244.003L243.688 22H233.902V7.006ZM258.656 17.065C258.572 17.821 258.383 18.528 258.089 19.186C257.795 19.83 257.396 20.39 256.892 20.866C256.388 21.342 255.772 21.713 255.044 21.979C254.33 22.245 253.497 22.378 252.545 22.378C251.509 22.378 250.578 22.203 249.752 21.853C248.926 21.503 248.226 20.992 247.652 20.32C247.078 19.648 246.63 18.829 246.308 17.863C246 16.883 245.846 15.77 245.846 14.524C245.846 13.264 246.014 12.144 246.35 11.164C246.686 10.184 247.155 9.358 247.757 8.686C248.359 8.014 249.066 7.503 249.878 7.153C250.704 6.803 251.593 6.628 252.545 6.628C253.469 6.628 254.267 6.747 254.939 6.985C255.611 7.223 256.178 7.559 256.64 7.993C257.116 8.427 257.494 8.945 257.774 9.547C258.068 10.149 258.292 10.814 258.446 11.542L256.556 11.857C256.43 11.311 256.262 10.821 256.052 10.387C255.856 9.939 255.597 9.561 255.275 9.253C254.967 8.945 254.589 8.714 254.141 8.56C253.707 8.392 253.175 8.308 252.545 8.308C251.803 8.308 251.138 8.462 250.55 8.77C249.976 9.064 249.486 9.484 249.08 10.03C248.688 10.562 248.387 11.213 248.177 11.983C247.967 12.739 247.862 13.579 247.862 14.503C247.862 15.427 247.967 16.274 248.177 17.044C248.387 17.8 248.688 18.451 249.08 18.997C249.486 19.543 249.976 19.963 250.55 20.257C251.138 20.551 251.81 20.698 252.566 20.698C253.252 20.698 253.833 20.614 254.309 20.446C254.799 20.264 255.198 20.012 255.506 19.69C255.828 19.368 256.08 18.983 256.262 18.535C256.444 18.087 256.577 17.597 256.661 17.065H258.656ZM261.28 7.006H263.674L268.504 19.69L273.418 7.006H275.728V22H273.943V10.177L269.239 22H267.664L263.044 10.219V22H261.28V7.006Z" fill="black"/>
<path d="M129 2.89999H128V25.9H129V2.89999Z" fill="black"/>
<path d="M17.1 14.5C17.1 18.3 14.9 22.4 9.09997 22.4C4.89997 22.4 1.09997 20.1 1.09997 14.5C0.999974 9.9 3.89997 6.4 9.59997 6.7C15.7 7 17.1 11.7 17.1 14.5ZM6.19997 11.6C5.69997 12.4 5.49997 13.4 5.49997 14.4C5.49997 16.7 6.59997 18.8 9.09997 18.8C11.5 18.8 12.7 16.9 12.7 14.6C12.7 13 12.3 11.7 11.5 10.9C10.6 10.1 9.59997 10 8.89997 10.1C7.49997 10.2 6.79997 10.7 6.19997 11.6Z" fill="black"/>
<path d="M56.1 8.80001C56.5 8.30001 56.8 8.00001 57.6 7.60001C58.3 7.30001 59.3 7.10001 60.3 7.10001C61.2 7.10001 62.2 7.20001 63 7.70001C64.6 8.50001 65 9.90001 65 12.2V22.4H60.6V14C60.6 12.7 60.6 12.2 60.4 11.8C60.1 11 59.3 10.7 58.4 10.7C56.1 10.7 56.1 12.6 56.1 14.4V22.5H51.7V7.40001H56.1V8.80001Z" fill="black"/>
<path d="M49.6 18.2008C49.2 19.1008 47.9 22.4008 42.2 22.4008C37.8 22.4008 34.6 19.7008 34.6 14.8008C34.6 11.2008 36.4 6.70077 42.3 6.70077C43.2 6.70077 45.8 6.60077 47.7 8.70077C49.6 10.8008 49.8 13.7008 49.8 15.4008H39.1C39.1 17.3008 40.1 19.1008 42.5 19.1008C44.9 19.1008 45.7 17.5008 46.3 16.5008L49.6 18.2008ZM45.2 12.7008C45.1 12.1008 45 11.2008 44.4 10.6008C43.9 10.0008 43 9.70077 42.3 9.70077C41.2 9.70077 40.5 10.2008 40.1 10.7008C39.5 11.4008 39.4 12.0008 39.2 12.7008H45.2Z" fill="black"/>
<path d="M110.9 10.4H113.8V7.3H111V4.2H106.6V7.3H105.9L103.9 10.4H106.6V17.5C106.6 18.9 106.6 20 107.2 20.9C108.1 22.3 109.8 22.4 111.3 22.4C112.1 22.4 112.7 22.3 113.6 22.2V18.8L112 18.9C110.8 18.9 110.8 18.1 110.9 17.2V10.4Z" fill="black"/>
<path d="M67.2 4.39999H71.6V7.49999H76.2L74.2 10.6H71.6V17.2C71.6 18.1 71.6 18.9 72.7 18.9L74.3 18.8V22.2C73.4 22.3 72.8 22.4 72 22.4C70.5 22.4 68.8 22.3 67.9 20.9C67.3 20 67.3 19 67.3 17.5V4.39999H67.2Z" fill="black"/>
<path d="M117.9 10.1H117.4V7.5H116.4V7H118.9V7.5H117.9V10.1ZM122.2 10.1H121.7V8.2V7.6L121.6 8.1L121 10.1H120.5L119.9 8.1L119.7 7.6V8.2V10.1H119.2V7H119.9L120.7 9.4L121.5 7H122.2V10.1Z" fill="black"/>
<path d="M89.9 18.2008L89.1 19.5008C88.3 20.7008 86.8 22.4008 82.6 22.4008C78.2 22.4008 75.2 19.7008 75.2 14.8008C75.2 11.2008 77 6.70075 82.9 6.70075C83.8 6.70075 86.4 6.60075 88.3 8.70075C90.2 10.8008 90.4 13.7008 90.4 15.4008H79.7C79.7 17.3008 80.6 19.1008 83 19.1008C85.4 19.1008 86.1 17.5008 86.6 16.5008L89.9 18.2008ZM85.8 12.7008C85.7 12.1008 85.6 11.2008 85 10.6008C84.5 10.1008 83.6 9.80075 82.9 9.80075C81.8 9.80075 81.1 10.3008 80.7 10.8008C80.1 11.5008 80 12.1008 79.8 12.8008H85.8V12.7008Z" fill="black"/>
<path d="M104.9 22.4L99.5 14.5L104 7.39999H99L96.9 10.8L94.5 7.39999H89.5L94.4 14.5L89.4 22.4H94.4L97 18.2L99.9 22.4H104.9Z" fill="black"/>
<path d="M23.1 8.40001C23.5 7.80001 24.9 6.70001 27 6.70001C30.7 6.70001 33.2 9.50001 33.2 14.5C33.2 17.6 32.1 22.4 26.8 22.4C24.9 22.4 23.4 21.3 23 20.7V26.9H18.6V7.00001H23V8.40001H23.1ZM26.1 10.1C25.3 10.1 24.5 10.4 23.8 11.2C23.2 12 22.9 13.2 22.9 14.5C22.9 16.3 23.4 17.3 24 17.9C24.5 18.5 25.3 18.8 26 18.8C28.1 18.8 29.1 16.5 29.1 14.4C29.1 12.6 28.6 10.6 26.8 10.2C26.5 10.1 26.3 10.1 26.1 10.1Z" fill="black"/>
<path d="M301.96 18.475C301.9 19.015 301.765 19.52 301.555 19.99C301.345 20.45 301.06 20.85 300.7 21.19C300.34 21.53 299.9 21.795 299.38 21.985C298.87 22.175 298.275 22.27 297.595 22.27C296.855 22.27 296.19 22.145 295.6 21.895C295.01 21.645 294.51 21.28 294.1 20.8C293.69 20.32 293.37 19.735 293.14 19.045C292.92 18.345 292.81 17.55 292.81 16.66C292.81 15.76 292.93 14.96 293.17 14.26C293.41 13.56 293.745 12.97 294.175 12.49C294.605 12.01 295.11 11.645 295.69 11.395C296.28 11.145 296.915 11.02 297.595 11.02C298.255 11.02 298.825 11.105 299.305 11.275C299.785 11.445 300.19 11.685 300.52 11.995C300.86 12.305 301.13 12.675 301.33 13.105C301.54 13.535 301.7 14.01 301.81 14.53L300.46 14.755C300.37 14.365 300.25 14.015 300.1 13.705C299.96 13.385 299.775 13.115 299.545 12.895C299.325 12.675 299.055 12.51 298.735 12.4C298.425 12.28 298.045 12.22 297.595 12.22C297.065 12.22 296.59 12.33 296.17 12.55C295.76 12.76 295.41 13.06 295.12 13.45C294.84 13.83 294.625 14.295 294.475 14.845C294.325 15.385 294.25 15.985 294.25 16.645C294.25 17.305 294.325 17.91 294.475 18.46C294.625 19 294.84 19.465 295.12 19.855C295.41 20.245 295.76 20.545 296.17 20.755C296.59 20.965 297.07 21.07 297.61 21.07C298.1 21.07 298.515 21.01 298.855 20.89C299.205 20.76 299.49 20.58 299.71 20.35C299.94 20.12 300.12 19.845 300.25 19.525C300.38 19.205 300.475 18.855 300.535 18.475H301.96ZM303.834 11.29H310.764V12.505H305.214V15.865H310.464V17.095H305.214V20.785H311.049L310.824 22H303.834V11.29ZM315.871 20.92C316.251 20.58 316.661 20.22 317.101 19.84C317.541 19.46 317.986 19.07 318.436 18.67C318.916 18.25 319.336 17.87 319.696 17.53C320.056 17.18 320.356 16.845 320.596 16.525C320.836 16.205 321.016 15.88 321.136 15.55C321.256 15.22 321.316 14.865 321.316 14.485C321.316 13.855 321.146 13.375 320.806 13.045C320.466 12.705 319.991 12.535 319.381 12.535C319.011 12.535 318.696 12.575 318.436 12.655C318.176 12.735 317.956 12.855 317.776 13.015C317.596 13.165 317.446 13.355 317.326 13.585C317.216 13.815 317.116 14.085 317.026 14.395L315.781 14.2C315.871 13.84 315.996 13.49 316.156 13.15C316.316 12.81 316.536 12.51 316.816 12.25C317.096 11.98 317.446 11.765 317.866 11.605C318.286 11.435 318.801 11.35 319.411 11.35C319.941 11.35 320.411 11.425 320.821 11.575C321.231 11.725 321.571 11.935 321.841 12.205C322.121 12.465 322.331 12.78 322.471 13.15C322.621 13.52 322.696 13.93 322.696 14.38C322.696 14.83 322.631 15.25 322.501 15.64C322.381 16.03 322.191 16.415 321.931 16.795C321.671 17.175 321.341 17.565 320.941 17.965C320.541 18.365 320.066 18.8 319.516 19.27C319.226 19.52 318.926 19.775 318.616 20.035C318.316 20.285 318.021 20.54 317.731 20.8H322.801L322.606 22H315.871V20.92ZM324.747 20.92C325.127 20.58 325.537 20.22 325.977 19.84C326.417 19.46 326.862 19.07 327.312 18.67C327.792 18.25 328.212 17.87 328.572 17.53C328.932 17.18 329.232 16.845 329.472 16.525C329.712 16.205 329.892 15.88 330.012 15.55C330.132 15.22 330.192 14.865 330.192 14.485C330.192 13.855 330.022 13.375 329.682 13.045C329.342 12.705 328.867 12.535 328.257 12.535C327.887 12.535 327.572 12.575 327.312 12.655C327.052 12.735 326.832 12.855 326.652 13.015C326.472 13.165 326.322 13.355 326.202 13.585C326.092 13.815 325.992 14.085 325.902 14.395L324.657 14.2C324.747 13.84 324.872 13.49 325.032 13.15C325.192 12.81 325.412 12.51 325.692 12.25C325.972 11.98 326.322 11.765 326.742 11.605C327.162 11.435 327.677 11.35 328.287 11.35C328.817 11.35 329.287 11.425 329.697 11.575C330.107 11.725 330.447 11.935 330.717 12.205C330.997 12.465 331.207 12.78 331.347 13.15C331.497 13.52 331.572 13.93 331.572 14.38C331.572 14.83 331.507 15.25 331.377 15.64C331.257 16.03 331.067 16.415 330.807 16.795C330.547 17.175 330.217 17.565 329.817 17.965C329.417 18.365 328.942 18.8 328.392 19.27C328.102 19.52 327.802 19.775 327.492 20.035C327.192 20.285 326.897 20.54 326.607 20.8H331.677L331.482 22H324.747V20.92ZM333.579 20.245H335.079V22H333.579V20.245ZM336.979 20.92C337.359 20.58 337.769 20.22 338.209 19.84C338.649 19.46 339.094 19.07 339.544 18.67C340.024 18.25 340.444 17.87 340.804 17.53C341.164 17.18 341.464 16.845 341.704 16.525C341.944 16.205 342.124 15.88 342.244 15.55C342.364 15.22 342.424 14.865 342.424 14.485C342.424 13.855 342.254 13.375 341.914 13.045C341.574 12.705 341.099 12.535 340.489 12.535C340.119 12.535 339.804 12.575 339.544 12.655C339.284 12.735 339.064 12.855 338.884 13.015C338.704 13.165 338.554 13.355 338.434 13.585C338.324 13.815 338.224 14.085 338.134 14.395L336.889 14.2C336.979 13.84 337.104 13.49 337.264 13.15C337.424 12.81 337.644 12.51 337.924 12.25C338.204 11.98 338.554 11.765 338.974 11.605C339.394 11.435 339.909 11.35 340.519 11.35C341.049 11.35 341.519 11.425 341.929 11.575C342.339 11.725 342.679 11.935 342.949 12.205C343.229 12.465 343.439 12.78 343.579 13.15C343.729 13.52 343.804 13.93 343.804 14.38C343.804 14.83 343.739 15.25 343.609 15.64C343.489 16.03 343.299 16.415 343.039 16.795C342.779 17.175 342.449 17.565 342.049 17.965C341.649 18.365 341.174 18.8 340.624 19.27C340.334 19.52 340.034 19.775 339.724 20.035C339.424 20.285 339.129 20.54 338.839 20.8H343.909L343.714 22H336.979V20.92Z" fill="black"/>
</svg>
