<svg viewBox="0 0 42 42" fill="none" xmlns="http://www.w3.org/2000/svg">
<path d="M21.0001 12.1C16.0001 12.1 12.0001 16.1 12.0001 21.1C12.0001 26.1 16.0001 30.1 21.0001 30.1C26.0001 30.1 30.0001 26.1 30.0001 21.1C30.0001 16.1 25.9001 12.1 21.0001 12.1ZM25.0001 22.1H22.0001V25.1H20.0001V22.1H17.0001V20.1H20.0001V17.1H22.0001V20.1H25.0001V22.1Z" fill="white"/>
<path d="M21 2C31.5 2 40 10.5 40 21C40 31.5 31.5 40 21 40C10.5 40 2 31.5 2 21C2 10.5 10.5 2 21 2ZM21 0C9.4 0 0 9.4 0 21C0 32.6 9.4 42 21 42C32.6 42 42 32.6 42 21C42 9.4 32.6 0 21 0Z" fill="#999999"/>
</svg>
