<?xml version="1.0" encoding="utf-8"?>
<!-- Generator: Adobe Illustrator 24.3.0, SVG Export Plug-In . SVG Version: 6.00 Build 0)  -->
<svg version="1.1" id="Layer_1" xmlns="http://www.w3.org/2000/svg" xmlns:xlink="http://www.w3.org/1999/xlink" x="0px" y="0px"
	 viewBox="0 0 16 16" style="enable-background:new 0 0 16 16;" xml:space="preserve">
<style type="text/css">
	.st0{fill:#98A8B2;}
	.st1{fill:#758B98;}
	.st2{fill:#FFFFFF;}
</style>
<path id="colorFirst" class="st0" d="M13.5,6H10v2.5C10,9.328,9.328,10,8.5,10H6v3.5C6,14.328,6.672,15,7.5,15h6
	c0.828,0,1.5-0.672,1.5-1.5v-6C15,6.672,14.328,6,13.5,6z"/>
<path id="colorThird" class="st1" d="M6,7.5V10H2.5C1.672,10,1,9.328,1,8.5v-6C1,1.672,1.672,1,2.5,1h6C9.328,1,10,1.672,10,2.5V6
	H7.5C6.672,6,6,6.672,6,7.5z M10,8.5V6H7.5C6.672,6,6,6.672,6,7.5V10h2.5C9.328,10,10,9.328,10,8.5z"/>
<path id="colorSecond" class="st2" d="M13.5,5H11V2.5C11,1.122,9.878,0,8.5,0h-6C1.122,0,0,1.122,0,2.5v6C0,9.878,1.122,11,2.5,11H5
	v2.5C5,14.878,6.122,16,7.5,16h6c1.378,0,2.5-1.122,2.5-2.5v-6C16,6.122,14.878,5,13.5,5z M2.5,10C1.672,10,1,9.328,1,8.5v-6
	C1,1.672,1.672,1,2.5,1h6C9.328,1,10,1.672,10,2.5V5H7.5C6.122,5,5,6.122,5,7.5V10H2.5z M10,6v2.5C10,9.328,9.328,10,8.5,10H6V7.5
	C6,6.672,6.672,6,7.5,6H10z M15,13.5c0,0.828-0.672,1.5-1.5,1.5h-6C6.672,15,6,14.328,6,13.5V11h2.5C9.878,11,11,9.878,11,8.5V6h2.5
	C14.328,6,15,6.672,15,7.5V13.5z"/>
</svg>
