<svg width="32" height="32" viewBox="0 0 32 32" fill="none" xmlns="http://www.w3.org/2000/svg">
<circle cx="16" cy="16" r="14" fill="#F3FBFF"/>
<path d="M24.5629 17.4371C25.3566 17.4371 26 16.7937 26 16V16C26 15.2063 25.3566 14.5629 24.5629 14.5629H23.0272C22.8346 13.6538 22.4715 12.8088 21.9705 12.0625L23.0708 10.9622C23.632 10.401 23.6321 9.49121 23.071 8.92992V8.92992C22.5098 8.36844 21.5997 8.36833 21.0383 8.92968L19.9232 10.0448C19.1778 9.55815 18.3395 9.20272 17.4371 9.01878V7.43706C17.4371 6.64339 16.7937 6 16 6V6C15.2063 6 14.5629 6.64339 14.5629 7.43706V9.01878C13.6605 9.20176 12.8222 9.5572 12.0768 10.0448L10.9613 8.92932C10.4001 8.36813 9.49027 8.36813 8.92909 8.92932V8.92932C8.36799 9.49041 8.36789 10.4001 8.92886 10.9613L10.0295 12.0625C9.52941 12.8088 9.16632 13.6538 8.97279 14.5629H7.43706C6.64339 14.5629 6 15.2063 6 16V16C6 16.7937 6.64339 17.4371 7.43706 17.4371H8.9498C9.12991 18.3616 9.48726 19.2219 9.98448 19.9835L8.9292 21.0388C8.36808 21.5999 8.36808 22.5097 8.9292 23.0708V23.0708C9.49032 23.6319 10.4001 23.6319 10.9612 23.0708L12.0021 22.0299C12.7647 22.5415 13.6308 22.9113 14.5629 23.101V24.5629C14.5629 25.3566 15.2063 26 16 26V26C16.7937 26 17.4371 25.3566 17.4371 24.5629V23.101C18.3692 22.9113 19.2353 22.5415 19.9979 22.0299L21.0388 23.0708C21.5999 23.6319 22.5097 23.6319 23.0708 23.0708V23.0708C23.6319 22.5097 23.6319 21.5999 23.0708 21.0388L22.0155 19.9835C22.5127 19.2219 22.871 18.3625 23.0502 17.4371H24.5629ZM16 20.3706C13.6231 20.3706 11.6888 18.4363 11.6888 16.0594C11.6888 13.6825 13.6231 11.7482 16 11.7482C18.3769 11.7482 20.3112 13.6825 20.3112 16.0594C20.3112 18.4363 18.3769 20.3706 16 20.3706Z" fill="#627783"/>
</svg>
