<?xml version="1.0" encoding="utf-8"?>
<!-- Generator: Adobe Illustrator 24.3.0, SVG Export Plug-In . SVG Version: 6.00 Build 0)  -->
<svg version="1.1" id="Layer_1" xmlns="http://www.w3.org/2000/svg" xmlns:xlink="http://www.w3.org/1999/xlink" x="0px" y="0px"
	 viewBox="0 0 16 16" style="enable-background:new 0 0 16 16;" xml:space="preserve">
<style type="text/css">
	.st0{opacity:0.9;fill:#758B98;enable-background:new    ;}
	.st1{opacity:0.9;fill:#FFFFFF;enable-background:new    ;}
</style>
<path id="colorThird" class="st0" d="M4.5,15C2.57,15,1,13.429,1,11.5S2.57,8,4.5,8S8,9.571,8,11.5S6.43,15,4.5,15z"/>
<path id="colorSecond" class="st1" d="M4.5,8C6.429,8,8,9.571,8,11.5S6.429,15,4.5,15S1,13.429,1,11.5S2.571,8,4.5,8 M4.5,7
	C2.019,7,0,9.019,0,11.5S2.019,16,4.5,16S9,13.981,9,11.5S6.981,7,4.5,7L4.5,7z M6.603,10.75L5.426,9.573
	c-0.097-0.097-0.256-0.097-0.353,0s-0.097,0.256,0,0.354L5.647,10.5H5.25C3.82,10.5,3,11.321,3,12.75C3,12.888,3.112,13,3.25,13
	s0.25-0.112,0.25-0.25C3.5,11.951,3.803,11,5.25,11h0.397l-0.573,0.573c-0.097,0.097-0.097,0.256,0,0.354
	C5.122,11.976,5.186,12,5.25,12s0.128-0.024,0.177-0.073L6.603,10.75z"/>
</svg>
