<?xml version="1.0" encoding="utf-8"?>
<!-- Generator: Adobe Illustrator 24.3.0, SVG Export Plug-In . SVG Version: 6.00 Build 0)  -->
<svg version="1.1" id="Layer_1" xmlns="http://www.w3.org/2000/svg" xmlns:xlink="http://www.w3.org/1999/xlink" x="0px" y="0px"
	 viewBox="0 0 16 16" style="enable-background:new 0 0 16 16;" xml:space="preserve">
<style type="text/css">
	.st0{fill:#758B98;}
	.st1{fill:#98A8B2;}
	.st2{fill:#FFFFFF;}
</style>
<path id="colorThird" class="st0" d="M14,11H8c-0.552,0-1-0.448-1-1V2c0-0.552,0.448-1,1-1h5l2,2v7C15,10.552,14.552,11,14,11z"/>
<path id="colorFirst" class="st1" d="M11.332,7.737H6.831c-0.165,0-0.291-0.086-0.416-0.181l-1.61-1.36
	C4.679,6.093,4.522,6.038,4.357,6.038H1.655c-0.361,0-0.66,0.299-0.66,0.66v7.727C0.995,14.741,1.254,15,1.568,15h9.858
	C11.741,15,12,14.741,12,14.426V8.397C11.992,8.027,11.694,7.737,11.332,7.737z"/>
<path id="colorSecond" class="st2" d="M15.71,2.29l-2-2L13.41,0H8C6.9,0,6,0.9,6,2v3.9L5.45,5.43c-0.32-0.26-0.7-0.39-1.09-0.39
	H1.65c-0.91,0-1.66,0.74-1.66,1.66v7.73c0,0.86,0.71,1.57,1.58,1.57h9.86c0.86,0,1.57-0.71,1.57-1.57V12h1c1.1,0,2-0.9,2-2V2.59
	L15.71,2.29z M12,14.43c0,0.31-0.26,0.57-0.57,0.57H1.57c-0.32,0-0.58-0.26-0.58-0.57V6.7c0-0.36,0.3-0.66,0.66-0.66h2.71
	c0.16,0,0.32,0.05,0.44,0.16L6,7.21l0.42,0.35c0.12,0.09,0.25,0.18,0.41,0.18h4.5c0.36,0,0.66,0.29,0.67,0.66V14.43z M15,10
	c0,0.55-0.45,1-1,1h-1V8.4c-0.02-0.93-0.77-1.66-1.67-1.66H7V2c0-0.55,0.45-1,1-1h5l2,2V10z"/>
</svg>
