<?xml version="1.0" encoding="utf-8"?>
<!-- Generator: Adobe Illustrator 24.3.0, SVG Export Plug-In . SVG Version: 6.00 Build 0)  -->
<svg version="1.1" id="Layer_1" xmlns="http://www.w3.org/2000/svg" xmlns:xlink="http://www.w3.org/1999/xlink" x="0px" y="0px"
	 viewBox="0 0 16 16" style="enable-background:new 0 0 16 16;" xml:space="preserve">
<style type="text/css">
	.st0{fill:#98A8B2;}
	.st1{fill:#758B98;}
	.st2{fill:#FFFFFF;}
</style>
<path id="colorFirst" class="st0" d="M14,15H1V1h13c0.552,0,1,0.448,1,1v12C15,14.552,14.552,15,14,15z"/>
<path id="colorThird" class="st1" d="M1,1h2v14H1V1z"/>
<path id="colorSecond" class="st2" d="M14,1c0.552,0,1,0.448,1,1v12c0,0.552-0.448,1-1,1H1V1H14 M14,0H1H0v1v14v1h1h13
	c1.103,0,2-0.897,2-2V2C16,0.897,15.103,0,14,0L14,0z M11,12.5v-9C11,3.224,11.224,3,11.5,3h1C12.776,3,13,3.224,13,3.5v9
	c0,0.276-0.224,0.5-0.5,0.5h-1C11.224,13,11,12.776,11,12.5z M8.5,13h1c0.276,0,0.5-0.224,0.5-0.5v-7C10,5.224,9.776,5,9.5,5h-1
	C8.224,5,8,5.224,8,5.5v7C8,12.776,8.224,13,8.5,13z M7,12.5v-4C7,8.224,6.776,8,6.5,8h-1C5.224,8,5,8.224,5,8.5v4
	C5,12.776,5.224,13,5.5,13h1C6.776,13,7,12.776,7,12.5z"/>
</svg>
