<?xml version="1.0" encoding="utf-8"?>
<!-- Generator: Adobe Illustrator 24.3.0, SVG Export Plug-In . SVG Version: 6.00 Build 0)  -->
<svg version="1.1" id="Layer_1" xmlns="http://www.w3.org/2000/svg" xmlns:xlink="http://www.w3.org/1999/xlink" x="0px" y="0px"
	 viewBox="0 0 16 16" style="enable-background:new 0 0 16 16;" xml:space="preserve">
<style type="text/css">
	.st0{fill:#FFFFFF;}
	.st1{fill:#758B98;}
</style>
<path id="colorSecond" class="st0" d="M14.516,11.524c0,0.16-0.085,0.308-0.223,0.388l-1.753,1.018l-4.317,2.507
	c-0.138,0.08-0.308,0.08-0.446,0l-6.07-3.526c-0.138-0.08-0.223-0.228-0.223-0.388V4.473c0-0.16,0.085-0.308,0.223-0.388l6.07-3.526
	c0.138-0.08,0.308-0.08,0.446,0l6.07,3.526c0.138,0.08,0.223,0.228,0.223,0.388V11.524z"/>
<path id="colorThird" class="st1" d="M14.545,3.651l-6.07-3.525c-0.288-0.167-0.662-0.167-0.95,0L1.455,3.651
	C1.164,3.82,0.983,4.136,0.983,4.473v7.051c0,0.337,0.18,0.653,0.472,0.822l6.07,3.525C7.669,15.955,7.833,16,8,16
	c0.167,0,0.331-0.045,0.475-0.128l6.071-3.526c0.291-0.169,0.472-0.485,0.472-0.822V4.473C15.017,4.136,14.836,3.82,14.545,3.651z
	 M8,1.009l5.803,3.37L8.097,7.694c-0.06,0.034-0.133,0.035-0.193-0.001L2.197,4.379L8,1.009z M1.986,11.495V4.836l5.666,3.29
	c0.021,0.013,0.045,0.018,0.067,0.028v6.67L1.986,11.495z M8.22,14.861v-6.68c0.044-0.015,0.088-0.03,0.129-0.054l5.666-3.291v6.659
	L8.22,14.861z"/>
</svg>
