<?xml version="1.0" encoding="utf-8"?>
<!-- Generator: Adobe Illustrator 24.3.0, SVG Export Plug-In . SVG Version: 6.00 Build 0)  -->
<svg version="1.1" id="Layer_1" xmlns="http://www.w3.org/2000/svg" xmlns:xlink="http://www.w3.org/1999/xlink" x="0px" y="0px"
	 viewBox="0 0 16 16" style="enable-background:new 0 0 16 16;" xml:space="preserve">
<style type="text/css">
	.st0{fill:#98A8B2;}
	.st1{fill:#758B98;}
	.st2{fill:#FFFFFF;}
</style>
<path id="colorFirst" class="st0" d="M13,15H3c-1.105,0-2-0.895-2-2V3c0-1.105,0.895-2,2-2h10c1.105,0,2,0.895,2,2v10
	C15,14.105,14.105,15,13,15z"/>
<path id="colorThird" class="st1" d="M11,3h2v2h-2V3z M3,6h2v2H3V6z M8,8h5v5H8V8z"/>
<path id="colorSecond" class="st2" d="M13,1c1.103,0,2,0.897,2,2v10c0,1.103-0.897,2-2,2H3c-1.103,0-2-0.897-2-2V3
	c0-1.103,0.897-2,2-2H13 M13,0H3C1.346,0,0,1.346,0,3v10c0,1.654,1.346,3,3,3h10c1.654,0,3-1.346,3-3V3C16,1.346,14.654,0,13,0L13,0
	z M11.258,6h1.484C13.436,6,14,5.436,14,4.742V3.258C14,2.564,13.436,2,12.742,2h-1.484C10.564,2,10,2.564,10,3.258V3.5H4.5
	c-0.551,0-1,0.449-1,1V5H3.258C2.564,5,2,5.564,2,6.258v1.484C2,8.436,2.564,9,3.258,9H3.5v1c0,0.552,0.449,1,1,1H7v1.355
	C7,13.262,7.738,14,8.645,14h3.71C13.262,14,14,13.262,14,12.355v-3.71C14,7.738,13.262,7,12.355,7h-3.71C7.738,7,7,7.738,7,8.645
	V10H4.5V9h0.242C5.436,9,6,8.436,6,7.742V6.258C6,5.564,5.436,5,4.742,5H4.5V4.5H10v0.242C10,5.436,10.564,6,11.258,6z M11,3.258
	C11,3.116,11.116,3,11.258,3h1.484C12.884,3,13,3.116,13,3.258v1.484C13,4.884,12.884,5,12.742,5h-1.484C11.116,5,11,4.884,11,4.742
	V3.258z M8,8.645C8,8.289,8.289,8,8.645,8h3.71C12.711,8,13,8.289,13,8.645v3.71C13,12.711,12.711,13,12.355,13h-3.71
	C8.289,13,8,12.711,8,12.355V8.645z M4.742,6C4.884,6,5,6.116,5,6.258v1.484C5,7.884,4.884,8,4.742,8H4.5h-1H3.258
	C3.116,8,3,7.884,3,7.742V6.258C3,6.116,3.116,6,3.258,6H3.5h1H4.742z M10.5,11c-0.276,0-0.5,0.224-0.5,0.5s0.224,0.5,0.5,0.5
	s0.5-0.224,0.5-0.5S10.776,11,10.5,11z M11,10V9c0-0.276-0.224-0.5-0.5-0.5h0C10.224,8.5,10,8.724,10,9v1c0,0.276,0.224,0.5,0.5,0.5
	h0C10.776,10.5,11,10.276,11,10z"/>
</svg>
