<?xml version="1.0" encoding="utf-8"?>
<!-- Generator: Adobe Illustrator 24.3.0, SVG Export Plug-In . SVG Version: 6.00 Build 0)  -->
<svg version="1.1" id="Layer_1" xmlns="http://www.w3.org/2000/svg" xmlns:xlink="http://www.w3.org/1999/xlink" x="0px" y="0px"
	 viewBox="0 0 16 16" style="enable-background:new 0 0 16 16;" xml:space="preserve">
<style type="text/css">
	.st0{fill:#98A8B2;}
	.st1{fill:#FFFFFF;}
	.st2{fill:#758B98;}
</style>
<path id="colorFirst" class="st0" d="M12,15H4c-1.105,0-2-0.895-2-2V3c0-1.105,0.895-2,2-2h8c1.105,0,2,0.895,2,2v10
	C14,14.105,13.105,15,12,15z"/>
<path id="colorSecond" class="st1" d="M12,1c1.105,0,2,0.895,2,2v10c0,1.105-0.895,2-2,2H4c-1.105,0-2-0.895-2-2V3
	c0-1.105,0.895-2,2-2H12 M12,0H4C2.346,0,1,1.346,1,3v10c0,1.654,1.346,3,3,3h8c1.654,0,3-1.346,3-3V3C15,1.346,13.654,0,12,0L12,0z
	 M5.5,7h-1C4.225,7,4,6.775,4,6.5v0C4,6.225,4.225,6,4.5,6h1C5.775,6,6,6.225,6,6.5v0C6,6.775,5.775,7,5.5,7z M9,6.5L9,6.5
	C9,6.225,8.775,6,8.5,6h-1C7.225,6,7,6.225,7,6.5v0C7,6.775,7.225,7,7.5,7h1C8.775,7,9,6.775,9,6.5z M12,6.5L12,6.5
	C12,6.225,11.775,6,11.5,6h-1C10.225,6,10,6.225,10,6.5v0C10,6.775,10.225,7,10.5,7h1C11.775,7,12,6.775,12,6.5z M6,8.5L6,8.5
	C6,8.225,5.775,8,5.5,8h-1C4.225,8,4,8.225,4,8.5v0C4,8.775,4.225,9,4.5,9h1C5.775,9,6,8.775,6,8.5z M9,8.5L9,8.5
	C9,8.225,8.775,8,8.5,8h-1C7.225,8,7,8.225,7,8.5v0C7,8.775,7.225,9,7.5,9h1C8.775,9,9,8.775,9,8.5z M12,8.5L12,8.5
	C12,8.225,11.775,8,11.5,8h-1C10.225,8,10,8.225,10,8.5v0C10,8.775,10.225,9,10.5,9h1C11.775,9,12,8.775,12,8.5z M6,10.5L6,10.5
	C6,10.225,5.775,10,5.5,10h-1C4.225,10,4,10.225,4,10.5v0C4,10.775,4.225,11,4.5,11h1C5.775,11,6,10.775,6,10.5z M9,10.5L9,10.5
	C9,10.225,8.775,10,8.5,10h-1C7.225,10,7,10.225,7,10.5v0C7,10.775,7.225,11,7.5,11h1C8.775,11,9,10.775,9,10.5z M12,10.5L12,10.5
	c0-0.275-0.225-0.5-0.5-0.5h-1c-0.275,0-0.5,0.225-0.5,0.5v0c0,0.275,0.225,0.5,0.5,0.5h1C11.775,11,12,10.775,12,10.5z
	 M7.022,12.75L7.022,12.75c0-0.414-0.336-0.75-0.75-0.75H4.738c-0.414,0-0.75,0.336-0.75,0.75v0c0,0.414,0.336,0.75,0.75,0.75h1.534
	C6.686,13.5,7.022,13.164,7.022,12.75z"/>
<path id="colorThird" class="st2" d="M11,5H5C4.45,5,4,4.55,4,4v0c0-0.55,0.45-1,1-1h6c0.55,0,1,0.45,1,1v0C12,4.55,11.55,5,11,5
	z"/>
</svg>
