<svg width="24" height="24" viewBox="0 0 24 24" fill="none" xmlns="http://www.w3.org/2000/svg">
<path d="M19.2929 19.7071C19.6834 20.0976 20.3166 20.0976 20.7071 19.7071C21.0976 19.3166 21.0976 18.6834 20.7071 18.2929L19.2929 19.7071ZM20.7071 18.2929L16.5849 14.1707L15.1707 15.5849L19.2929 19.7071L20.7071 18.2929ZM11.6 6C14.1588 6 16.2 8.04117 16.2 10.6H18.2C18.2 6.93661 15.2634 4 11.6 4V6ZM16.2 10.6C16.2 13.1588 14.1588 15.2 11.6 15.2V17.2C15.2634 17.2 18.2 14.2634 18.2 10.6H16.2ZM11.6 15.2C9.04117 15.2 7 13.1588 7 10.6H5C5 14.2634 7.9366 17.2 11.6 17.2V15.2ZM7 10.6C7 8.04117 9.04117 6 11.6 6V4C7.9366 4 5 6.93661 5 10.6H7Z" fill="#627783"/>
</svg>
