<svg width="220" height="220" viewBox="0 0 220 220" fill="none" xmlns="http://www.w3.org/2000/svg">
<path opacity="0.7" d="M96.7778 78.1111C96.7778 76.8224 97.8224 75.7778 99.1111 75.7778H117.778V94.4444C117.778 95.7331 116.733 96.7778 115.444 96.7778H96.7778V78.1111Z" fill="#E1E8F6"/>
<mask id="path-2-outside-1" maskUnits="userSpaceOnUse" x="81" y="60" width="58" height="58" fill="black">
<rect fill="white" x="81" y="60" width="58" height="58"/>
<path fill-rule="evenodd" clip-rule="evenodd" d="M84.3333 62.1667H118.867C119.511 62.1667 120.033 62.689 120.033 63.3333V77.8H101.133C99.8446 77.8 98.8 78.8447 98.8 80.1334V99.0333H84.3333C83.689 99.0333 83.1667 98.511 83.1667 97.8667V63.3333C83.1667 62.689 83.689 62.1667 84.3333 62.1667ZM98.8 100.2H84.3333C83.0447 100.2 82 99.1553 82 97.8667V63.3333C82 62.0447 83.0447 61 84.3333 61H118.867C120.155 61 121.2 62.0447 121.2 63.3333V77.8H135.667C136.955 77.8 138 78.8447 138 80.1334V114.667C138 115.955 136.955 117 135.667 117H101.133C99.8447 117 98.8 115.955 98.8 114.667V100.2ZM121.2 78.9667H135.667C136.311 78.9667 136.833 79.489 136.833 80.1334V114.667C136.833 115.311 136.311 115.833 135.667 115.833H101.133C100.489 115.833 99.9666 115.311 99.9666 114.667V100.2H118.867C120.155 100.2 121.2 99.1553 121.2 97.8667V78.9667ZM120.033 78.9667V97.8667C120.033 98.511 119.511 99.0333 118.867 99.0333H99.9666V80.1334C99.9666 79.489 100.489 78.9667 101.133 78.9667H120.033Z"/>
</mask>
<path fill-rule="evenodd" clip-rule="evenodd" d="M84.3333 62.1667H118.867C119.511 62.1667 120.033 62.689 120.033 63.3333V77.8H101.133C99.8446 77.8 98.8 78.8447 98.8 80.1334V99.0333H84.3333C83.689 99.0333 83.1667 98.511 83.1667 97.8667V63.3333C83.1667 62.689 83.689 62.1667 84.3333 62.1667ZM98.8 100.2H84.3333C83.0447 100.2 82 99.1553 82 97.8667V63.3333C82 62.0447 83.0447 61 84.3333 61H118.867C120.155 61 121.2 62.0447 121.2 63.3333V77.8H135.667C136.955 77.8 138 78.8447 138 80.1334V114.667C138 115.955 136.955 117 135.667 117H101.133C99.8447 117 98.8 115.955 98.8 114.667V100.2ZM121.2 78.9667H135.667C136.311 78.9667 136.833 79.489 136.833 80.1334V114.667C136.833 115.311 136.311 115.833 135.667 115.833H101.133C100.489 115.833 99.9666 115.311 99.9666 114.667V100.2H118.867C120.155 100.2 121.2 99.1553 121.2 97.8667V78.9667ZM120.033 78.9667V97.8667C120.033 98.511 119.511 99.0333 118.867 99.0333H99.9666V80.1334C99.9666 79.489 100.489 78.9667 101.133 78.9667H120.033Z" fill="#666666"/>
<path d="M120.033 77.8V77.9945H120.228V77.8H120.033ZM98.8 99.0333V99.2278H98.9944V99.0333H98.8ZM98.8 100.2H98.9944V100.006H98.8V100.2ZM121.2 77.8H121.006V77.9945H121.2V77.8ZM121.2 78.9667V78.7722H121.006V78.9667H121.2ZM99.9666 100.2V100.006H99.7722V100.2H99.9666ZM120.033 78.9667H120.228V78.7722H120.033V78.9667ZM99.9666 99.0333H99.7722V99.2278H99.9666V99.0333ZM118.867 61.9722H84.3333V62.3611H118.867V61.9722ZM120.228 63.3333C120.228 62.5816 119.618 61.9722 118.867 61.9722V62.3611C119.404 62.3611 119.839 62.7964 119.839 63.3333H120.228ZM120.228 77.8V63.3333H119.839V77.8H120.228ZM120.033 77.6056H101.133V77.9945H120.033V77.6056ZM101.133 77.6056C99.7373 77.6056 98.6055 78.7373 98.6055 80.1334H98.9944C98.9944 78.9521 99.952 77.9945 101.133 77.9945V77.6056ZM98.6055 80.1334V99.0333H98.9944V80.1334H98.6055ZM84.3333 99.2278H98.8V98.8389H84.3333V99.2278ZM82.9722 97.8667C82.9722 98.6184 83.5816 99.2278 84.3333 99.2278V98.8389C83.7964 98.8389 83.3611 98.4036 83.3611 97.8667H82.9722ZM82.9722 63.3333V97.8667H83.3611V63.3333H82.9722ZM84.3333 61.9722C83.5816 61.9722 82.9722 62.5816 82.9722 63.3333H83.3611C83.3611 62.7964 83.7964 62.3611 84.3333 62.3611V61.9722ZM84.3333 100.394H98.8V100.006H84.3333V100.394ZM81.8056 97.8667C81.8056 99.2627 82.9373 100.394 84.3333 100.394V100.006C83.1521 100.006 82.1944 99.0479 82.1944 97.8667H81.8056ZM81.8056 63.3333V97.8667H82.1944V63.3333H81.8056ZM84.3333 60.8056C82.9373 60.8056 81.8056 61.9373 81.8056 63.3333H82.1944C82.1944 62.1521 83.1521 61.1944 84.3333 61.1944V60.8056ZM118.867 60.8056H84.3333V61.1944H118.867V60.8056ZM121.394 63.3333C121.394 61.9373 120.263 60.8056 118.867 60.8056V61.1944C120.048 61.1944 121.006 62.1521 121.006 63.3333H121.394ZM121.394 77.8V63.3333H121.006V77.8H121.394ZM135.667 77.6056H121.2V77.9945H135.667V77.6056ZM138.194 80.1334C138.194 78.7373 137.063 77.6056 135.667 77.6056V77.9945C136.848 77.9945 137.806 78.9521 137.806 80.1334H138.194ZM138.194 114.667V80.1334H137.806V114.667H138.194ZM135.667 117.194C137.063 117.194 138.194 116.063 138.194 114.667H137.806C137.806 115.848 136.848 116.806 135.667 116.806V117.194ZM101.133 117.194H135.667V116.806H101.133V117.194ZM98.6055 114.667C98.6055 116.063 99.7373 117.194 101.133 117.194V116.806C99.952 116.806 98.9944 115.848 98.9944 114.667H98.6055ZM98.6055 100.2V114.667H98.9944V100.2H98.6055ZM135.667 78.7722H121.2V79.1611H135.667V78.7722ZM137.028 80.1334C137.028 79.3816 136.418 78.7722 135.667 78.7722V79.1611C136.204 79.1611 136.639 79.5964 136.639 80.1334H137.028ZM137.028 114.667V80.1334H136.639V114.667H137.028ZM135.667 116.028C136.418 116.028 137.028 115.418 137.028 114.667H136.639C136.639 115.204 136.204 115.639 135.667 115.639V116.028ZM101.133 116.028H135.667V115.639H101.133V116.028ZM99.7722 114.667C99.7722 115.418 100.382 116.028 101.133 116.028V115.639C100.596 115.639 100.161 115.204 100.161 114.667H99.7722ZM99.7722 100.2V114.667H100.161V100.2H99.7722ZM99.9666 100.394H118.867V100.006H99.9666V100.394ZM118.867 100.394C120.263 100.394 121.394 99.2627 121.394 97.8667H121.006C121.006 99.0479 120.048 100.006 118.867 100.006V100.394ZM121.394 97.8667V78.9667H121.006V97.8667H121.394ZM120.228 97.8667V78.9667H119.839V97.8667H120.228ZM118.867 99.2278C119.618 99.2278 120.228 98.6184 120.228 97.8667H119.839C119.839 98.4036 119.404 98.8389 118.867 98.8389V99.2278ZM99.9666 99.2278H118.867V98.8389H99.9666V99.2278ZM99.7722 80.1334V99.0333H100.161V80.1334H99.7722ZM101.133 78.7722C100.382 78.7722 99.7722 79.3816 99.7722 80.1334H100.161C100.161 79.5964 100.596 79.1611 101.133 79.1611V78.7722ZM120.033 78.7722H101.133V79.1611H120.033V78.7722Z" fill="#666666" mask="url(#path-2-outside-1)"/>
<path opacity="0.3" d="M189.921 190.578C191.484 192.141 194.016 192.141 195.578 190.578C197.14 189.016 197.14 186.484 195.578 184.922L189.921 190.578ZM195.578 184.922L148.328 137.672L142.671 143.328L189.921 190.578L195.578 184.922ZM98.25 34.25C130.916 34.25 157.25 60.5841 157.25 93.25H165.25C165.25 56.1659 135.334 26.25 98.25 26.25V34.25ZM157.25 93.25C157.25 125.916 130.916 152.25 98.25 152.25V160.25C135.334 160.25 165.25 130.334 165.25 93.25H157.25ZM98.25 152.25C65.5841 152.25 39.25 125.916 39.25 93.25H31.25C31.25 130.334 61.1659 160.25 98.25 160.25V152.25ZM39.25 93.25C39.25 60.5841 65.5841 34.25 98.25 34.25V26.25C61.1659 26.25 31.25 56.1659 31.25 93.25H39.25Z" fill="#7B9AB0"/>
<path opacity="0.5" fill-rule="evenodd" clip-rule="evenodd" d="M80.9694 107.652C80.9694 107.972 81.2376 108.232 81.5682 108.232C81.8991 108.232 82.1671 107.972 82.1671 107.652V105.581C82.1671 105.26 81.8988 105 81.5682 105C81.2376 105 80.9694 105.26 80.9694 105.581V107.652ZM84.7239 117.141C84.7239 118.806 83.3112 120.156 81.5686 120.156C79.8259 120.156 78.4132 118.806 78.4132 117.141C78.4132 115.475 79.8259 114.125 81.5686 114.125C83.3112 114.125 84.7239 115.475 84.7239 117.141ZM86.2168 109.318C86.1216 109.318 86.0246 109.296 85.9348 109.25C85.6431 109.098 85.5332 108.746 85.6895 108.463L86.6995 106.634C86.8555 106.351 87.2184 106.245 87.51 106.396C87.8017 106.547 87.9116 106.899 87.7553 107.182L86.7453 109.012C86.6375 109.207 86.4306 109.318 86.2168 109.318ZM89.2755 112.097C89.3914 112.264 89.5803 112.354 89.7731 112.354C89.8881 112.354 90.004 112.322 90.1067 112.255L91.8945 111.089C92.1688 110.91 92.2416 110.549 92.0571 110.283C91.8724 110.016 91.5005 109.946 91.2259 110.125L89.4381 111.291C89.1638 111.47 89.091 111.831 89.2755 112.097ZM91.4544 116.636C91.1547 116.636 90.8957 116.418 90.8604 116.122C90.8223 115.803 91.0577 115.515 91.3862 115.478L93.5318 115.237C93.86 115.198 94.1576 115.428 94.1957 115.747C94.2337 116.066 93.9983 116.354 93.6699 116.391L91.5242 116.632C91.5008 116.635 91.4775 116.636 91.4544 116.636ZM92.6519 121.866C92.7216 121.891 92.7935 121.904 92.8642 121.904C93.1058 121.904 93.3334 121.76 93.4244 121.529C93.5418 121.229 93.3864 120.894 93.0771 120.78L91.0577 120.036C90.7487 119.922 90.4026 120.073 90.2852 120.372C90.1679 120.672 90.3233 121.008 90.6326 121.122L92.6519 121.866ZM89.5199 126.467C89.3528 126.467 89.1866 126.399 89.0681 126.267L87.6587 124.699C87.4413 124.457 87.4673 124.09 87.7168 123.88C87.9662 123.669 88.3444 123.694 88.5617 123.936L89.9711 125.504C90.1885 125.746 90.1625 126.113 89.913 126.323C89.7996 126.42 89.6594 126.467 89.5199 126.467ZM83.7632 128.557C83.83 128.822 84.0749 129 84.3447 129C84.3917 129 84.4393 128.995 84.4869 128.984C84.8082 128.908 85.0052 128.593 84.9271 128.282L84.4223 126.272C84.3438 125.96 84.0189 125.77 83.6985 125.845C83.3773 125.921 83.1802 126.235 83.2584 126.547L83.7632 128.557ZM78.5185 128.92C78.4673 128.92 78.4155 128.913 78.3637 128.9C78.0442 128.818 77.8541 128.499 77.9394 128.189L78.4865 126.199C78.5715 125.889 78.9 125.705 79.2195 125.787C79.5389 125.87 79.7291 126.188 79.6437 126.498L79.0967 128.488C79.0254 128.748 78.7832 128.92 78.5185 128.92ZM72.9944 126.107C73.1102 126.213 73.2582 126.266 73.4061 126.266C73.5648 126.266 73.7235 126.205 73.8411 126.084L75.3134 124.577C75.5407 124.344 75.5305 123.976 75.2903 123.756C75.0496 123.535 74.6708 123.545 74.4436 123.778L72.9713 125.286C72.744 125.519 72.7542 125.886 72.9944 126.107ZM70.1882 121.642C69.9397 121.642 69.708 121.491 69.622 121.251C69.5142 120.947 69.6801 120.616 69.9927 120.512L72.033 119.828C72.3462 119.725 72.6866 119.885 72.7944 120.188C72.9022 120.491 72.7363 120.822 72.4237 120.926L70.3835 121.61C70.3191 121.632 70.2529 121.642 70.1882 121.642ZM71.6426 116.409C71.6701 116.413 71.6974 116.414 71.7243 116.414C72.0193 116.414 72.2762 116.204 72.3169 115.912C72.3615 115.594 72.1321 115.301 71.8046 115.258L69.6799 114.977C69.3517 114.931 69.0502 115.156 69.0055 115.474C68.9609 115.792 69.1903 116.084 69.5179 116.127L71.6426 116.409ZM73.5113 112.173C73.391 112.173 73.2697 112.138 73.1643 112.065L71.4184 110.859C71.1492 110.673 71.0863 110.31 71.2782 110.049C71.4701 109.788 71.8444 109.727 72.1136 109.913L73.8595 111.119C74.1287 111.305 74.1916 111.668 73.9997 111.929C73.8826 112.088 73.6982 112.173 73.5113 112.173ZM76.617 108.9C76.7224 109.102 76.9332 109.218 77.1515 109.218C77.2425 109.218 77.335 109.198 77.4219 109.155C77.7168 109.01 77.8348 108.66 77.6851 108.374L76.7176 106.524C76.5679 106.239 76.2077 106.124 75.9128 106.269C75.6178 106.414 75.4999 106.764 75.6496 107.05L76.617 108.9Z" fill="#999999"/>
<g opacity="0.4">
<path d="M72 118C83.0457 118 92 109.046 92 98C92 86.9543 83.0457 78 72 78C60.9543 78 52 86.9543 52 98C52 109.046 60.9543 118 72 118Z" fill="#EBF1F2"/>
</g>
<g opacity="0.2">
<path d="M174.5 145C190.792 145 204 131.792 204 115.5C204 99.2076 190.792 86 174.5 86C158.208 86 145 99.2076 145 115.5C145 131.792 158.208 145 174.5 145Z" fill="#CBD3D9"/>
</g>
<g opacity="0.4">
<path d="M182.5 78C186.636 78 190 81.3954 190 85.569C190 89.7426 186.636 93.1381 182.5 93.1381C178.364 93.1381 175 89.7426 175 85.569C175 81.3954 178.364 78 182.5 78ZM182.5 91.4482C185.712 91.4482 188.326 88.8107 188.326 85.569C188.326 82.3274 185.712 79.6899 182.5 79.6899C179.288 79.6899 176.674 82.3274 176.674 85.569C176.674 88.8107 179.288 91.4482 182.5 91.4482Z" fill="#98A8B2"/>
</g>
<path fill-rule="evenodd" clip-rule="evenodd" d="M134.334 161.5C134.334 159.372 135.952 157.639 137.97 157.639C139.988 157.639 141.606 159.372 141.606 161.5C141.606 163.628 139.988 165.361 137.97 165.361C135.952 165.361 134.334 163.628 134.334 161.5ZM137.97 158.75C136.566 158.75 135.403 159.961 135.403 161.5C135.403 163.039 136.566 164.25 137.97 164.25C139.374 164.25 140.537 163.039 140.537 161.5C140.537 159.961 139.374 158.75 137.97 158.75Z" fill="#CECECE"/>
<path d="M137.97 170C138.264 170 138.504 169.75 138.504 169.417C138.504 169.083 138.264 168.833 137.97 168.833C137.676 168.833 137.435 169.083 137.435 169.417C137.435 169.722 137.676 170 137.97 170Z" fill="#CECECE"/>
<path d="M143.638 167.5C143.852 167.278 143.852 166.917 143.638 166.667C143.424 166.445 143.077 166.445 142.863 166.667C142.649 166.889 142.649 167.25 142.863 167.5C143.077 167.75 143.424 167.75 143.638 167.5Z" fill="#CECECE"/>
<path d="M145.403 162.084C145.697 162.084 145.938 161.834 145.938 161.5C145.938 161.167 145.697 160.917 145.403 160.917C145.109 160.917 144.868 161.167 144.868 161.5C144.868 161.806 145.109 162.084 145.403 162.084Z" fill="#CECECE"/>
<path d="M143.638 156.306C143.852 156.083 143.852 155.722 143.638 155.472C143.424 155.25 143.077 155.25 142.863 155.472C142.649 155.694 142.649 156.056 142.863 156.306C143.077 156.528 143.424 156.528 143.638 156.306Z" fill="#CECECE"/>
<path d="M137.97 154.167C138.264 154.167 138.504 153.917 138.504 153.583C138.504 153.25 138.264 153 137.97 153C137.676 153 137.435 153.25 137.435 153.583C137.435 153.889 137.676 154.167 137.97 154.167Z" fill="#CECECE"/>
<path d="M133.104 156.306C133.318 156.083 133.318 155.722 133.104 155.472C132.89 155.25 132.542 155.25 132.328 155.472C132.114 155.694 132.114 156.056 132.328 156.306C132.542 156.556 132.89 156.556 133.104 156.306Z" fill="#CECECE"/>
<path d="M130.537 162.084C130.831 162.084 131.072 161.834 131.072 161.5C131.072 161.167 130.831 160.917 130.537 160.917C130.243 160.917 130.002 161.167 130.002 161.5C129.975 161.806 130.216 162.084 130.537 162.084Z" fill="#CECECE"/>
<path d="M133.104 167.528C133.318 167.306 133.318 166.945 133.104 166.694C132.89 166.472 132.542 166.472 132.328 166.694C132.114 166.917 132.114 167.278 132.328 167.528C132.542 167.75 132.89 167.75 133.104 167.528Z" fill="#CECECE"/>
<path d="M79.2698 54.2853C77.5049 56.3944 74.3375 56.6611 72.209 54.88C70.0805 53.0988 69.7847 49.934 71.5496 47.8249C73.3145 45.7158 76.482 45.449 78.6105 47.2302C80.7389 49.0114 81.0347 52.1762 79.2698 54.2853ZM72.4114 48.5461C71.0406 50.1842 71.2704 52.6426 72.9236 54.026C74.5768 55.4094 77.0372 55.2022 78.408 53.5641C79.7788 51.926 79.549 49.4676 77.8958 48.0842C76.2427 46.7007 73.7822 46.908 72.4114 48.5461Z" fill="#CACACA"/>
<path d="M71.5542 70.3496C71.6739 68.8231 70.5272 67.4881 68.9931 67.3679C67.459 67.2477 66.1183 68.3877 65.9987 69.9142C65.879 71.4407 67.0257 72.7756 68.5598 72.8959C70.0939 73.0161 71.4346 71.8761 71.5542 70.3496Z" fill="#CFCFCF"/>
<path d="M65.3365 56.589C65.4263 55.4428 64.5648 54.4404 63.4122 54.3501C62.2597 54.2597 61.2525 55.1157 61.1627 56.2618C61.0728 57.408 61.9343 58.4105 63.0869 58.5008C64.2395 58.5911 65.2466 57.7352 65.3365 56.589Z" fill="#9BAFBA"/>
</svg>
