<svg xmlns="http://www.w3.org/2000/svg" width="32" height="32" viewBox="0 0 32 32">
  <title>mime_facets32</title>
  <g>
    <g>
      <g>
        <path d="M10.72,24.291a2.6,2.6,0,0,1-2.6-2.6V3.857a2.6,2.6,0,0,1,2.6-2.6h11.3L26.7,5.932V21.69a2.6,2.6,0,0,1-2.6,2.6Z" transform="translate(-3.971 -0.782)" style="fill: #07b7b9"/>
        <path d="M24.1,24.765H10.72A3.079,3.079,0,0,1,7.645,21.69V3.856A3.078,3.078,0,0,1,10.72.782h11.5L27.17,5.736V21.69A3.078,3.078,0,0,1,24.1,24.765ZM10.72,1.73A2.129,2.129,0,0,0,8.594,3.856V21.69a2.129,2.129,0,0,0,2.126,2.126H24.1a2.129,2.129,0,0,0,2.127-2.126V6.129l-4.4-4.4Z" transform="translate(-3.971 -0.782)" style="fill: #fff"/>
      </g>
      <polygon points="17.827 1.058 17.827 5.364 22.134 5.364 17.827 1.058" style="fill: #0094af"/>
    </g>
    <g>
      <g>
        <path d="M7.046,28.169a2.6,2.6,0,0,1-2.6-2.6V7.736a2.6,2.6,0,0,1,2.6-2.6h11.3l4.676,4.677V25.569a2.6,2.6,0,0,1-2.6,2.6H7.046Z" transform="translate(-3.971 -0.782)" style="fill: #1983c6"/>
        <path d="M20.421,28.644H7.046a3.079,3.079,0,0,1-3.075-3.075V7.736A3.079,3.079,0,0,1,7.046,4.661h11.5L23.5,9.615V25.569A3.078,3.078,0,0,1,20.421,28.644ZM7.046,5.609A2.129,2.129,0,0,0,4.92,7.736V25.568A2.129,2.129,0,0,0,7.046,27.7H20.421a2.129,2.129,0,0,0,2.127-2.127V10.008l-4.4-4.4Z" transform="translate(-3.971 -0.782)" style="fill: #fff"/>
      </g>
      <polygon points="14.116 4.932 14.116 9.238 18.421 9.238 14.116 4.932" style="fill: #066ab5"/>
    </g>
  </g>
  <g>
    <path d="M25.2,30.307a1.565,1.565,0,0,1-1.114-.461l-3.214-3.212a6.22,6.22,0,0,1-2.5.521,6.323,6.323,0,1,1,5-2.48l2.941,2.941A1.577,1.577,0,0,1,25.2,30.307ZM18.373,17.7a3.153,3.153,0,1,0,3.153,3.152A3.156,3.156,0,0,0,18.373,17.7Z" transform="translate(-3.971 -0.782)" style="fill: #676767"/>
    <path d="M25.2,30.782a2.046,2.046,0,0,1-1.449-.6l-2.992-2.991a6.692,6.692,0,0,1-2.389.437A6.795,6.795,0,1,1,24,24.624l2.655,2.656a2.052,2.052,0,0,1-1.45,3.5ZM20.981,26.07l3.443,3.441a1.126,1.126,0,0,0,1.558,0,1.1,1.1,0,0,0,0-1.558l-3.235-3.234.253-.33a5.826,5.826,0,1,0-4.628,2.293,5.753,5.753,0,0,0,2.312-.481Zm-2.608-1.594A3.627,3.627,0,1,1,22,20.849,3.631,3.631,0,0,1,18.373,24.476Zm0-6.3a2.679,2.679,0,1,0,2.679,2.678A2.681,2.681,0,0,0,18.373,18.171Z" transform="translate(-3.971 -0.782)" style="fill: #fff"/>
  </g>
</svg>
