<svg width="89" height="104" viewBox="0 0 89 104" fill="none" xmlns="http://www.w3.org/2000/svg">
<path d="M60.0428 3.16015L79.0037 22.121V88.4842C79.0037 93.8564 74.8955 97.9646 69.5233 97.9646H12.6406C7.26834 97.9646 3.16015 93.8564 3.16015 88.4842V12.6406C3.16015 7.26834 7.26834 3.16015 12.6406 3.16015H60.0428ZM61.3069 0H60.0428H12.6406C5.68827 0 0 5.68827 0 12.6406V88.4842C0 95.4365 5.68827 101.125 12.6406 101.125H69.5233C76.4756 101.125 82.1639 95.4365 82.1639 88.4842V20.857L62.2549 0.948045L61.3069 0Z" fill="white"/>
<path d="M79.0037 88.4842V22.121L60.0428 3.16016H12.6406C7.26833 3.16016 3.16014 7.26835 3.16014 12.6406V88.4842C3.16014 93.8564 7.26833 97.9646 12.6406 97.9646H69.5233C74.8955 97.9646 79.0037 93.8564 79.0037 88.4842Z" fill="white"/>
<path d="M79.0037 22.121L60.0428 3.16016H12.6406C7.26833 3.16016 3.16014 7.26835 3.16014 12.6406V76.4756L79.0037 36.9737V22.121Z" fill="#EEEEEE"/>
<path d="M79.0037 88.4842V36.9738L3.16014 76.4756V88.4842C3.16014 93.8564 7.26833 97.9646 12.6406 97.9646H69.5233C74.8955 97.9646 79.0037 93.8564 79.0037 88.4842Z" fill="#E2E2E2"/>
<path d="M60.0428 3.16016H12.6406C7.26833 3.16016 3.16014 7.26835 3.16014 12.6406V88.4842C3.16014 93.8564 7.26833 97.9646 12.6406 97.9646H69.5233C74.8955 97.9646 79.0037 93.8564 79.0037 88.4842V22.121L60.0428 3.16016ZM75.8436 88.4842C75.8436 91.9603 72.9994 94.8045 69.5233 94.8045H12.6406C9.16442 94.8045 6.32029 91.9603 6.32029 88.4842V12.6406C6.32029 9.16444 9.16442 6.3203 12.6406 6.3203H60.0428V22.121H75.8436V88.4842Z" fill="#627783"/>
<path d="M88.8924 79.6614C88.8924 92.9162 78.1472 103.661 64.8924 103.661C51.6375 103.661 40.8924 92.9162 40.8924 79.6614C40.8924 66.4065 51.6375 55.6614 64.8924 55.6614C78.1472 55.6614 88.8924 66.4065 88.8924 79.6614Z" fill="#F9F9F9"/>
<path fill-rule="evenodd" clip-rule="evenodd" d="M85.0524 79.6613C85.0524 90.7954 76.0264 99.8213 64.8924 99.8213C53.7583 99.8213 44.7324 90.7954 44.7324 79.6613C44.7324 68.5273 53.7583 59.5013 64.8924 59.5013C76.0264 59.5013 85.0524 68.5273 85.0524 79.6613ZM73.2905 76.1336C74.8965 74.5275 74.8927 71.9211 73.2828 70.3112C71.6729 68.7013 69.0655 68.6974 67.4604 70.3035L65.9945 71.7694L71.8255 77.6005L73.2905 76.1336ZM54.3324 89.2606L55.7897 81.9723L64.5362 73.2257L70.3673 79.0568L61.6207 87.8033L54.3324 89.2606Z" fill="#555555"/>
<path fill-rule="evenodd" clip-rule="evenodd" d="M15 33.0588C15 31.3695 16.3695 30 18.0588 30H37.9412C39.6305 30 41 31.3695 41 33.0588V52.9412C41 54.6305 39.6305 56 37.9412 56H18.0588C16.3695 56 15 54.6305 15 52.9412V33.0588ZM23.9216 36.9248C22.7953 36.9248 21.8824 37.8378 21.8824 38.9641C21.8824 40.0903 22.7953 41.0033 23.9216 41.0033H25.7908L25.7908 47.4608C25.7908 48.587 26.7038 49.5 27.8301 49.5C28.9563 49.5 29.8693 48.587 29.8693 47.4608L29.8693 41.0033H32.0784C33.2047 41.0033 34.1176 40.0903 34.1176 38.9641C34.1176 37.8378 33.2047 36.9248 32.0784 36.9248H23.9216ZM50.2647 32C49.0139 32 48 33.1193 48 34.5C48 35.8807 49.0139 37 50.2647 37H66.7353C67.9861 37 69 35.8807 69 34.5C69 33.1193 67.9861 32 66.7353 32H50.2647ZM50.2647 43C49.0139 43 48 44.1193 48 45.5C48 46.8807 49.0139 48 50.2647 48H66.7353C67.9861 48 69 46.8807 69 45.5C69 44.1193 67.9861 43 66.7353 43H50.2647ZM14 65.5C14 64.1193 15.0139 63 16.2647 63H38.7353C39.9861 63 41 64.1193 41 65.5C41 66.8807 39.9861 68 38.7353 68H16.2647C15.0139 68 14 66.8807 14 65.5Z" fill="#627783"/>
</svg>
