<?xml version="1.0" encoding="utf-8"?>
<!-- Generator: Adobe Illustrator 24.2.0, SVG Export Plug-In . SVG Version: 6.00 Build 0)  -->
<svg version="1.1" id="Layer_1" xmlns="http://www.w3.org/2000/svg" xmlns:xlink="http://www.w3.org/1999/xlink" x="0px" y="0px"
	 viewBox="0 0 32 32" style="enable-background:new 0 0 32 32;" xml:space="preserve">
<style type="text/css">
	.st0{fill:#FFFFFF;}
	.st1{fill:none;stroke:#2E3D98;}
	.st2{fill:#333333;}
</style>
<circle id="state" class="st0" cx="16" cy="16" r="14"/>
<circle id="focus" class="st1" cx="16" cy="16" r="15.5"/>
<path id="metaphor" class="st2" d="M16,22.371c-6.52,0-10-5.334-10-6.371s3.48-6.371,10-6.371S26,14.964,26,16
	S22.52,22.371,16,22.371z M16.02,11.938c-2.252,0-4.082,1.822-4.082,4.062s1.832,4.062,4.082,4.062c2.229,0,4.042-1.822,4.042-4.062
	S18.249,11.938,16.02,11.938z M16.02,18.522c-1.369,0-2.484-1.132-2.484-2.522s1.114-2.522,2.484-2.522
	c0.168,0,0.313,0.068,0.408,0.191c0.208,0.272,0.101,0.679-0.036,1.195c-0.067,0.256-0.207,0.785-0.138,0.912
	c0.008,0,0.065,0.004,0.065,0.004c0.182,0,0.466-0.071,0.74-0.139c0.304-0.075,0.591-0.147,0.82-0.147
	c0.433,0,0.586,0.273,0.586,0.506C18.464,17.391,17.367,18.522,16.02,18.522z"/>
</svg>
