<?xml version="1.0" encoding="utf-8"?>
<!-- Generator: Adobe Illustrator 24.3.0, SVG Export Plug-In . SVG Version: 6.00 Build 0)  -->
<svg version="1.1" id="Layer_1" xmlns="http://www.w3.org/2000/svg" xmlns:xlink="http://www.w3.org/1999/xlink" x="0px" y="0px"
	 viewBox="0 0 32 32" style="enable-background:new 0 0 32 32;" xml:space="preserve">
<style type="text/css">
	.st0{fill:none;}
	.st1{fill-rule:evenodd;clip-rule:evenodd;fill:#333333;}
	.st2{fill:none;stroke:#2E3D98;}
</style>
<circle id="state" class="st0" cx="16" cy="16" r="14"/>
<path id="metaphor" class="st1" d="M16,7c-5,0-9,4-9,9s4,9,9,9s9-4,9-9S21,7,16,7z M21.1,16c-0.4,0.4-1.1,0.4-1.5,0l-2.5-2.4v8
	c0,0.7-0.5,1.1-1.1,1.1c-0.7,0-1.1-0.5-1.1-1.1v-8L12.4,16c-0.4,0.4-1.1,0.4-1.5,0s-0.4-1.1,0-1.5L16,9.3l5.1,5.1
	C21.6,14.9,21.6,15.6,21.1,16z"/>
<circle id="focus" class="st2" cx="16" cy="16" r="15.5"/>
</svg>
