<?xml version="1.0" encoding="utf-8"?>
<!-- Generator: Adobe Illustrator 25.2.0, SVG Export Plug-In . SVG Version: 6.00 Build 0)  -->
<svg version="1.1" id="Layer_1" xmlns="http://www.w3.org/2000/svg" xmlns:xlink="http://www.w3.org/1999/xlink" x="0px" y="0px"
	 viewBox="0 0 32 32" style="enable-background:new 0 0 32 32;" xml:space="preserve">
<style type="text/css">
	.st0{fill:none;}
	.st1{fill-rule:evenodd;clip-rule:evenodd;fill:#333333;}
	.st2{fill:none;stroke:#2E3D98;}
</style>
<circle id="state" class="st0" cx="16" cy="16" r="14"/>
<path id="metaphor" class="st1" d="M9.071,9.071c0.391-0.391,1.024-0.391,1.414,0L16,14.586l5.515-5.515
	c0.39-0.391,1.024-0.391,1.414,0c0.39,0.391,0.39,1.024,0,1.414L17.414,16l5.515,5.515c0.39,0.39,0.39,1.024,0,1.414
	c-0.391,0.39-1.024,0.39-1.414,0L16,17.414l-5.515,5.515c-0.391,0.39-1.024,0.39-1.414,0c-0.391-0.391-0.391-1.024,0-1.414
	L14.586,16l-5.515-5.515C8.68,10.094,8.68,9.461,9.071,9.071z"/>
<circle id="focus" class="st2" cx="16" cy="16" r="15.5"/>
</svg>
