<?xml version="1.0" encoding="utf-8"?>
<!-- Generator: Adobe Illustrator 25.3.1, SVG Export Plug-In . SVG Version: 6.00 Build 0)  -->
<svg version="1.1" id="Layer_1" xmlns="http://www.w3.org/2000/svg" xmlns:xlink="http://www.w3.org/1999/xlink" x="0px" y="0px"
	 viewBox="0 0 32 32" style="enable-background:new 0 0 32 32;" xml:space="preserve">
<style type="text/css">
	.st0{fill:none;}
	.st1{opacity:0.75;fill-rule:evenodd;clip-rule:evenodd;fill:#333333;enable-background:new    ;}
	.st2{fill:#333333;}
	.st3{fill:none;stroke:#2E3D98;}
</style>
<circle id="state" class="st0" cx="16" cy="16" r="14"/>
<g id="metaphor">
	<path class="st1" d="M14,13.105v-4.55C14,7.696,14.703,7,15.571,7h7.072L25,9.333v10.111C25,20.304,24.297,21,23.429,21H22v-4.889
		C22,14.991,21.12,14,19.939,14h-4.928L14,13.105z"/>
	<path class="st2" d="M7,25V14.118C7,13.501,7.476,13,8.061,13h3.909c0.246,0,0.494,0.093,0.697,0.261l1.813,1.603
		C14.597,14.961,14.671,15,14.743,15h5.197C20.524,15,21,15.499,21,16.111V25H7z"/>
</g>
<circle id="focus" class="st3" cx="16" cy="16" r="15.5"/>
</svg>
