<?xml version="1.0" encoding="utf-8"?>
<!-- Generator: Adobe Illustrator 24.2.0, SVG Export Plug-In . SVG Version: 6.00 Build 0)  -->
<svg version="1.1" id="Layer_1" xmlns="http://www.w3.org/2000/svg" xmlns:xlink="http://www.w3.org/1999/xlink" x="0px" y="0px"
	 viewBox="0 0 24 24" style="enable-background:new 0 0 24 24;" xml:space="preserve">
<style type="text/css">
	.st0{fill:#FFFFFF;}
	.st1{fill:none;stroke:#2E3D98;}
	.st2{fill:#333333;}
</style>
<circle id="state" class="st0" cx="12" cy="12" r="10.4"/>
<circle id="focus" class="st1" cx="12" cy="12" r="11.5"/>
<g id="metaphor">
	<path class="st0" d="M20,12c0,4.4-3.6,8-8,8c-4.4,0-8-3.6-8-8c0-4.4,3.6-8,8-8S20,7.6,20,12z"/>
	<path class="st2" d="M11,14.1L8.9,8.8C8.8,8.6,8.6,8.4,8.4,8.4C8.2,8.4,8,8.6,7.9,8.8l-2.1,5.3c-0.1,0.3,0,0.6,0.3,0.7
		c0.3,0.1,0.6,0,0.7-0.3l0.5-1.3h2.2l0.5,1.3c0.1,0.2,0.3,0.3,0.5,0.3c0.1,0,0.1,0,0.2,0C11,14.6,11.1,14.3,11,14.1z M7.7,12.1
		l0.7-1.7l0.7,1.7H7.7z"/>
	<path class="st2" d="M12,4c-4.4,0-8,3.6-8,8s3.6,8,8,8s8-3.6,8-8S16.4,4,12,4z M18.2,8.6c0.5,0.9,0.8,1.9,0.9,3h-2.7
		c0-1.1-0.2-2-0.4-3H18.2z M12.9,19c-0.2,0-0.3,0-0.5,0.1v-2.8H15C14.5,17.6,13.8,18.6,12.9,19z M15,7.7h-2.5V4.9
		c0.2,0,0.3,0,0.5,0.1C13.8,5.4,14.5,6.4,15,7.7z M12.4,15.4v-3h3.3c0,1.1-0.2,2.1-0.4,3H12.4z M12.4,11.5v-3h2.8
		c0.3,0.9,0.4,1.9,0.4,3H12.4z M17.6,7.7h-2c-0.3-1-0.8-1.8-1.3-2.4C15.7,5.8,16.8,6.6,17.6,7.7z M11.5,19.1
		c-3.7-0.2-6.6-3.3-6.6-7.1s2.9-6.8,6.6-7.1V19.1z M14.4,18.7c0.5-0.6,1-1.4,1.3-2.4h2C16.8,17.4,15.7,18.2,14.4,18.7z M16,15.4
		c0.2-0.9,0.4-1.9,0.4-3h2.7c-0.1,1.1-0.4,2.1-0.9,3H16z"/>
</g>
</svg>
