<?xml version="1.0" encoding="utf-8"?>
<!-- Generator: Adobe Illustrator 24.0.0, SVG Export Plug-In . SVG Version: 6.00 Build 0)  -->
<svg version="1.1" id="Layer_1" xmlns="http://www.w3.org/2000/svg" xmlns:xlink="http://www.w3.org/1999/xlink" x="0px" y="0px"
	 viewBox="0 0 20 20" style="enable-background:new 0 0 20 20;" xml:space="preserve">
<style type="text/css">
	.st0{fill:#FFFFFF;stroke:#71747B;stroke-width:1.5;}
		.st1{fill-rule:evenodd;clip-rule:evenodd;fill:#71747B;stroke:#71747B;stroke-width:0.5;stroke-linecap:round;stroke-linejoin:round;}
</style>
<circle class="st0" cx="10" cy="10" r="9.3"/>
<path class="st1" d="M5.3,5.3c0.4-0.4,1-0.4,1.4,0L10,8.6l3.3-3.3c0.4-0.4,1-0.4,1.4,0c0.4,0.4,0.4,1,0,1.4L11.4,10l3.3,3.3
	c0.4,0.4,0.4,1,0,1.4s-1,0.4-1.4,0L10,11.4l-3.3,3.3c-0.4,0.4-1,0.4-1.4,0c-0.4-0.4-0.4-1,0-1.4L8.6,10L5.3,6.7
	C4.9,6.3,4.9,5.7,5.3,5.3z"/>
</svg>
