<svg width="220" height="220" viewBox="0 0 220 220" fill="none" xmlns="http://www.w3.org/2000/svg">
<path opacity="0.7" d="M80 83C80 81.3431 81.3431 80 83 80H128V125C128 126.657 126.657 128 125 128H80V83Z" fill="#E1E8F6"/>
<path opacity="0.5" fill-rule="evenodd" clip-rule="evenodd" d="M46 40C42.6863 40 40 42.6863 40 46V125C40 128.314 42.6863 131 46 131H76V82C76 78.6863 78.6863 76 82 76H131V46C131 42.6863 128.314 40 125 40H46Z" fill="#9BAFBA"/>
<path opacity="0.6" fill-rule="evenodd" clip-rule="evenodd" d="M175 181C178.314 181 181 178.314 181 175L181 96C181 92.6863 178.314 90 175 90L140 90L140 134C140 137.314 137.314 140 134 140L90 140L90 175C90 178.314 92.6863 181 96 181L175 181Z" fill="#D7E2E5"/>
<path opacity="0.2" d="M167.275 105.332C152.764 113.711 147.792 132.266 156.17 146.777C164.548 161.289 183.103 166.261 197.615 157.883C212.126 149.504 217.098 130.949 208.72 116.438C200.342 101.926 181.786 96.9544 167.275 105.332Z" fill="#CBD3D9"/>
<mask id="path-5-outside-1" maskUnits="userSpaceOnUse" x="45" y="45" width="130" height="130" fill="black">
<rect fill="white" x="45" y="45" width="130" height="130"/>
<path fill-rule="evenodd" clip-rule="evenodd" d="M49 47.5H132.6C133.428 47.5 134.1 48.1716 134.1 49V84.4001H87.4C85.7432 84.4001 84.4 85.7432 84.4 87.4001V134.1H49C48.1716 134.1 47.5 133.428 47.5 132.6V49C47.5 48.1716 48.1716 47.5 49 47.5ZM84.4 135.6H49C47.3431 135.6 46 134.257 46 132.6V49C46 47.3431 47.3431 46 49 46H132.6C134.257 46 135.6 47.3431 135.6 49V84.4001H171C172.657 84.4001 174 85.7432 174 87.4001V171C174 172.657 172.657 174 171 174H87.4C85.7432 174 84.4 172.657 84.4 171V135.6ZM135.6 85.9001H171C171.828 85.9001 172.5 86.5716 172.5 87.4001V171C172.5 171.829 171.828 172.5 171 172.5H87.4C86.5716 172.5 85.9 171.829 85.9 171V135.6H132.6C134.257 135.6 135.6 134.257 135.6 132.6V85.9001ZM134.1 85.9001V132.6C134.1 133.428 133.428 134.1 132.6 134.1H85.9V87.4001C85.9 86.5716 86.5716 85.9001 87.4 85.9001H134.1Z"/>
</mask>
<path fill-rule="evenodd" clip-rule="evenodd" d="M49 47.5H132.6C133.428 47.5 134.1 48.1716 134.1 49V84.4001H87.4C85.7432 84.4001 84.4 85.7432 84.4 87.4001V134.1H49C48.1716 134.1 47.5 133.428 47.5 132.6V49C47.5 48.1716 48.1716 47.5 49 47.5ZM84.4 135.6H49C47.3431 135.6 46 134.257 46 132.6V49C46 47.3431 47.3431 46 49 46H132.6C134.257 46 135.6 47.3431 135.6 49V84.4001H171C172.657 84.4001 174 85.7432 174 87.4001V171C174 172.657 172.657 174 171 174H87.4C85.7432 174 84.4 172.657 84.4 171V135.6ZM135.6 85.9001H171C171.828 85.9001 172.5 86.5716 172.5 87.4001V171C172.5 171.829 171.828 172.5 171 172.5H87.4C86.5716 172.5 85.9 171.829 85.9 171V135.6H132.6C134.257 135.6 135.6 134.257 135.6 132.6V85.9001ZM134.1 85.9001V132.6C134.1 133.428 133.428 134.1 132.6 134.1H85.9V87.4001C85.9 86.5716 86.5716 85.9001 87.4 85.9001H134.1Z" fill="#666666"/>
<path d="M134.1 84.4001V84.6501H134.35V84.4001H134.1ZM84.4 134.1V134.35H84.65V134.1H84.4ZM84.4 135.6H84.65V135.35H84.4V135.6ZM135.6 84.4001H135.35V84.6501H135.6V84.4001ZM135.6 85.9001V85.6501H135.35V85.9001H135.6ZM85.9 135.6V135.35H85.65V135.6H85.9ZM134.1 85.9001H134.35V85.6501H134.1V85.9001ZM85.9 134.1H85.65V134.35H85.9V134.1ZM132.6 47.25H49V47.75H132.6V47.25ZM134.35 49C134.35 48.0335 133.567 47.25 132.6 47.25V47.75C133.29 47.75 133.85 48.3096 133.85 49H134.35ZM134.35 84.4001V49H133.85V84.4001H134.35ZM134.1 84.1501H87.4V84.6501H134.1V84.1501ZM87.4 84.1501C85.6051 84.1501 84.15 85.6051 84.15 87.4001H84.65C84.65 85.8813 85.8812 84.6501 87.4 84.6501V84.1501ZM84.15 87.4001V134.1H84.65V87.4001H84.15ZM49 134.35H84.4V133.85H49V134.35ZM47.25 132.6C47.25 133.567 48.0335 134.35 49 134.35V133.85C48.3096 133.85 47.75 133.29 47.75 132.6H47.25ZM47.25 49V132.6H47.75V49H47.25ZM49 47.25C48.0335 47.25 47.25 48.0335 47.25 49H47.75C47.75 48.3096 48.3096 47.75 49 47.75V47.25ZM49 135.85H84.4V135.35H49V135.85ZM45.75 132.6C45.75 134.395 47.2051 135.85 49 135.85V135.35C47.4812 135.35 46.25 134.119 46.25 132.6H45.75ZM45.75 49V132.6H46.25V49H45.75ZM49 45.75C47.2051 45.75 45.75 47.2051 45.75 49H46.25C46.25 47.4812 47.4812 46.25 49 46.25V45.75ZM132.6 45.75H49V46.25H132.6V45.75ZM135.85 49C135.85 47.2051 134.395 45.75 132.6 45.75V46.25C134.119 46.25 135.35 47.4812 135.35 49H135.85ZM135.85 84.4001V49H135.35V84.4001H135.85ZM171 84.1501H135.6V84.6501H171V84.1501ZM174.25 87.4001C174.25 85.6051 172.795 84.1501 171 84.1501V84.6501C172.519 84.6501 173.75 85.8813 173.75 87.4001H174.25ZM174.25 171V87.4001H173.75V171H174.25ZM171 174.25C172.795 174.25 174.25 172.795 174.25 171H173.75C173.75 172.519 172.519 173.75 171 173.75V174.25ZM87.4 174.25H171V173.75H87.4V174.25ZM84.15 171C84.15 172.795 85.6051 174.25 87.4 174.25V173.75C85.8812 173.75 84.65 172.519 84.65 171H84.15ZM84.15 135.6V171H84.65V135.6H84.15ZM171 85.6501H135.6V86.1501H171V85.6501ZM172.75 87.4001C172.75 86.4336 171.967 85.6501 171 85.6501V86.1501C171.69 86.1501 172.25 86.7097 172.25 87.4001H172.75ZM172.75 171V87.4001H172.25V171H172.75ZM171 172.75C171.967 172.75 172.75 171.967 172.75 171H172.25C172.25 171.69 171.69 172.25 171 172.25V172.75ZM87.4 172.75H171V172.25H87.4V172.75ZM85.65 171C85.65 171.967 86.4335 172.75 87.4 172.75V172.25C86.7097 172.25 86.15 171.69 86.15 171H85.65ZM85.65 135.6V171H86.15V135.6H85.65ZM85.9 135.85H132.6V135.35H85.9V135.85ZM132.6 135.85C134.395 135.85 135.85 134.395 135.85 132.6H135.35C135.35 134.119 134.119 135.35 132.6 135.35V135.85ZM135.85 132.6V85.9001H135.35V132.6H135.85ZM134.35 132.6V85.9001H133.85V132.6H134.35ZM132.6 134.35C133.567 134.35 134.35 133.567 134.35 132.6H133.85C133.85 133.29 133.29 133.85 132.6 133.85V134.35ZM85.9 134.35H132.6V133.85H85.9V134.35ZM85.65 87.4001V134.1H86.15V87.4001H85.65ZM87.4 85.6501C86.4335 85.6501 85.65 86.4336 85.65 87.4001H86.15C86.15 86.7097 86.7097 86.1501 87.4 86.1501V85.6501ZM134.1 85.6501H87.4V86.1501H134.1V85.6501Z" fill="#666666" mask="url(#path-5-outside-1)"/>
<g opacity="0.8">
<path d="M189.34 62.5C189.34 65.0269 187.253 67.0828 184.687 67.0828C182.122 67.0828 180.035 65.0269 180.035 62.5C180.035 59.973 182.122 57.9171 184.687 57.9171C187.253 57.9171 189.34 59.973 189.34 62.5ZM181.02 62.5C181.02 64.48 182.665 66.0908 184.687 66.0908C186.71 66.0908 188.355 64.48 188.355 62.5C188.355 60.52 186.71 58.9091 184.687 58.9091C182.665 58.9091 181.02 60.52 181.02 62.5Z" fill="#9BAFBA"/>
<path d="M195.375 62.4998C195.375 62.1035 195.048 61.7824 194.645 61.7824C194.242 61.7824 193.915 62.1035 193.915 62.4998C193.915 62.8961 194.242 63.2173 194.645 63.2173C195.048 63.2173 195.375 62.8961 195.375 62.4998Z" fill="#9BAFBA"/>
<path d="M192.251 55.0538C191.966 54.7736 191.504 54.7736 191.219 55.0538C190.934 55.3341 190.934 55.7882 191.219 56.0684C191.504 56.3486 191.966 56.3486 192.251 56.0684C192.537 55.7882 192.537 55.3341 192.251 55.0538Z" fill="#9BAFBA"/>
<path d="M185.418 52.7174C185.418 52.3211 185.091 51.9999 184.688 51.9999C184.285 51.9999 183.958 52.3211 183.958 52.7174C183.958 53.1137 184.285 53.4348 184.688 53.4348C185.091 53.4348 185.418 53.1134 185.418 52.7174Z" fill="#9BAFBA"/>
<path d="M178.161 55.0631C177.876 54.7829 177.413 54.7829 177.128 55.0631C176.843 55.3433 176.843 55.7974 177.128 56.0777C177.413 56.3579 177.875 56.3579 178.161 56.0777C178.446 55.7974 178.446 55.3431 178.161 55.0631Z" fill="#9BAFBA"/>
<path d="M175.46 62.4998C175.46 62.1035 175.133 61.7824 174.73 61.7824C174.327 61.7824 174 62.1035 174 62.4998C174 62.8961 174.327 63.2173 174.73 63.2173C175.133 63.2173 175.46 62.8961 175.46 62.4998Z" fill="#9BAFBA"/>
<path d="M178.17 68.9069C177.885 68.6266 177.423 68.6266 177.137 68.9069C176.852 69.1871 176.852 69.6412 177.137 69.9214C177.422 70.2017 177.885 70.2017 178.17 69.9214C178.455 69.6412 178.455 69.1871 178.17 68.9069Z" fill="#9BAFBA"/>
<path d="M185.418 72.2825C185.418 71.8862 185.091 71.5651 184.688 71.5651C184.285 71.5651 183.958 71.8863 183.958 72.2825C183.958 72.6788 184.285 73 184.688 73C185.091 73 185.418 72.6788 185.418 72.2825Z" fill="#9BAFBA"/>
<path d="M192.261 68.8976C191.976 68.6174 191.514 68.6174 191.228 68.8976C190.943 69.1778 190.943 69.6319 191.228 69.9121C191.514 70.1924 191.976 70.1924 192.261 69.9121C192.547 69.6319 192.547 69.1778 192.261 68.8976Z" fill="#9BAFBA"/>
</g>
<path opacity="0.93" d="M52.7159 194.813C53.8419 194.813 54.7594 193.929 54.7594 192.792C54.7594 191.655 53.8419 190.77 52.7159 190.77C51.5899 190.77 50.6724 191.655 50.6724 192.792C50.6724 193.929 51.6316 194.813 52.7159 194.813Z" fill="#9BAFBA"/>
<path opacity="0.5" fill-rule="evenodd" clip-rule="evenodd" d="M57.2892 185.737C57.6926 185.962 57.8391 186.474 57.6166 186.881L56.9493 188.102C56.7268 188.51 56.2194 188.658 55.8161 188.433C55.4127 188.208 55.2662 187.696 55.4887 187.289L56.156 186.067C56.3785 185.66 56.8859 185.512 57.2892 185.737Z" fill="#9BAFBA"/>
<path opacity="0.5" fill-rule="evenodd" clip-rule="evenodd" d="M61.0507 191.806C61.1061 192.268 60.7803 192.687 60.323 192.743L58.9468 192.912C58.4894 192.968 58.0738 192.639 58.0184 192.177C57.9629 191.715 58.2887 191.296 58.746 191.24L60.1223 191.071C60.5796 191.015 60.9953 191.344 61.0507 191.806Z" fill="#9BAFBA"/>
<path opacity="0.5" fill-rule="evenodd" clip-rule="evenodd" d="M56.6268 196.497C56.9727 196.19 57.4997 196.224 57.804 196.573L58.7215 197.626C59.0259 197.975 58.9922 198.507 58.6464 198.815C58.3006 199.122 57.7735 199.088 57.4692 198.739L56.5517 197.686C56.2474 197.337 56.281 196.804 56.6268 196.497Z" fill="#9BAFBA"/>
<path opacity="0.5" fill-rule="evenodd" clip-rule="evenodd" d="M52.0826 197.849C52.5414 197.891 52.8795 198.301 52.8378 198.764L52.7127 200.154C52.671 200.617 52.2653 200.958 51.8065 200.916C51.3477 200.874 51.0096 200.465 51.0513 200.001L51.1764 198.612C51.2182 198.148 51.6239 197.807 52.0826 197.849Z" fill="#9BAFBA"/>
<path opacity="0.5" fill-rule="evenodd" clip-rule="evenodd" d="M48.1324 195.639C48.3715 196.037 48.2461 196.555 47.8523 196.797L46.6846 197.512C46.2908 197.754 45.7778 197.627 45.5387 197.23C45.2997 196.832 45.4251 196.314 45.8188 196.073L46.9866 195.357C47.3803 195.115 47.8933 195.242 48.1324 195.639Z" fill="#9BAFBA"/>
<path opacity="0.5" fill-rule="evenodd" clip-rule="evenodd" d="M45.0405 190.132C45.1819 189.69 45.652 189.446 46.0904 189.589L47.3832 190.01C47.8217 190.153 48.0624 190.628 47.921 191.071C47.7796 191.513 47.3095 191.756 46.8711 191.614L45.5783 191.192C45.1398 191.05 44.8991 190.575 45.0405 190.132Z" fill="#9BAFBA"/>
<path opacity="0.5" fill-rule="evenodd" clip-rule="evenodd" d="M49.9956 185.057C50.4252 184.889 50.9083 185.105 51.0746 185.538L51.575 186.844C51.7413 187.278 51.5279 187.766 51.0983 187.934C50.6687 188.101 50.1856 187.886 50.0193 187.452L49.5189 186.147C49.3526 185.713 49.566 185.225 49.9956 185.057Z" fill="#9BAFBA"/>
<path d="M172.387 46.3575C171.398 45.0555 169.568 44.7926 168.298 45.7704C167.029 46.7481 166.802 48.5963 167.791 49.8983C168.779 51.2003 170.61 51.4632 171.879 50.4855C173.149 49.5077 173.376 47.6596 172.387 46.3575Z" fill="#CFCFCF"/>
<g opacity="0.8">
<path d="M165.798 69.7701C165.056 68.7925 163.681 68.5954 162.727 69.33C161.773 70.0646 161.602 71.4526 162.345 72.4303C163.087 73.4079 164.462 73.6049 165.416 72.8704C166.369 72.1358 166.541 70.7478 165.798 69.7701Z" fill="#9BAFBA"/>
</g>
<path d="M185.289 158.899C187.103 157.852 189.43 158.476 190.477 160.289C191.524 162.103 190.9 164.43 189.087 165.477C187.274 166.524 184.946 165.901 183.899 164.087C182.852 162.273 183.475 159.946 185.289 158.899ZM188.461 164.392C189.676 163.69 190.094 162.131 189.392 160.916C188.691 159.7 187.131 159.282 185.916 159.984C184.7 160.685 184.282 162.245 184.984 163.461C185.686 164.676 187.245 165.094 188.461 164.392Z" fill="#D7E2E5"/>
<g opacity="0.6">
<path d="M37.5 199C47.7173 199 56 190.717 56 180.5C56 170.283 47.7173 162 37.5 162C27.2827 162 19 170.283 19 180.5C19 190.717 27.2827 199 37.5 199Z" fill="#D7E2E5"/>
</g>
</svg>
