<svg width="20" height="20" viewBox="0 0 20 20" fill="none" xmlns="http://www.w3.org/2000/svg">
<circle cx="10" cy="10" r="9.25" fill="white" stroke="#2E3D98" stroke-width="1.5"/>
<path d="M14.1667 9.02381H10.8333V5.69048C10.8333 5.19048 10.5 4.85715 10 4.85715C9.5 4.85715 9.16667 5.19048 9.16667 5.69048V9.02381H5.83333C5.33333 9.02381 5 9.35715 5 9.85715C5 10.3571 5.33333 10.6905 5.83333 10.6905H9.16667V14.0238C9.16667 14.5238 9.5 14.8571 10 14.8571C10.5 14.8571 10.8333 14.5238 10.8333 14.0238V10.6905H14.1667C14.6667 10.6905 15 10.3571 15 9.85715C15 9.35715 14.6667 9.02381 14.1667 9.02381Z" fill="#2E3D98" stroke="#2E3D98" stroke-width="0.5"/>
</svg>
