<svg xmlns="http://www.w3.org/2000/svg" viewBox="0 0 19.739 23"><defs><style>.a{fill:#666;}.b{fill:#8797a1;}.c{fill:#595959;}.d,.e{fill:#fff;}.d{fill-rule:evenodd;}.f{fill:#5864ad;}</style></defs><path class="a" d="M12.3,19.046a.529.529,0,0,0,.529-.529v-.462a.529.529,0,0,0-.529-.529H11.261A3.779,3.779,0,0,0,10.7,16.2l.745-.745a.528.528,0,0,0,0-.748l-.327-.327a.528.528,0,0,0-.748,0l-.753.753A3.81,3.81,0,0,0,8.3,14.593V13.526A.529.529,0,0,0,7.775,13H7.313a.529.529,0,0,0-.529.529v1.067a3.772,3.772,0,0,0-1.315.543l-.753-.753a.528.528,0,0,0-.748,0l-.327.326a.528.528,0,0,0,0,.748l.745.746a3.816,3.816,0,0,0-.559,1.323H2.784a.529.529,0,0,0-.529.529v.462a.529.529,0,0,0,.529.529H3.815a3.79,3.79,0,0,0,.548,1.346l-.722.722a.528.528,0,0,0,0,.748l.327.327a.53.53,0,0,0,.748,0l.714-.714a3.783,3.783,0,0,0,1.354.566v1a.529.529,0,0,0,.529.529h.462a.529.529,0,0,0,.529-.529v-1a3.783,3.783,0,0,0,1.354-.566l.714.714a.53.53,0,0,0,.748,0l.327-.327a.528.528,0,0,0,0-.748l-.721-.722a3.788,3.788,0,0,0,.547-1.346ZM7.544,20.6a2.28,2.28,0,1,1,2.28-2.28A2.283,2.283,0,0,1,7.544,20.6Z" transform="translate(-2.255 -0.575)"/><path class="b" d="M12.188,6.092A2.2,2.2,0,0,1,13.9,7.02l6.6,10.136v-.049l.024-13.454V3.372l-2.5-2.8-9.454.1a2.017,2.017,0,0,0-1.508.713A2.424,2.424,0,0,0,6.465,3l0,3.093Z" transform="translate(-2.255 -0.575)"/><path class="c" d="M13.169,7.493a1.361,1.361,0,0,0-.981-.534H6.461l0,1.777L20.5,19.111v-.35Z" transform="translate(-2.255 -0.575)"/><path class="d" d="M13.691,4.192a.165.165,0,0,1-.158.169L9.19,4.4a.161.161,0,0,1-.157-.167V4.078a.167.167,0,0,1,.158-.17l4.344-.039a.162.162,0,0,1,.157.167Z" transform="translate(-2.255 -0.575)"/><path class="d" d="M13.775,6.839l1.152-.013a.166.166,0,0,0,.158-.17V6.5a.162.162,0,0,0-.157-.167l-1.735.02A2.14,2.14,0,0,1,13.775,6.839Z" transform="translate(-2.255 -0.575)"/><path class="d" d="M15.512,9.452l1.267-.012a.166.166,0,0,0,.158-.17V9.114a.162.162,0,0,0-.157-.167l-1.588.015Z" transform="translate(-2.255 -0.575)"/><path class="e" d="M21.167,21.829c-.02.007-.047.02-.073.027v-.007A.747.747,0,0,0,21.167,21.829Z" transform="translate(-2.255 -0.575)"/><path class="f" d="M21.187,9.61l.053,9.17-.013.9-.414-.567L13.433,7.742h-.007a2.193,2.193,0,0,0-1.7-.921H5.958a1.305,1.305,0,0,0-1.308,1.3V13.6a1.193,1.193,0,0,1,.54.308l.394.394a4.017,4.017,0,0,1,.533-.22v-.561a1.194,1.194,0,0,1,1.2-1.195h.46a1.2,1.2,0,0,1,1.2,1.195v.561a4.017,4.017,0,0,1,.533.22l.394-.394a1.192,1.192,0,0,1,.848-.354,1.167,1.167,0,0,1,.841.354l.327.327a1.192,1.192,0,0,1,0,1.688l-.381.387a5.041,5.041,0,0,1,.234.548H12.3A1.193,1.193,0,0,1,13.5,18.055v.461A1.193,1.193,0,0,1,12.3,19.71H11.79a4.145,4.145,0,0,1-.234.567l.361.367a1.192,1.192,0,0,1,.265,1.285h7.837a4.281,4.281,0,0,0,1.075-.08.747.747,0,0,0,.073-.02.777.777,0,0,0,.193-.106,1.263,1.263,0,0,0,.634-1.095V10.792A1.3,1.3,0,0,0,21.187,9.61Z" transform="translate(-2.255 -0.575)"/></svg>