<svg width="32" height="32" viewBox="0 0 32 32" fill="none" xmlns="http://www.w3.org/2000/svg">
<circle cx="16" cy="16" r="14" fill="#F3FBFF"/>
<path fill-rule="evenodd" clip-rule="evenodd" d="M21.136 6H10.0709C9.06495 6 8.33337 6.82949 8.33337 7.84332V24.1567C8.33337 25.1705 9.06495 25.9078 10.0709 26H22.0504C23.0563 26 23.7879 25.1705 23.7879 24.1567V8.67281L21.136 6ZM15.6491 13.7419C15.5577 13.7419 15.5577 13.7419 15.4662 13.7419H15.3748C15.3748 13.7419 15.3748 13.7419 15.2833 13.7419C15.1005 13.7419 15.009 13.8341 14.9176 13.9263C14.8261 14.0184 14.7347 14.1106 14.7347 14.2949C14.7347 14.7558 14.7347 15.2166 14.7347 15.6774C14.7347 16.1382 14.7347 16.5991 14.7347 17.0599C14.7347 17.3364 14.7347 17.7051 14.7347 17.9816C14.7347 18.6267 14.7347 19.2719 14.7347 19.8249C14.7347 19.9171 14.6432 20.1014 14.5518 20.1014C14.5518 20.1014 14.5518 20.1014 14.4603 20.1014C14.3689 20.1014 14.2774 20.0092 14.2774 19.9171C14.0031 19.3641 13.7287 18.8111 13.5459 18.2581C13.4544 18.1659 13.363 18.0737 13.2715 17.9816C13.1801 17.8894 12.9972 17.8894 12.9057 17.8894C12.7228 17.8894 12.6314 17.8894 12.5399 17.9816C12.4485 18.0737 12.2656 18.1659 12.2656 18.2581C12.1741 18.3502 12.1741 18.5346 12.2656 18.6267C12.5399 19.6406 12.9057 20.7465 13.2715 21.7604C13.2715 21.8525 13.363 21.9447 13.4544 21.9447L13.6373 22.129C13.9116 22.4055 14.186 22.682 14.4603 22.9585C15.009 23.4194 15.3748 23.9724 15.6491 24.6175L15.7406 24.7097C15.7406 24.7097 15.832 24.7097 15.9235 24.7097C17.2037 24.7097 18.484 24.7097 19.8557 24.7097C19.9471 24.7097 20.0386 24.7097 20.0386 24.6175C20.13 24.1567 20.3129 23.6959 20.4044 23.235C20.4958 22.8664 20.5873 22.4977 20.6787 22.129C20.8616 21.6682 20.9531 21.2074 20.9531 20.7465C20.9531 20.1935 20.9531 19.6406 20.9531 18.9954C20.9531 18.5346 20.9531 18.1659 20.9531 17.7051C20.9531 17.6129 20.9531 17.5207 20.8616 17.4286C20.8616 17.3364 20.7702 17.2442 20.6787 17.2442C20.5873 17.1521 20.4958 17.1521 20.4044 17.1521C20.3129 17.1521 20.3129 17.1521 20.2215 17.1521C20.13 17.1521 20.0386 17.2442 19.9471 17.3364C19.8557 17.4286 19.8557 17.5207 19.8557 17.6129V18.8111V18.9032C19.8557 18.9032 19.8557 18.9032 19.8557 18.9954C19.8557 18.9954 19.8557 18.9954 19.7643 18.9954C19.6728 18.9954 19.6728 18.9954 19.5814 18.9954L19.4899 18.9032V18.8111C19.4899 18.1659 19.4899 17.5207 19.4899 16.9677C19.4899 16.8756 19.4899 16.7834 19.3985 16.7834C19.3985 16.6912 19.307 16.6912 19.2156 16.5991C19.0327 16.5069 18.7583 16.5069 18.484 16.5991C18.3925 16.5991 18.3011 16.6912 18.2097 16.7834C18.1182 16.8756 18.1182 16.9677 18.1182 17.0599C18.1182 17.2442 18.1182 17.5207 18.1182 17.7051C18.1182 17.9816 18.1182 18.1659 18.1182 18.4424C18.1182 18.6267 18.0268 18.6267 17.8439 18.6267C17.661 18.6267 17.5695 18.5346 17.5695 18.3502V15.9539C17.5695 15.8618 17.5695 15.7696 17.4781 15.6774C17.3866 15.5853 17.2952 15.4931 17.1123 15.4931C17.0208 15.4931 17.0208 15.4931 16.9294 15.4931C16.8379 15.4931 16.6551 15.4931 16.5636 15.5853C16.3807 15.6774 16.2893 15.8618 16.2893 16.0461V18.5346C16.2893 18.6267 16.2893 18.7189 16.1978 18.7189C16.1064 18.7189 16.1064 18.7189 16.0149 18.7189C15.9235 18.7189 15.832 18.6267 15.7406 18.5346V14.4793C15.7406 14.3871 15.7406 14.2949 15.7406 14.2028C15.7406 14.1106 15.7406 14.1106 15.6491 14.0184C15.6491 13.9263 15.5577 13.9263 15.5577 13.9263C15.7406 13.8341 15.6491 13.7419 15.6491 13.7419ZM15.4662 9.31797C15.1919 9.31797 14.9176 9.59447 14.9176 9.87097V11.53C14.9176 11.8065 15.1919 12.083 15.4662 12.083C15.7406 12.083 16.0149 11.8065 16.0149 11.53V9.87097C16.0149 9.59447 15.7406 9.31797 15.4662 9.31797ZM18.2097 10.8848C18.3925 10.6083 18.6669 10.5161 18.9412 10.7005C19.2156 10.8848 19.307 11.1613 19.1241 11.4378L18.3011 12.9124C18.2097 13.1889 17.8439 13.2811 17.5695 13.0968C17.2952 12.9124 17.2037 12.6359 17.3866 12.3594L18.2097 10.8848ZM12.0827 10.7005C12.357 10.5161 12.7228 10.6083 12.8143 10.8848L13.6373 12.3594C13.8202 12.6359 13.7287 13.0046 13.4544 13.0968C13.1801 13.1889 12.9057 13.1889 12.7228 12.9124L11.8998 11.4378C11.7169 11.1613 11.8084 10.8848 12.0827 10.7005Z" fill="#627783"/>
</svg>
