<svg width="20" height="20" style="margin-top: 5px" viewBox="0 0 20 20" fill="none" xmlns="http://www.w3.org/2000/svg">
<path d="M10 19.375C15.1777 19.375 19.375 15.1777 19.375 10C19.375 4.82233 15.1777 0.625 10 0.625C4.82233 0.625 0.625 4.82233 0.625 10C0.625 15.1777 4.82233 19.375 10 19.375Z" fill="#2E3D98"/>
<path d="M15.2085 6.34838C15.0259 5.58949 14.4103 4.97393 13.6514 4.79128C13.4693 4.74718 13.29 4.72656 13.1159 4.72656C12.4692 4.72656 11.8935 5.01277 11.5008 5.46484L10.2592 6.7065C9.68532 7.2046 9.37851 7.99849 9.58513 8.8571C9.63834 9.07715 9.73087 9.28281 9.84976 9.4717L9.47199 9.84947C9.2831 9.73058 9.07744 9.63757 8.85739 9.58484C8.67522 9.54121 8.49592 9.5206 8.3219 9.5206C7.67519 9.5206 7.09942 9.8068 6.70679 10.2589L5.46514 11.5005C4.89129 11.9986 4.58447 12.7925 4.79109 13.6511C4.97375 14.4105 5.5893 15.0261 6.3482 15.2087C6.53037 15.2528 6.70967 15.2734 6.88369 15.2734C7.53041 15.2734 8.10617 14.9872 8.4988 14.5352L9.74045 13.2935C10.3143 12.7954 10.6211 12.0015 10.4145 11.1429C10.3613 10.9229 10.2688 10.7172 10.1499 10.5283L10.5276 10.1505C10.7165 10.2694 10.9222 10.3619 11.1422 10.4152C11.3244 10.4588 11.5037 10.4794 11.6777 10.4794C12.3244 10.4794 12.9002 10.1932 13.2928 9.74112L14.5345 8.49947C15.1083 8.00089 15.4156 7.207 15.2085 6.34838ZM9.48254 11.3673C9.59232 11.8232 9.45377 12.2729 9.11196 12.5696L9.08655 12.5917L9.06258 12.6156L7.82092 13.8573L7.79695 13.8813L7.7749 13.9067C7.54623 14.1699 7.22982 14.3146 6.88369 14.3146C6.78206 14.3146 6.67755 14.3017 6.57304 14.2768C6.16363 14.178 5.82181 13.8367 5.72353 13.4273C5.61375 12.9713 5.7523 12.5217 6.09411 12.2249L6.11952 12.2029L6.14349 12.1789L7.38515 10.9372L7.40912 10.9133L7.43117 10.8879C7.65936 10.6242 7.97577 10.4794 8.3219 10.4794C8.42353 10.4794 8.52804 10.4923 8.63255 10.5173C8.6757 10.5278 8.71405 10.5508 8.75528 10.5662L7.74326 11.5782C7.55581 11.7656 7.55581 12.0686 7.74326 12.2561C7.83674 12.35 7.95947 12.397 8.0822 12.397C8.20493 12.397 8.32765 12.35 8.42114 12.2566L9.43316 11.2445C9.44898 11.2858 9.47199 11.3241 9.48254 11.3673ZM13.906 7.77509L13.8806 7.79714L13.8566 7.82111L12.615 9.06277L12.591 9.08674L12.5689 9.11214C12.3403 9.37582 12.0239 9.5206 11.6777 9.5206C11.5761 9.5206 11.4716 9.50765 11.3671 9.48272C11.3239 9.47218 11.2856 9.44917 11.2443 9.43382L12.2564 8.4218C12.4438 8.23436 12.4438 7.93137 12.2564 7.74393C12.0689 7.55648 11.7659 7.55648 11.5785 7.74393L10.5665 8.75595C10.5511 8.71472 10.5276 8.67637 10.5176 8.63322C10.4078 8.17731 10.5463 7.72763 10.8881 7.43088L10.9136 7.40882L10.9375 7.38485L12.1792 6.1432L12.2031 6.11923L12.2252 6.09382C12.4534 5.83015 12.7698 5.68537 13.1159 5.68537C13.2176 5.68537 13.3221 5.69831 13.4266 5.72324C13.836 5.822 14.1778 6.16333 14.2761 6.57275C14.3864 7.02914 14.2478 7.47834 13.906 7.77509Z" fill="white"/>
</svg>
