<svg width="24" height="24" viewBox="0 0 24 24" fill="none" xmlns="http://www.w3.org/2000/svg">
<path fill-rule="evenodd" clip-rule="evenodd" d="M17.6 1.2H5.46667C4.44 1.2 3.6 2.08363 3.6 3.16363V20.8364C3.6 21.9164 4.44 22.8 5.46667 22.8H18.5333C19.56 22.8 20.4 21.9164 20.4 20.8364V4.14545L17.6 1.2ZM11.5605 9.62014C11.4923 9.60249 11.4205 9.59635 11.3494 9.60207L11.3424 9.60124C11.3224 9.60124 11.3019 9.60263 11.2809 9.60406C11.259 9.60555 11.2365 9.60708 11.2134 9.60708C11.0555 9.61546 10.9078 9.67502 10.8019 9.77302C10.6959 9.87102 10.6401 9.99969 10.6465 10.1315C10.6465 10.6394 10.6562 11.1472 10.666 11.6548C10.6757 12.1622 10.6855 12.6694 10.6855 13.1765C10.6855 13.5167 10.6849 13.8569 10.6844 14.197V14.1973C10.6832 14.8776 10.6821 15.5579 10.6855 16.2381C10.6855 16.3832 10.6445 16.4941 10.4585 16.5233C10.4385 16.5272 10.418 16.5291 10.3975 16.5291C10.2565 16.5291 10.1995 16.4341 10.1505 16.324C9.8715 15.7079 9.59151 15.0917 9.30252 14.478C9.25119 14.3614 9.15616 14.2617 9.03152 14.1937C8.90687 14.1256 8.75925 14.0929 8.61054 14.1003C8.45929 14.1025 8.30941 14.1247 8.16656 14.1662C8.01914 14.2269 7.90433 14.3315 7.84474 14.4592C7.78514 14.587 7.78509 14.7288 7.84457 14.8566C7.84666 14.8635 7.84822 14.8705 7.84977 14.8774C7.85194 14.887 7.85407 14.8965 7.85757 14.9058C8.24222 16.0347 8.63054 17.1628 9.02253 18.2901C9.05398 18.3795 9.10594 18.4631 9.17552 18.5361C9.24353 18.6078 9.31128 18.6797 9.37902 18.7516C9.66491 19.055 9.95072 19.3583 10.2555 19.6475C10.8374 20.1742 11.2941 20.7881 11.6014 21.4568C11.6159 21.5028 11.6502 21.5426 11.6979 21.5686C11.7456 21.5947 11.8031 21.605 11.8594 21.5977H11.8684C13.2917 21.5844 14.7153 21.5746 16.1393 21.5685C16.2733 21.5677 16.3333 21.5435 16.3653 21.4226C16.4965 20.9154 16.6328 20.4091 16.7692 19.9026L16.7692 19.9025L16.7692 19.9025L16.7692 19.9024L16.7693 19.9021C16.873 19.517 16.9768 19.1318 17.0782 18.7462C17.2459 18.2618 17.3432 17.7624 17.3682 17.2587C17.3534 16.6345 17.3463 16.0104 17.3393 15.3862C17.3341 14.9181 17.3288 14.45 17.3202 13.9819C17.3131 13.877 17.2826 13.7741 17.2302 13.6784C17.2027 13.5989 17.1451 13.5289 17.066 13.4789C16.9869 13.4289 16.8905 13.4015 16.7912 13.4008C16.7214 13.4017 16.652 13.4109 16.5853 13.4283C16.4635 13.4601 16.3583 13.5254 16.2869 13.6136C16.2155 13.7017 16.1821 13.8075 16.1923 13.9136V15.1951C16.1957 15.2211 16.193 15.2474 16.1842 15.2726C16.1754 15.2977 16.1607 15.3211 16.141 15.3415C16.1213 15.3619 16.097 15.3788 16.0694 15.3913C16.0418 15.4038 16.0115 15.4117 15.9803 15.4144C15.9402 15.4137 15.9011 15.4039 15.8673 15.386C15.827 15.3575 15.7945 15.3221 15.7719 15.2823C15.7494 15.2425 15.7372 15.1991 15.7363 15.1551C15.7313 14.4789 15.7313 13.8018 15.7313 13.1256C15.7388 13.0422 15.719 12.9586 15.6739 12.8838C15.6288 12.8091 15.5601 12.746 15.4753 12.7012C15.3568 12.6349 15.218 12.5985 15.0753 12.5962C14.9515 12.5974 14.8299 12.6241 14.7213 12.6737C14.6139 12.7206 14.526 12.7934 14.4693 12.8827C14.4125 12.972 14.3895 13.0736 14.4033 13.174C14.4061 13.4121 14.4059 13.6503 14.4056 13.8884C14.4054 14.1605 14.4051 14.4327 14.4093 14.7048C14.4123 14.8674 14.3103 14.9241 14.1463 14.9358H14.1033C13.9283 14.9358 13.8464 14.8491 13.8464 14.6673V12.0717C13.85 11.9508 13.8001 11.833 13.7062 11.7407C13.6124 11.6485 13.4811 11.5882 13.3374 11.5715C13.286 11.5632 13.2337 11.559 13.1814 11.559C13.0538 11.5535 12.9273 11.5801 12.818 11.6353C12.7087 11.6904 12.6218 11.7716 12.5684 11.8683C12.5365 11.9466 12.5219 12.0291 12.5254 12.1118V14.8074C12.5254 14.9024 12.5174 14.9833 12.3894 15.0217C12.3388 15.0373 12.2854 15.0457 12.2314 15.0467C12.0734 15.0467 11.9734 14.9525 11.9734 14.7857V10.3591C11.9744 10.2431 11.9624 10.1273 11.9374 10.0131C11.9318 9.95376 11.912 9.89593 11.8793 9.84299C11.8465 9.79006 11.8015 9.7431 11.7468 9.70483C11.692 9.66657 11.6287 9.63778 11.5605 9.62014ZM11.4 4.8C11.0686 4.8 10.8 5.06863 10.8 5.4V7.2C10.8 7.53137 11.0686 7.8 11.4 7.8C11.7314 7.8 12 7.53137 12 7.2V5.4C12 5.06863 11.7314 4.8 11.4 4.8ZM14.4 6.51962C14.5657 6.23264 14.9326 6.13431 15.2196 6.3C15.5066 6.46569 15.6049 6.83264 15.4392 7.11962L14.5392 8.67846C14.3735 8.96544 14.0066 9.06376 13.7196 8.89808C13.4326 8.73239 13.3343 8.36544 13.5 8.07846L14.4 6.51962ZM7.71962 6.3C8.00659 6.13431 8.37355 6.23264 8.53923 6.51962L9.43923 8.07846C9.60492 8.36544 9.50659 8.73239 9.21962 8.89808C8.93264 9.06376 8.56569 8.96544 8.4 8.67846L7.5 7.11962C7.33432 6.83264 7.43264 6.46569 7.71962 6.3Z" fill="#333333"/>
</svg>
