<svg width="20" height="20" viewBox="0 0 20 20" fill="none" xmlns="http://www.w3.org/2000/svg">
<circle cx="10" cy="10" r="9.25" fill="white" stroke="#DF3324" stroke-width="1.5"/>
<path d="M11.3334 9.99999L14.0001 7.33333C14.381 6.95237 14.381 6.38095 14.0001 5.99999C13.6191 5.61904 13.0477 5.61904 12.6667 5.99999L10.0001 8.66666L7.3334 5.99999C6.95245 5.61904 6.38102 5.61904 6.00007 5.99999C5.61912 6.38095 5.61912 6.95237 6.00007 7.33333L8.66674 9.99999L6.00007 12.6667C5.61912 13.0476 5.61912 13.619 6.00007 14C6.19055 14.1905 6.47626 14.2857 6.66674 14.2857C6.95245 14.2857 7.14293 14.1905 7.3334 14L10.0001 11.3333L12.6667 14C12.8572 14.1905 13.1429 14.2857 13.3334 14.2857C13.6191 14.2857 13.8096 14.1905 14.0001 14C14.381 13.619 14.381 13.0476 14.0001 12.6667L11.3334 9.99999Z" fill="#DF3324" stroke="#DF3324" stroke-width="0.5"/>
</svg>
