<?xml version="1.0" encoding="utf-8"?>
<!-- Generator: Adobe Illustrator 26.0.0, SVG Export Plug-In . SVG Version: 6.00 Build 0)  -->
<svg version="1.1" id="Layer_1" xmlns="http://www.w3.org/2000/svg" xmlns:xlink="http://www.w3.org/1999/xlink" x="0px" y="0px"
	 viewBox="0 0 24 24" style="enable-background:new 0 0 24 24;" xml:space="preserve">
<style type="text/css">
	.st0{fill:#2E3D98;}
	.st1{fill:#FFFFFF;}
	.st2{opacity:0.6;enable-background:new    ;}
</style>
<g>
	<path class="st0" d="M3,0.5h18c1.381,0,2.5,1.119,2.5,2.5v18c0,1.381-1.119,2.5-2.5,2.5H3c-1.381,0-2.5-1.119-2.5-2.5V3
		C0.5,1.619,1.619,0.5,3,0.5z"/>
	<path class="st1" d="M21,24H3c-1.654,0-3-1.346-3-3V3c0-1.654,1.346-3,3-3h18c1.654,0,3,1.346,3,3v18C24,22.654,22.654,24,21,24z
		 M3,1C1.897,1,1,1.897,1,3v18c0,1.103,0.897,2,2,2h18c1.103,0,2-0.897,2-2V3c0-1.103-0.897-2-2-2H3z"/>
</g>
<g>
	<path class="st1" d="M17.714,9h-3.429C13.6,9,13,8.4,13,7.714V4.286C13,3.6,13.6,3,14.286,3h3.429C18.4,3,19,3.6,19,4.286v3.429
		C19,8.4,18.4,9,17.714,9z M17.714,8.143c0.257,0,0.429-0.171,0.429-0.429V4.286c0-0.257-0.172-0.429-0.429-0.429h-3.429
		c-0.257,0-0.429,0.171-0.429,0.429v3.429c0,0.257,0.172,0.429,0.429,0.429H17.714z"/>
</g>
<g>
	<path class="st1" d="M8.714,15H5.286C4.6,15,4,14.4,4,13.714v-3.429C4,9.6,4.6,9,5.286,9h3.429C9.4,9,10,9.6,10,10.286v3.429
		C10,14.4,9.4,15,8.714,15z M8.714,14.143c0.257,0,0.429-0.172,0.429-0.429v-3.429c0-0.257-0.171-0.429-0.429-0.429H5.286
		c-0.257,0-0.429,0.171-0.429,0.429v3.429c0,0.257,0.171,0.429,0.429,0.429H8.714z"/>
</g>
<g>
	<path class="st1" d="M7,6.5C7,6.2,7.2,6,7.5,6H13V5H7.5C6.7,5,6,5.7,6,6.5V9h1V6.5z"/>
</g>
<g>
	<path class="st1" d="M17.714,21h-3.429C13.6,21,13,20.4,13,19.714v-3.429C13,15.6,13.6,15,14.286,15h3.429
		C18.4,15,19,15.6,19,16.286v3.429C19,20.4,18.4,21,17.714,21z M13.857,16.286v3.429c0,0.257,0.172,0.429,0.429,0.429h3.429
		c0.257,0,0.429-0.172,0.429-0.429v-3.429c0-0.257-0.172-0.429-0.429-0.429h-3.429C14.029,15.857,13.857,16.029,13.857,16.286z"/>
</g>
<g>
	<path class="st1" d="M7,17.5C7,17.8,7.2,18,7.5,18H13v1H7.5C6.7,19,6,18.3,6,17.5V15h1V17.5z"/>
</g>
<g class="st2">
	<path class="st1" d="M18,8.5c0.3,0,0.5-0.2,0.5-0.5V4c0-0.3-0.2-0.5-0.5-0.5h-4c-0.3,0-0.5,0.2-0.5,0.5v4c0,0.3,0.2,0.5,0.5,0.5H18
		z"/>
</g>
<g class="st2">
	<path class="st1" d="M9,14.5c0.3,0,0.5-0.2,0.5-0.5v-4c0-0.3-0.2-0.5-0.5-0.5H5c-0.3,0-0.5,0.2-0.5,0.5v4c0,0.3,0.2,0.5,0.5,0.5H9z
		"/>
</g>
<g class="st2">
	<path class="st1" d="M13.5,16v4c0,0.3,0.2,0.5,0.5,0.5h4c0.3,0,0.5-0.2,0.5-0.5v-4c0-0.3-0.2-0.5-0.5-0.5h-4
		C13.7,15.5,13.5,15.7,13.5,16z"/>
</g>
</svg>
