<svg width="20" height="20" viewBox="0 0 20 20" fill="none" xmlns="http://www.w3.org/2000/svg">
<path id="Vector" d="M10 0C4.4775 0 0 4.4775 0 10C0 15.5225 4.4775 20 10 20C15.5225 20 20 15.5225 20 10C20 4.4775 15.5225 0 10 0ZM18.3333 10C18.3333 12.0008 17.6267 13.8367 16.4517 15.2725L4.7275 3.54833C6.16333 2.37333 7.99917 1.66667 10 1.66667C14.6025 1.66667 18.3333 5.3975 18.3333 10ZM1.66667 10C1.66667 7.99917 2.37333 6.16333 3.54833 4.7275L15.2725 16.4517C13.8367 17.6267 12.0008 18.3333 10 18.3333C5.3975 18.3333 1.66667 14.6025 1.66667 10Z" fill="#DF3324"/>
</svg>
