<?xml version="1.0" encoding="utf-8"?>
<!-- Generator: Adobe Illustrator 25.4.1, SVG Export Plug-In . SVG Version: 6.00 Build 0)  -->
<svg version="1.1" id="Layer_1" xmlns="http://www.w3.org/2000/svg" xmlns:xlink="http://www.w3.org/1999/xlink" x="0px" y="0px"
	 viewBox="0 0 24 24" style="enable-background:new 0 0 24 24;" xml:space="preserve">
<style type="text/css">
	.st0{clip-path:url(#SVGID_00000102542662691238235590000011678007055895964086_);}
	.st1{fill:#2E3D98;}
	.st2{fill-rule:evenodd;clip-rule:evenodd;fill:#FFFFFF;}
	.st3{fill:#FFFFFF;}
	.st4{fill:none;stroke:#FFFFFF;stroke-width:1.5;}
</style>
<g>
	<defs>
		<rect id="SVGID_1_" width="24" height="24"/>
	</defs>
	<clipPath id="SVGID_00000169548047996993413080000004639376846039188108_">
		<use xlink:href="#SVGID_1_"  style="overflow:visible;"/>
	</clipPath>
	<g style="clip-path:url(#SVGID_00000169548047996993413080000004639376846039188108_);">
		<path class="st1" d="M12,23.333C5.751,23.333,0.667,18.249,0.667,12C0.667,5.751,5.751,0.667,12,0.667
			c6.249,0,11.333,5.084,11.333,11.333C23.333,18.249,18.249,23.333,12,23.333z"/>
		<path class="st2" d="M12.031,24c6.628,0,12-5.373,12-12c0-6.627-5.372-12-12-12c-6.627,0-12,5.373-12,12
			C0.031,18.627,5.404,24,12.031,24z M12.031,23c6.075,0,11-4.925,11-11c0-6.075-4.925-11-11-11c-6.075,0-11,4.925-11,11
			C1.031,18.075,5.956,23,12.031,23z"/>
		<path class="st3" d="M6.5,10h11c0.276,0,0.5,0.224,0.5,0.5v7c0,0.276-0.224,0.5-0.5,0.5h-11C6.224,18,6,17.776,6,17.5v-7
			C6,10.224,6.224,10,6.5,10z"/>
		<path class="st4" d="M9,8c0-1.657,1.343-3,3-3l0,0c1.657,0,3,1.343,3,3v4H9V8z"/>
	</g>
</g>
</svg>
