<?xml version="1.0" encoding="utf-8"?>
<!-- Generator: Adobe Illustrator 25.4.1, SVG Export Plug-In . SVG Version: 6.00 Build 0)  -->
<svg version="1.1" id="Layer_1" xmlns="http://www.w3.org/2000/svg" xmlns:xlink="http://www.w3.org/1999/xlink" x="0px" y="0px"
	 viewBox="0 0 32 32" style="enable-background:new 0 0 32 32;" xml:space="preserve">
<style type="text/css">
	.st0{fill:#00A389;}
	.st1{fill:#FFFFFF;}
	.st2{fill-rule:evenodd;clip-rule:evenodd;fill:#00795A;}
	.st3{fill:#B36601;}
	.st4{fill:#E3992E;}
	.st5{fill-rule:evenodd;clip-rule:evenodd;fill:#2E3D98;}
</style>
<path class="st0" d="M16,22.5c-1.378,0-2.5-1.121-2.5-2.5V3.6c0-1.158,0.942-2.1,2.1-2.1h10.607L30.5,5.793V20.4
	c0,1.158-0.942,2.1-2.1,2.1H16z"/>
<path class="st1" d="M26,2l4,4v14.4c0,0.884-0.716,1.6-1.6,1.6H16c-1.105,0-2-0.895-2-2V3.6C14,2.716,14.716,2,15.6,2H26z M26.414,1
	H26H15.6C14.166,1,13,2.166,13,3.6V20c0,1.654,1.346,3,3,3h12.4c1.434,0,2.6-1.166,2.6-2.6V6V5.586l-0.293-0.293l-4-4L26.414,1z"/>
<path class="st2" d="M26,2v4h4L26,2z"/>
<path class="st3" d="M1.5,30.5V14.177c0-0.925,0.748-1.677,1.667-1.677H9.31c0.387,0,0.776,0.139,1.095,0.391l2.849,2.405
	c0.186,0.146,0.301,0.204,0.414,0.204h8.167c0.919,0,1.667,0.748,1.667,1.667V30.5H1.5z"/>
<path class="st1" d="M9.309,13c0.285,0,0.561,0.106,0.785,0.283l2.837,2.395C13.154,15.855,13.382,16,13.667,16h8.167
	C22.478,16,23,16.522,23,17.167V30H2V14.176C2,13.532,2.522,13,3.167,13H9.309z M9.309,12H3.167C1.972,12,1,12.976,1,14.176V30v1h1
	h21h1v-1V17.167C24,15.972,23.028,15,21.833,15h-8.132c-0.022-0.012-0.067-0.041-0.15-0.106l-2.813-2.375
	C10.308,12.177,9.809,12,9.309,12z"/>
<path class="st4" d="M3,29h19V19c0-0.552-0.448-1-1-1H4c-0.552,0-1,0.448-1,1V29z"/>
<path class="st1" d="M23.5,32c4.694,0,8.5-3.806,8.5-8.5S28.194,15,23.5,15S15,18.806,15,23.5S18.806,32,23.5,32z"/>
<path class="st5" d="M31,23.5c0,4.142-3.358,7.5-7.5,7.5S16,27.642,16,23.5s3.358-7.5,7.5-7.5S31,19.358,31,23.5z M20.188,24.342
	c-0.22,0-0.431-0.087-0.587-0.242c-0.155-0.156-0.242-0.367-0.242-0.587c0-0.22,0.087-0.431,0.242-0.588L23.525,19l3.917,3.925
	c0.136,0.16,0.208,0.365,0.2,0.574c-0.008,0.21-0.095,0.409-0.243,0.557c-0.148,0.148-0.347,0.235-0.557,0.243
	c-0.21,0.008-0.415-0.063-0.574-0.2l-1.908-1.917v4.658c0,0.221-0.088,0.433-0.244,0.589s-0.368,0.244-0.589,0.244
	c-0.221,0-0.433-0.088-0.589-0.244c-0.156-0.156-0.244-0.368-0.244-0.589v-4.658L20.775,24.1
	C20.619,24.255,20.408,24.342,20.188,24.342z"/>
</svg>
