<?xml version="1.0" encoding="utf-8"?>
<!-- Generator: Adobe Illustrator 24.0.0, SVG Export Plug-In . SVG Version: 6.00 Build 0)  -->
<svg version="1.1" id="Layer_1" xmlns="http://www.w3.org/2000/svg" xmlns:xlink="http://www.w3.org/1999/xlink" x="0px" y="0px"
	 viewBox="0 0 220 220" style="enable-background:new 0 0 220 220;" xml:space="preserve">
<style type="text/css">
	.st0{fill:#D7E2E5;}
	.st1{fill:#A8A8A8;}
	.st2{fill-rule:evenodd;clip-rule:evenodd;fill:#666666;}
	.st3{fill:#666666;}
	.st4{fill:#9BAFBA;}
	.st5{opacity:0.58;fill:#949494;enable-background:new    ;}
	.st6{opacity:0.7;fill:#666666;enable-background:new    ;}
	.st7{opacity:0.5;fill:#666666;enable-background:new    ;}
</style>
<path class="st0" d="M159.348,76.139c5.053,0,9.149-4.075,9.149-9.101c0-5.026-4.096-9.101-9.149-9.101
	c-5.053,0-9.15,4.075-9.15,9.101C150.198,72.064,154.295,76.139,159.348,76.139z"/>
<path class="st0" d="M107.9,104.776c9.829,0,17.796-7.971,17.796-17.804c0-9.833-7.967-17.804-17.796-17.804
	c-9.829,0-17.797,7.971-17.797,17.804C90.103,96.805,98.071,104.776,107.9,104.776z"/>
<path class="st1" d="M11,98h-1c-1.356,0-2.649,0.27-3.828,0.759l0.766,1.847C7.879,100.216,8.912,100,10,100h1V98z"/>
<path class="st1" d="M209,100h1c1.088,0,2.121,0.216,3.062,0.606l0.766-1.847C212.649,98.27,211.356,98,210,98h-1V100z"/>
<path class="st1" d="M6.172,196.241C7.351,196.73,8.644,197,10,197h3.571v-2H10c-1.088,0-2.121-0.216-3.062-0.606L6.172,196.241z"/>
<path class="st1" d="M206.429,197H210c1.356,0,2.649-0.27,3.828-0.759l-0.766-1.847c-0.941,0.39-1.974,0.606-3.062,0.606h-3.571V197
	z"/>
<path class="st1" d="M220,111.292V108c0-1.356-0.27-2.649-0.759-3.828l-1.847,0.766c0.39,0.941,0.606,1.974,0.606,3.062v3.292H220z"
	/>
<path class="st1" d="M0,183.708V187c0,1.356,0.27,2.649,0.759,3.828l1.847-0.766C2.216,189.121,2,188.088,2,187v-3.292H0z"/>
<path class="st1" d="M0,177.125v-6.583h2v6.583H0z"/>
<path class="st1" d="M0,163.958v-6.583h2v6.583H0z"/>
<path class="st1" d="M0,150.792v-6.584h2v6.584H0z"/>
<path class="st1" d="M0,137.625v-6.583h2v6.583H0z"/>
<path class="st1" d="M0,124.458v-6.583h2v6.583H0z"/>
<path class="st1" d="M0,111.292V108c0-1.356,0.27-2.649,0.759-3.828l1.847,0.766C2.216,105.879,2,106.912,2,108v3.292H0z"/>
<path class="st1" d="M220,117.875v6.583h-2v-6.583H220z"/>
<path class="st1" d="M220,131.042v6.583h-2v-6.583H220z"/>
<path class="st1" d="M220,144.208v6.584h-2v-6.584H220z"/>
<path class="st1" d="M220,157.375v6.583h-2v-6.583H220z"/>
<path class="st1" d="M220,170.542v6.583h-2v-6.583H220z"/>
<path class="st1" d="M220,183.708V187c0,1.356-0.27,2.649-0.759,3.828l-1.847-0.766c0.39-0.941,0.606-1.974,0.606-3.062v-3.292H220z
	"/>
<path class="st1" d="M199.286,197h-7.143v-2h7.143V197z"/>
<path class="st1" d="M185,197h-7.143v-2H185V197z"/>
<path class="st1" d="M170.714,197h-7.143v-2h7.143V197z"/>
<path class="st1" d="M156.429,197h-7.143v-2h7.143V197z"/>
<path class="st1" d="M142.143,197H135v-2h7.143V197z"/>
<path class="st1" d="M127.857,197h-7.143v-2h7.143V197z"/>
<path class="st1" d="M113.571,197h-7.142v-2h7.142V197z"/>
<path class="st1" d="M99.286,197h-7.143v-2h7.143V197z"/>
<path class="st1" d="M85,197h-7.143v-2H85V197z"/>
<path class="st1" d="M70.714,197h-7.143v-2h7.143V197z"/>
<path class="st1" d="M56.429,197h-7.143v-2h7.143V197z"/>
<path class="st1" d="M42.143,197H35v-2h7.143V197z"/>
<path class="st1" d="M27.857,197h-7.143v-2h7.143V197z"/>
<path class="st2" d="M63.573,119.379l-5.458,1.076c-0.502,0.099-0.991-0.228-1.091-0.73c-0.1-0.502,0.226-0.989,0.728-1.088
	l5.458-1.076c0.502-0.099,0.991,0.228,1.091,0.729C64.401,118.792,64.075,119.28,63.573,119.379z M52.658,121.531l-5.457,1.076
	c-0.502,0.099-0.991-0.228-1.091-0.73c-0.1-0.502,0.226-0.989,0.729-1.088l5.457-1.076c0.502-0.099,0.991,0.228,1.091,0.729
	C53.486,120.944,53.16,121.432,52.658,121.531z M41.743,123.683l-5.457,1.076c-0.502,0.099-0.991-0.228-1.091-0.73
	c-0.1-0.502,0.226-0.989,0.728-1.088l5.457-1.076c0.502-0.099,0.991,0.228,1.091,0.729
	C42.571,123.096,42.245,123.584,41.743,123.683z"/>
<path class="st3" d="M142.95,57.146h-23.729c-0.471,0-0.854-0.381-0.854-0.851V31.159c0-0.47,0.383-0.851,0.854-0.851
	s0.853,0.381,0.853,0.851v24.285h22.876c0.471,0,0.853,0.381,0.853,0.851C143.803,56.765,143.421,57.146,142.95,57.146z"/>
<path class="st3" d="M29.726,146.367c-3.865,0-7.315-2.746-8.051-6.667L10.827,81.71c-0.83-4.424,2.105-8.699,6.543-9.528
	l45.337-8.445c0.185-0.034,0.367-0.061,0.547-0.082c0.023-10.008,0.049-20.014,0.076-30.018l0.008-2.787L64.19,30h55.32l0.619,0.266
	l24.17,25.443l0.234,0.585l0.017,21.531l-1.036,0.832l-4.096-0.898c-1.063-0.234-2.158-0.039-3.083,0.551
	c-0.926,0.591-1.565,1.501-1.8,2.564l-11.066,50.169c-0.126,0.569-0.129,1.149-0.007,1.728l-0.835,1.026H82.159
	c-1.191,2.075-3.247,3.548-5.595,3.983l-45.336,8.45C30.723,146.322,30.222,146.367,29.726,146.367z M65.042,31.703l-0.006,1.938
	c-0.027,10.27-0.054,20.541-0.078,30.816l-0.853,0.849c-0.346,0-0.702,0.035-1.088,0.105l-45.334,8.445
	c-3.512,0.657-5.836,4.04-5.179,7.542l10.848,57.989c0.658,3.502,4.05,5.82,7.563,5.169l45.336-8.45
	c1.997-0.371,3.925-2.169,4.827-4.012h0.568h40.022c-0.015-0.476,0.03-0.951,0.135-1.419l11.064-50.168
	c0.334-1.507,1.239-2.797,2.548-3.632c1.31-0.836,2.863-1.111,4.37-0.779l3.057,0.67l-0.016-20.132l-23.684-24.931H65.042z"/>
<path class="st3" d="M64.045,88.841c-0.001,0-0.002,0-0.003,0c-0.471-0.001-0.852-0.384-0.851-0.854l0.06-23.536
	c0.001-0.469,0.383-0.849,0.853-0.849c0.001,0,0.002,0,0.003,0c0.471,0.001,0.852,0.383,0.851,0.854l-0.06,23.536
	C64.897,88.462,64.515,88.841,64.045,88.841z"/>
<path class="st3" d="M81.646,133.796c0,0-16.941,0-17.456,0c-0.514,0-0.853-0.11-0.853-0.851c0-0.741,0-29.112,0-29.112
	c0-0.47,0.382-0.851,0.853-0.851c0.471,0,0.853,0.381,0.853,0.851v28.261h16.603c0.471,0,0.853,0.381,0.853,0.851
	C82.499,133.415,82.117,133.796,81.646,133.796z"/>
<path class="st0" d="M211.885,113.643l-9.022,40.58c-0.578,2.587-3.184,4.233-5.793,3.665l-65.777-14.327
	c-1.918-0.418-3.321-1.915-3.711-3.702c-0.138-0.651-0.147-1.343,0.008-2.031l10.866-48.858c0.578-2.587,3.184-4.237,5.793-3.665
	l4.021,0.875l32.484,7.076c1.91,0.564,2.69,1.43,3.046,2.11c1.047,1.99-0.625,4.021,0.465,5.999
	c0.607,1.094,1.763,1.625,2.613,1.902c7.1,1.547,14.204,3.093,21.304,4.643C210.797,108.479,212.464,111.057,211.885,113.643z"/>
<path class="st3" d="M194.456,152.425c-0.411,0-0.828-0.044-1.246-0.135l-66.986-14.712c-2.212-0.487-3.95-2.234-4.43-4.453
	c-0.174-0.823-0.17-1.646,0.009-2.451l11.065-50.167c0.334-1.507,1.239-2.797,2.548-3.632c1.31-0.836,2.862-1.111,4.37-0.779
	l37.236,8.18c1.781,0.53,2.997,1.402,3.614,2.591c0.657,1.257,0.473,2.491,0.311,3.579c-0.143,0.962-0.267,1.793,0.155,2.565
	c0.367,0.667,1.087,1.186,2.14,1.539l2.448,0.538c6.4,1.406,12.804,2.811,19.204,4.221c1.511,0.331,2.804,1.232,3.641,2.541
	c0.837,1.306,1.113,2.855,0.779,4.361l-9.188,41.668C199.527,150.579,197.119,152.425,194.456,152.425z M138.534,77.661
	c-0.771,0-1.529,0.22-2.199,0.647c-0.925,0.591-1.565,1.501-1.8,2.564l-11.066,50.17c-0.126,0.568-0.129,1.148-0.007,1.727
	c0.339,1.566,1.567,2.802,3.129,3.146l66.985,14.711c2.205,0.484,4.396-0.914,4.883-3.116l9.188-41.668
	c0.236-1.062,0.04-2.155-0.551-3.078c-0.591-0.924-1.504-1.561-2.569-1.794c-6.401-1.41-12.804-2.815-19.205-4.221l-2.575-0.57
	c-1.498-0.493-2.555-1.285-3.143-2.352c-0.696-1.276-0.51-2.528-0.345-3.633c0.141-0.952,0.264-1.775-0.137-2.544
	c-0.394-0.759-1.255-1.342-2.56-1.735l-37.145-8.158C139.125,77.693,138.828,77.661,138.534,77.661z"/>
<path class="st3" d="M102.715,102.203c-10.35,0-18.77-8.402-18.77-18.73s8.42-18.73,18.77-18.73c10.349,0,18.769,8.402,18.769,18.73
	S113.064,102.203,102.715,102.203z M102.715,66.446c-9.409,0-17.063,7.638-17.063,17.027c0,9.389,7.655,17.027,17.063,17.027
	c9.408,0,17.063-7.638,17.063-17.027C119.778,74.084,112.123,66.446,102.715,66.446z"/>
<path class="st4" d="M151.653,51.662c1.558,0,2.821-1.262,2.821-2.819c0-1.557-1.263-2.819-2.821-2.819s-2.821,1.262-2.821,2.819
	C148.832,50.4,150.095,51.662,151.653,51.662z"/>
<path class="st5" d="M163.14,42.599c1.021,0,1.849-0.827,1.849-1.848c0-1.021-0.828-1.848-1.849-1.848
	c-1.022,0-1.85,0.827-1.85,1.848C161.29,41.771,162.118,42.599,163.14,42.599z"/>
<path class="st2" d="M70.522,103.281l5.458-1.076c0.502-0.099,0.828-0.587,0.728-1.088c-0.1-0.502-0.589-0.829-1.091-0.73
	l-5.457,1.076c-0.502,0.099-0.828,0.586-0.728,1.088S70.021,103.38,70.522,103.281z M59.608,105.433l5.457-1.076
	c0.502-0.099,0.828-0.587,0.728-1.088c-0.1-0.502-0.589-0.829-1.091-0.73l-5.457,1.076c-0.502,0.099-0.828,0.586-0.729,1.088
	C58.617,105.205,59.106,105.532,59.608,105.433z M48.693,107.585l5.457-1.076c0.503-0.099,0.828-0.587,0.729-1.088
	c-0.1-0.502-0.589-0.829-1.091-0.73l-5.457,1.076c-0.502,0.099-0.828,0.586-0.728,1.088
	C47.702,107.357,48.191,107.684,48.693,107.585z M37.778,109.737l5.458-1.076c0.502-0.099,0.828-0.587,0.728-1.088
	c-0.1-0.502-0.589-0.829-1.091-0.73l-5.458,1.076c-0.502,0.099-0.828,0.586-0.728,1.088
	C36.787,109.509,37.276,109.836,37.778,109.737z M26.863,111.889l5.457-1.076c0.503-0.099,0.828-0.587,0.728-1.088
	c-0.1-0.502-0.589-0.829-1.091-0.73l-5.457,1.076c-0.502,0.099-0.828,0.586-0.728,1.088
	C25.872,111.661,26.361,111.988,26.863,111.889z"/>
<path class="st2" d="M59.216,89.908l-5.457,1.076c-0.502,0.099-0.991-0.228-1.091-0.73c-0.1-0.502,0.226-0.989,0.728-1.088
	l5.457-1.076c0.502-0.099,0.991,0.228,1.091,0.73C60.044,89.322,59.718,89.809,59.216,89.908z M48.301,92.06l-5.458,1.076
	c-0.502,0.099-0.991-0.228-1.091-0.73c-0.1-0.502,0.226-0.989,0.728-1.088l5.458-1.076c0.502-0.099,0.991,0.228,1.091,0.73
	C49.129,91.474,48.803,91.961,48.301,92.06z M37.386,94.212l-5.457,1.076c-0.502,0.099-0.991-0.228-1.091-0.73
	c-0.1-0.502,0.226-0.989,0.729-1.088l5.457-1.076c0.502-0.099,0.991,0.228,1.091,0.73C38.214,93.626,37.889,94.113,37.386,94.212z"
	/>
<path class="st6" d="M40.852,51.215c1.808,0,3.273-1.414,3.273-3.159s-1.465-3.158-3.273-3.158c-1.808,0-3.273,1.414-3.273,3.158
	S39.044,51.215,40.852,51.215z"/>
<path class="st7" d="M40.852,38.727c-0.343,0-0.621-0.273-0.621-0.608v-2.169c0-0.336,0.278-0.608,0.621-0.608
	c0.343,0,0.621,0.273,0.621,0.608v2.169C41.473,38.454,41.195,38.727,40.852,38.727z"/>
<path class="st7" d="M45.674,39.863c-0.099,0-0.199-0.023-0.293-0.072c-0.303-0.159-0.417-0.527-0.254-0.824l1.048-1.916
	c0.162-0.296,0.538-0.407,0.841-0.249c0.302,0.158,0.417,0.527,0.254,0.824l-1.048,1.916C46.111,39.747,45.896,39.863,45.674,39.863
	z"/>
<path class="st7" d="M49.363,43.043c-0.2,0-0.396-0.094-0.516-0.269c-0.191-0.279-0.116-0.657,0.169-0.844l1.855-1.221
	c0.285-0.187,0.671-0.114,0.862,0.165c0.191,0.279,0.116,0.657-0.169,0.844l-1.855,1.221C49.603,43.01,49.483,43.043,49.363,43.043z
	"/>
<path class="st7" d="M51.107,47.528c-0.311,0-0.58-0.228-0.616-0.538c-0.039-0.334,0.205-0.636,0.546-0.674l2.226-0.253
	c0.34-0.04,0.649,0.201,0.689,0.534c0.039,0.334-0.205,0.636-0.545,0.674l-2.226,0.253C51.156,47.527,51.131,47.528,51.107,47.528z"
	/>
<path class="st7" d="M52.57,53.045c-0.073,0-0.148-0.013-0.22-0.04l-2.095-0.779c-0.321-0.119-0.482-0.471-0.36-0.785
	c0.122-0.314,0.481-0.472,0.801-0.353l2.095,0.779c0.321,0.119,0.482,0.471,0.36,0.785C53.057,52.895,52.821,53.045,52.57,53.045z"
	/>
<path class="st7" d="M49.101,57.824c-0.173,0-0.346-0.071-0.469-0.209l-1.462-1.642c-0.226-0.253-0.198-0.638,0.06-0.858
	c0.259-0.221,0.651-0.194,0.877,0.059l1.462,1.642c0.225,0.253,0.199,0.638-0.06,0.858C49.391,57.775,49.246,57.824,49.101,57.824z"
	/>
<path class="st7" d="M43.732,60.478c-0.28,0-0.534-0.186-0.603-0.464l-0.524-2.106c-0.081-0.326,0.123-0.655,0.457-0.735
	c0.332-0.078,0.669,0.12,0.751,0.447l0.524,2.105c0.081,0.326-0.123,0.655-0.457,0.735C43.831,60.472,43.781,60.478,43.732,60.478z"
	/>
<path class="st7" d="M37.688,60.394c-0.053,0-0.107-0.007-0.161-0.021c-0.331-0.086-0.529-0.42-0.44-0.744l0.567-2.085
	c0.088-0.325,0.429-0.518,0.76-0.431c0.331,0.086,0.529,0.42,0.44,0.744l-0.568,2.085C38.214,60.214,37.963,60.394,37.688,60.394z"
	/>
<path class="st7" d="M32.384,57.614c-0.153,0-0.307-0.055-0.427-0.167c-0.249-0.231-0.26-0.616-0.024-0.86l1.527-1.579
	c0.236-0.244,0.629-0.255,0.878-0.023c0.249,0.231,0.26,0.616,0.024,0.86l-1.527,1.579C32.714,57.55,32.549,57.614,32.384,57.614z"
	/>
<path class="st7" d="M29.047,52.771c-0.258,0-0.498-0.159-0.587-0.41c-0.112-0.318,0.06-0.664,0.385-0.774l2.117-0.716
	c0.325-0.108,0.678,0.059,0.79,0.376c0.112,0.318-0.06,0.664-0.385,0.774l-2.117,0.716C29.183,52.76,29.114,52.771,29.047,52.771z"
	/>
<path class="st7" d="M30.64,47.296c-0.028,0-0.056-0.002-0.085-0.006l-2.204-0.295c-0.34-0.045-0.578-0.352-0.531-0.685
	c0.046-0.333,0.359-0.569,0.699-0.52l2.204,0.295c0.34,0.045,0.578,0.352,0.531,0.685C31.213,47.076,30.946,47.296,30.64,47.296z"/>
<path class="st7" d="M32.494,42.854c-0.125,0-0.251-0.036-0.36-0.113l-1.811-1.263c-0.279-0.195-0.344-0.575-0.145-0.848
	c0.199-0.274,0.587-0.337,0.867-0.143l1.811,1.263c0.279,0.195,0.345,0.575,0.145,0.848C32.879,42.765,32.688,42.854,32.494,42.854z
	"/>
<path class="st7" d="M36.27,39.758c-0.227,0-0.445-0.122-0.555-0.333l-1.004-1.937c-0.155-0.299-0.033-0.666,0.273-0.817
	c0.306-0.153,0.68-0.032,0.835,0.267l1.004,1.937c0.155,0.3,0.033,0.666-0.273,0.818C36.46,39.737,36.364,39.758,36.27,39.758z"/>
<path class="st4" d="M165.884,122.586c-3.42,0-6.203-2.846-6.203-6.343c0-3.498,2.783-6.344,6.203-6.344
	c3.419,0,6.201,2.846,6.201,6.344C172.085,119.74,169.303,122.586,165.884,122.586z M165.884,111.453
	c-2.565,0-4.652,2.148-4.652,4.79c0,2.641,2.087,4.79,4.652,4.79c2.564,0,4.65-2.149,4.65-4.79
	C170.534,113.601,168.448,111.453,165.884,111.453z"/>
<path class="st4" d="M165.884,130.545c0.526,0,0.952-0.438,0.952-0.977c0-0.54-0.426-0.977-0.952-0.977
	c-0.527,0-0.953,0.437-0.953,0.977C164.931,130.107,165.357,130.545,165.884,130.545z"/>
<path class="st4" d="M175.771,126.365c0.372-0.382,0.372-1,0-1.382c-0.372-0.382-0.975-0.382-1.347,0c-0.372,0.382-0.372,1,0,1.382
	C174.796,126.746,175.398,126.746,175.771,126.365z"/>
<path class="st4" d="M178.873,117.22c0.526,0,0.952-0.438,0.952-0.977c0-0.539-0.426-0.977-0.952-0.977
	c-0.527,0-0.953,0.438-0.953,0.977C177.92,116.782,178.347,117.22,178.873,117.22z"/>
<path class="st4" d="M175.758,107.509c0.372-0.382,0.372-1,0-1.382c-0.371-0.382-0.975-0.382-1.347,0c-0.372,0.382-0.372,1,0,1.382
	C174.783,107.891,175.386,107.891,175.758,107.509z"/>
<path class="st4" d="M165.884,103.896c0.526,0,0.952-0.438,0.952-0.977c0-0.54-0.426-0.977-0.952-0.977
	c-0.527,0-0.953,0.437-0.953,0.977C164.931,103.458,165.357,103.896,165.884,103.896z"/>
<path class="st4" d="M157.376,107.521c0.372-0.381,0.372-1,0-1.382c-0.371-0.381-0.975-0.381-1.347,0
	c-0.371,0.382-0.371,1.001,0,1.382C156.401,107.903,157.005,107.903,157.376,107.521z"/>
<path class="st4" d="M152.894,117.22c0.526,0,0.953-0.438,0.953-0.977c0-0.539-0.427-0.977-0.953-0.977s-0.953,0.438-0.953,0.977
	C151.941,116.782,152.368,117.22,152.894,117.22z"/>
<path class="st4" d="M157.388,126.378c0.372-0.382,0.372-1,0-1.382c-0.371-0.382-0.975-0.382-1.347,0c-0.372,0.382-0.372,1,0,1.382
	C156.414,126.76,157.017,126.76,157.388,126.378z"/>
<path class="st3" d="M110.989,84.011H95.011C94.453,84.011,94,83.558,94,83s0.453-1.011,1.011-1.011h15.978
	c0.558,0,1.011,0.453,1.011,1.011S111.548,84.011,110.989,84.011z"/>
<path class="st3" d="M103,92c-0.558,0-1.011-0.453-1.011-1.011V75.011c0-0.558,0.453-1.011,1.011-1.011s1.011,0.453,1.011,1.011
	v15.978C104.011,91.547,103.558,92,103,92z"/>
</svg>
