<svg version="1.1" id="Layer_1" xmlns="http://www.w3.org/2000/svg" xmlns:xlink="http://www.w3.org/1999/xlink" x="0px" y="0px"
	 viewBox="0 0 32 32" enable-background="new 0 0 32 32" xml:space="preserve">
<path style="fill:#333333;stroke:#FFFFFF;stroke-linejoin:round;" d="M28.85,9.35h-0.837c-0.142-0.505-0.345-0.983-0.602-1.428l0.599-0.599c0.644-0.644,0.644-1.689,0-2.333
	c-0.644-0.645-1.689-0.645-2.333,0l-0.615,0.615c-0.44-0.249-0.913-0.447-1.413-0.584V4.15c0-0.911-0.738-1.65-1.65-1.65
	s-1.65,0.739-1.65,1.65V5.02c-0.5,0.137-0.973,0.335-1.413,0.584L18.323,4.99c-0.644-0.644-1.689-0.644-2.333,0
	c-0.644,0.644-0.644,1.688,0,2.333l0.6,0.6c-0.257,0.444-0.46,0.923-0.602,1.428H15.15c-0.911,0-1.65,0.739-1.65,1.65
	s0.739,1.65,1.65,1.65h0.812c0.137,0.516,0.338,1.006,0.595,1.461l-0.567,0.567c-0.644,0.644-0.644,1.688,0,2.333
	c0.644,0.644,1.689,0.644,2.333,0l0.552-0.552c0.458,0.265,0.953,0.474,1.476,0.617v0.775c0,0.911,0.738,1.65,1.65,1.65
	s1.65-0.739,1.65-1.65v-0.775c0.523-0.143,1.018-0.352,1.476-0.617l0.552,0.552c0.644,0.644,1.688,0.644,2.333,0
	c0.644-0.644,0.644-1.689,0-2.333l-0.567-0.567c0.256-0.454,0.458-0.944,0.595-1.461h0.812c0.911,0,1.65-0.738,1.65-1.65
	S29.761,9.35,28.85,9.35z M22,13.997c-1.625,0-2.949-1.324-2.949-2.949c0-1.625,1.323-2.949,2.949-2.949s2.949,1.324,2.949,2.949
	C24.949,12.673,23.625,13.997,22,13.997z"/>
<path style="fill:#DAE2E9;stroke:#FFFFFF;" d="M5,0.5h11c1.381,0,2.5,1.119,2.5,2.5v26c0,1.381-1.119,2.5-2.5,2.5H5c-1.381,0-2.5-1.119-2.5-2.5V3
	C2.5,1.619,3.619,0.5,5,0.5z"/>
<path style="fill:#98A8B2;" d="M3,3c0-1.105,0.895-2,2-2h11c1.105,0,2,0.895,2,2v1H3V3z"/>
<path style="fill:#757575;" d="M5.5,6h9C14.776,6,15,6.224,15,6.5l0,0C15,6.776,14.776,7,14.5,7h-9C5.224,7,5,6.776,5,6.5l0,0
	C5,6.224,5.224,6,5.5,6z"/>
<path style="fill:#757575;" d="M5.5,9h4C9.776,9,10,9.224,10,9.5l0,0C10,9.776,9.776,10,9.5,10h-4C5.224,10,5,9.776,5,9.5l0,0
	C5,9.224,5.224,9,5.5,9z"/>
<path style="fill:#757575;" d="M5.5,12h8c0.276,0,0.5,0.224,0.5,0.5l0,0c0,0.276-0.224,0.5-0.5,0.5h-8C5.224,13,5,12.776,5,12.5l0,0
	C5,12.224,5.224,12,5.5,12z"/>
<path style="fill:#757575;" d="M5.5,15h6c0.276,0,0.5,0.224,0.5,0.5l0,0c0,0.276-0.224,0.5-0.5,0.5h-6C5.224,16,5,15.776,5,15.5l0,0
	C5,15.224,5.224,15,5.5,15z"/>
<path style="fill:#757575;" d="M5.5,18h9c0.276,0,0.5,0.224,0.5,0.5l0,0c0,0.276-0.224,0.5-0.5,0.5h-9C5.224,19,5,18.776,5,18.5l0,0
	C5,18.224,5.224,18,5.5,18z"/>
<path style="fill:#757575;" d="M5.5,21h8c0.276,0,0.5,0.224,0.5,0.5l0,0c0,0.276-0.224,0.5-0.5,0.5h-8C5.224,22,5,21.776,5,21.5l0,0
	C5,21.224,5.224,21,5.5,21z"/>
<path style="fill:#757575;" d="M5.5,24h10c0.276,0,0.5,0.224,0.5,0.5l0,0c0,0.276-0.224,0.5-0.5,0.5h-10C5.224,25,5,24.776,5,24.5l0,0
	C5,24.224,5.224,24,5.5,24z"/>
<path style="fill:#757575;" d="M5.5,27h8c0.276,0,0.5,0.224,0.5,0.5l0,0c0,0.276-0.224,0.5-0.5,0.5h-8C5.224,28,5,27.776,5,27.5l0,0
	C5,27.224,5.224,27,5.5,27z"/>
<path style="fill:#055E78;" d="M28.85,12.15c0.635,0,1.15-0.515,1.15-1.15l0,0c0-0.635-0.515-1.15-1.15-1.15h-1.229
	c-0.154-0.727-0.445-1.403-0.845-2l0.88-0.88c0.449-0.449,0.449-1.177,0-1.626l0,0c-0.449-0.449-1.177-0.449-1.626,0l-0.892,0.892
	c-0.596-0.389-1.267-0.674-1.989-0.821V4.15C23.15,3.515,22.635,3,22,3l0,0c-0.635,0-1.15,0.515-1.15,1.15v1.265
	c-0.722,0.146-1.393,0.431-1.989,0.821l-0.892-0.892c-0.449-0.449-1.177-0.449-1.626,0l0,0c-0.449,0.449-0.449,1.177,0,1.626
	l0.881,0.881c-0.4,0.597-0.691,1.273-0.845,2H15.15C14.515,9.85,14,10.365,14,11l0,0c0,0.635,0.515,1.15,1.15,1.15h1.21
	c0.144,0.74,0.43,1.428,0.828,2.037l-0.844,0.844c-0.449,0.449-0.449,1.177,0,1.626l0,0c0.449,0.449,1.177,0.449,1.626,0
	l0.833-0.833c0.61,0.409,1.303,0.705,2.049,0.857v1.17c0,0.635,0.515,1.15,1.15,1.15l0,0c0.635,0,1.15-0.515,1.15-1.15v-1.17
	c0.746-0.152,1.439-0.448,2.049-0.857l0.833,0.833c0.449,0.449,1.177,0.449,1.626,0l0,0c0.449-0.449,0.449-1.177,0-1.626
	l-0.844-0.844c0.398-0.609,0.684-1.297,0.828-2.037H28.85z M22,14.497c-1.902,0-3.449-1.547-3.449-3.449
	c0-1.901,1.547-3.449,3.449-3.449s3.449,1.547,3.449,3.449C25.449,12.949,23.902,14.497,22,14.497z"/>
</svg>
