<?xml version="1.0" encoding="utf-8"?>
<!-- Generator: Adobe Illustrator 24.2.0, SVG Export Plug-In . SVG Version: 6.00 Build 0)  -->
<svg version="1.1" id="Layer_1" xmlns="http://www.w3.org/2000/svg" xmlns:xlink="http://www.w3.org/1999/xlink" x="0px" y="0px"
	 viewBox="0 0 18 18" style="enable-background:new 0 0 18 18;" xml:space="preserve">
<style type="text/css">
	.st0{fill:#FFFFFF;}
	.st1{fill:#333333;}
</style>
<g id="Language">
	<g>
		<path class="st0" d="M17.976,9c0,4.963-4.024,8.988-8.988,8.988C4.024,17.988,0,13.963,0,9c0-4.964,4.024-8.988,8.988-8.988
			S17.976,4.036,17.976,9z"/>
	</g>
	<path class="st1" d="M7.885,11.311L5.511,5.376C5.42,5.15,5.202,5.003,4.96,5.003S4.499,5.151,4.409,5.376l-2.374,5.935
		c-0.122,0.305,0.026,0.65,0.331,0.772c0.305,0.12,0.65-0.027,0.772-0.331L3.7,10.344h2.52l0.563,1.408
		c0.093,0.232,0.316,0.373,0.551,0.373c0.073,0,0.148-0.014,0.22-0.043C7.858,11.96,8.006,11.615,7.885,11.311z M4.174,9.157
		l0.785-1.963l0.785,1.963H4.174z"/>
	<path class="st1" d="M9.012,0.012C4.048,0.012,0.024,4.036,0.024,9s4.024,8.988,8.988,8.988C13.976,17.988,18,13.964,18,9
		S13.976,0.012,9.012,0.012z M16.006,5.149c0.55,0.995,0.887,2.12,0.967,3.315H13.93c-0.039-1.183-0.205-2.301-0.475-3.315H16.006z
		 M10.045,16.9c-0.184,0.024-0.367,0.053-0.555,0.064V13.85h2.861C11.783,15.32,10.972,16.419,10.045,16.9z M12.351,4.149H9.49
		V1.036c0.188,0.011,0.371,0.04,0.555,0.064C10.972,1.581,11.783,2.679,12.351,4.149z M9.49,12.85V9.464h3.698
		c-0.037,1.21-0.211,2.362-0.5,3.386H9.49z M9.49,8.464V5.149h3.198c0.283,1.004,0.456,2.131,0.498,3.315
		C13.186,8.464,9.49,8.464,9.49,8.464z M15.344,4.149h-2.197c-0.385-1.07-0.893-1.978-1.489-2.664
		C13.13,2.004,14.409,2.932,15.344,4.149z M8.49,16.962C4.329,16.691,1.024,13.229,1.024,9S4.33,1.309,8.49,1.038V16.962z
		 M11.659,16.515c0.596-0.687,1.104-1.595,1.489-2.666h2.197C14.411,15.067,13.131,15.996,11.659,16.515z M13.456,12.85
		c0.275-1.034,0.441-2.177,0.476-3.386h3.044c-0.071,1.221-0.409,2.371-0.969,3.386H13.456z"/>
</g>
</svg>
