<?xml version="1.0" encoding="utf-8"?>
<!-- Generator: Adobe Illustrator 26.0.2, SVG Export Plug-In . SVG Version: 6.00 Build 0)  -->
<svg version="1.1" id="Layer_1" xmlns="http://www.w3.org/2000/svg" xmlns:xlink="http://www.w3.org/1999/xlink" x="0px" y="0px"
	 width="222" height="342" viewBox="0 0 222 342" style="enable-background:new 0 0 222 342;" xml:space="preserve">
<style type="text/css">
	.st0{fill-rule:evenodd;clip-rule:evenodd;fill:#333333;}
	.st1{fill-rule:evenodd;clip-rule:evenodd;fill:#627783;}
	.st2{fill:#DCE4E8;}
	.st3{fill-rule:evenodd;clip-rule:evenodd;fill:#757575;}
	.st4{fill:#F9F9F9;}
</style>
<path class="st0" d="M0,3c0-1.657,1.343-3,3-3h216c1.657,0,3,1.343,3,3v21c0,1.657-1.343,3-3,3H3c-1.657,0-3-1.343-3-3V3z M3,3v21
	h216V3H3z"/>
<path class="st0" d="M0,31.954c0-1.657,1.343-3,3-3h30.719c1.657,0,3,1.343,3,3V107c0,1.657-1.343,3-3,3H3c-1.657,0-3-1.343-3-3
	V31.954z M3,31.954V107h30.719V31.954H3z"/>
<path class="st0" d="M38.73,31.954c0-1.657,1.343-3,3-3H219c1.657,0,3,1.343,3,3V107c0,1.657-1.343,3-3,3H41.73
	c-1.657,0-3-1.343-3-3V31.954z M41.73,31.954V107H219V31.954H41.73z"/>
<path class="st1" d="M0,119c0-1.657,1.343-3,3-3h216c1.657,0,3,1.343,3,3v21c0,1.657-1.343,3-3,3H3c-1.657,0-3-1.343-3-3V119z
	 M3,119v21h216v-21H3z"/>
<path class="st1" d="M0,147.954c0-1.657,1.343-3,3-3h30.719c1.657,0,3,1.343,3,3V223c0,1.657-1.343,3-3,3H3c-1.657,0-3-1.343-3-3
	V147.954z M3,147.954V223h30.719v-75.046H3z"/>
<path class="st1" d="M38.73,147.954c0-1.657,1.343-3,3-3H219c1.657,0,3,1.343,3,3V223c0,1.657-1.343,3-3,3H41.73
	c-1.657,0-3-1.343-3-3V147.954z M41.73,147.954V223H219v-75.046H41.73z"/>
<path class="st2" d="M3,119h216v21H3V119z"/>
<path class="st2" d="M3,147.954h30.675V223H3V147.954z"/>
<path class="st2" d="M41.73,147.954H219V223H41.73V147.954z"/>
<path class="st3" d="M0,235c0-1.657,1.343-3,3-3h216c1.657,0,3,1.343,3,3v21c0,1.657-1.343,3-3,3H3c-1.657,0-3-1.343-3-3V235z
	 M3,235v21h216v-21H3z"/>
<path class="st3" d="M0,263.954c0-1.657,1.343-3,3-3h30.719c1.657,0,3,1.343,3,3V339c0,1.657-1.343,3-3,3H3c-1.657,0-3-1.343-3-3
	V263.954z M3,263.954V339h30.719v-75.046H3z"/>
<path class="st3" d="M38.73,263.954c0-1.657,1.343-3,3-3H219c1.657,0,3,1.343,3,3V339c0,1.657-1.343,3-3,3H41.73
	c-1.657,0-3-1.343-3-3V263.954z M41.73,263.954V339H219v-75.046H41.73z"/>
<path class="st4" d="M3,235h216v21H3V235z"/>
<path class="st4" d="M3,263.954h30.675V339H3V263.954z"/>
<path class="st4" d="M41.73,263.954H219V339H41.73V263.954z"/>
</svg>
