<svg xmlns="http://www.w3.org/2000/svg" width="32" height="32" viewBox="0 0 32 32">
  <title>mime_facets_volume32</title>
  <g>
    <path d="M1.607,28.3V5.882A1.826,1.826,0,0,1,3.575,4.249H9.934a2.386,2.386,0,0,1,1.251.353l2.968,2.062a.581.581,0,0,0,.293.12H22.9a1.823,1.823,0,0,1,1.967,1.625V28.3Z" transform="translate(-1.25 -2.625)" style="fill: #b26828"/>
    <path d="M9.934,4.606a2.025,2.025,0,0,1,1.062.3L13.95,6.958a.935.935,0,0,0,.5.183H22.9a1.471,1.471,0,0,1,1.61,1.267V27.943H1.964V5.882A1.475,1.475,0,0,1,3.575,4.606H9.934m0-.714H3.575A2.179,2.179,0,0,0,1.25,5.882V28.657H25.225V8.408A2.176,2.176,0,0,0,22.9,6.427H14.453a1.2,1.2,0,0,0-.128-.077L11.4,4.319a2.77,2.77,0,0,0-1.47-.427Z" transform="translate(-1.25 -2.625)" style="fill: #fff"/>
  </g>
  <g>
    <path d="M7.111,2.982h12.11l3.023,2.825V22.869H5.069V4.84A1.956,1.956,0,0,1,7.111,2.982Z" transform="translate(-1.25 -2.625)" style="fill: #059fba"/>
    <path d="M22.6,23.226H4.712V4.84a2.315,2.315,0,0,1,2.4-2.215H19.362L22.6,5.652ZM5.426,22.512H21.887V5.962L19.081,3.339H7.111a1.6,1.6,0,0,0-1.685,1.5Z" transform="translate(-1.25 -2.625)" style="fill: #fff"/>
  </g>
  <g>
    <path d="M10.727,5.694h13L26.764,8.8v8.644H8.685V7.773A2.06,2.06,0,0,1,10.727,5.694Z" transform="translate(-1.25 -2.625)" style="fill: #0073ab"/>
    <path d="M27.121,17.8H8.327V7.773a2.42,2.42,0,0,1,2.4-2.436H23.879l3.242,3.319ZM9.042,17.088H26.406V8.947l-2.828-2.9H10.726A1.705,1.705,0,0,0,9.042,7.773Z" transform="translate(-1.25 -2.625)" style="fill: #fff"/>
  </g>
  <path d="M21.792,9.667H12.3a.357.357,0,1,1,0-.714h9.491a.357.357,0,0,1,0,.714Z" transform="translate(-1.25 -2.625)" style="fill: #fff"/>
  <path d="M19.08,11.927H12.753a.357.357,0,1,1,0-.714H19.08a.357.357,0,1,1,0,.714Z" transform="translate(-1.25 -2.625)" style="fill: #fff"/>
  <g>
    <path d="M1.805,28.275,6.723,15.193A1.241,1.241,0,0,1,7.942,14H29.673a1.242,1.242,0,0,1,1.22,1.261v.076L25.068,28.275Z" transform="translate(-1.25 -2.625)" style="fill: #b26828"/>
    <path d="M29.673,14.359a.885.885,0,0,1,.863.9l-5.7,12.655H2.321L7.079,15.263a.884.884,0,0,1,.863-.9H29.673m0-.714H7.942a1.6,1.6,0,0,0-1.571,1.471L1.652,27.667l-.363.965H25.3l.19-.421,5.7-12.655.063-.14v-.153a1.6,1.6,0,0,0-1.577-1.618Z" transform="translate(-1.25 -2.625)" style="fill: #fff"/>
  </g>
  <path d="M4.613,27.879l18.341,0,4.662-10.41a.748.748,0,0,0-.717-.776H9.4a.748.748,0,0,0-.717.776Z" transform="translate(-1.25 -2.625)" style="fill: #e59a2c"/>
  <path d="M5.017,27.879l17.937,0,4.858-10.852a.8.8,0,0,0-.105-.38Z" transform="translate(-1.25 -2.625)" style="fill: #dc8227"/>
</svg>
