<svg width="20" height="20" viewBox="0 0 20 20" fill="none" xmlns="http://www.w3.org/2000/svg">
<path d="M4.375 19.6875C3.16875 19.6875 2.1875 18.7062 2.1875 17.5V2.5C2.1875 1.29375 3.16875 0.3125 4.375 0.3125H13.8794L17.8125 4.24563V17.5C17.8125 18.7062 16.8312 19.6875 15.625 19.6875H4.375Z" fill="#00A389"/>
<path d="M13.75 0.625L17.5 4.375V17.5C17.5 18.5356 16.6606 19.375 15.625 19.375H4.375C3.33938 19.375 2.5 18.5356 2.5 17.5V2.5C2.5 1.46438 3.33938 0.625 4.375 0.625H13.75ZM14.0087 0H13.75H4.375C2.99625 0 1.875 1.12125 1.875 2.5V17.5C1.875 18.8788 2.99625 20 4.375 20H15.625C17.0038 20 18.125 18.8788 18.125 17.5V4.375V4.11625L17.9419 3.93313L14.1919 0.183125L14.0087 0Z" fill="white"/>
<path fill-rule="evenodd" clip-rule="evenodd" d="M13.75 0.625V4.375H17.5L13.75 0.625Z" fill="#00795A"/>
<path d="M12.9699 10.9605L11.3194 9.28857C11.7827 8.76679 12.0672 8.07839 12.0672 7.32143C12.0672 5.69393 10.7652 4.375 9.1586 4.375C7.55199 4.375 6.25 5.69393 6.25 7.32143C6.25 8.94893 7.55199 10.2679 9.1586 10.2679C9.63243 10.2679 10.0782 10.1505 10.4738 9.94696L12.2221 11.718C12.3253 11.8225 12.4606 11.875 12.596 11.875C12.7314 11.875 12.8668 11.8225 12.9699 11.718C13.1767 11.5086 13.1767 11.17 12.9699 10.9605ZM7.30767 7.32143C7.30767 6.2875 8.13794 5.44643 9.1586 5.44643C10.1793 5.44643 11.0095 6.2875 11.0095 7.32143C11.0095 8.35536 10.1793 9.19643 9.1586 9.19643C8.13794 9.19643 7.30767 8.35536 7.30767 7.32143Z" fill="#00795A"/>
<path d="M12.9699 10.3355L11.3194 8.66357C11.7827 8.14179 12.0672 7.45339 12.0672 6.69643C12.0672 5.06893 10.7652 3.75 9.1586 3.75C7.55199 3.75 6.25 5.06893 6.25 6.69643C6.25 8.32393 7.55199 9.64286 9.1586 9.64286C9.63243 9.64286 10.0782 9.52554 10.4738 9.32196L12.2221 11.093C12.3253 11.1975 12.4606 11.25 12.596 11.25C12.7314 11.25 12.8668 11.1975 12.9699 11.093C13.1767 10.8836 13.1767 10.545 12.9699 10.3355ZM7.30767 6.69643C7.30767 5.6625 8.13794 4.82143 9.1586 4.82143C10.1793 4.82143 11.0095 5.6625 11.0095 6.69643C11.0095 7.73036 10.1793 8.57143 9.1586 8.57143C8.13794 8.57143 7.30767 7.73036 7.30767 6.69643Z" fill="white"/>
<path d="M14.375 14.4637H5.625C5.4525 14.4637 5.3125 14.3237 5.3125 14.1512C5.3125 13.9787 5.4525 13.8387 5.625 13.8387H14.375C14.5475 13.8387 14.6875 13.9787 14.6875 14.1512C14.6875 14.3237 14.5475 14.4637 14.375 14.4637Z" fill="#00795A"/>
<path d="M14.375 13.8387H5.625C5.4525 13.8387 5.3125 13.6987 5.3125 13.5262C5.3125 13.3537 5.4525 13.2137 5.625 13.2137H14.375C14.5475 13.2137 14.6875 13.3537 14.6875 13.5262C14.6875 13.6987 14.5475 13.8387 14.375 13.8387Z" fill="white"/>
<path d="M14.375 17.2631H5.625C5.4525 17.2631 5.3125 17.1231 5.3125 16.9506C5.3125 16.7781 5.4525 16.6381 5.625 16.6381H14.375C14.5475 16.6381 14.6875 16.7781 14.6875 16.9506C14.6875 17.1231 14.5475 17.2631 14.375 17.2631Z" fill="#00795A"/>
<path d="M14.375 16.6381H5.625C5.4525 16.6381 5.3125 16.4981 5.3125 16.3256C5.3125 16.1531 5.4525 16.0131 5.625 16.0131H14.375C14.5475 16.0131 14.6875 16.1531 14.6875 16.3256C14.6875 16.4981 14.5475 16.6381 14.375 16.6381Z" fill="white"/>
</svg>
