<svg width="16" height="16" viewBox="0 0 16 16" fill="none" xmlns="http://www.w3.org/2000/svg">
    <path d="M16 5V12.27C16 13.23 15.23 14 14.27 14H1.73C0.77 14 0 13.23 0 12.27V2.84C0 1.83 0.83 1 1.84 1H5.28C5.71 1 6.14 1.15 6.5 1.43L8.52 3.14C8.53 3.15 8.54 3.15 8.54 3.16H14.16C15.17 3.16 16 3.98 16 5Z" fill="white"/>
    <path d="M14.16 4.16H8.43C8.22 4.16 8.06 4.05 7.9 3.93L5.85 2.2C5.69 2.07 5.49 2 5.28 2H1.84C1.38 2 1 2.38 1 2.84V12.27C1 12.67 1.33 13 1.73 13H14.28C14.68 13 15.01 12.67 15.01 12.27V5C15 4.53 14.62 4.16 14.16 4.16Z" fill="#98A8B2"/>
</svg>
