<svg width="16" height="16" viewBox="0 0 16 16" fill="none" xmlns="http://www.w3.org/2000/svg">
  <path d="M15.2635 6.72646L15.2319 6.6922L15.1946 6.66438L8.52544 1.70028C8.36865 1.55567 8.17061 1.5 8 1.5C7.82939 1.5 7.63135 1.55567 7.47456 1.70028L0.805446 6.66438L0.768061 6.6922L0.736463 6.72646C0.522707 6.9582 0.441189 7.28379 0.544011 7.58105C0.653434 7.8974 0.947845 8.10722 1.30388 8.10722H2.30301V13.6749C2.30301 13.8496 2.37083 14.0329 2.47564 14.175C2.58999 14.3299 2.79977 14.5 3.10283 14.5H12.8972C13.2102 14.5 13.4297 14.3187 13.548 14.1265C13.6581 13.9473 13.697 13.7421 13.697 13.5666V8.10722H14.6961C15.0522 8.10722 15.3466 7.8974 15.456 7.58105C15.5588 7.28379 15.4773 6.9582 15.2635 6.72646ZM2.30246 7.91935C2.30248 7.91933 2.30257 7.91997 2.30268 7.92134L2.30246 7.91935Z" fill="#98A8B2" stroke="white"/>
  <path d="M11 6H5V9H11V6Z" fill="white"/>
  <path d="M9 7H7V8H9V7Z" fill="#98A8B2"/>
  <path d="M11 10H5V13H11V10Z" fill="white"/>
  <path d="M9 11H7V12H9V11Z" fill="#98A8B2"/>
</svg>
