<svg width="16" height="16" viewBox="0 0 16 16" fill="none" xmlns="http://www.w3.org/2000/svg">
  <path d="M8.35295 1.03846L10.2353 4.84616C10.2353 4.96154 10.3529 5.07693 10.4706 5.07693L14.7059 5.65385C15.0588 5.65385 15.1765 6 14.9412 6.23077L11.8824 9.23077C11.7647 9.34616 11.7647 9.46154 11.7647 9.57693L12.4706 13.7308C12.4706 14.0769 12.2353 14.1923 11.8824 14.0769L8.11765 12.1154C8 12.1154 7.88236 12.1154 7.76471 12.1154L4 14.0769C3.76471 14.1923 3.41177 13.9615 3.41177 13.7308L4.11765 9.57693C4.11765 9.46154 4.11765 9.34616 4 9.23077L0.941181 6.23077C0.823534 6.11539 0.941181 5.65385 1.17647 5.65385L5.41177 5.07693C5.52942 5.07693 5.64706 4.96154 5.64706 4.84616L7.52942 1.03846C7.76471 0.807695 8.11765 0.807695 8.35295 1.03846Z" fill="#98A8B2"/>
  <path d="M8.00072 0.923077C8.11836 0.923077 8.23601 1.03846 8.35366 1.15385L10.236 4.96154C10.236 5.07692 10.3537 5.19231 10.4713 5.19231L14.7066 5.76923C15.0595 5.76923 15.1772 6.11538 14.9419 6.34615L11.8831 9.23077C11.7654 9.34615 11.7654 9.46154 11.7654 9.57692L12.4713 13.7308C12.4713 13.9615 12.3537 14.1923 12.1184 14.1923H12.0007L8.23601 12.2308H8.11836H8.00072L4.23601 14.1923H4.11836C3.88307 14.1923 3.76542 13.9615 3.76542 13.7308L4.4713 9.57692C4.4713 9.46154 4.4713 9.34615 4.35366 9.23077L0.941892 6.23077C0.824245 6.11538 0.941892 5.65385 1.17719 5.65385L5.41248 5.07692C5.53013 5.07692 5.64777 4.96154 5.64777 4.84615L7.53013 1.03846C7.76542 0.923077 7.88307 0.923077 8.00072 0.923077ZM8.00072 0C7.53013 0 7.05954 0.230769 6.82424 0.692308L5.05954 4.26923L1.05954 4.84615C0.588951 4.84615 0.23601 5.19231 0.118363 5.65385C-0.116931 6.11538 0.000715655 6.57692 0.353657 6.92308L3.29483 9.69231L2.58895 13.6154C2.4713 13.9615 2.58895 14.3077 2.82425 14.6538C3.05954 14.8846 3.41248 15 3.76542 15C4.00072 15 4.11836 15 4.35366 14.8846L7.88307 13.0385L11.4125 14.8846C11.7654 15 12.0007 15 12.1184 15C12.4713 15 12.8242 14.8846 13.0595 14.5385C13.2948 14.3077 13.4125 13.8462 13.2948 13.5L12.589 9.57692L15.5301 6.92308C15.8831 6.57692 16.0007 6.11538 15.8831 5.65385C15.7654 5.19231 15.2948 4.84615 14.8242 4.84615L10.9419 4.26923L9.05954 0.692308C8.94189 0.230769 8.4713 0 8.00072 0Z" fill="white"/>
</svg>
