<?xml version="1.0" encoding="utf-8"?>
<!-- Generator: Adobe Illustrator 24.3.0, SVG Export Plug-In . SVG Version: 6.00 Build 0)  -->
<svg version="1.1" id="Layer_1" xmlns="http://www.w3.org/2000/svg" xmlns:xlink="http://www.w3.org/1999/xlink" x="0px" y="0px"
	 viewBox="0 0 16 16" style="enable-background:new 0 0 16 16;" xml:space="preserve">
<style type="text/css">
	.st0{fill:#98A8B2;}
	.st1{fill:#FFFFFF;}
</style>
<path id="colorFirst" class="st0" d="M8,15c-3.86,0-7-3.14-7-7s3.14-7,7-7s7,3.14,7,7S11.86,15,8,15z"/>
<path id="colorSecond" class="st1" d="M8,1c3.86,0,7,3.14,7,7s-3.14,7-7,7c-3.86,0-7-3.14-7-7S4.14,1,8,1 M8,0C3.589,0,0,3.589,0,8
	s3.589,8,8,8s8-3.589,8-8S12.411,0,8,0L8,0z M9.177,3.89c-0.209-0.209-0.546-0.209-0.754,0c-0.209,0.209-0.209,0.546,0,0.754
	l1.49,1.49H9.189c-2.5,0-4.533,2.034-4.533,4.533c0,0.295,0.239,0.533,0.533,0.533c0.294,0,0.533-0.238,0.533-0.533
	c0-1.911,1.555-3.467,3.467-3.467h0.723l-1.49,1.49c-0.209,0.209-0.209,0.546,0,0.754C8.527,9.548,8.663,9.6,8.8,9.6
	s0.273-0.052,0.377-0.156l2.777-2.777L9.177,3.89z"/>
</svg>
