<?xml version="1.0" encoding="utf-8"?>
<!-- Generator: Adobe Illustrator 24.3.0, SVG Export Plug-In . SVG Version: 6.00 Build 0)  -->
<svg version="1.1" id="Layer_1" xmlns="http://www.w3.org/2000/svg" xmlns:xlink="http://www.w3.org/1999/xlink" x="0px" y="0px"
	 viewBox="0 0 16 16" style="enable-background:new 0 0 16 16;" xml:space="preserve">
<style type="text/css">
	.st0{fill:#98A8B2;}
	.st1{fill:#FFFFFF;}
	.st2{fill:#758B98;}
</style>
<path id="colorFirst" class="st0" d="M12,15H4c-1.105,0-2-0.895-2-2V3c0-1.105,0.895-2,2-2h7l3,3v9C14,14.105,13.105,15,12,15z"
	/>
<path id="colorSecond" class="st1" d="M11,1l3,3v9c0,1.105-0.895,2-2,2H4c-1.105,0-2-0.895-2-2V3c0-1.105,0.895-2,2-2H11 M11.414,0
	H11H4C2.346,0,1,1.346,1,3v10c0,1.654,1.346,3,3,3h8c1.654,0,3-1.346,3-3V4V3.586l-0.293-0.293l-3-3L11.414,0L11.414,0z
	 M6.376,11.969c-0.037,0-0.076-0.009-0.111-0.026c-0.123-0.062-0.174-0.212-0.112-0.335l3.23-6.46
	c0.062-0.123,0.212-0.174,0.335-0.112C9.842,5.097,9.892,5.247,9.83,5.371l-3.23,6.46C6.556,11.918,6.468,11.969,6.376,11.969z
	 M5.259,10.739c-0.128,0-0.256-0.049-0.353-0.146L2.784,8.472L4.906,6.35c0.195-0.195,0.511-0.195,0.707,0s0.195,0.511,0,0.707
	L4.198,8.472l1.415,1.414c0.195,0.196,0.195,0.512,0,0.707C5.515,10.69,5.387,10.739,5.259,10.739z M10.741,10.739
	c-0.128,0-0.256-0.049-0.354-0.146c-0.196-0.196-0.196-0.512,0-0.707l1.415-1.414l-1.415-1.415c-0.196-0.195-0.196-0.511,0-0.707
	s0.512-0.195,0.707,0l2.122,2.122l-2.122,2.121C10.997,10.69,10.869,10.739,10.741,10.739z"/>
<polygon id="colorThird" class="st2" points="11,1 11,4 14,4 "/>
</svg>
