<?xml version="1.0" encoding="utf-8"?>
<!-- Generator: Adobe Illustrator 24.3.0, SVG Export Plug-In . SVG Version: 6.00 Build 0)  -->
<svg version="1.1" id="Layer_1" xmlns="http://www.w3.org/2000/svg" xmlns:xlink="http://www.w3.org/1999/xlink" x="0px" y="0px"
	 viewBox="0 0 16 16" style="enable-background:new 0 0 16 16;" xml:space="preserve">
<style type="text/css">
	.st0{fill:#98A8B2;}
	.st1{fill:#FFFFFF;}
	.st2{fill:#758B98;}
</style>
<path id="colorFirst" class="st0" d="M13,15H3c-1.105,0-2-0.895-2-2V3c0-1.105,0.895-2,2-2h10c1.105,0,2,0.895,2,2v10
	C15,14.105,14.105,15,13,15z"/>
<path id="colorSecond" class="st1" d="M13,1c1.105,0,2,0.895,2,2v10c0,1.105-0.895,2-2,2H3c-1.105,0-2-0.895-2-2V3
	c0-1.105,0.895-2,2-2H13 M13,0H3C1.346,0,0,1.346,0,3v10c0,1.654,1.346,3,3,3h10c1.654,0,3-1.346,3-3V3C16,1.346,14.654,0,13,0L13,0
	z M10.39,7h2.22C13.38,7,14,6.38,14,5.61V3.39C14,2.62,13.38,2,12.61,2h-2.22C9.62,2,9,2.62,9,3.39V4H5C4.45,4,4,4.45,4,5v0.1
	C3.82,5.17,3.65,5.27,3.51,5.41l-1.6,1.6C1.65,7.28,1.5,7.63,1.5,8s0.15,0.72,0.41,0.99l1.6,1.6C3.65,10.73,3.82,10.83,4,10.9V11
	c0,0.55,0.45,1,1,1h4v0.61C9,13.38,9.62,14,10.39,14h2.22c0.77,0,1.39-0.62,1.39-1.39v-2.22C14,9.62,13.38,9,12.61,9h-2.22
	C9.62,9,9,9.62,9,10.39V11H5v-0.1c0.18-0.07,0.35-0.17,0.49-0.31l1.6-1.6C7.35,8.72,7.5,8.37,7.5,8S7.35,7.28,7.09,7.01l-1.6-1.6
	C5.35,5.27,5.18,5.17,5,5.1V5h4v0.61C9,6.38,9.62,7,10.39,7z M10,3.39C10,3.17,10.17,3,10.39,3h2.22C12.83,3,13,3.17,13,3.39v2.22
	C13,5.83,12.83,6,12.61,6h-2.22C10.17,6,10,5.83,10,5.61V3.39z M10,10.39c0-0.22,0.17-0.39,0.39-0.39h2.22
	c0.22,0,0.39,0.17,0.39,0.39v2.22c0,0.22-0.17,0.39-0.39,0.39h-2.22C10.17,13,10,12.83,10,12.61V10.39z M6.38,7.72
	c0.16,0.16,0.16,0.4,0,0.56L5,9.66L4.78,9.88C4.7,9.96,4.6,10,4.5,10S4.3,9.96,4.22,9.88L4,9.66L2.62,8.28
	c-0.16-0.16-0.16-0.4,0-0.56L4,6.34l0.22-0.22C4.3,6.04,4.4,6,4.5,6s0.2,0.04,0.28,0.12L5,6.34L6.38,7.72z"/>
<path id="colorThird" class="st2" d="M10.387,3h2.226C12.827,3,13,3.173,13,3.387v2.226C13,5.827,12.827,6,12.613,6h-2.226
	C10.173,6,10,5.827,10,5.613V3.387C10,3.173,10.173,3,10.387,3z M10.387,10h2.226C12.827,10,13,10.173,13,10.387v2.226
	C13,12.827,12.827,13,12.613,13h-2.226C10.173,13,10,12.827,10,12.613v-2.226C10,10.173,10.173,10,10.387,10z M4.779,6.116
	l1.605,1.605c0.154,0.154,0.154,0.404,0,0.558L4.779,9.884c-0.154,0.154-0.404,0.154-0.558,0L2.616,8.279
	c-0.154-0.154-0.154-0.404,0-0.558l1.605-1.605C4.375,5.961,4.625,5.961,4.779,6.116z"/>
</svg>
