<?xml version="1.0" encoding="utf-8"?>
<!-- Generator: Adobe Illustrator 24.3.0, SVG Export Plug-In . SVG Version: 6.00 Build 0)  -->
<svg version="1.1" id="Layer_1" xmlns="http://www.w3.org/2000/svg" xmlns:xlink="http://www.w3.org/1999/xlink" x="0px" y="0px"
	 viewBox="0 0 16 16" style="enable-background:new 0 0 16 16;" xml:space="preserve">
<style type="text/css">
	.st0{fill:#98A8B2;}
	.st1{fill:#FFFFFF;}
</style>
<path id="colorFirst" class="st0" d="M14,15H2c-0.55,0-1-0.45-1-1V2c0-0.55,0.45-1,1-1h12c0.55,0,1,0.45,1,1v12
	C15,14.55,14.55,15,14,15z"/>
<path id="colorSecond" class="st1" d="M14,1c0.55,0,1,0.45,1,1v12c0,0.55-0.45,1-1,1H2c-0.55,0-1-0.45-1-1V2c0-0.55,0.45-1,1-1H14
	 M14,0H2C0.897,0,0,0.897,0,2v12c0,1.103,0.897,2,2,2h12c1.103,0,2-0.897,2-2V2C16,0.897,15.103,0,14,0L14,0z M13,3.5L13,3.5
	C13,3.225,12.775,3,12.5,3h-9C3.225,3,3,3.225,3,3.5v0C3,3.775,3.225,4,3.5,4h9C12.775,4,13,3.775,13,3.5z M13,6.5L13,6.5
	C13,6.225,12.775,6,12.5,6h-9C3.225,6,3,6.225,3,6.5v0C3,6.775,3.225,7,3.5,7h9C12.775,7,13,6.775,13,6.5z M13,9.5L13,9.5
	C13,9.225,12.775,9,12.5,9h-9C3.225,9,3,9.225,3,9.5v0C3,9.775,3.225,10,3.5,10h9C12.775,10,13,9.775,13,9.5z M13,12.5L13,12.5
	c0-0.275-0.225-0.5-0.5-0.5h-9C3.225,12,3,12.225,3,12.5v0C3,12.775,3.225,13,3.5,13h9C12.775,13,13,12.775,13,12.5z"/>
</svg>
