<svg width="48" height="52" viewBox="0 0 48 52" fill="none" xmlns="http://www.w3.org/2000/svg">
<g clip-path="url(#clip0)">
<path d="M35.627 50.9797H7.57321C5.87233 51.0068 4.2254 50.373 2.96848 49.2077C1.71156 48.0425 0.939402 46.4335 0.80957 44.7093V7.09775C0.940458 5.37426 1.71308 3.76642 2.96988 2.60208C4.22669 1.43775 5.87303 0.804603 7.57321 0.831756H31.9899L42.3819 11.2788V44.7115C42.2517 46.4338 41.4805 48.0409 40.2255 49.2055C38.9705 50.37 37.3261 51.0045 35.627 50.9797Z" fill="#627783"/>
<path d="M35.6269 51.8118H7.57091C5.65452 51.8383 3.80113 51.1165 2.39261 49.7952C0.984093 48.4739 0.127743 46.6537 0 44.7096V7.09814C0.129329 5.15506 0.986301 3.33627 2.39459 2.01599C3.80288 0.695713 5.65537 -0.0256322 7.57091 0.000374344H32.3236L43.2 10.9331V44.7096C43.0722 46.6541 42.2156 48.4746 40.8066 49.796C39.3976 51.1174 37.5437 51.8389 35.6269 51.8118ZM7.57091 1.66169C6.09039 1.64358 4.65746 2.1929 3.55735 3.20031C2.45724 4.20772 1.77062 5.59933 1.63418 7.09814V44.7119C1.77062 46.2107 2.45724 47.6023 3.55735 48.6097C4.65746 49.6171 6.09039 50.1664 7.57091 50.1483H35.6269C37.107 50.1658 38.5394 49.6163 39.6391 48.6089C40.7387 47.6016 41.425 46.2103 41.5615 44.7119V11.6252L31.6538 1.66169H7.57091Z" fill="white"/>
<path d="M37.3825 50.9198C42.6604 50.9198 46.9389 46.5702 46.9389 41.2047C46.9389 35.8393 42.6604 31.4897 37.3825 31.4897C32.1047 31.4897 27.8262 35.8393 27.8262 41.2047C27.8262 46.5702 32.1047 50.9198 37.3825 50.9198Z" fill="#627783"/>
<path d="M37.3838 52C35.2836 52.0005 33.2304 51.3678 31.4839 50.1819C29.7374 48.9961 28.376 47.3104 27.5719 45.338C26.7677 43.3656 26.557 41.195 26.9663 39.1009C27.3756 37.0067 28.3866 35.083 29.8714 33.5729C31.3561 32.0629 33.248 31.0343 35.3078 30.6174C37.3676 30.2004 39.5028 30.4137 41.4433 31.2304C43.3838 32.0471 45.0425 33.4304 46.2097 35.2054C47.3769 36.9804 48.0001 39.0674 48.0005 41.2025C47.9982 44.0647 46.8791 46.8091 44.8887 48.8333C42.8983 50.8576 40.1992 51.9965 37.3838 52ZM37.3838 32.5721C35.7039 32.5721 34.0617 33.0785 32.6649 34.0273C31.2681 34.9762 30.1794 36.3247 29.5365 37.9026C28.8936 39.4804 28.7254 41.2166 29.0532 42.8916C29.3809 44.5666 30.1899 46.1051 31.3778 47.3128C32.5656 48.5204 34.0791 49.3428 35.7267 49.6759C37.3744 50.0091 39.0822 49.8381 40.6342 49.1846C42.1863 48.531 43.5128 47.4243 44.4461 46.0043C45.3795 44.5843 45.8776 42.9148 45.8776 41.207C45.8776 38.9169 44.9827 36.7206 43.3898 35.1012C41.7969 33.4818 39.6365 32.5721 37.3838 32.5721Z" fill="white"/>
<path d="M43.3659 41.2713C43.3682 41.4682 43.3322 41.6635 43.2598 41.8461C43.1874 42.0287 43.0802 42.1949 42.9443 42.3352C42.8083 42.4754 42.6465 42.5869 42.4679 42.6632C42.2894 42.7394 42.0978 42.779 41.9041 42.7796H38.9805V45.7518C38.9805 46.1488 38.8253 46.5297 38.5491 46.8104C38.2729 47.0912 37.8984 47.249 37.5078 47.249C37.1172 47.249 36.7426 47.0912 36.4664 46.8104C36.1902 46.5297 36.035 46.1488 36.035 45.7518V42.7796H33.1114C32.7208 42.7796 32.3462 42.6218 32.07 42.3411C31.7938 42.0603 31.6387 41.6795 31.6387 41.2824C31.6387 40.8853 31.7938 40.5045 32.07 40.2237C32.3462 39.943 32.7208 39.7852 33.1114 39.7852H36.035V36.8197C36.035 36.4226 36.1902 36.0418 36.4664 35.761C36.7426 35.4802 37.1172 35.3225 37.5078 35.3225C37.8984 35.3225 38.2729 35.4802 38.5491 35.761C38.8253 36.0418 38.9805 36.4226 38.9805 36.8197V39.7919H41.9041C42.2907 39.7919 42.6615 39.9475 42.9355 40.2248C43.2094 40.502 43.3642 40.8783 43.3659 41.2713Z" fill="white"/>
<path d="M28.1464 19.4168C27.3527 19.4173 26.5768 19.1784 25.9166 18.7305C25.2565 18.2825 24.7419 17.6456 24.4379 16.9003C24.1339 16.155 24.0541 15.3348 24.2087 14.5434C24.3632 13.752 24.7452 13.025 25.3063 12.4543C25.8673 11.8836 26.5822 11.4949 27.3606 11.3374C28.139 11.1798 28.9459 11.2604 29.6792 11.5691C30.4125 11.8778 31.0392 12.4006 31.4802 13.0714C31.9212 13.7423 32.1566 14.531 32.1566 15.3378C32.1566 16.4192 31.7341 17.4564 30.9821 18.2213C30.2302 18.9862 29.2102 19.4162 28.1464 19.4168ZM28.1464 13.7142C27.8299 13.7138 27.5204 13.8088 27.2571 13.9873C26.9937 14.1658 26.7884 14.4197 26.6671 14.7168C26.5458 15.014 26.5139 15.3411 26.5756 15.6567C26.6372 15.9723 26.7896 16.2622 27.0133 16.4897C27.2371 16.7172 27.5223 16.8721 27.8327 16.9347C28.1432 16.9974 28.4649 16.965 28.7572 16.8417C29.0495 16.7184 29.2993 16.5096 29.4749 16.2419C29.6504 15.9742 29.7439 15.6596 29.7435 15.3378C29.7378 14.9098 29.5674 14.5011 29.2689 14.1993C28.9704 13.8975 28.5674 13.7265 28.1464 13.7231V13.7142Z" fill="white"/>
<path d="M17.9284 40.1689C17.9284 40.1689 8.38945 28.99 20.804 20.3684" stroke="white" stroke-linecap="round" stroke-linejoin="round"/>
<path d="M19.3278 26.2218L20.3555 20.6811L14.9053 19.6409L17.6544 17.7311L23.1024 18.7736L22.0769 24.3143L19.3278 26.2218Z" fill="white"/>
</g>
<defs>
<clipPath id="clip0">
<rect width="48" height="52" fill="white"/>
</clipPath>
</defs>
</svg>
