<svg id="Layer_1" data-name="Layer 1" xmlns="http://www.w3.org/2000/svg" width="22" height="22" viewBox="0 0 22 22">
  <defs>
    <style>
      .cls-1 {
        fill: #fff;
      }

      .cls-2 {
        fill: #333;
        fill-rule: evenodd;
      }
    </style>
  </defs>
  <title>create_action24_mo</title>
  <circle class="cls-1" cx="11" cy="11" r="11"/>
  <path class="cls-2" d="M15.805,4.52H7.411A1.331,1.331,0,0,0,6.12,5.879V18.105a1.33,1.33,0,0,0,1.291,1.358h9.04a1.33,1.33,0,0,0,1.291-1.358V6.558Zm-4.178,5.825a.447.447,0,0,0-.146-.012h0l-.043,0-.046,0a.454.454,0,0,0-.285.115.32.32,0,0,0-.108.248c0,.352.007.7.014,1.054s.013.7.013,1.053v.706h0c0,.471,0,.941,0,1.412,0,.1-.028.177-.157.2a.193.193,0,0,1-.042,0c-.1,0-.137-.066-.171-.142-.193-.426-.386-.852-.586-1.277a.425.425,0,0,0-.188-.2.554.554,0,0,0-.291-.064,1.169,1.169,0,0,0-.307.045.417.417,0,0,0-.223.2.323.323,0,0,0,0,.275l0,.014,0,.02q.4,1.171.806,2.341a.489.489,0,0,0,.106.171l.141.149c.2.21.395.419.606.619a3.9,3.9,0,0,1,.931,1.252.136.136,0,0,0,.067.077.178.178,0,0,0,.111.021h.007q1.476-.015,2.954-.021c.093,0,.135-.017.157-.1.09-.35.185-.7.279-1.051h0c.072-.267.144-.533.214-.8a3.732,3.732,0,0,0,.2-1.029c-.011-.432-.016-.864-.02-1.3,0-.323-.008-.647-.014-.971a.51.51,0,0,0-.062-.21.271.271,0,0,0-.114-.138.351.351,0,0,0-.19-.054.615.615,0,0,0-.142.019.4.4,0,0,0-.207.128.287.287,0,0,0-.065.208V14.2a.112.112,0,0,1-.006.054.15.15,0,0,1-.029.048.177.177,0,0,1-.05.034.183.183,0,0,1-.062.016.177.177,0,0,1-.078-.02.223.223,0,0,1-.066-.071.188.188,0,0,1-.024-.088c0-.468,0-.937,0-1.4a.273.273,0,0,0-.04-.168.349.349,0,0,0-.137-.126.592.592,0,0,0-.277-.073.621.621,0,0,0-.245.054.389.389,0,0,0-.174.144.3.3,0,0,0-.046.2c0,.165,0,.33,0,.494,0,.188,0,.377,0,.565,0,.113-.069.152-.182.16h-.03c-.121,0-.178-.06-.178-.186v-1.8a.307.307,0,0,0-.1-.229.445.445,0,0,0-.255-.117.785.785,0,0,0-.108-.008.5.5,0,0,0-.251.053.4.4,0,0,0-.173.161.406.406,0,0,0-.03.168v1.865c0,.066-.005.122-.094.148a.4.4,0,0,1-.109.018.166.166,0,0,1-.179-.181V10.857a1.019,1.019,0,0,0-.025-.24.252.252,0,0,0-.04-.117.319.319,0,0,0-.091-.1A.434.434,0,0,0,11.627,10.345Zm-.111-3.334a.415.415,0,0,0-.415.415V8.671a.415.415,0,0,0,.83,0V7.426A.415.415,0,0,0,11.516,7.011ZM13.591,8.2a.415.415,0,0,1,.719.416l-.623,1.078a.415.415,0,0,1-.719-.415ZM8.97,8.049a.415.415,0,0,1,.567.151l.622,1.079a.415.415,0,1,1-.719.415L8.818,8.616A.414.414,0,0,1,8.97,8.049Z" transform="translate(-0.931 -0.992)"/>
</svg>
