<?xml version="1.0" encoding="utf-8"?>
<!-- Generator: Adobe Illustrator 23.0.1, SVG Export Plug-In . SVG Version: 6.00 Build 0)  -->
<!DOCTYPE svg PUBLIC "-//W3C//DTD SVG 1.1//EN" "http://www.w3.org/Graphics/SVG/1.1/DTD/svg11.dtd" [
	<!ENTITY ns_extend "http://ns.adobe.com/Extensibility/1.0/">
	<!ENTITY ns_ai "http://ns.adobe.com/AdobeIllustrator/10.0/">
	<!ENTITY ns_graphs "http://ns.adobe.com/Graphs/1.0/">
	<!ENTITY ns_vars "http://ns.adobe.com/Variables/1.0/">
	<!ENTITY ns_imrep "http://ns.adobe.com/ImageReplacement/1.0/">
	<!ENTITY ns_sfw "http://ns.adobe.com/SaveForWeb/1.0/">
	<!ENTITY ns_custom "http://ns.adobe.com/GenericCustomNamespace/1.0/">
	<!ENTITY ns_adobe_xpath "http://ns.adobe.com/XPath/1.0/">
]>
<svg version="1.1" id="Layer_1" xmlns:x="&ns_extend;" xmlns:i="&ns_ai;" xmlns:graph="&ns_graphs;"
	 xmlns="http://www.w3.org/2000/svg" xmlns:xlink="http://www.w3.org/1999/xlink" x="0px" y="0px" width="24px" height="24px"
	 viewBox="0 0 24 24" style="enable-background:new 0 0 24 24;" xml:space="preserve">
<style type="text/css">
	.st0{fill-rule:evenodd;clip-rule:evenodd;fill:#627783;}
</style>
<metadata>
	<sfw  xmlns="&ns_sfw;">
		<slices></slices>
		<sliceSourceBounds  bottomLeftOrigin="true" height="21.6" width="16.8" x="0" y="0"></sliceSourceBounds>
	</sfw>
</metadata>
<title>action_create_mo24</title>
<path class="st0" d="M17.6,1.2H5.5c-1.1,0-1.9,0.9-1.9,2v17.7c0,1.1,0.8,1.9,1.9,2h13.1c1.1,0,1.9-0.9,1.9-2V4.1L17.6,1.2z
	 M11.6,9.6c-0.1,0-0.1,0-0.2,0h0h-0.1c0,0,0,0-0.1,0c-0.2,0-0.3,0.1-0.4,0.2c-0.1,0.1-0.2,0.2-0.2,0.4c0,0.5,0,1,0,1.5s0,1,0,1.5
	c0,0.3,0,0.7,0,1l0,0c0,0.7,0,1.4,0,2c0,0.1-0.1,0.3-0.2,0.3c0,0,0,0,0,0c0,0,0,0-0.1,0c-0.1,0-0.2-0.1-0.2-0.2
	c-0.3-0.6-0.6-1.2-0.8-1.8c-0.1-0.1-0.2-0.2-0.3-0.3c-0.1-0.1-0.3-0.1-0.4-0.1c-0.2,0-0.3,0-0.4,0.1c-0.1,0.1-0.3,0.2-0.3,0.3
	c-0.1,0.1-0.1,0.3,0,0.4v0c0,0,0,0,0,0C8.2,16,8.6,17.2,9,18.3c0,0.1,0.1,0.2,0.2,0.2l0.2,0.2c0.3,0.3,0.6,0.6,0.9,0.9
	c0.6,0.5,1,1.1,1.3,1.8c0,0,0.1,0.1,0.1,0.1c0,0,0.1,0,0.2,0h0c1.4,0,2.8,0,4.3,0c0.1,0,0.2,0,0.2-0.1c0.1-0.5,0.3-1,0.4-1.5l0,0
	c0.1-0.4,0.2-0.8,0.3-1.2c0.2-0.5,0.3-1,0.3-1.5c0-0.6,0-1.2,0-1.9c0-0.5,0-0.9,0-1.4c0-0.1,0-0.2-0.1-0.3c0-0.1-0.1-0.2-0.2-0.2
	c-0.1-0.1-0.2-0.1-0.3-0.1c-0.1,0-0.1,0-0.2,0c-0.1,0-0.2,0.1-0.3,0.2c-0.1,0.1-0.1,0.2-0.1,0.3v1.3c0,0,0,0.1,0,0.1c0,0,0,0,0,0.1
	c0,0,0,0-0.1,0c-0.1,0-0.1,0-0.2,0c0,0-0.1-0.1-0.1-0.1c0,0,0-0.1,0-0.1c0-0.7,0-1.4,0-2c0-0.1,0-0.2-0.1-0.2c0-0.1-0.1-0.1-0.2-0.2
	c-0.2-0.1-0.5-0.1-0.8,0c-0.1,0-0.2,0.1-0.3,0.2c-0.1,0.1-0.1,0.2-0.1,0.3c0,0.2,0,0.5,0,0.7c0,0.3,0,0.5,0,0.8
	c0,0.2-0.1,0.2-0.3,0.2h0c-0.2,0-0.3-0.1-0.3-0.3v-2.6c0-0.1,0-0.2-0.1-0.3c-0.1-0.1-0.2-0.2-0.4-0.2c-0.1,0-0.1,0-0.2,0
	c-0.1,0-0.3,0-0.4,0.1c-0.2,0.1-0.3,0.3-0.3,0.5v2.7c0,0.1,0,0.2-0.1,0.2c-0.1,0-0.1,0-0.2,0c-0.1,0-0.2-0.1-0.3-0.2c0,0,0,0,0,0
	v-4.4c0-0.1,0-0.2,0-0.3c0-0.1,0-0.1-0.1-0.2c0-0.1-0.1-0.1-0.1-0.1C11.7,9.7,11.6,9.6,11.6,9.6z M11.4,4.8c-0.3,0-0.6,0.3-0.6,0.6
	c0,0,0,0,0,0v1.8c0,0.3,0.3,0.6,0.6,0.6c0.3,0,0.6-0.3,0.6-0.6c0,0,0,0,0,0V5.4C12,5.1,11.7,4.8,11.4,4.8z M14.4,6.5
	c0.2-0.3,0.5-0.4,0.8-0.2c0.3,0.2,0.4,0.5,0.2,0.8c0,0,0,0,0,0l-0.9,1.6C14.4,9,14,9.1,13.7,8.9c-0.3-0.2-0.4-0.5-0.2-0.8
	c0,0,0,0,0,0L14.4,6.5z M7.7,6.3C8,6.1,8.4,6.2,8.5,6.5l0.9,1.6c0.2,0.3,0.1,0.7-0.2,0.8S8.6,9,8.4,8.7c0,0,0,0,0,0L7.5,7.1
	C7.3,6.8,7.4,6.5,7.7,6.3C7.7,6.3,7.7,6.3,7.7,6.3z"/>
</svg>
