<svg id="Layer_1" data-name="Layer 1" xmlns="http://www.w3.org/2000/svg" viewBox="0 0 32 32"><defs><style>.cls-1{fill:#00a69c;}.cls-2{fill:#fff;}</style></defs><title>ssw_status_icons_queued_color_32</title><path class="cls-1" d="M16,32A16,16,0,1,1,32,16,16,16,0,0,1,16,32"/><path class="cls-2" d="M16,5.5A10.82,10.82,0,0,0,8,9a1,1,0,0,0,.07,1.48,1,1,0,0,0,.75.27,1,1,0,0,0,.73-.34,8.71,8.71,0,1,1,.29,12,1,1,0,0,0-1.48,1.48A10.81,10.81,0,1,0,16,5.5Z"/><path class="cls-2" d="M15.88,9.82a1,1,0,0,0-1,1v6.67a1,1,0,0,0,.53.89l.07.07,3.73,2.35a1,1,0,1,0,1.1-1.75L16.91,17V10.85A1,1,0,0,0,15.88,9.82Z"/></svg>