<?xml version="1.0" encoding="utf-8"?>
<!-- Generator: Adobe Illustrator 25.1.0, SVG Export Plug-In . SVG Version: 6.00 Build 0)  -->
<svg version="1.1" id="Layer_1" xmlns="http://www.w3.org/2000/svg" xmlns:xlink="http://www.w3.org/1999/xlink" x="0px" y="0px"
	 viewBox="0 0 32 32" enable-background="new 0 0 32 32" xml:space="preserve">
<g id="Layer_1_5_">
	<g id="Ppt_3_">
	</g>
	<g id="Small_Folder_3_">
	</g>
	<g id="fave_icon_-_selected_3_">
	</g>
	<g id="Shortcut_4_">
	</g>
	<g id="comment_icon_-_selected_3_">
	</g>
	<g id="Comment_icon_3_">
	</g>
	<g>
		<g>
			<g>
				<path fill="#2E3D98" d="M6.779,30.808c-1.781,0-3.281-1.5-3.281-3.281v-22.5c0-1.781,1.5-3.281,3.281-3.281h14.25l5.906,5.906
					v19.875c0,1.781-1.5,3.281-3.281,3.281H6.779z"/>
			</g>
			<g>
				<path fill="#FFFFFF" d="M20.841,2.214l5.625,5.625v19.688c0,1.594-1.219,2.812-2.812,2.812H6.779
					c-1.594,0-2.812-1.219-2.812-2.812v-22.5c0-1.594,1.219-2.812,2.812-2.812H20.841 M21.216,1.276h-0.375H6.779
					c-2.062,0-3.75,1.687-3.75,3.75v22.5c0,2.063,1.688,3.75,3.75,3.75h16.875c2.063,0,3.75-1.687,3.75-3.75V7.839V7.464
					l-0.281-0.281l-5.625-5.625L21.216,1.276L21.216,1.276z"/>
			</g>
		</g>
	</g>
	<g>
		<polygon fill="#232E72" points="20.841,2.214 20.841,7.839 26.466,7.839 		"/>
	</g>
	<g opacity="0.44">
		<g>
			<path fill="#FFFFFF" d="M22.247,14.401H8.185c-0.281,0-0.469-0.188-0.469-0.469c0-0.281,0.188-0.469,0.469-0.469h14.062
				c0.281,0,0.469,0.187,0.469,0.469C22.716,14.214,22.529,14.401,22.247,14.401z"/>
		</g>
		<g>
			<path fill="#FFFFFF" d="M22.247,10.651H8.185c-0.281,0-0.469-0.188-0.469-0.469c0-0.281,0.188-0.469,0.469-0.469h14.062
				c0.281,0,0.469,0.187,0.469,0.469C22.716,10.464,22.529,10.651,22.247,10.651z"/>
		</g>
		<g>
			<path fill="#FFFFFF" d="M17.56,18.151H8.185c-0.281,0-0.469-0.188-0.469-0.469c0-0.281,0.188-0.469,0.469-0.469h9.375
				c0.281,0,0.469,0.188,0.469,0.469C18.029,17.964,17.841,18.151,17.56,18.151z"/>
		</g>
	</g>
</g>
<g>
	<g>
		<path fill="#FFFFFF" d="M28.331,25.577c0.003,0.619-0.5,1.128-1.119,1.133l-13.546,0.093c-0.619,0.004-1.516-0.313-1.994-0.706
			l-3.86-3.169c-0.478-0.393-0.51-1.071-0.072-1.507l4.277-4.252c0.439-0.436,1.304-0.792,1.923-0.791l13.22,0.023
			c0.619,0.001,1.128,0.508,1.131,1.127L28.331,25.577z"/>
	</g>
	<g>
		<path fill="#2E3D98" d="M13.652,27.272c-0.724,0-1.721-0.355-2.279-0.812l-3.861-3.17c-0.335-0.276-0.531-0.658-0.55-1.078
			s0.138-0.818,0.446-1.124l4.277-4.252c0.524-0.521,1.511-0.927,2.25-0.927c0.001,0,0.003,0,0.004,0l13.22,0.023
			c0.876,0.001,1.593,0.716,1.599,1.593l0.041,8.048c0.005,0.879-0.706,1.599-1.584,1.605l-13.547,0.093
			C13.663,27.272,13.657,27.272,13.652,27.272z M13.935,16.847c-0.496,0-1.237,0.306-1.588,0.655l-4.277,4.252
			c-0.117,0.116-0.178,0.264-0.17,0.416c0.007,0.151,0.081,0.292,0.209,0.396l3.86,3.17c0.391,0.321,1.175,0.6,1.683,0.6
			c0.004,0,0.007,0,0.01,0l13.547-0.093c0.363-0.003,0.656-0.299,0.654-0.662l-0.041-8.048c-0.002-0.364-0.299-0.661-0.663-0.661
			l-13.22-0.023C13.936,16.847,13.936,16.847,13.935,16.847z"/>
	</g>
</g>
<g>
	<path fill="#2E3D98" d="M11.132,23.48c-0.718,0-1.358-0.513-1.491-1.242c-0.149-0.821,0.398-1.612,1.22-1.762h0
		c0.82-0.147,1.614,0.397,1.763,1.219c0.15,0.82-0.397,1.61-1.22,1.761C11.313,23.472,11.221,23.48,11.132,23.48z M10.995,21.213
		c-0.416,0.076-0.693,0.475-0.617,0.89c0.076,0.414,0.477,0.69,0.891,0.614c0.415-0.076,0.692-0.475,0.617-0.889
		C11.811,21.413,11.411,21.137,10.995,21.213L10.995,21.213z"/>
</g>
<g>
	<g>
		<path fill="#2E3D98" d="M19.388,24.878c-0.035,0-0.07-0.008-0.103-0.025c-0.115-0.057-0.161-0.197-0.104-0.311l2.995-5.989
			c0.057-0.114,0.196-0.162,0.311-0.104c0.115,0.057,0.161,0.197,0.104,0.311l-2.995,5.989
			C19.555,24.83,19.473,24.878,19.388,24.878z"/>
	</g>
	<g>
		<path fill="#2E3D98" d="M18.353,23.737c-0.119,0-0.237-0.045-0.328-0.136l-1.967-1.967l1.967-1.967
			c0.181-0.181,0.474-0.181,0.656,0s0.181,0.474,0,0.656l-1.311,1.311l1.311,1.311c0.181,0.181,0.181,0.474,0,0.656
			C18.59,23.692,18.472,23.737,18.353,23.737z"/>
	</g>
	<g>
		<path fill="#2E3D98" d="M23.436,23.737c-0.119,0-0.237-0.045-0.328-0.136c-0.181-0.181-0.181-0.474,0-0.656l1.311-1.311
			l-1.311-1.311c-0.181-0.181-0.181-0.474,0-0.656s0.474-0.181,0.656,0l1.967,1.967l-1.967,1.967
			C23.673,23.692,23.554,23.737,23.436,23.737z"/>
	</g>
</g>
</svg>
