<svg width="26" height="32" viewBox="0 0 26 32" fill="none" xmlns="http://www.w3.org/2000/svg">
<path d="M22 32H4C1.791 32 0 30.209 0 28V4C0 1.791 1.791 0 4 0H19.414L26 6.586V28C26 30.209 24.209 32 22 32ZM4 1C2.343 1 1 2.343 1 4V28C1 29.657 2.343 31 4 31H22C23.657 31 25 29.657 25 28V7L19 1H4Z" fill="white"/>
<path d="M4 31.5C2.067 31.5 0.5 29.933 0.5 28V4C0.5 2.067 2.067 0.5 4 0.5H19.207L25.5 6.793V28C25.5 29.933 23.933 31.5 22 31.5H4Z" fill="#9370B1"/>
<path d="M19 1L25 7V28C25 29.657 23.657 31 22 31H4C2.343 31 1 29.657 1 28V4C1 2.343 2.343 1 4 1H19ZM19.414 0H4C1.791 0 0 1.791 0 4V28C0 30.209 1.791 32 4 32H22C24.209 32 26 30.209 26 28V6.586L25.707 6.293L19.707 0.293L19.414 0Z" fill="white"/>
<path d="M19 1V7H25L19 1Z" fill="#735796"/>
<path d="M17.885 9.01398H7.88504C6.30104 8.98698 4.99504 10.248 4.96804 11.832C4.96704 11.865 4.96704 11.898 4.96804 11.931V20.014C4.97304 21.669 6.31304 23.009 7.96804 23.014H9.98503L10 28.069C10.001 28.311 10.198 28.506 10.44 28.505C10.441 28.505 10.443 28.505 10.444 28.505C10.569 28.505 10.687 28.449 10.767 28.353L15.408 23.014H18.08C19.689 22.999 20.981 21.683 20.966 20.074C20.966 20.054 20.965 20.034 20.965 20.014V11.931C20.914 10.278 19.539 8.97498 17.885 9.01398Z" fill="#735796"/>
<path d="M17.885 8.01398H7.88504C6.30104 7.98698 4.99504 9.24798 4.96804 10.832C4.96704 10.865 4.96704 10.898 4.96804 10.931V19.014C4.97304 20.669 6.31304 22.009 7.96804 22.014H9.98503L10 27.069C10.001 27.311 10.198 27.506 10.44 27.505C10.441 27.505 10.443 27.505 10.444 27.505C10.569 27.505 10.687 27.449 10.767 27.353L15.408 22.014H18.08C19.689 21.999 20.981 20.683 20.966 19.074C20.966 19.054 20.965 19.034 20.965 19.014V10.931C20.914 9.27798 19.539 7.97498 17.885 8.01398Z" fill="white"/>
<path d="M9.15601 12.956C9.16901 12.428 9.33101 11.915 9.62501 11.476C9.96601 10.951 10.438 10.523 10.994 10.235C11.641 9.89499 12.364 9.72599 13.094 9.74299C13.773 9.72899 14.445 9.86899 15.062 10.153C15.596 10.398 16.052 10.785 16.381 11.272C16.686 11.726 16.848 12.262 16.847 12.809C16.856 13.207 16.765 13.601 16.582 13.955C16.416 14.268 16.203 14.555 15.951 14.804C15.708 15.043 15.271 15.443 14.64 16.004C14.493 16.136 14.353 16.276 14.222 16.423C14.131 16.523 14.052 16.635 13.987 16.754C13.937 16.85 13.897 16.95 13.868 17.054C13.84 17.155 13.798 17.33 13.741 17.581C13.712 18.052 13.306 18.411 12.835 18.382C12.832 18.382 12.829 18.382 12.826 18.381C12.576 18.387 12.333 18.293 12.153 18.12C11.958 17.911 11.859 17.629 11.88 17.344C11.871 16.962 11.939 16.581 12.08 16.226C12.207 15.92 12.386 15.639 12.611 15.395C12.894 15.097 13.191 14.813 13.503 14.545C13.831 14.258 14.068 14.042 14.215 13.895C14.36 13.75 14.484 13.586 14.584 13.407C14.684 13.228 14.735 13.027 14.734 12.822C14.74 12.426 14.573 12.047 14.276 11.784C13.953 11.495 13.529 11.343 13.096 11.361C12.639 11.322 12.187 11.477 11.85 11.788C11.538 12.155 11.308 12.584 11.174 13.046C11.1 13.539 10.68 13.906 10.182 13.914C9.90901 13.921 9.64501 13.812 9.45601 13.614C9.27101 13.444 9.16301 13.207 9.15601 12.956ZM12.907 21.383C12.606 21.388 12.315 21.281 12.089 21.083C11.85 20.867 11.721 20.555 11.739 20.233C11.733 19.926 11.856 19.631 12.078 19.419C12.298 19.2 12.598 19.081 12.908 19.088C13.533 19.08 14.046 19.579 14.054 20.204C14.054 20.214 14.054 20.223 14.054 20.233C14.07 20.553 13.943 20.863 13.707 21.079C13.489 21.279 13.203 21.388 12.907 21.384V21.383Z" fill="#735796"/>
</svg>
