<svg width="20" height="20" viewBox="0 0 20 20" fill="none" xmlns="http://www.w3.org/2000/svg">
<path d="M4.375 19.6875C3.79504 19.6869 3.23901 19.4562 2.82891 19.0461C2.41881 18.636 2.18814 18.08 2.1875 17.5V2.5C2.18814 1.92004 2.41881 1.36401 2.82891 0.953912C3.23901 0.543815 3.79504 0.313141 4.375 0.3125H13.8794L17.8125 4.24563V17.5C17.8119 18.08 17.5812 18.636 17.1711 19.0461C16.761 19.4562 16.205 19.6869 15.625 19.6875H4.375Z" fill="#2E3D98"/>
<path d="M13.75 0.625L17.5 4.375V17.5C17.5 17.9973 17.3025 18.4742 16.9508 18.8258C16.5992 19.1775 16.1223 19.375 15.625 19.375H4.375C3.87772 19.375 3.40081 19.1775 3.04917 18.8258C2.69754 18.4742 2.5 17.9973 2.5 17.5V2.5C2.5 2.00272 2.69754 1.52581 3.04917 1.17417C3.40081 0.822544 3.87772 0.625 4.375 0.625H13.75ZM14.0087 0H4.375C3.71216 0.000661846 3.07666 0.264267 2.60796 0.732964C2.13927 1.20166 1.87566 1.83716 1.875 2.5V17.5C1.87566 18.1628 2.13927 18.7983 2.60796 19.267C3.07666 19.7357 3.71216 19.9993 4.375 20H15.625C16.2878 19.9993 16.9233 19.7357 17.392 19.267C17.8607 18.7983 18.1243 18.1628 18.125 17.5V4.11625L17.9419 3.93313L14.1919 0.183125L14.0087 0Z" fill="white"/>
<path d="M13.75 0.625V4.375H17.5L13.75 0.625Z" fill="#232E72"/>
<path d="M14.3721 7.72063L10.3174 5.36555C10.2207 5.31056 10.1114 5.28165 10.0002 5.28165C9.88892 5.28165 9.77959 5.31056 9.68289 5.36555L5.62758 7.72063C5.53176 7.77677 5.45228 7.85697 5.39701 7.9533C5.34174 8.04962 5.31261 8.15872 5.3125 8.26977V12.9807C5.31259 13.0918 5.34175 13.2009 5.39708 13.2972C5.45241 13.3936 5.53198 13.4737 5.62789 13.5298L9.68258 15.8849C9.77892 15.941 9.88839 15.9705 9.99984 15.9705C10.1113 15.9705 10.2208 15.941 10.3171 15.8849L14.3724 13.5295C14.4682 13.4733 14.5477 13.3932 14.603 13.2968C14.6583 13.2005 14.6874 13.0914 14.6875 12.9804V8.26946C14.6873 8.15842 14.6582 8.04935 14.6028 7.95308C14.5475 7.85681 14.468 7.77667 14.3721 7.72063Z" fill="#232E72"/>
<path d="M14.5069 7.17188L10.1819 4.66016C10.1264 4.62921 10.0639 4.61297 10.0003 4.61297C9.93676 4.61297 9.87426 4.62921 9.81875 4.66016L5.49375 7.17188C5.43864 7.20414 5.39293 7.25024 5.36113 7.30562C5.32934 7.361 5.31258 7.42372 5.3125 7.48758V12.5123C5.31253 12.576 5.32922 12.6387 5.36092 12.6941C5.39261 12.7494 5.43821 12.7955 5.4932 12.8278L9.81687 15.3395C9.87255 15.3716 9.93569 15.3887 10 15.3889C10.0636 15.3888 10.1261 15.3719 10.1813 15.3401L14.5062 12.8281C14.5614 12.7958 14.6071 12.7496 14.6389 12.6941C14.6707 12.6387 14.6874 12.5759 14.6875 12.512V7.48758C14.6874 7.4238 14.6707 7.36115 14.639 7.30579C14.6074 7.25043 14.5618 7.20428 14.5069 7.17188ZM14.6429 12.5122C14.6431 12.5682 14.6285 12.6232 14.6007 12.6718C14.5729 12.7204 14.5328 12.7609 14.4844 12.7891L13.2344 13.5148L10.1586 15.3016C10.1104 15.3297 10.0556 15.3445 9.99984 15.3445C9.94407 15.3445 9.8893 15.3297 9.84109 15.3016L5.51609 12.7891C5.46765 12.7609 5.42747 12.7206 5.39957 12.672C5.37168 12.6234 5.35706 12.5684 5.35719 12.5123V7.48766C5.35709 7.43165 5.37172 7.3766 5.39961 7.32804C5.4275 7.27947 5.46767 7.23909 5.51609 7.21094L9.84109 4.69844C9.8893 4.67039 9.94407 4.65561 9.99984 4.65561C10.0556 4.65561 10.1104 4.67039 10.1586 4.69844L14.4844 7.21094C14.5328 7.2391 14.573 7.2795 14.6009 7.32808C14.6287 7.37666 14.6434 7.43172 14.6433 7.48774L14.6429 12.5122Z" fill="white"/>
<path d="M14.4841 7.21094L10.1584 4.69836C10.1102 4.67031 10.0554 4.65553 9.99962 4.65553C9.94385 4.65553 9.88907 4.67031 9.84087 4.69836L5.51587 7.21094C5.46744 7.23909 5.42726 7.27949 5.39937 7.32807C5.37148 7.37665 5.35686 7.43172 5.35696 7.48774V12.5124C5.35684 12.5684 5.37146 12.6235 5.39935 12.6721C5.42724 12.7206 5.46743 12.761 5.51587 12.7891L9.84087 15.3017C9.88907 15.3298 9.94385 15.3445 9.99962 15.3445C10.0554 15.3445 10.1102 15.3298 10.1584 15.3017L13.2341 13.5148L14.4841 12.7891C14.5326 12.7609 14.5728 12.7205 14.6006 12.672C14.6285 12.6234 14.6432 12.5684 14.6431 12.5123V7.48766C14.6431 7.43166 14.6285 7.37661 14.6006 7.32805C14.5727 7.27948 14.5326 7.2391 14.4841 7.21094ZM9.79946 14.8638L5.71407 12.4913V7.74625L9.75118 10.0909C9.76673 10.0985 9.78272 10.1052 9.79907 10.1109L9.79946 14.8638ZM14.2859 12.4913L10.156 14.8898V10.1298C10.1879 10.1203 10.2186 10.1075 10.2478 10.0916L14.2853 7.74625L14.2859 12.4913Z" fill="white"/>
<path d="M9.93087 9.78234L5.86478 7.42086L9.99978 5.01945L14.1348 7.42086L10.0687 9.78266C10.0477 9.79463 10.0239 9.8009 9.99974 9.80084C9.97556 9.80079 9.95182 9.79441 9.93087 9.78234V9.78234Z" fill="#2E3D98"/>
<path d="M14.2857 7.74625V12.4912L10.1564 14.8898V10.1298L14.2857 7.74625Z" fill="#2E3D98"/>
<path d="M5.71463 7.74625V12.4912L9.79963 14.8637V10.1109C9.78354 10.1037 5.71463 7.74625 5.71463 7.74625Z" fill="#2E3D98"/>
<path opacity="0.2" d="M14.2857 7.74625V12.4912L10.1564 14.8898V10.1298L14.2857 7.74625Z" fill="white"/>
<path opacity="0.2" d="M5.71463 7.74625V12.4912L9.79963 14.8637V10.1109C9.78354 10.1037 5.71463 7.74625 5.71463 7.74625Z" fill="white"/>
</svg>
