<svg id="Layer_4" data-name="Layer 4" xmlns="http://www.w3.org/2000/svg" viewBox="0 0 32 32"><defs><style>.cls-1{fill:#f6591e;}.cls-2{fill:#fff;}</style></defs><title>ssw_status_icons_missing_color_32</title><path class="cls-1" d="M16,32A16,16,0,1,1,32,16,16,16,0,0,1,16,32" transform="translate(0 0)"/><path class="cls-2" d="M19.89,6.71H11.08A2.16,2.16,0,0,0,8.77,8.86V22.81a2.43,2.43,0,0,0,2.31,2.48h9.76a2.49,2.49,0,0,0,2.38-2.48V10.32ZM16,21.81a1.16,1.16,0,1,1,1.16-1.16A1.16,1.16,0,0,1,16,21.81Zm1.6-6.32c-.71.51-1.37.92-1.37,1.68a1,1,0,0,0,.46.81l-1,.46A1.77,1.77,0,0,1,15,17.06c-.05-1.07.81-1.63,1.58-2.19S18,13.91,18,13s-.66-1.58-2-1.58a3.07,3.07,0,0,0-2.64,1.37l-.86-.92a4.54,4.54,0,0,1,3.66-1.73c2,0,3.31,1.17,3.31,2.59S18.52,14.87,17.6,15.48Z" transform="translate(0 0)"/></svg>