<svg id="Layer_3" data-name="Layer 3" xmlns="http://www.w3.org/2000/svg" viewBox="0 0 32 32"><defs><style>.cls-1{fill:#f6921e;}.cls-2{fill:#fff;}</style></defs><title>ssw_status_icons_outdated_color_32</title><path class="cls-1" d="M16,32A16,16,0,1,1,32,16,16,16,0,0,1,16,32"/><path class="cls-2" d="M24.88,20.9,17,7a1.07,1.07,0,0,0-2,0L7.12,20.9c-.56,1-.09,1.8,1,1.8H23.84C25,22.7,25.44,21.89,24.88,20.9Zm-9.81-10.2h1.86v4.13a12.38,12.38,0,0,1-.07,1.3q-.07.64-.19,1.34H15.33q-.12-.69-.19-1.34a12.11,12.11,0,0,1-.07-1.3Zm2,9.89a1.17,1.17,0,0,1-.25.36,1.13,1.13,0,0,1-.37.24,1.19,1.19,0,0,1-.46.09,1.21,1.21,0,0,1-.47-.09,1.15,1.15,0,0,1-.37-1.88A1.18,1.18,0,0,1,16,19a1.18,1.18,0,0,1,.46.09,1.19,1.19,0,0,1,.37.25,1.17,1.17,0,0,1,.25.37,1.14,1.14,0,0,1,0,.91Z"/></svg>