<svg width="14" height="14" viewBox="0 0 14 14" fill="none" xmlns="http://www.w3.org/2000/svg">
<path d="M7 14C10.866 14 14 10.866 14 7C14 3.13401 10.866 0 7 0C3.13401 0 0 3.13401 0 7C0 10.866 3.13401 14 7 14Z" fill="#DF3324"/>
<path d="M7.00043 9.33334C6.53377 9.33334 6.22266 9.02223 6.22266 8.55557V3.11112C6.22266 2.72223 6.53377 2.33334 7.00043 2.33334C7.38932 2.33334 7.77821 2.64445 7.77821 3.11112V8.55557C7.77821 9.02223 7.4671 9.33334 7.00043 9.33334Z" fill="white"/>
<path d="M7.00043 11.6667C6.53377 11.6667 6.22266 11.3556 6.22266 10.8889C6.22266 10.5 6.53377 10.1111 7.00043 10.1111C7.38932 10.1111 7.77821 10.4222 7.77821 10.8889C7.77821 11.3556 7.4671 11.6667 7.00043 11.6667Z" fill="white"/>
</svg>
