<svg width="20" height="20" viewBox="0 0 20 20" fill="none" xmlns="http://www.w3.org/2000/svg">
<path opacity="0.9" fill-rule="evenodd" clip-rule="evenodd" d="M6.08579 9.28603L3.15656 12.2154L2 18L7.78431 16.8434L10.7139 13.9136L6.08579 9.28603ZM13.0647 11.5627L11.5624 13.0651L6.93429 8.43748L8.43689 6.93481L13.0647 11.5627ZM13.9132 10.7142L14.7259 9.90141L10.0982 5.27344L9.2854 6.08626L13.9132 10.7142ZM17.0459 7.58134C18.3206 6.30663 18.3175 4.23799 17.0398 2.96023C15.7621 1.68247 13.6928 1.67942 12.4189 2.95413L11.2555 4.1176L15.8832 8.74557L17.0459 7.58134Z" fill="#333333"/>
<path d="M3.06011 2C2.85034 2.00037 2.64538 2.06286 2.47108 2.17958C2.29679 2.2963 2.16096 2.46202 2.08073 2.65585C2.00051 2.84967 1.97948 3.06291 2.0203 3.26867C2.06112 3.47442 2.16197 3.66349 2.31011 3.812L16.1861 17.688C16.3867 17.8787 16.6538 17.9834 16.9305 17.9799C17.2073 17.9764 17.4717 17.8649 17.6674 17.6693C17.8631 17.4736 17.9745 17.2092 17.978 16.9324C17.9815 16.6557 17.8768 16.3886 17.6861 16.188L3.81111 2.311C3.71258 2.21226 3.59552 2.13395 3.46664 2.08058C3.33776 2.02721 3.1996 1.99982 3.06011 2Z" fill="#333333"/>
</svg>
