<svg width="32" height="32" viewBox="0 0 32 32" fill="none" xmlns="http://www.w3.org/2000/svg">
<rect width="5.02891" height="7.46225" transform="matrix(-1 0 0 1 16.1022 23.8467)" fill="#788F9B"/>
<rect width="2.59556" height="7.46225" transform="matrix(-1 0 0 1 13.6688 23.8467)" fill="#546E7A"/>
<rect width="12.9778" height="1.78445" rx="0.892225" transform="matrix(-1 0 0 1 20.1577 26.6045)" fill="#415761"/>
<path d="M1.07979 22.328V6.00956C1.07979 5.14648 1.77725 4.44435 2.63489 4.44435H8.77521C9.13832 4.44435 9.50299 4.5742 9.80079 4.81136L12.6529 7.32984C12.8566 7.49002 12.9911 7.55455 13.1318 7.55455H21.2961C22.1537 7.55455 22.8512 8.25202 22.8512 9.10965V22.328H1.07979Z" fill="#B36601"/>
<path d="M8.7752 4.83312C9.05978 4.83312 9.33659 4.93887 9.55975 5.11615L12.3963 7.62142C12.6194 7.79792 12.8472 7.94333 13.1318 7.94333H21.2961C21.9399 7.94333 22.4624 8.46584 22.4624 9.10965V21.9392H1.46856V6.00956C1.46856 5.36497 1.99107 4.83312 2.63489 4.83312H8.7752ZM8.7752 4.05557H2.63489C1.56264 4.05557 0.69101 4.93187 0.69101 6.00956V21.9392V22.7168H1.46856H22.4624H23.24V21.9392V9.10965C23.24 8.03819 22.3676 7.16577 21.2961 7.16577H13.1318C13.1108 7.16577 13.0525 7.14711 12.8947 7.02348L10.0753 4.53299L10.0597 4.51899L10.0426 4.50655C9.67561 4.21575 9.2254 4.05557 8.7752 4.05557Z" fill="white"/>
<path d="M2.24611 21.1617H21.6849V10.276C21.6849 9.84677 21.3365 9.49843 20.9073 9.49843H3.02366C2.59445 9.49843 2.24611 9.84677 2.24611 10.276V21.1617Z" fill="#E3992E"/>
<path d="M2.24611 21.1617H21.6849V11.0535L2.24611 21.1617Z" fill="#DD8100"/>
<path fill-rule="evenodd" clip-rule="evenodd" d="M27.9444 1.62222C30.1843 1.62222 32 3.43796 32 5.67779V20.9267C32 23.1666 30.1843 24.9823 27.9444 24.9823C26.3915 24.9823 25.0424 24.1095 24.361 22.8276C25.4789 22.6078 26.3222 21.6224 26.3222 20.4401V6.16446C26.3222 4.98211 25.4789 3.99672 24.361 3.7769C25.0424 2.49505 26.3915 1.62222 27.9444 1.62222Z" fill="#004B71"/>
<path fill-rule="evenodd" clip-rule="evenodd" d="M26.0702 0C29.3852 0 32 2.6873 32 6.00224V20.6023C32 23.9172 29.3852 26.6045 26.0702 26.6045H5.55769C3.04646 26.6045 0.895432 25.0624 0 22.8734H25.5836C26.9275 22.8734 28.0169 21.784 28.0169 20.4401V6.16447C28.0169 4.82057 26.9275 3.73112 25.5836 3.73112H0C0.895432 1.54218 3.04646 0 5.55769 0H26.0702Z" fill="#0072AA"/>
<rect width="2" height="4" transform="matrix(4.37114e-08 1 1 -4.37114e-08 28 8)" fill="#013550"/>
<rect width="1" height="4" transform="matrix(4.37114e-08 1 1 -4.37114e-08 28 8)" fill="#03A5F5"/>
<rect width="2" height="4" transform="matrix(4.37114e-08 1 1 -4.37114e-08 28 16)" fill="#013550"/>
<rect width="1" height="4" transform="matrix(4.37114e-08 1 1 -4.37114e-08 28 16)" fill="#03A5F5"/>
<rect width="2" height="4" transform="matrix(4.37114e-08 1 1 -4.37114e-08 28 12)" fill="#013550"/>
<rect width="1" height="4" transform="matrix(4.37114e-08 1 1 -4.37114e-08 28 12)" fill="#03A5F5"/>
</svg>
