<svg width="220" height="155" viewBox="0 0 220 155" fill="none" xmlns="http://www.w3.org/2000/svg">
<g clip-path="url(#clip0)">
<g opacity="0.2">
<path opacity="0.2" d="M24.2001 143.721C29.0132 143.743 33.7247 142.336 37.7375 139.678C41.7503 137.02 44.8838 133.231 46.7411 128.791C48.5984 124.35 49.0959 119.458 48.1705 114.735C47.2451 110.012 44.9385 105.669 41.5429 102.258C38.1473 98.8465 33.8155 96.5199 29.0964 95.5727C24.3773 94.6255 19.4833 95.1003 15.0343 96.9371C10.5854 98.7739 6.78171 101.89 4.10528 105.89C1.42886 109.891 0.000118203 114.596 6.71282e-05 119.409C-0.00742681 122.594 0.612596 125.75 1.82473 128.696C3.03686 131.642 4.81737 134.32 7.06457 136.577C9.31178 138.835 11.9817 140.628 14.9218 141.853C17.8619 143.079 21.0147 143.714 24.2001 143.721Z" fill="#CBD3D9"/>
</g>
<g opacity="0.42">
<g opacity="0.7">
<path opacity="0.7" d="M182.417 89.192C180.011 89.2307 177.664 88.4499 175.761 86.9779C173.858 85.5058 172.512 83.4302 171.945 81.092C171.387 78.3083 171.954 75.4168 173.523 73.0506C175.092 70.6845 177.535 69.0367 180.317 68.468C183.109 67.8183 186.044 68.2745 188.507 69.741C189.711 70.4442 190.757 71.3877 191.581 72.5126C192.404 73.6376 192.988 74.9201 193.294 76.2802C193.601 77.6403 193.624 79.049 193.363 80.4185C193.102 81.7881 192.562 83.0892 191.776 84.241C190.177 86.6189 187.723 88.2884 184.924 88.902C184.102 89.0913 183.261 89.1886 182.417 89.192ZM182.839 71.249C182.217 71.2498 181.596 71.3196 180.989 71.457C179.988 71.6185 179.03 71.9833 178.175 72.529C177.32 73.0746 176.586 73.7896 176.017 74.6298C175.449 75.47 175.059 76.4177 174.871 77.4144C174.683 78.4111 174.701 79.4358 174.924 80.4253C175.147 81.4148 175.57 82.3482 176.167 83.168C176.764 83.9877 177.523 84.6765 178.397 85.1918C179.271 85.7072 180.241 86.0382 181.247 86.1644C182.253 86.2907 183.275 86.2095 184.249 85.926C186.283 85.4842 188.068 84.275 189.233 82.55C189.789 81.7427 190.172 80.829 190.358 79.8664C190.544 78.9038 190.528 77.9131 190.312 76.9569C190.096 76.0006 189.684 75.0995 189.102 74.3102C188.521 73.521 187.782 72.8607 186.933 72.371C185.695 71.6335 184.28 71.2457 182.839 71.249Z" fill="#666666"/>
</g>
<g opacity="0.5">
<path opacity="0.5" d="M176.811 52.913C176.359 53.0234 175.881 52.9497 175.483 52.7082C175.085 52.4667 174.8 52.0771 174.689 51.625L173.339 45.633C173.254 45.1782 173.349 44.7082 173.603 44.3218C173.858 43.9353 174.252 43.6626 174.703 43.5608C175.155 43.4591 175.628 43.5362 176.024 43.7761C176.419 44.0159 176.706 44.3998 176.825 44.847L178.175 50.84C178.269 51.2958 178.178 51.7702 177.922 52.1589C177.666 52.5477 177.267 52.8189 176.811 52.913Z" fill="#666666"/>
</g>
<g opacity="0.5">
<path opacity="0.5" d="M191.044 53.009C190.76 53.0749 190.463 53.0718 190.179 53C189.957 52.9462 189.749 52.848 189.565 52.7113C189.382 52.5746 189.229 52.4022 189.114 52.2046C189 52.007 188.926 51.7881 188.898 51.5613C188.871 51.3345 188.889 51.1045 188.952 50.885L190.699 44.929C190.839 44.4821 191.146 44.1062 191.556 43.8791C191.965 43.6519 192.446 43.591 192.899 43.709C193.122 43.763 193.33 43.8614 193.513 43.9982C193.696 44.1351 193.85 44.3076 193.964 44.5053C194.079 44.703 194.152 44.9218 194.18 45.1486C194.208 45.3754 194.189 45.6055 194.125 45.825L192.379 51.78C192.286 52.0847 192.113 52.3591 191.878 52.575C191.644 52.791 191.356 52.9407 191.044 53.009Z" fill="#666666"/>
</g>
<g opacity="0.5">
<path opacity="0.5" d="M203.372 59.462C203.089 59.5276 202.795 59.524 202.513 59.4514C202.232 59.3788 201.972 59.2394 201.756 59.045C201.588 58.8912 201.453 58.7048 201.358 58.4972C201.264 58.2896 201.213 58.065 201.208 57.8371C201.204 57.6092 201.245 57.3827 201.33 57.1712C201.415 56.9598 201.543 56.7678 201.704 56.607L206.148 52.06C206.476 51.7239 206.921 51.5272 207.391 51.5106C207.86 51.494 208.318 51.6589 208.669 51.971C208.838 52.1248 208.973 52.3112 209.067 52.5189C209.162 52.7265 209.213 52.9512 209.218 53.1792C209.223 53.4072 209.181 53.6338 209.096 53.8454C209.011 54.0569 208.884 54.249 208.722 54.41L204.278 58.956C204.032 59.209 203.717 59.3848 203.372 59.462Z" fill="#666666"/>
</g>
<g opacity="0.5">
<path opacity="0.5" d="M211.056 70.751C210.637 70.8513 210.196 70.7949 209.816 70.5922C209.435 70.3896 209.142 70.0548 208.992 69.651C208.919 69.4332 208.889 69.2031 208.906 68.974C208.922 68.7448 208.983 68.5212 209.087 68.3159C209.19 68.1107 209.333 67.928 209.507 67.7783C209.681 67.6286 209.884 67.515 210.102 67.444L216.19 65.339C216.628 65.1787 217.112 65.198 217.536 65.3928C217.96 65.5876 218.29 65.9421 218.454 66.379C218.528 66.5968 218.557 66.827 218.541 67.0563C218.525 67.2856 218.464 67.5095 218.36 67.7148C218.257 67.9202 218.114 68.1031 217.94 68.2528C217.765 68.4025 217.563 68.5161 217.344 68.587L211.256 70.692C211.191 70.7155 211.124 70.7352 211.056 70.751Z" fill="#666666"/>
</g>
<g opacity="0.5">
<path opacity="0.5" d="M218.594 85.071C218.383 85.1178 218.165 85.1277 217.951 85.1L211.589 84.271C211.362 84.2457 211.141 84.175 210.942 84.0629C210.742 83.9508 210.567 83.7997 210.427 83.6186C210.287 83.4375 210.185 83.2301 210.127 83.0087C210.069 82.7873 210.056 82.5565 210.089 82.33C210.17 81.8684 210.426 81.4561 210.805 81.1799C211.183 80.9037 211.654 80.785 212.118 80.849L218.48 81.678C218.708 81.7033 218.928 81.774 219.127 81.8861C219.327 81.9982 219.502 82.1493 219.642 82.3304C219.782 82.5115 219.884 82.7189 219.942 82.9403C220 83.1617 220.013 83.3925 219.98 83.619C219.92 83.9718 219.757 84.2986 219.51 84.5574C219.263 84.8162 218.944 84.9951 218.594 85.071Z" fill="#666666"/>
</g>
<g opacity="0.5">
<path opacity="0.5" d="M211.837 100.467C211.59 100.524 211.334 100.528 211.085 100.48C210.836 100.432 210.6 100.332 210.392 100.187L205.268 96.573C205.081 96.4425 204.923 96.2754 204.802 96.0818C204.682 95.8881 204.602 95.672 204.568 95.4466C204.534 95.2211 204.546 94.9911 204.603 94.7704C204.661 94.5497 204.762 94.3431 204.902 94.163C205.189 93.7892 205.609 93.5401 206.074 93.4673C206.539 93.3945 207.015 93.5036 207.402 93.772L212.527 97.385C212.714 97.5156 212.872 97.6828 212.993 97.8765C213.113 98.0702 213.193 98.2863 213.227 98.5117C213.261 98.7371 213.249 98.9671 213.191 99.1877C213.134 99.4083 213.032 99.6149 212.892 99.795C212.631 100.137 212.257 100.375 211.837 100.467Z" fill="#666666"/>
</g>
<g opacity="0.5">
<path opacity="0.5" d="M198.428 111.19C198.045 111.281 197.642 111.242 197.284 111.079C196.925 110.916 196.631 110.638 196.447 110.29L193.668 104.803C193.567 104.597 193.508 104.373 193.495 104.144C193.482 103.915 193.515 103.686 193.591 103.47C193.668 103.254 193.787 103.056 193.942 102.886C194.096 102.717 194.283 102.58 194.491 102.484C194.909 102.275 195.392 102.238 195.837 102.38C196.283 102.522 196.655 102.832 196.875 103.244L199.655 108.731C199.756 108.937 199.815 109.161 199.828 109.39C199.841 109.619 199.808 109.848 199.731 110.064C199.655 110.28 199.536 110.479 199.381 110.648C199.227 110.818 199.04 110.955 198.832 111.051C198.703 111.112 198.567 111.159 198.428 111.19Z" fill="#666666"/>
</g>
<g opacity="0.5">
<path opacity="0.5" d="M164.605 58.659C164.287 58.7334 163.955 58.7197 163.644 58.6192C163.333 58.5188 163.056 58.3354 162.842 58.089L158.821 53.37C158.673 53.1956 158.563 52.9931 158.496 52.7748C158.428 52.5564 158.406 52.3268 158.43 52.0996C158.454 51.8725 158.524 51.6525 158.635 51.4531C158.747 51.2536 158.897 51.0787 159.078 50.939C159.442 50.6433 159.907 50.4999 160.374 50.5391C160.842 50.5782 161.276 50.7968 161.586 51.149L165.608 55.868C165.755 56.0425 165.866 56.2451 165.933 56.4634C166 56.6818 166.022 56.9114 165.998 57.1385C165.973 57.3657 165.904 57.5855 165.792 57.785C165.681 57.9844 165.531 58.1593 165.35 58.299C165.132 58.4745 164.878 58.5977 164.605 58.659Z" fill="#666666"/>
</g>
</g>
<path d="M149.015 131.448H148.967L33.6113 131.056C30.1653 131.036 26.8674 129.652 24.439 127.206C22.0106 124.761 20.6491 121.454 20.6523 118.008L20.9213 39.132C20.9411 35.694 22.3184 32.4031 24.7533 29.976C27.1881 27.5488 30.4834 26.1819 33.9214 26.173H33.9683L149.325 26.564C152.772 26.5841 156.07 27.9682 158.498 30.4136C160.926 32.859 162.287 36.1667 162.283 39.613L162.015 118.489C161.995 121.927 160.618 125.217 158.183 127.644C155.748 130.071 152.453 131.439 149.015 131.448ZM33.9193 27.7C30.8861 27.7099 27.9795 28.9173 25.8318 31.0593C23.6842 33.2013 22.4693 36.1048 22.4513 39.138L22.1823 118.014C22.1815 121.054 23.3835 123.971 25.5259 126.128C27.6684 128.285 30.5772 129.507 33.6173 129.527L148.973 129.918H149.015C152.048 129.907 154.953 128.7 157.101 126.559C159.248 124.417 160.464 121.515 160.483 118.483L160.752 39.607C160.753 36.5668 159.551 33.6499 157.408 31.4929C155.266 29.3359 152.357 28.114 149.317 28.094L33.9603 27.7H33.9193Z" fill="#666666"/>
<path d="M53.4642 23.5676L45.0947 23.6576L45.1646 30.1552L53.5341 30.0652L53.4642 23.5676Z" fill="white"/>
<path d="M22.2608 58.2C22.0628 58.1928 21.8753 58.1091 21.7378 57.9665C21.6003 57.824 21.5234 57.6336 21.5234 57.4355C21.5234 57.2374 21.6003 57.047 21.7378 56.9044C21.8753 56.7618 22.0628 56.6781 22.2608 56.671L161.485 56.182C161.688 56.182 161.882 56.2626 162.026 56.406C162.169 56.5495 162.25 56.7441 162.25 56.947C162.25 57.1499 162.169 57.3444 162.026 57.4879C161.882 57.6314 161.688 57.712 161.485 57.712L22.2638 58.2H22.2608Z" fill="#666666"/>
<path d="M92.0521 23.7547L83.6826 23.8447L83.7525 30.3423L92.122 30.2523L92.0521 23.7547Z" fill="white"/>
<path d="M128.641 23.6278L120.271 23.7198L120.342 30.2178L128.712 30.1258L128.641 23.6278Z" fill="white"/>
<path d="M49.4444 42.631C48.0933 42.6344 46.7736 42.2243 45.6626 41.4556C44.5516 40.6869 43.7025 39.5965 43.2294 38.331C42.6958 37.0169 42.6274 35.5599 43.0355 34.2016C43.4437 32.8433 44.3038 31.6653 45.4734 30.863C45.772 30.6777 46.0101 30.4095 46.1588 30.0911C46.3074 29.7727 46.3601 29.4179 46.3104 29.07C46.2774 25.407 46.3044 21.744 46.3284 18.082L46.3374 16.71C46.3514 14.561 47.5444 13.125 49.3784 13.053C49.7805 13.0269 50.1836 13.0858 50.5615 13.2259C50.9393 13.366 51.2834 13.5841 51.5714 13.866C51.9354 14.2415 52.2203 14.6863 52.4092 15.174C52.5982 15.6616 52.6873 16.1822 52.6714 16.705C52.6864 18.143 52.6774 19.582 52.6714 21.021L52.6444 24.854C52.6264 26.377 52.6084 27.954 52.6804 29.486C52.7345 29.9202 52.945 30.3197 53.2724 30.61C54.3976 31.4212 55.2404 32.5646 55.6823 33.8795C56.1242 35.1944 56.143 36.6148 55.7361 37.9409C55.3291 39.267 54.5169 40.4323 53.4135 41.273C52.3101 42.1137 50.971 42.5876 49.5844 42.628C49.5404 42.631 49.4924 42.631 49.4444 42.631ZM49.5074 14.583H49.4384C48.0824 14.635 47.8724 15.944 47.8664 16.719L47.8574 18.092C47.8344 21.747 47.8074 25.401 47.8404 29.055C47.8931 29.6496 47.7837 30.2473 47.5236 30.7846C47.2635 31.3219 46.8625 31.7786 46.3634 32.106C45.4728 32.7201 44.8188 33.62 44.5097 34.6566C44.2005 35.6933 44.2547 36.8044 44.6634 37.806C45.0331 38.7956 45.7025 39.6452 46.5781 40.2361C47.4538 40.8271 48.4921 41.13 49.5482 41.1026C50.6043 41.0751 51.6254 40.7188 52.4693 40.0832C53.3131 39.4476 53.9375 38.5645 54.2554 37.557C54.5927 36.522 54.588 35.4059 54.2419 34.3737C53.8957 33.3416 53.2266 32.4483 52.3334 31.826C51.9964 31.5449 51.7183 31.1998 51.5153 30.8107C51.3123 30.4216 51.1882 29.9962 51.1504 29.559C51.0784 27.983 51.0964 26.386 51.1144 24.843L51.1414 21.015C51.1504 19.585 51.1594 18.154 51.1414 16.724C51.157 16.4062 51.1096 16.0884 51.002 15.7889C50.8944 15.4894 50.7287 15.2142 50.5144 14.979C50.2444 14.7188 49.8823 14.5764 49.5074 14.583Z" fill="#666666"/>
<path d="M87.8689 42.726C86.5021 42.7262 85.169 42.302 84.0535 41.5121C82.9381 40.7221 82.0955 39.6054 81.6419 38.316C81.1346 36.9967 81.0907 35.5441 81.5175 34.1966C81.9443 32.849 82.8165 31.6866 83.9909 30.9C84.252 30.747 84.463 30.5213 84.5983 30.2506C84.7336 29.9799 84.7873 29.6757 84.7529 29.375C84.7229 25.707 84.7469 22.037 84.7679 18.366L84.7769 16.866C84.7511 16.3409 84.8297 15.8158 85.0082 15.3213C85.1867 14.8267 85.4616 14.3725 85.8169 13.985C86.0961 13.7142 86.4263 13.5016 86.7883 13.3596C87.1504 13.2176 87.5371 13.1491 87.9259 13.158H87.9589C89.8319 13.176 91.1019 14.685 91.1169 16.914C91.1259 18.36 91.1169 19.807 91.1109 21.253L91.0869 25.053C91.0719 26.601 91.0539 28.153 91.1199 29.694C91.1756 30.0817 91.3687 30.4366 91.6639 30.694C92.8079 31.5021 93.6664 32.6519 94.1164 33.9783C94.5663 35.3047 94.5845 36.7395 94.1683 38.0768C93.7522 39.4142 92.923 40.5854 91.7999 41.4222C90.6768 42.2591 89.3175 42.7187 87.9169 42.735L87.8689 42.726ZM87.9259 14.681C87.736 14.673 87.5464 14.7031 87.3683 14.7695C87.1902 14.836 87.0272 14.9375 86.8889 15.068C86.4716 15.5713 86.2633 16.2156 86.3069 16.868L86.2979 18.368C86.2769 22.033 86.2529 25.694 86.2829 29.358C86.3177 29.9036 86.2063 30.4485 85.9602 30.9367C85.7141 31.4248 85.3422 31.8385 84.8829 32.135C83.9754 32.7283 83.3006 33.6169 82.9726 34.6504C82.6446 35.6839 82.6836 36.7989 83.0829 37.807C83.4298 38.7994 84.0769 39.6592 84.9345 40.2672C85.7921 40.8751 86.8177 41.2012 87.8689 41.2H87.9049C88.9822 41.1858 90.0272 40.8303 90.8897 40.1847C91.7522 39.5391 92.3877 38.6366 92.7049 37.607C93.0363 36.5708 93.0226 35.4551 92.6659 34.4273C92.3093 33.3996 91.6289 32.5152 90.7269 31.907C90.4033 31.644 90.1356 31.3189 89.9395 30.9508C89.7434 30.5828 89.6228 30.1793 89.5849 29.764C89.5199 28.19 89.5369 26.617 89.5519 25.042L89.5759 21.242C89.5849 19.803 89.5909 18.363 89.5819 16.923C89.5819 16.401 89.4509 14.7 87.9419 14.686L87.9259 14.681Z" fill="#666666"/>
<path d="M124.3 42.87C124.223 42.87 124.145 42.87 124.067 42.865C123.195 42.8386 122.337 42.6379 121.543 42.2747C120.75 41.9114 120.038 41.393 119.448 40.75C118.826 40.0825 118.348 39.2941 118.044 38.4339C117.74 37.5736 117.617 36.66 117.682 35.75C117.748 34.905 117.99 34.0832 118.392 33.3373C118.795 32.5914 119.349 31.938 120.019 31.419C120.448 31.111 120.786 30.6915 120.994 30.2058C121.203 29.72 121.275 29.1866 121.202 28.663C121.151 25.711 121.175 22.757 121.202 19.805L121.22 17.071C121.232 14.784 122.415 13.338 124.312 13.294C124.708 13.2791 125.103 13.3443 125.473 13.4857C125.844 13.6271 126.181 13.8418 126.467 14.117C126.842 14.5224 127.133 14.9992 127.321 15.519C127.508 16.0388 127.59 16.5911 127.56 17.143C127.566 18.604 127.56 20.066 127.554 21.529L127.545 24.819C127.545 25.768 127.551 26.719 127.524 27.662C127.465 29.456 127.539 30.629 129.024 31.809C129.623 32.291 130.11 32.8977 130.451 33.5869C130.793 34.276 130.98 35.0312 131 35.8C131.033 36.7791 130.858 37.754 130.488 38.6608C130.117 39.5676 129.558 40.3856 128.849 41.061C127.623 42.2286 125.993 42.8768 124.3 42.87ZM124.384 14.82H124.342C123.034 14.85 122.753 16.063 122.747 17.075L122.729 19.813C122.705 22.753 122.681 25.693 122.729 28.632C122.807 29.393 122.685 30.1612 122.375 30.8604C122.065 31.5597 121.577 32.1656 120.96 32.618C120.457 33.0077 120.041 33.4982 119.738 34.058C119.436 34.6178 119.253 35.2346 119.203 35.869C119.154 36.5695 119.251 37.2725 119.486 37.934C119.722 38.5956 120.091 39.2015 120.571 39.714C121.027 40.2064 121.577 40.6035 122.188 40.8821C122.799 41.1607 123.459 41.3155 124.13 41.3373C124.801 41.3592 125.47 41.2477 126.097 41.0094C126.725 40.7711 127.299 40.4107 127.787 39.949C128.334 39.4225 128.766 38.7875 129.054 38.0846C129.343 37.3817 129.481 36.6264 129.461 35.867C129.451 35.3176 129.321 34.777 129.081 34.2828C128.841 33.7885 128.496 33.3525 128.071 33.005C126.036 31.391 125.923 29.605 125.989 27.61C126.016 26.682 126.013 25.752 126.01 24.819L126.019 21.519C126.025 20.061 126.03 18.602 126.025 17.146C126.074 16.4431 125.848 15.7486 125.394 15.21C125.26 15.0817 125.103 14.9811 124.93 14.9142C124.757 14.8472 124.573 14.8152 124.388 14.82H124.384Z" fill="#666666"/>
<g opacity="0.35">
<path opacity="0.35" d="M71.4618 64.235C72.2494 64.2429 73.017 64.4836 73.668 64.9269C74.319 65.3701 74.8243 65.9961 75.1203 66.726C75.4163 67.4558 75.4897 68.257 75.3313 69.0285C75.1729 69.8 74.7897 70.5073 74.2301 71.0615C73.6705 71.6157 72.9594 71.992 72.1864 72.1429C71.4134 72.2937 70.6131 72.2126 69.8861 71.9095C69.1592 71.6064 68.5381 71.0951 68.1012 70.4398C67.6643 69.7845 67.4311 69.0146 67.4308 68.227C67.4262 67.6982 67.5276 67.1738 67.729 66.6848C67.9304 66.1958 68.2278 65.7521 68.6036 65.38C68.9793 65.0079 69.4259 64.7148 69.9168 64.5182C70.4077 64.3215 70.9331 64.2252 71.4618 64.235Z" fill="#A8A8A8"/>
</g>
<g opacity="0.35">
<path opacity="0.35" d="M60.3 68.291C60.2956 68.8199 60.184 69.3423 59.972 69.8269C59.76 70.3114 59.452 70.7479 59.0665 71.11C58.681 71.4721 58.2261 71.7523 57.7293 71.9336C57.2325 72.115 56.7041 72.1937 56.176 72.165C55.1179 72.1348 54.1151 71.6854 53.3883 70.9159C52.6615 70.1463 52.2702 69.1196 52.3005 68.0615C52.3307 67.0034 52.78 66.0007 53.5496 65.2739C54.3191 64.5471 55.3459 64.1558 56.404 64.186C56.9332 64.1869 57.4567 64.2954 57.9427 64.5047C58.4287 64.714 58.8672 65.0199 59.2315 65.4037C59.5958 65.7876 59.8784 66.2414 60.062 66.7377C60.2457 67.234 60.3266 67.7625 60.3 68.291Z" fill="#A8A8A8"/>
</g>
<g opacity="0.35">
<path opacity="0.35" d="M71.1687 112.767C70.6401 112.762 70.1181 112.649 69.6342 112.437C69.1502 112.224 68.7143 111.915 68.3528 111.53C67.9913 111.144 67.7116 110.689 67.5306 110.193C67.3496 109.696 67.271 109.168 67.2997 108.64C67.331 107.582 67.7813 106.58 68.5516 105.854C69.3219 105.128 70.3491 104.737 71.4072 104.768C72.4653 104.8 73.4676 105.25 74.1936 106.02C74.9197 106.791 75.31 107.818 75.2787 108.876C75.277 109.405 75.1678 109.928 74.9578 110.414C74.7478 110.9 74.4414 111.338 74.0571 111.702C73.6728 112.066 73.2187 112.348 72.7222 112.531C72.2257 112.714 71.6972 112.794 71.1687 112.767Z" fill="#A8A8A8"/>
</g>
<g opacity="0.75">
<path opacity="0.75" d="M131.862 64.442C132.906 64.4733 133.897 64.9128 134.62 65.6663C135.344 66.4197 135.744 67.4269 135.734 68.4717C135.723 69.5165 135.304 70.5156 134.565 71.2546C133.826 71.9935 132.827 72.4134 131.783 72.424C131.252 72.4294 130.725 72.3288 130.233 72.1282C129.742 71.9275 129.295 71.6308 128.92 71.2554C128.544 70.88 128.247 70.4334 128.046 69.9419C127.846 69.4503 127.745 68.9236 127.75 68.3927C127.755 67.8617 127.867 67.3372 128.077 66.8497C128.288 66.3622 128.593 65.9216 128.976 65.5537C129.359 65.1858 129.811 64.898 130.307 64.7071C130.802 64.5162 131.331 64.4261 131.862 64.442Z" fill="#A8A8A8"/>
</g>
<g opacity="0.35">
<path opacity="0.35" d="M60.1592 108.877C60.1554 109.406 60.0434 109.928 59.83 110.412C59.6166 110.896 59.3063 111.331 58.9184 111.691C58.5304 112.05 58.073 112.327 57.5742 112.503C57.0754 112.678 56.5459 112.75 56.0182 112.714C54.9777 112.68 53.9919 112.239 53.2721 111.487C52.5523 110.735 52.1557 109.731 52.1672 108.69C52.2016 107.623 52.6512 106.611 53.4202 105.87C54.1893 105.128 55.2172 104.717 56.2852 104.722C56.8138 104.736 57.3343 104.855 57.8163 105.073C58.2984 105.29 58.7323 105.601 59.0929 105.988C59.4535 106.374 59.7335 106.829 59.9165 107.325C60.0996 107.821 60.1821 108.349 60.1592 108.877Z" fill="#A8A8A8"/>
</g>
<g opacity="0.75">
<path opacity="0.75" d="M86.3339 112.818C85.8049 112.826 85.2798 112.726 84.791 112.524C84.3023 112.321 83.8603 112.02 83.4923 111.64C83.1244 111.26 82.8383 110.809 82.6518 110.314C82.4652 109.818 82.3822 109.29 82.4079 108.762C82.4198 107.721 82.8391 106.725 83.5759 105.989C84.3127 105.253 85.3085 104.835 86.3499 104.824C87.4174 104.836 88.4382 105.264 89.195 106.017C89.9519 106.77 90.3852 107.789 90.4029 108.856C90.4007 109.385 90.2933 109.908 90.0867 110.395C89.8801 110.881 89.5786 111.322 89.1997 111.691C88.8209 112.06 88.3723 112.349 87.8803 112.543C87.3882 112.736 86.8625 112.83 86.3339 112.818Z" fill="#A8A8A8"/>
</g>
<g opacity="0.35">
<path opacity="0.35" d="M45.166 81.934C45.1671 82.4632 45.0601 82.987 44.8518 83.4734C44.6434 83.9598 44.338 84.3986 43.9542 84.7629C43.5704 85.1273 43.1163 85.4094 42.6197 85.5922C42.1231 85.775 41.5944 85.8545 41.066 85.826C40.0247 85.8015 39.0341 85.3711 38.3055 84.6267C37.577 83.8822 37.1681 82.8826 37.166 81.841C37.1879 80.7732 37.6255 79.7561 38.3858 79.0061C39.1461 78.2561 40.1691 77.8323 41.237 77.825C41.7656 77.8342 42.2871 77.948 42.7714 78.16C43.2557 78.372 43.6932 78.6779 44.0586 79.06C44.4239 79.4421 44.7099 79.8928 44.9 80.3861C45.0901 80.8794 45.1805 81.4055 45.166 81.934Z" fill="#A8A8A8"/>
</g>
<g opacity="0.75">
<path opacity="0.75" d="M101.563 86.033C101.034 86.0442 100.508 85.9477 100.017 85.7492C99.5268 85.5507 99.0817 85.2544 98.7093 84.8784C98.3369 84.5025 98.0448 84.0546 97.851 83.5622C97.6572 83.0697 97.5657 82.543 97.5819 82.014C97.585 81.4851 97.6928 80.9621 97.899 80.475C98.1052 79.988 98.4058 79.5465 98.7834 79.1762C99.161 78.8058 99.6081 78.5139 100.099 78.3172C100.59 78.1205 101.115 78.0228 101.644 78.03C102.685 78.0692 103.672 78.5032 104.404 79.2437C105.137 79.9842 105.56 80.9758 105.588 82.017C105.59 82.5457 105.487 83.0696 105.286 83.5584C105.084 84.0472 104.788 84.4912 104.413 84.8647C104.039 85.2381 103.594 85.5337 103.105 85.7342C102.616 85.9347 102.092 86.0363 101.563 86.033Z" fill="#A8A8A8"/>
</g>
<g opacity="0.35">
<path opacity="0.35" d="M116.64 72.478C116.111 72.4891 115.585 72.3924 115.095 72.1938C114.604 71.9952 114.159 71.6988 113.787 71.3227C113.414 70.9467 113.122 70.4987 112.929 70.0062C112.735 69.5137 112.644 68.987 112.66 68.458C112.663 67.9292 112.771 67.4062 112.977 66.9192C113.183 66.4323 113.484 65.9909 113.861 65.6206C114.239 65.2502 114.686 64.9583 115.177 64.7615C115.667 64.5647 116.192 64.467 116.721 64.474C117.762 64.513 118.749 64.9468 119.482 65.6874C120.215 66.4279 120.638 67.4196 120.666 68.461C120.668 68.9899 120.566 69.514 120.364 70.003C120.162 70.4919 119.866 70.9361 119.491 71.3097C119.117 71.6832 118.672 71.9789 118.183 72.1794C117.693 72.3799 117.169 72.4814 116.64 72.478Z" fill="#A8A8A8"/>
</g>
<g opacity="0.75">
<path opacity="0.75" d="M41.0752 91.243C41.6041 91.2213 42.1318 91.3078 42.6261 91.4972C43.1204 91.6867 43.5708 91.975 43.9497 92.3447C44.3286 92.7143 44.628 93.1574 44.8296 93.6468C45.0312 94.1363 45.1308 94.6617 45.1222 95.191C45.1293 95.7197 45.0315 96.2446 44.8345 96.7353C44.6375 97.226 44.3452 97.6728 43.9744 98.0498C43.6037 98.4268 43.1618 98.7265 42.6745 98.9317C42.1871 99.1368 41.6639 99.2433 41.1352 99.245C40.0937 99.2242 39.0992 98.8077 38.3536 98.0802C37.6081 97.3527 37.1674 96.3687 37.1212 95.328C37.1091 94.7992 37.2021 94.2733 37.395 93.7808C37.5878 93.2883 37.8765 92.839 38.2443 92.459C38.6121 92.079 39.0518 91.7758 39.5378 91.567C40.0237 91.3583 40.5463 91.2481 41.0752 91.243Z" fill="#A8A8A8"/>
</g>
<g opacity="0.35">
<path opacity="0.35" d="M60.2558 81.973C60.2577 82.5019 60.1521 83.0257 59.9452 83.5126C59.7384 83.9994 59.4346 84.439 59.0525 84.8048C58.6704 85.1705 58.2179 85.4547 57.7225 85.6401C57.2271 85.8254 56.6991 85.9081 56.1708 85.883C55.1297 85.8601 54.1386 85.4321 53.4081 84.6901C52.6776 83.948 52.2653 82.9503 52.2588 81.909C52.2777 80.8416 52.7117 79.8235 53.4687 79.0708C54.2258 78.318 55.2463 77.8898 56.3138 77.877C56.8428 77.883 57.3653 77.9942 57.8509 78.2041C58.3365 78.414 58.7755 78.7184 59.1424 79.0996C59.5092 79.4808 59.7966 79.9312 59.9878 80.4245C60.1789 80.9178 60.27 81.4441 60.2558 81.973Z" fill="#A8A8A8"/>
</g>
<g opacity="0.75">
<path opacity="0.75" d="M75.3672 82.018C75.36 83.0765 74.9327 84.0887 74.1792 84.8321C73.4256 85.5755 72.4077 85.9891 71.3492 85.982C70.2907 85.9748 69.2784 85.5475 68.535 84.794C67.7916 84.0404 67.378 83.0225 67.3852 81.964C67.3774 81.4326 67.4759 80.9051 67.6747 80.4123C67.8735 79.9195 68.1687 79.4713 68.543 79.0941C68.9173 78.7169 69.3631 78.4182 69.8544 78.2155C70.3456 78.0129 70.8724 77.9103 71.4038 77.9139C71.9352 77.9175 72.4605 78.0272 72.9489 78.2364C73.4374 78.4457 73.8792 78.7504 74.2483 79.1327C74.6175 79.5149 74.9066 79.967 75.0987 80.4625C75.2908 80.958 75.3821 81.4868 75.3672 82.018Z" fill="#A8A8A8"/>
</g>
<g opacity="0.35">
<path opacity="0.35" d="M86.506 85.986C85.9777 86.0005 85.4519 85.9074 84.9607 85.7125C84.4694 85.5176 84.0229 85.2248 83.6482 84.8521C83.2736 84.4793 82.9786 84.0342 82.7812 83.5439C82.5838 83.0537 82.4882 82.5284 82.5 82C82.4951 81.471 82.5956 80.9462 82.7957 80.4565C82.9958 79.9667 83.2914 79.5217 83.6654 79.1475C84.0393 78.7732 84.4841 78.4773 84.9737 78.2768C85.4633 78.0763 85.988 77.9755 86.517 77.98C87.5577 78.0127 88.5471 78.439 89.2857 79.1729C90.0242 79.9068 90.4568 80.8936 90.496 81.934C90.5029 82.4628 90.4048 82.9877 90.2075 83.4784C90.0102 83.969 89.7176 84.4157 89.3465 84.7925C88.9754 85.1694 88.5333 85.4689 88.0458 85.6737C87.5582 85.8786 87.0349 85.9847 86.506 85.986Z" fill="#A8A8A8"/>
</g>
<g opacity="0.35">
<path opacity="0.35" d="M41.0001 112.666C40.4713 112.657 39.9496 112.543 39.4652 112.331C38.9809 112.119 38.5435 111.813 38.1786 111.43C37.8136 111.047 37.5284 110.596 37.3395 110.102C37.1506 109.608 37.0617 109.082 37.0781 108.553C37.1358 107.513 37.586 106.534 38.3378 105.814C39.0895 105.093 40.0868 104.685 41.1281 104.671C41.657 104.677 42.1795 104.787 42.6654 104.996C43.1513 105.205 43.5909 105.508 43.9588 105.888C44.3267 106.268 44.6156 106.718 44.8087 107.21C45.0019 107.702 45.0955 108.228 45.0841 108.757C45.0859 109.286 44.9802 109.809 44.7733 110.296C44.5664 110.783 44.2628 111.222 43.8808 111.588C43.4988 111.953 43.0465 112.237 42.5512 112.423C42.056 112.608 41.5283 112.691 41.0001 112.666Z" fill="#A8A8A8"/>
</g>
<g opacity="0.35">
<path opacity="0.35" d="M101.609 72.426C101.08 72.4372 100.554 72.3407 100.063 72.1422C99.5727 71.9437 99.1276 71.6475 98.7552 71.2715C98.3828 70.8955 98.0907 70.4476 97.8969 69.9552C97.7031 69.4627 97.6116 68.936 97.6278 68.407C97.6311 67.8781 97.7389 67.3552 97.9452 66.8682C98.1514 66.3812 98.452 65.9398 98.8296 65.5695C99.2071 65.1992 99.6542 64.9072 100.145 64.7105C100.636 64.5137 101.161 64.416 101.69 64.423C102.731 64.462 103.718 64.8958 104.451 65.6364C105.183 66.3769 105.607 67.3686 105.635 68.41C105.637 68.9388 105.534 69.4628 105.332 69.9517C105.131 70.4405 104.834 70.8845 104.46 71.258C104.085 71.6315 103.641 71.927 103.151 72.1275C102.662 72.328 102.138 72.4294 101.609 72.426Z" fill="#A8A8A8"/>
</g>
<g opacity="0.35">
<path opacity="0.35" d="M86.5519 72.379C86.0236 72.3935 85.4978 72.3004 85.0066 72.1055C84.5153 71.9106 84.0688 71.6179 83.6941 71.2451C83.3195 70.8723 83.0245 70.4272 82.8271 69.937C82.6297 69.4467 82.534 68.9214 82.5459 68.393C82.541 67.864 82.6415 67.3392 82.8416 66.8495C83.0417 66.3597 83.3373 65.9147 83.7113 65.5405C84.0852 65.1663 84.53 64.8703 85.0196 64.6698C85.5092 64.4694 86.0339 64.3685 86.5629 64.373C87.6036 64.4057 88.593 64.832 89.3316 65.5659C90.0701 66.2998 90.5027 67.2866 90.5419 68.327C90.5488 68.8558 90.4507 69.3807 90.2534 69.8714C90.0561 70.362 89.7635 70.8087 89.3924 71.1855C89.0213 71.5624 88.5792 71.8619 88.0917 72.0667C87.6041 72.2716 87.0808 72.3777 86.5519 72.379Z" fill="#A8A8A8"/>
</g>
<g opacity="0.35">
<path opacity="0.35" d="M101.515 99.881C100.986 99.8921 100.46 99.7954 99.9698 99.5969C99.4793 99.3983 99.0344 99.1021 98.6621 98.7261C98.2897 98.3501 97.9978 97.9023 97.8041 97.4099C97.6103 96.9175 97.5188 96.3909 97.535 95.862C97.538 95.333 97.6457 94.8099 97.8518 94.3227C98.058 93.8355 98.3585 93.394 98.7361 93.0236C99.1138 92.6531 99.561 92.3611 100.052 92.1643C100.543 91.9675 101.068 91.8698 101.597 91.877C102.638 91.9162 103.625 92.3502 104.357 93.0907C105.09 93.8312 105.513 94.8228 105.541 95.864C105.543 96.3929 105.441 96.917 105.239 97.406C105.037 97.8949 104.741 98.3391 104.366 98.7127C103.992 99.0862 103.547 99.3819 103.058 99.5824C102.568 99.7829 102.044 99.8844 101.515 99.881Z" fill="#A8A8A8"/>
</g>
<g opacity="0.35">
<path opacity="0.35" d="M60.2089 95.816C60.2107 96.3449 60.105 96.8686 59.898 97.3553C59.6911 97.842 59.3874 98.2815 59.0053 98.6471C58.6232 99.0128 58.1707 99.2969 57.6754 99.4822C57.18 99.6675 56.6522 99.7501 56.1239 99.725C55.083 99.7021 54.0921 99.2743 53.3616 98.5324C52.6311 97.7906 52.2187 96.7931 52.2119 95.752C52.2308 94.6845 52.6648 93.6663 53.4218 92.9134C54.1788 92.1605 55.1993 91.7321 56.2669 91.719C56.796 91.725 57.3186 91.8363 57.8043 92.0462C58.29 92.2562 58.729 92.5607 59.0959 92.942C59.4627 93.3233 59.7501 93.7737 59.9412 94.2672C60.1323 94.7606 60.2233 95.2871 60.2089 95.816Z" fill="#A8A8A8"/>
</g>
<g opacity="0.35">
<path opacity="0.35" d="M75.3203 95.863C75.3168 96.3871 75.21 96.9054 75.0062 97.3882C74.8023 97.8711 74.5054 98.309 74.1323 98.6771C73.7592 99.0452 73.3172 99.3362 72.8317 99.5335C72.3461 99.7308 71.8264 99.8305 71.3023 99.827C70.7782 99.8234 70.2599 99.7167 69.7771 99.5128C69.2942 99.309 68.8563 99.0121 68.4882 98.639C68.1201 98.2659 67.8291 97.8239 67.6318 97.3383C67.4345 96.8528 67.3348 96.3331 67.3383 95.809C67.3306 95.2776 67.429 94.7501 67.6278 94.2573C67.8266 93.7645 68.1218 93.3163 68.4961 92.9391C68.8704 92.5619 69.3163 92.2632 69.8075 92.0605C70.2987 91.8579 70.8255 91.7553 71.3569 91.7589C71.8883 91.7625 72.4136 91.8722 72.9021 92.0814C73.3905 92.2907 73.8323 92.5954 74.2014 92.9777C74.5706 93.3599 74.8597 93.812 75.0518 94.3075C75.244 94.803 75.3352 95.3318 75.3203 95.863Z" fill="#A8A8A8"/>
</g>
<g opacity="0.35">
<path opacity="0.35" d="M86.4591 99.829C85.9308 99.8435 85.405 99.7504 84.9138 99.5555C84.4225 99.3606 83.976 99.0679 83.6013 98.6951C83.2267 98.3223 82.9317 97.8772 82.7343 97.3869C82.5369 96.8967 82.4413 96.3714 82.4531 95.843C82.4483 95.314 82.5489 94.7893 82.7491 94.2996C82.9492 93.8099 83.2449 93.365 83.6188 92.9908C83.9927 92.6166 84.4374 92.3206 84.927 92.1201C85.4165 91.9196 85.9411 91.8186 86.4701 91.823C87.5108 91.8557 88.5003 92.282 89.2388 93.0159C89.9773 93.7498 90.4099 94.7366 90.4491 95.777C90.456 96.3058 90.3579 96.8307 90.1606 97.3214C89.9633 97.812 89.6707 98.2587 89.2996 98.6355C88.9286 99.0124 88.4865 99.3119 87.9989 99.5167C87.5113 99.7216 86.988 99.8277 86.4591 99.829Z" fill="#A8A8A8"/>
</g>
<g opacity="0.35">
<path opacity="0.35" d="M116.666 85.986C116.138 86.0005 115.612 85.9074 115.121 85.7125C114.63 85.5176 114.183 85.2248 113.808 84.8521C113.434 84.4793 113.139 84.0342 112.941 83.5439C112.744 83.0537 112.648 82.5284 112.66 82C112.655 81.471 112.755 80.9463 112.955 80.4566C113.155 79.9668 113.451 79.5218 113.825 79.1475C114.199 78.7733 114.643 78.4773 115.133 78.2768C115.623 78.0764 116.147 77.9754 116.676 77.98C117.717 78.0124 118.707 78.4387 119.445 79.1726C120.184 79.9066 120.616 80.8935 120.655 81.934C120.662 82.4627 120.564 82.9875 120.367 83.4781C120.17 83.9687 119.877 84.4154 119.506 84.7922C119.135 85.169 118.693 85.4685 118.206 85.6734C117.718 85.8783 117.195 85.9846 116.666 85.986Z" fill="#A8A8A8"/>
</g>
<g opacity="0.35">
<path opacity="0.35" d="M116.666 99.829C116.138 99.8435 115.612 99.7504 115.121 99.5555C114.63 99.3606 114.183 99.0679 113.808 98.6951C113.434 98.3223 113.139 97.8772 112.941 97.3869C112.744 96.8967 112.648 96.3714 112.66 95.843C112.655 95.314 112.756 94.7894 112.956 94.2997C113.156 93.81 113.451 93.3651 113.825 92.9908C114.199 92.6166 114.644 92.3206 115.133 92.1201C115.623 91.9196 116.147 91.8186 116.676 91.823C117.717 91.8557 118.706 92.282 119.445 93.0159C120.183 93.7498 120.616 94.7366 120.655 95.777C120.662 96.3057 120.564 96.8306 120.367 97.3212C120.17 97.8118 119.877 98.2584 119.506 98.6352C119.135 99.012 118.693 99.3115 118.206 99.5164C117.718 99.7213 117.195 99.8276 116.666 99.829Z" fill="#A8A8A8"/>
</g>
<g opacity="0.35">
<path opacity="0.35" d="M131.769 85.986C131.24 86.0005 130.715 85.9074 130.223 85.7125C129.732 85.5176 129.286 85.2248 128.911 84.8521C128.536 84.4793 128.241 84.0342 128.044 83.5439C127.847 83.0537 127.751 82.5284 127.763 82C127.758 81.471 127.858 80.9462 128.058 80.4565C128.258 79.9667 128.554 79.5217 128.928 79.1475C129.302 78.7732 129.747 78.4773 130.236 78.2768C130.726 78.0763 131.251 77.9755 131.78 77.98C132.82 78.0125 133.81 78.4387 134.548 79.1727C135.287 79.9067 135.719 80.8936 135.758 81.934C135.765 82.4627 135.667 82.9875 135.469 83.4781C135.272 83.9687 134.979 84.4154 134.609 84.7922C134.238 85.169 133.796 85.4685 133.308 85.6734C132.821 85.8783 132.297 85.9846 131.769 85.986Z" fill="#A8A8A8"/>
</g>
<g opacity="0.35">
<path opacity="0.35" d="M131.769 99.829C131.24 99.8435 130.715 99.7504 130.223 99.5555C129.732 99.3606 129.286 99.0679 128.911 98.6951C128.536 98.3223 128.241 97.8772 128.044 97.3869C127.847 96.8967 127.751 96.3714 127.763 95.843C127.758 95.314 127.859 94.7893 128.059 94.2996C128.259 93.8099 128.554 93.365 128.928 92.9908C129.302 92.6166 129.747 92.3206 130.237 92.1201C130.726 91.9196 131.251 91.8186 131.78 91.823C132.82 91.8557 133.81 92.2821 134.548 93.016C135.286 93.7499 135.719 94.7367 135.758 95.777C135.765 96.3057 135.667 96.8306 135.469 97.3212C135.272 97.8118 134.979 98.2584 134.609 98.6352C134.238 99.012 133.796 99.3115 133.308 99.5164C132.821 99.7213 132.297 99.8276 131.769 99.829Z" fill="#A8A8A8"/>
</g>
<path d="M159.92 54.6C160.924 54.5161 161.934 54.5217 162.937 54.617C163.675 54.7513 164.369 55.0605 164.963 55.5186C165.557 55.9767 166.032 56.5704 166.349 57.25C174.978 73.946 183.609 90.6417 192.24 107.337C192.582 107.975 192.784 108.678 192.833 109.401C192.883 110.123 192.777 110.847 192.525 111.526C192.273 112.204 191.879 112.821 191.369 113.335C190.86 113.85 190.247 114.25 189.571 114.509C189.188 114.654 188.78 114.719 188.371 114.699C186.865 114.639 185.375 114.365 183.946 113.885C174.749 110.131 164.562 109.554 155 112.244C153.141 112.729 151.344 113.444 149.515 114.044C149.292 114.1 149.093 114.228 148.951 114.409C148.809 114.59 148.732 114.814 148.731 115.044C148.661 115.789 148.398 116.503 147.967 117.114C147.536 117.726 146.952 118.213 146.274 118.529C142.286 120.553 138.324 122.629 134.352 124.681L133.452 125.145C133.602 125.478 133.707 125.745 133.837 125.993C135.737 129.682 137.617 133.384 139.58 137.04C139.96 137.652 140.5 138.15 141.141 138.479C142.467 139.212 143.856 139.841 145.241 140.454C145.981 140.706 146.622 141.186 147.071 141.825C147.52 142.465 147.755 143.231 147.741 144.012C147.808 144.864 147.617 145.716 147.193 146.458C146.768 147.199 146.13 147.796 145.362 148.169C142.962 149.376 140.584 150.639 138.191 151.869C137.573 152.202 136.894 152.408 136.195 152.472C135.496 152.537 134.791 152.46 134.122 152.246C133.454 152.032 132.835 151.685 132.304 151.226C131.772 150.767 131.339 150.205 131.03 149.575C128.064 143.837 125.097 138.099 122.13 132.361L121.63 131.391C117.591 132.642 117.044 132.47 114.475 129.127C113.236 129.768 111.975 130.416 110.71 131.076C109.298 131.779 107.668 131.907 106.163 131.432C104.658 130.958 103.396 129.918 102.643 128.532C100.837 125.057 99.0179 121.587 97.2509 118.093C96.5359 116.665 96.4133 115.012 96.9096 113.494C97.406 111.975 98.4812 110.714 99.9019 109.984C101.136 109.334 102.379 108.701 103.697 108.02C103.516 107.67 103.375 107.42 103.256 107.162C102.773 106.149 102.704 104.987 103.062 103.924C103.42 102.86 104.178 101.977 105.175 101.462C113.662 97.066 122.15 92.6723 130.639 88.281C131.328 87.8892 132.111 87.6952 132.903 87.7206C133.695 87.7461 134.465 87.9898 135.127 88.425C135.295 88.5561 135.504 88.6255 135.717 88.6217C135.931 88.6178 136.136 88.541 136.3 88.404C146.54 81.565 153.468 72.382 156.244 60.259C156.668 58.258 157.676 56.4278 159.141 55L159.92 54.6Z" fill="white"/>
<path d="M166.151 56.957C167.155 56.8734 168.165 56.8794 169.168 56.975C169.906 57.1098 170.6 57.4191 171.194 57.8769C171.787 58.3348 172.263 58.928 172.58 59.607C181.21 76.303 189.84 92.9987 198.47 109.694C198.813 110.332 199.015 111.036 199.064 111.758C199.113 112.48 199.008 113.205 198.756 113.883C198.503 114.562 198.109 115.179 197.6 115.693C197.09 116.208 196.477 116.608 195.801 116.867C195.418 117.011 195.01 117.076 194.601 117.057C193.095 116.997 191.605 116.722 190.176 116.242C180.979 112.491 170.794 111.916 161.232 114.606C159.373 115.092 157.576 115.806 155.747 116.411C155.524 116.467 155.326 116.595 155.184 116.776C155.042 116.957 154.965 117.181 154.964 117.411C154.895 118.156 154.631 118.87 154.2 119.481C153.768 120.093 153.185 120.581 152.506 120.897C148.519 122.92 144.557 124.997 140.584 127.049L139.684 127.512C139.834 127.845 139.939 128.112 140.068 128.361C141.968 132.049 143.848 135.752 145.811 139.408C146.192 140.02 146.731 140.517 147.372 140.846C148.699 141.58 150.087 142.208 151.472 142.821C152.212 143.073 152.853 143.553 153.303 144.193C153.752 144.833 153.986 145.598 153.972 146.38C154.04 147.232 153.849 148.084 153.424 148.825C153 149.567 152.362 150.163 151.593 150.536C149.193 151.744 146.816 153.006 144.423 154.236C143.805 154.57 143.126 154.775 142.427 154.84C141.728 154.905 141.023 154.828 140.354 154.613C139.685 154.399 139.067 154.052 138.535 153.593C138.004 153.134 137.57 152.573 137.261 151.942C134.295 146.204 131.329 140.466 128.361 134.729L127.861 133.758C123.822 135.009 123.275 134.837 120.707 131.495C119.467 132.136 118.201 132.783 116.942 133.444C115.53 134.147 113.9 134.275 112.395 133.8C110.89 133.326 109.628 132.286 108.874 130.9C107.068 127.424 105.25 123.955 103.482 120.46C102.767 119.032 102.645 117.379 103.141 115.861C103.637 114.343 104.713 113.082 106.133 112.352C107.368 111.702 108.611 111.069 109.933 110.387C109.753 110.038 109.611 109.787 109.492 109.53C109.01 108.516 108.941 107.355 109.3 106.292C109.658 105.228 110.415 104.345 111.412 103.83C119.9 99.434 128.388 95.0403 136.876 90.649C137.565 90.2575 138.348 90.0639 139.14 90.0895C139.932 90.115 140.701 90.3588 141.363 90.794C141.532 90.9249 141.74 90.9941 141.954 90.9901C142.167 90.9861 142.373 90.9092 142.536 90.772C152.776 83.934 159.704 74.751 162.48 62.627C162.903 60.628 163.908 58.7988 165.368 57.37L166.151 56.957Z" fill="#E3EBED"/>
<g opacity="0.1">
<path opacity="0.1" d="M139.1 50.964C144.142 50.9779 149.076 49.4951 153.276 46.7036C157.475 43.912 160.752 39.9371 162.692 35.2822C164.631 30.6272 165.146 25.5014 164.17 20.5538C163.195 15.6061 160.774 11.0591 157.213 7.48841C153.652 3.91768 149.112 1.48379 144.167 0.494879C139.222 -0.494037 134.095 0.00648642 129.434 1.93308C124.774 3.85968 120.79 7.12572 117.987 11.3177C115.184 15.5097 113.688 20.4392 113.688 25.482C113.683 28.8238 114.337 32.1337 115.611 35.2228C116.886 38.312 118.756 41.1198 121.116 43.486C123.476 45.8522 126.278 47.7305 129.364 49.0136C132.45 50.2967 135.758 50.9594 139.1 50.964Z" fill="#7B9AB0"/>
</g>
<g opacity="0.2">
<path opacity="0.2" d="M152.7 16.926C154.16 16.926 155.586 16.4932 156.8 15.6824C158.013 14.8716 158.959 13.7192 159.518 12.3708C160.076 11.0225 160.222 9.53882 159.938 8.10743C159.653 6.67605 158.95 5.36123 157.918 4.32926C156.886 3.29729 155.571 2.59451 154.14 2.30979C152.708 2.02507 151.225 2.1712 149.876 2.7297C148.528 3.2882 147.376 4.23398 146.565 5.44745C145.754 6.66092 145.321 8.08758 145.321 9.547C145.321 11.504 146.099 13.3809 147.483 14.7647C148.866 16.1486 150.743 16.926 152.7 16.926Z" fill="#CBD3D9"/>
</g>
<path d="M135.683 153.257C134.574 153.251 133.488 152.936 132.549 152.347C131.609 151.757 130.852 150.918 130.364 149.922L121.251 132.3C117.635 133.365 116.604 133.033 114.274 130.092L113.7 130.386C112.831 130.834 111.952 131.286 111.077 131.746C109.485 132.544 107.644 132.69 105.946 132.155C104.247 131.619 102.824 130.444 101.977 128.877L101.077 127.156C99.565 124.256 98.053 121.356 96.577 118.431C95.7633 116.825 95.6196 114.962 96.1775 113.25C96.7354 111.539 97.9493 110.118 99.553 109.3C100.39 108.859 101.232 108.427 102.096 107.982L102.67 107.682C102.637 107.612 102.601 107.542 102.57 107.471C102.012 106.278 101.936 104.915 102.357 103.667C102.778 102.419 103.665 101.382 104.832 100.771L113.661 96.204C119.21 93.3373 124.754 90.466 130.295 87.59C131.1 87.1379 132.013 86.9145 132.936 86.944C133.858 86.9734 134.756 87.2546 135.53 87.757C135.587 87.7976 135.65 87.8271 135.718 87.844C135.778 87.8242 135.835 87.7944 135.886 87.756C146.439 80.707 152.857 71.656 155.508 60.077C155.965 57.9346 157.044 55.9744 158.608 54.441L158.788 54.31L159.917 53.821C160.217 53.821 160.524 53.805 160.828 53.79C161.575 53.7237 162.327 53.7441 163.069 53.851C163.922 54.0058 164.726 54.3619 165.414 54.8898C166.102 55.4176 166.654 56.102 167.025 56.886L176.625 75.445C182.06 85.953 187.491 96.4623 192.918 106.973C193.323 107.756 193.551 108.619 193.588 109.5C193.625 110.381 193.468 111.259 193.13 112.073C192.839 112.808 192.391 113.471 191.817 114.016C191.243 114.56 190.558 114.973 189.808 115.225C189.323 115.403 188.806 115.479 188.29 115.448L187.531 115.369C186.208 115.299 184.903 115.034 183.658 114.581C174.611 110.907 164.6 110.344 155.198 112.981C153.988 113.297 152.766 113.728 151.586 114.143C150.979 114.357 150.369 114.57 149.757 114.772C149.569 114.835 149.53 114.847 149.494 115.135C149.411 116.005 149.103 116.837 148.6 117.552C148.097 118.266 147.417 118.837 146.626 119.208C143.739 120.673 140.865 122.164 137.993 123.655L134.453 125.491C134.474 125.54 134.497 125.589 134.524 125.635L135.699 127.917C137.199 130.846 138.699 133.775 140.264 136.675C140.573 137.158 141.006 137.549 141.519 137.806C142.852 138.543 144.247 139.17 145.562 139.75C146.441 140.058 147.2 140.636 147.731 141.401C148.263 142.166 148.539 143.08 148.52 144.011C148.588 145.004 148.358 145.995 147.859 146.857C147.36 147.719 146.615 148.412 145.72 148.848C144.283 149.573 142.855 150.315 141.42 151.058C140.466 151.558 139.51 152.058 138.551 152.544C137.665 153.006 136.682 153.25 135.683 153.257ZM122.022 130.469L131.722 149.22C131.987 149.76 132.358 150.241 132.813 150.634C133.268 151.027 133.798 151.324 134.371 151.508C134.944 151.691 135.548 151.757 136.146 151.702C136.745 151.646 137.327 151.471 137.856 151.185C138.812 150.695 139.766 150.201 140.718 149.704C142.153 148.957 143.59 148.212 145.033 147.486C145.675 147.176 146.206 146.676 146.556 146.055C146.906 145.434 147.057 144.721 146.99 144.011C147.003 143.378 146.811 142.757 146.443 142.242C146.075 141.727 145.549 141.345 144.946 141.153C143.599 140.56 142.165 139.916 140.778 139.153C140.008 138.752 139.363 138.148 138.914 137.405C137.354 134.499 135.845 131.562 134.336 128.625L133.165 126.348C133.065 126.166 132.985 125.971 132.89 125.748L132.466 124.802L137.288 122.302C140.166 120.81 143.04 119.317 145.932 117.849C146.498 117.588 146.985 117.183 147.344 116.674C147.703 116.165 147.921 115.57 147.976 114.949C147.997 114.576 148.133 114.219 148.366 113.927C148.599 113.635 148.917 113.423 149.276 113.32C149.876 113.12 150.476 112.912 151.076 112.702C152.286 112.276 153.538 111.835 154.808 111.502C164.531 108.782 174.882 109.368 184.236 113.169C185.345 113.564 186.505 113.794 187.681 113.85L188.458 113.931C188.756 113.929 189.052 113.876 189.333 113.774C189.871 113.59 190.363 113.29 190.774 112.896C191.185 112.503 191.505 112.024 191.712 111.494C191.966 110.886 192.084 110.229 192.057 109.57C192.031 108.911 191.861 108.266 191.56 107.68C186.133 97.168 180.699 86.659 175.26 76.153L165.67 57.6C165.406 57.025 165.008 56.5221 164.508 56.1337C164.009 55.7454 163.423 55.4831 162.801 55.369C162.171 55.2844 161.534 55.271 160.901 55.329C160.638 55.342 160.372 55.356 160.109 55.36L159.592 55.628C158.278 56.9408 157.377 58.6093 156.999 60.428C154.299 72.237 147.476 81.864 136.731 89.04C136.446 89.2581 136.1 89.3796 135.741 89.3868C135.383 89.394 135.031 89.2865 134.738 89.08C134.188 88.7133 133.546 88.5075 132.885 88.4858C132.224 88.464 131.57 88.6272 130.997 88.957C125.458 91.841 119.912 94.7137 114.361 97.575L105.534 102.14C104.709 102.562 104.083 103.29 103.788 104.169C103.494 105.047 103.555 106.006 103.959 106.84C104.034 107.007 104.121 107.169 104.222 107.358L104.739 108.344L102.794 109.344C101.934 109.788 101.094 110.218 100.263 110.656C99.0164 111.289 98.0717 112.391 97.6361 113.719C97.2004 115.048 97.3094 116.495 97.939 117.743C99.415 120.658 100.924 123.555 102.433 126.451L103.333 128.174C103.992 129.38 105.093 130.285 106.404 130.699C107.714 131.112 109.135 131.003 110.367 130.394C111.245 129.932 112.127 129.478 113.002 129.029L114.702 128.15L115.091 128.657C117.457 131.734 117.691 131.804 121.41 130.657L122.022 130.469Z" fill="#666666"/>
<path d="M30.6119 20.046C33.6395 20.046 36.0939 17.5916 36.0939 14.564C36.0939 11.5364 33.6395 9.082 30.6119 9.082C27.5843 9.082 25.1299 11.5364 25.1299 14.564C25.1299 17.5916 27.5843 20.046 30.6119 20.046Z" fill="#9BAFBA" fill-opacity="0.65"/>
<path opacity="0.58" d="M7.69012 25.776C9.75401 25.776 11.4271 24.1029 11.4271 22.039C11.4271 19.9751 9.75401 18.302 7.69012 18.302C5.62624 18.302 3.95312 19.9751 3.95312 22.039C3.95312 24.1029 5.62624 25.776 7.69012 25.776Z" fill="#9BAFBA"/>
</g>
<defs>
<clipPath id="clip0">
<path d="M0 0H220V155H0V0Z" fill="white"/>
</clipPath>
</defs>
</svg>
