<svg width="32" height="32" viewBox="0 0 32 32" fill="none" xmlns="http://www.w3.org/2000/svg">
<g clip-path="url(#clip0)">
<path d="M2.5 24.487V3.5C2.5 2.397 3.397 1.5 4.5 1.5H12.397C12.874 1.5 13.342 1.663 13.716 1.96L17.384 5.198C17.646 5.404 17.818 5.487 18 5.487H28.5C29.603 5.487 30.5 6.384 30.5 7.487V24.487H2.5Z" fill="#3C5666"/>
<path d="M12.397 2C12.763 2 13.119 2.124 13.406 2.351L17.054 5.573C17.341 5.8 17.634 5.987 18 5.987H28.5C29.328 5.987 30 6.659 30 7.487V23.987H3V3.5C3 2.672 3.672 2 4.5 2H12.397ZM12.397 1H4.5C3.121 1 2 2.122 2 3.5V23.987V24.987H3H30H31V23.987V7.487C31 6.108 29.878 4.987 28.5 4.987H18C17.973 4.987 17.898 4.963 17.695 4.804L14.069 1.601L14.049 1.583L14.027 1.567C13.565 1.201 12.986 1 12.397 1Z" fill="white"/>
<path d="M4 22.987H29V8.987C29 8.435 28.552 7.987 28 7.987H5C4.448 7.987 4 8.435 4 8.987V22.987Z" fill="#627784"/>
<path d="M7.40002 15.1077C7.40002 14.4959 7.89596 14 8.50772 14H25.1231C25.7349 14 26.2308 14.4959 26.2308 15.1077V25.4462C26.2308 26.0579 25.7349 26.5538 25.1231 26.5538H8.50772C7.89596 26.5538 7.40002 26.0579 7.40002 25.4462V15.1077Z" fill="#FFDF7B"/>
<path fill-rule="evenodd" clip-rule="evenodd" d="M25.1231 15.1077H8.50772L8.50772 25.4462H25.1231V15.1077ZM8.50772 14C7.89596 14 7.40002 14.4959 7.40002 15.1077V25.4462C7.40002 26.0579 7.89596 26.5538 8.50772 26.5538H25.1231C25.7349 26.5538 26.2308 26.0579 26.2308 25.4462V15.1077C26.2308 14.4959 25.7349 14 25.1231 14H8.50772Z" fill="#3C5666"/>
<path fill-rule="evenodd" clip-rule="evenodd" d="M13.3262 27.2923C13.3141 27.352 13.3077 27.4137 13.3077 27.4769C13.3077 27.9867 13.721 28.4 14.2308 28.4H19.4C19.9098 28.4 20.3231 27.9867 20.3231 27.4769C20.3231 27.4137 20.3167 27.352 20.3046 27.2923H28.0463C28.0665 27.4124 28.0769 27.5358 28.0769 27.6616C28.0769 28.8851 27.0851 29.8769 25.8616 29.8769H8.13848C6.91496 29.8769 5.9231 28.8851 5.9231 27.6616C5.9231 27.5358 5.93358 27.4124 5.95373 27.2923H13.3262Z" fill="#3C5666"/>
<path fill-rule="evenodd" clip-rule="evenodd" d="M14.2308 26.9231L14.2308 27.4758L14.2308 27.477H19.4L19.4 27.4758L19.3077 26.9231H29L28.9566 27.1396C28.9852 27.31 29 27.4844 29 27.6616C29 29.3949 27.5949 30.8 25.8615 30.8H8.13846C6.40514 30.8 5 29.3949 5 27.6616C5 27.4844 5.01478 27.31 5.04335 27.1396L5 26.9231H14.2308ZM13.3262 27.2923H5.95371C5.93356 27.4124 5.92308 27.5358 5.92308 27.6616C5.92308 27.7874 5.93356 27.9107 5.95371 28.0308C5.96419 28.0933 5.97728 28.1549 5.99287 28.2154C6.2388 29.1709 7.10618 29.877 8.13846 29.877H25.8615C26.8938 29.877 27.7612 29.1709 28.0071 28.2154C28.0227 28.1548 28.0358 28.0933 28.0463 28.0308C28.0664 27.9107 28.0769 27.7874 28.0769 27.6616C28.0769 27.5358 28.0664 27.4124 28.0463 27.2923H20.3046C20.3167 27.352 20.3231 27.4137 20.3231 27.477C20.3231 27.5402 20.3167 27.6019 20.3046 27.6616C20.2191 28.0829 19.8466 28.4 19.4 28.4H14.2308C13.7842 28.4 13.4117 28.0829 13.3262 27.6616C13.314 27.6019 13.3077 27.5402 13.3077 27.477C13.3077 27.4137 13.314 27.352 13.3262 27.2923Z" fill="white"/>
</g>
<defs>
<clipPath id="clip0">
<rect width="32" height="32" fill="white"/>
</clipPath>
</defs>
</svg>
