<svg width="32" height="32" viewBox="0 0 32 32" fill="none" xmlns="http://www.w3.org/2000/svg">
<path d="M1.5 27.5V6.513C1.5 5.403 2.397 4.5 3.5 4.5H11.397C11.864 4.5 12.333 4.667 12.716 4.972L16.384 8.211C16.646 8.417 16.819 8.5 17 8.5H27.5C28.603 8.5 29.5 9.397 29.5 10.5V27.5H1.5Z" fill="#B36601"/>
<path d="M11.397 5C11.763 5 12.119 5.136 12.406 5.364L16.054 8.586C16.341 8.813 16.634 9 17 9H27.5C28.328 9 29 9.672 29 10.5V27H2V6.513C2 5.684 2.672 5 3.5 5H11.397ZM11.397 4H3.5C2.121 4 1 5.127 1 6.513V27V28H2H29H30V27V10.5C30 9.122 28.878 8 27.5 8H17C16.973 8 16.898 7.976 16.695 7.817L13.069 4.614L13.049 4.596L13.027 4.58C12.555 4.206 11.976 4 11.397 4Z" fill="white"/>
<path d="M3 26H28V12C28 11.448 27.552 11 27 11H4C3.448 11 3 11.448 3 12V26Z" fill="#E3992E"/>
<path d="M21.7735 19.1283H24.9365V15.253C24.9365 14.3121 24.1668 13.5424 23.2259 13.5424H16.2576C15.3167 13.5424 14.547 14.3121 14.547 15.253V22.2218C14.547 23.1628 15.3167 23.9324 16.2576 23.9324H20.0634V20.8389C20.0634 19.898 20.8331 19.1283 21.7735 19.1283Z" fill="#4A5962"/>
<path d="M23.2265 13.543C24.1674 13.543 24.9371 14.3126 24.9371 15.2536V19.1288H21.7741C20.8331 19.1288 20.0635 19.8985 20.0635 20.8395V23.933H16.2577C15.3167 23.933 14.547 23.1633 14.547 22.2224V15.253C14.547 14.3121 15.3167 13.5424 16.2577 13.5424H23.2265V13.543ZM23.2265 12.9959H16.2577C15.0131 12.9959 14 14.0085 14 15.2536V22.2224C14 23.4669 15.0126 24.48 16.2577 24.48H20.0635H20.6105V23.933V20.8395C20.6105 20.1978 21.1324 19.6759 21.7741 19.6759H24.9371H25.4841V19.1288V15.253C25.4836 14.0085 24.471 12.9959 23.2265 12.9959Z" fill="white"/>
<path d="M28.7423 19.1283H24.9365V22.2218C24.9365 23.1628 24.1668 23.9325 23.2259 23.9325H20.0629V27.8077C20.0629 28.7486 20.8326 29.5183 21.7735 29.5183H28.7423C29.6832 29.5183 30.4529 28.7486 30.4529 27.8077V20.8389C30.4529 19.898 29.6832 19.1283 28.7423 19.1283Z" fill="#7B9AB0"/>
<path d="M28.7423 19.1283C29.6833 19.1283 30.453 19.898 30.453 20.8389V27.8077C30.453 28.7486 29.6833 29.5183 28.7423 29.5183H21.7735C20.8326 29.5183 20.0629 28.7486 20.0629 27.8077V23.9325H23.2259C24.1669 23.9325 24.9365 23.1628 24.9365 22.2218V19.1283H28.7423ZM28.7423 18.5813H24.9365H24.3895V19.1283V22.2218C24.3895 22.8635 23.8676 23.3854 23.2259 23.3854H20.0629H19.5159V23.9325V27.8077C19.5159 29.0523 20.5285 30.0654 21.7735 30.0654H28.7423C29.9869 30.0654 31 29.0528 31 27.8077V20.8389C31 19.5938 29.9874 18.5813 28.7423 18.5813Z" fill="white"/>
<path d="M24.9365 22.2218V19.1283H21.7735C20.8326 19.1283 20.0629 19.898 20.0629 20.8389V23.9325H23.2259C24.1668 23.9325 24.9365 23.1628 24.9365 22.2218Z" fill="#627783"/>
<path d="M24.9365 19.1283V22.2218C24.9365 23.1628 24.1669 23.9325 23.2259 23.9325H20.0629V20.8389C20.0629 19.898 20.8326 19.1283 21.7735 19.1283H24.9365ZM25.4836 18.5813H24.9365H21.7735C20.529 18.5813 19.5159 19.5938 19.5159 20.8389V23.9325V24.4795H20.0629H23.2259C24.471 24.4795 25.4836 23.4669 25.4836 22.2218V19.1283V18.5813Z" fill="white"/>
</svg>
