<svg width="220" height="220" viewBox="0 0 220 220" fill="none" xmlns="http://www.w3.org/2000/svg">
<path fill-rule="evenodd" clip-rule="evenodd" d="M36.2383 45.0956H39.5117V46.6989H37.8416V48.0782H36.2383V45.0956ZM44.455 45.0956H49.3984V46.6989H44.455V45.0956ZM54.3418 45.0956H59.2851V46.6989H54.3418V45.0956ZM64.2285 45.0956H66.7002V46.6989H64.2285V45.0956ZM155.28 45.0956H157.785V46.6989H155.28V45.0956ZM162.795 45.0956H167.805V46.6989H162.795V45.0956ZM172.816 45.0956H177.826V46.6989H172.816V45.0956ZM182.836 45.0956H186.143V48.0781H184.539V46.6989H182.836V45.0956ZM186.143 52.4399V56.8017H184.539V52.4399H186.143ZM36.2383 56.8018V52.44H37.8416V56.8018H36.2383ZM186.143 61.1635V65.5253H184.539V61.1635H186.143ZM36.2383 65.5254V61.1636H37.8416V65.5254H36.2383ZM186.143 69.8871V74.2489H184.539V69.8871H186.143ZM36.2383 74.2489V69.8871H37.8416V74.2489H36.2383ZM186.143 78.6107V82.9725H184.539V78.6107H186.143ZM36.2383 82.9725V78.6107H37.8416V82.9725H36.2383ZM186.143 87.3343V91.6961H184.539V87.3343H186.143ZM36.2383 91.6961V87.3343H37.8416V91.6961H36.2383ZM186.143 96.0579V100.42H184.539V96.0579H186.143ZM36.2383 100.42V96.0579H37.8416V100.42H36.2383ZM186.143 104.782V109.143H184.539V104.782H186.143ZM36.2383 109.143V104.782H37.8416V109.143H36.2383ZM186.143 113.505V117.867H184.539V113.505H186.143ZM36.2383 117.867V113.505H37.8416V117.867H36.2383ZM186.143 122.229V126.591H184.539V122.229H186.143ZM36.2383 126.591V122.229H37.8416V126.591H36.2383ZM186.143 130.952V135.314H184.539V130.952H186.143ZM36.2383 135.314V130.952H37.8416V135.314H36.2383ZM186.143 139.676V144.038H184.539V139.676H186.143ZM36.2383 144.038V139.676H37.8416V144.038H36.2383ZM186.143 148.399V152.761H184.539V148.399H186.143ZM36.2383 152.761V148.4H37.8416V152.761H36.2383ZM186.143 157.123V161.485H184.539V157.123H186.143ZM36.2383 161.485V157.123H37.8416V161.485H36.2383ZM186.143 165.847V170.208H184.539V165.847H186.143ZM36.2383 170.208V165.847H37.8416V170.208H36.2383ZM186.143 174.57V178.932H184.539V174.57H186.143ZM36.2383 178.932V174.57H37.8416V178.932H36.2383ZM186.143 183.294V187.656H184.539V183.294H186.143ZM36.2383 187.656V183.294H37.8416V187.656H36.2383ZM186.143 192.017V195H183.16V193.397H184.539V192.017H186.143ZM36.2383 192.017H37.8416V193.397H39.2209V195H36.2383V192.017ZM47.9445 195H43.5827V193.397H47.9445V195ZM56.6681 195H52.3063V193.397H56.6681V195ZM65.3917 195H61.0299V193.397H65.3917V195ZM74.1152 195H69.7535V193.397H74.1152V195ZM82.8388 195H78.477V193.397H82.8388V195ZM91.5624 195H87.2006V193.397H91.5624V195ZM100.286 195H95.9242V193.397H100.286V195ZM109.01 195H104.648V193.397H109.01V195ZM117.733 195H113.371V193.397H117.733V195ZM126.457 195H122.095V193.397H126.457V195ZM135.18 195H130.819V193.397H135.18V195ZM143.904 195H139.542V193.397H143.904V195ZM152.628 195H148.266V193.397H152.628V195ZM161.351 195H156.989V193.397H161.351V195ZM170.075 195H165.713V193.397H170.075V195ZM178.798 195H174.437V193.397H178.798V195Z" fill="#666666"/>
<path d="M168.507 180.835C168.507 178.479 170.441 176.563 172.818 176.563C175.196 176.563 177.13 178.479 177.13 180.835C177.13 183.19 175.195 185.107 172.818 185.107C170.441 185.107 168.507 183.19 168.507 180.835ZM176.167 180.835C176.167 179.005 174.665 177.516 172.818 177.516C170.972 177.516 169.469 179.005 169.469 180.835C169.469 182.664 170.972 184.153 172.818 184.153C174.665 184.153 176.167 182.664 176.167 180.835Z" fill="#CACACA"/>
<path opacity="0.3" d="M52.847 172.309C52.847 169.758 54.9036 167.69 57.4406 167.69C59.9775 167.69 62.0341 169.758 62.0341 172.309C62.0341 174.859 59.9775 176.927 57.4406 176.927C54.9036 176.927 52.847 174.859 52.847 172.309Z" fill="#CCCCCC"/>
<path d="M18.2089 160.552C18.2089 163.066 20.2911 165.11 22.8502 165.11C25.4092 165.11 27.4914 163.066 27.4914 160.552C27.4914 158.039 25.4092 155.994 22.8502 155.994C20.2911 155.994 18.2089 158.039 18.2089 160.552ZM26.5082 160.552C26.5082 162.522 24.8672 164.124 22.8502 164.124C20.8331 164.124 19.1921 162.522 19.1921 160.552C19.1921 158.583 20.8331 156.981 22.8502 156.981C24.8672 156.981 26.5082 158.583 26.5082 160.552Z" fill="#BBCAD9"/>
<path d="M12.1893 160.552C12.1893 160.158 12.5155 159.838 12.9176 159.838C13.3198 159.838 13.646 160.158 13.646 160.552C13.646 160.946 13.3198 161.266 12.9176 161.266C12.5155 161.266 12.1893 160.946 12.1893 160.552Z" fill="#BBCAD9"/>
<path d="M15.3049 153.146C15.5893 152.867 16.0504 152.867 16.335 153.146C16.6194 153.425 16.6194 153.876 16.335 154.155C16.0507 154.434 15.5895 154.434 15.3049 154.155C15.0205 153.876 15.0205 153.425 15.3049 153.146Z" fill="#BBCAD9"/>
<path d="M22.1219 150.822C22.1219 150.428 22.4481 150.109 22.8502 150.109C23.2523 150.109 23.5785 150.428 23.5785 150.822C23.5785 151.217 23.2523 151.536 22.8502 151.536C22.4481 151.536 22.1219 151.216 22.1219 150.822Z" fill="#BBCAD9"/>
<path d="M29.3611 153.155C29.6455 152.877 30.1066 152.877 30.3913 153.155C30.6757 153.434 30.6757 153.886 30.3913 154.165C30.1069 154.443 29.6457 154.443 29.3611 154.165C29.0767 153.886 29.0767 153.434 29.3611 153.155Z" fill="#BBCAD9"/>
<path d="M32.0545 160.552C32.0545 160.158 32.3807 159.838 32.7828 159.838C33.1852 159.838 33.5112 160.158 33.5112 160.552C33.5112 160.946 33.185 161.266 32.7828 161.266C32.3807 161.266 32.0545 160.946 32.0545 160.552Z" fill="#BBCAD9"/>
<path d="M29.3518 166.925C29.6362 166.646 30.0973 166.646 30.3819 166.925C30.6663 167.203 30.6663 167.655 30.3819 167.934C30.0975 168.212 29.6364 168.212 29.3518 167.934C29.0674 167.655 29.0674 167.203 29.3518 166.925Z" fill="#BBCAD9"/>
<path d="M22.1219 170.282C22.1219 169.888 22.4481 169.568 22.8502 169.568C23.2523 169.568 23.5785 169.888 23.5785 170.282C23.5785 170.676 23.2523 170.996 22.8502 170.996C22.4481 170.996 22.1219 170.676 22.1219 170.282Z" fill="#BBCAD9"/>
<path d="M15.2955 166.915C15.5799 166.636 16.041 166.636 16.3257 166.915C16.6101 167.194 16.6101 167.645 16.3257 167.924C16.0413 168.203 15.5801 168.203 15.2955 167.924C15.0109 167.645 15.0109 167.194 15.2955 166.915Z" fill="#BBCAD9"/>
<path d="M51.469 61.4494C51.469 64.7207 54.1304 67.382 57.4017 67.382C60.6729 67.382 63.3343 64.7207 63.3343 61.4494C63.3343 58.1781 60.6729 55.5168 57.4017 55.5168C54.1304 55.5168 51.469 58.1781 51.469 61.4494ZM62.0097 61.4494C62.0097 63.9902 59.9424 66.0575 57.4017 66.0575C54.8609 66.0575 52.7936 63.9902 52.7936 61.4494C52.7936 58.9086 54.8609 56.8413 57.4017 56.8413C59.9424 56.8413 62.0097 58.9086 62.0097 61.4494Z" fill="#D7E2E5"/>
<path d="M182.134 152.835C182.134 156.106 184.796 158.768 188.067 158.768C191.338 158.768 194 156.106 194 152.835C194 149.564 191.338 146.902 188.067 146.902C184.796 146.902 182.134 149.564 182.134 152.835ZM192.675 152.835C192.675 155.376 190.608 157.443 188.067 157.443C185.526 157.443 183.459 155.376 183.459 152.835C183.459 150.294 185.526 148.227 188.067 148.227C190.608 148.227 192.675 150.294 192.675 152.835Z" fill="#D7E2E5"/>
<g opacity="0.5">
<g opacity="0.7">
<path opacity="0.7" d="M203.728 62.2373C203.728 60.4498 205.162 59.0009 206.93 59.0009C208.699 59.0009 210.132 60.4498 210.132 62.2373C210.132 64.0247 208.699 65.4737 206.93 65.4737C205.162 65.4737 203.728 64.0247 203.728 62.2373Z" fill="#7B9AB0"/>
</g>
</g>
<g opacity="0.5">
<path opacity="0.5" d="M216.211 62.2376C216.211 62.6747 216.568 63.0294 217.006 63.0294L219.205 63.0294C219.644 63.0294 220 62.6747 220 62.2376C220 61.8005 219.644 61.4458 219.205 61.4458L217.006 61.4458C216.568 61.4458 216.211 61.8001 216.211 62.2376Z" fill="#7B9AB0"/>
</g>
<g opacity="0.5">
<path opacity="0.5" d="M215.059 57.47C215.059 57.5959 215.089 57.7241 215.152 57.8425C215.359 58.2285 215.841 58.3734 216.228 58.1672L218.171 57.1315C218.559 56.9252 218.704 56.445 218.497 56.0598C218.29 55.6738 217.808 55.5289 217.421 55.7352L215.478 56.7708C215.211 56.9138 215.059 57.1873 215.059 57.47Z" fill="#7B9AB0"/>
</g>
<g opacity="0.5">
<path opacity="0.5" d="M211.835 53.8222C211.835 54.0771 211.959 54.327 212.187 54.4802C212.551 54.724 213.045 54.6274 213.29 54.2648L214.528 52.4306C214.772 52.0672 214.677 51.5759 214.312 51.3316C213.948 51.0878 213.454 51.1844 213.209 51.547L211.971 53.3812C211.879 53.5166 211.835 53.6702 211.835 53.8222Z" fill="#7B9AB0"/>
</g>
<g opacity="0.5">
<path opacity="0.5" d="M207.288 52.0978C207.288 52.4941 207.586 52.8361 207.991 52.8829C208.428 52.9335 208.822 52.622 208.873 52.1877L209.129 49.9869C209.183 49.5554 208.867 49.1595 208.431 49.1092C207.995 49.0585 207.6 49.3701 207.55 49.8044L207.293 52.0052C207.289 52.0364 207.288 52.0673 207.288 52.0978Z" fill="#7B9AB0"/>
</g>
<g opacity="0.5">
<path opacity="0.5" d="M201.694 50.6512C201.694 50.7446 201.711 50.84 201.746 50.9323L202.536 53.0036C202.692 53.4125 203.151 53.618 203.561 53.4628C203.972 53.3072 204.176 52.8488 204.023 52.4414L203.233 50.3701C203.077 49.9611 202.617 49.7557 202.207 49.9109C201.89 50.0312 201.694 50.3321 201.694 50.6512Z" fill="#7B9AB0"/>
</g>
<g opacity="0.5">
<path opacity="0.5" d="M196.849 54.0814C196.849 54.3027 196.941 54.522 197.121 54.6788L198.786 56.1242C199.118 56.4116 199.62 56.3772 199.908 56.0478C200.197 55.718 200.162 55.2176 199.832 54.9306L198.166 53.4852C197.835 53.1978 197.333 53.2322 197.045 53.5616C196.913 53.7117 196.849 53.8969 196.849 54.0814Z" fill="#7B9AB0"/>
</g>
<g opacity="0.5">
<path opacity="0.5" d="M194.159 59.3902C194.159 59.7465 194.402 60.0707 194.765 60.1586L196.9 60.6764C197.326 60.7797 197.757 60.5192 197.861 60.0945C197.962 59.6701 197.703 59.2409 197.276 59.1376L195.142 58.6198C194.715 58.5164 194.285 58.7769 194.181 59.2017C194.166 59.2651 194.159 59.328 194.159 59.3902Z" fill="#7B9AB0"/>
</g>
<g opacity="0.5">
<path opacity="0.5" d="M194.244 65.3654C194.244 65.4327 194.252 65.5016 194.271 65.5697C194.384 65.9921 194.82 66.2435 195.243 66.1311L197.357 65.5701C197.781 65.4577 198.033 65.023 197.92 64.6013C197.807 64.1789 197.371 63.9275 196.948 64.04L194.834 64.601C194.479 64.6952 194.244 65.0151 194.244 65.3654Z" fill="#7B9AB0"/>
</g>
<g opacity="0.5">
<path opacity="0.5" d="M197.062 70.6089C197.062 70.8045 197.134 71.0001 197.28 71.1533C197.582 71.4708 198.085 71.4847 198.404 71.1838L200.005 69.6738C200.324 69.3722 200.337 68.8718 200.035 68.5547C199.733 68.2372 199.23 68.2233 198.912 68.5242L197.31 70.0341C197.146 70.1901 197.062 70.3991 197.062 70.6089Z" fill="#7B9AB0"/>
</g>
<g opacity="0.5">
<path opacity="0.5" d="M201.972 73.9099C201.972 74.2381 202.179 74.5449 202.507 74.6585C202.922 74.801 203.375 74.5821 203.519 74.1688L204.245 72.0761C204.387 71.662 204.168 71.2119 203.753 71.069C203.338 70.9264 202.885 71.1454 202.742 71.5587L202.016 73.6514C201.986 73.7373 201.972 73.824 201.972 73.9099Z" fill="#7B9AB0"/>
</g>
<g opacity="0.5">
<path opacity="0.5" d="M207.523 72.3338C207.523 72.3698 207.525 72.4058 207.53 72.4418L207.829 74.6212C207.888 75.0547 208.29 75.3576 208.724 75.2986C209.16 75.2396 209.465 74.837 209.405 74.407L209.106 72.2277C209.046 71.7942 208.645 71.4913 208.21 71.5503C207.812 71.6045 207.523 71.9438 207.523 72.3338Z" fill="#7B9AB0"/>
</g>
<g opacity="0.5">
<path opacity="0.5" d="M212.027 70.5018C212.027 70.6606 212.075 70.8213 212.175 70.9602L213.456 72.7509C213.711 73.1072 214.207 73.1899 214.564 72.9365C214.922 72.6832 215.006 72.1887 214.751 71.8324L213.47 70.0418C213.215 69.6855 212.718 69.6027 212.361 69.8561C212.143 70.0109 212.027 70.2544 212.027 70.5018Z" fill="#7B9AB0"/>
</g>
<g opacity="0.5">
<path opacity="0.5" d="M215.166 66.7674C215.166 67.056 215.325 67.3347 215.601 67.4741L217.565 68.4666C217.957 68.6645 218.435 68.5086 218.633 68.119C218.833 67.7283 218.676 67.2524 218.284 67.0548L216.32 66.0623C215.929 65.8644 215.45 66.0204 215.252 66.4099C215.193 66.5247 215.166 66.6471 215.166 66.7674Z" fill="#7B9AB0"/>
</g>
<path d="M81.9309 163.737C81.9309 160.195 84.8021 157.324 88.3439 157.324H150.871C154.413 157.324 157.284 160.195 157.284 163.737V174.959C157.284 178.501 154.413 181.372 150.871 181.372H88.3439C84.8021 181.372 81.9309 178.501 81.9309 174.959V163.737Z" fill="#D7E2E5"/>
<path fill-rule="evenodd" clip-rule="evenodd" d="M76.3197 26.6582C73.6634 26.6582 71.51 28.8116 71.51 31.468V171.846C71.51 174.503 73.6634 176.656 76.3197 176.656H146.009C148.666 176.656 150.819 174.503 150.819 171.846V31.468C150.819 28.8116 148.666 26.6582 146.009 26.6582H76.3197ZM69.9067 31.468C69.9067 27.9262 72.7779 25.0549 76.3197 25.0549H146.009C149.551 25.0549 152.422 27.9262 152.422 31.468V171.846C152.422 175.388 149.551 178.259 146.009 178.259H76.3197C72.7779 178.259 69.9067 175.388 69.9067 171.846V31.468Z" fill="#666666"/>
<path fill-rule="evenodd" clip-rule="evenodd" d="M110.973 168.348C113.791 168.348 116.075 166.064 116.075 163.246C116.075 160.429 113.791 158.145 110.973 158.145C108.156 158.145 105.871 160.429 105.871 163.246C105.871 166.064 108.156 168.348 110.973 168.348ZM110.973 169.951C114.676 169.951 117.678 166.949 117.678 163.246C117.678 159.543 114.676 156.541 110.973 156.541C107.27 156.541 104.268 159.543 104.268 163.246C104.268 166.949 107.27 169.951 110.973 169.951Z" fill="#666666"/>
<path fill-rule="evenodd" clip-rule="evenodd" d="M92.1039 63.5331H83.9352V71.7018H85.1021V64.7H92.1039V63.5331ZM130.613 64.7V63.5331H138.782V71.7018H137.615V64.7H130.613ZM130.613 117.213H137.615V110.211H138.782V118.38H130.613V117.213ZM85.1021 110.211V117.213H92.1039V118.38H83.9352V110.211H85.1021Z" fill="#666666"/>
<path fill-rule="evenodd" clip-rule="evenodd" d="M117.454 85.2197V75.903H126.77V85.2197H117.454ZM112.644 72.6965C112.644 71.8111 113.362 71.0933 114.247 71.0933H129.977C130.862 71.0933 131.58 71.8111 131.58 72.6965V88.4262C131.58 89.3116 130.862 90.0294 129.977 90.0294H114.247C113.362 90.0294 112.644 89.3116 112.644 88.4262V72.6965ZM95.5588 85.2197V75.9031H104.875V85.2197H95.5588ZM90.749 72.6966C90.749 71.8111 91.4668 71.0933 92.3523 71.0933H108.082C108.967 71.0933 109.685 71.8111 109.685 72.6966V88.4262C109.685 89.3117 108.967 90.0295 108.082 90.0295H92.3523C91.4668 90.0295 90.749 89.3117 90.749 88.4262V72.6966Z" fill="#9BAFBA"/>
<path d="M77.1213 88.5171C77.1213 87.6809 77.7993 87.0029 78.6355 87.0029H143.746C144.582 87.0029 145.26 87.6809 145.26 88.5171V88.5171C145.26 89.3534 144.582 90.0313 143.746 90.0313H78.6355C77.7993 90.0313 77.1213 89.3534 77.1213 88.5171V88.5171Z" fill="#9BAFBA"/>
<path fill-rule="evenodd" clip-rule="evenodd" d="M95.6107 97.7066V107.023H104.927V97.7066H95.6107ZM92.4042 92.8969C91.5188 92.8969 90.801 93.6147 90.801 94.5001V110.23C90.801 111.115 91.5188 111.833 92.4042 111.833H108.134C109.019 111.833 109.737 111.115 109.737 110.23V94.5001C109.737 93.6147 109.019 92.8969 108.134 92.8969H92.4042Z" fill="#C4C4C4"/>
<path d="M112.696 94.411C112.696 93.5748 113.374 92.8969 114.21 92.8969H117.494C118.33 92.8969 119.008 93.5748 119.008 94.411V97.6947C119.008 98.531 118.33 99.2089 117.494 99.2089H114.21C113.374 99.2089 112.696 98.531 112.696 97.6947V94.411Z" fill="#C4C4C4"/>
<path d="M119.008 100.723C119.008 99.8868 119.686 99.2089 120.522 99.2089H123.806C124.642 99.2089 125.32 99.8868 125.32 100.723V104.007C125.32 104.843 124.642 105.521 123.806 105.521H120.522C119.686 105.521 119.008 104.843 119.008 104.007V100.723Z" fill="#C4C4C4"/>
<path d="M125.32 107.035C125.32 106.199 125.998 105.521 126.834 105.521H130.118C130.954 105.521 131.632 106.199 131.632 107.035V110.319C131.632 111.155 130.954 111.833 130.118 111.833H126.834C125.998 111.833 125.32 111.155 125.32 110.319V107.035Z" fill="#C4C4C4"/>
<path d="M125.32 94.411C125.32 93.5747 125.998 92.8968 126.834 92.8968H130.118C130.954 92.8968 131.632 93.5747 131.632 94.411V97.6947C131.632 98.5309 130.954 99.2089 130.118 99.2089H126.834C125.998 99.2089 125.32 98.5309 125.32 97.6947V94.411Z" fill="#C4C4C4"/>
<path d="M112.696 107.035C112.696 106.199 113.374 105.521 114.21 105.521H117.494C118.33 105.521 119.008 106.199 119.008 107.035V110.319C119.008 111.155 118.33 111.833 117.494 111.833H114.21C113.374 111.833 112.696 111.155 112.696 110.319V107.035Z" fill="#C4C4C4"/>
<path d="M106.781 34.6745C106.781 34.2317 107.14 33.8728 107.583 33.8728H120.409C120.852 33.8728 121.211 34.2317 121.211 34.6745V34.6745C121.211 35.1172 120.852 35.4761 120.409 35.4761H107.583C107.14 35.4761 106.781 35.1172 106.781 34.6745V34.6745Z" fill="#666666"/>
<path d="M104.377 34.6745C104.377 34.2317 104.735 33.8728 105.178 33.8728V33.8728C105.621 33.8728 105.98 34.2317 105.98 34.6745V34.6745C105.98 35.1172 105.621 35.4761 105.178 35.4761V35.4761C104.735 35.4761 104.377 35.1172 104.377 34.6745V34.6745Z" fill="#666666"/>
<path fill-rule="evenodd" clip-rule="evenodd" d="M151.673 153.716H70.7081V152.113H151.673V153.716Z" fill="#666666"/>
<path d="M32.0534 102.07C32.0534 93.1828 24.9149 85.9786 16.1091 85.9786C7.30337 85.9786 0.164885 93.1828 0.164886 102.07C0.164886 110.956 7.30337 118.161 16.1091 118.161C24.9149 118.161 32.0534 110.956 32.0534 102.07Z" fill="#DFE6EC"/>
</svg>
