<svg width="32" height="32" viewBox="0 0 32 32" fill="none" xmlns="http://www.w3.org/2000/svg">
<path d="M31.5 16C31.5 24.5604 24.5604 31.5 16 31.5C7.43959 31.5 0.5 24.5604 0.5 16C0.5 7.43959 7.43959 0.5 16 0.5C24.5604 0.5 31.5 7.43959 31.5 16Z" fill="#00B8BA" stroke="white"/>
<path d="M25.0071 9.48179H23.8809V9.20001C23.8809 8.73601 23.5014 8.35557 23.0365 8.35557C22.5716 8.35557 22.192 8.73601 22.192 9.20001V9.48179H19.9405V8.45601C19.9405 7.46935 19.1378 6.66668 18.1511 6.66668H13.8471C12.8605 6.66668 12.0578 7.46935 12.0578 8.45601V9.48179H9.80625V9.20001C9.80625 8.73601 9.4267 8.35557 8.96181 8.35557C8.49692 8.35557 8.11737 8.73601 8.11737 9.20001V9.48179H6.99292C6.37337 9.48179 5.8667 9.98846 5.8667 10.608V22.4302C5.8667 23.0498 6.37337 23.5565 6.99292 23.5565H25.008C25.6276 23.5565 26.1343 23.0498 26.1343 22.4302V10.608C26.1334 9.98846 25.6267 9.48179 25.0071 9.48179ZM13.1849 8.45601C13.1849 8.09068 13.4827 7.7929 13.848 7.7929H18.152C18.5174 7.7929 18.8151 8.09068 18.8151 8.45601V9.48179H13.1858V8.45601H13.1849Z" fill="white"/>
<path d="M31.5 16C31.5 24.5604 24.5604 31.5 16 31.5C7.43959 31.5 0.5 24.5604 0.5 16C0.5 7.43959 7.43959 0.5 16 0.5C24.5604 0.5 31.5 7.43959 31.5 16Z" fill="#00B8BA" stroke="white"/>
<path d="M24 3L16 16L30.5 11.5C28 5.5 25.3333 3.66667 24 3Z" fill="#F7F7F7"/>
</svg>
