<?xml version="1.0" encoding="utf-8"?>
<!-- Generator: Adobe Illustrator 26.0.2, SVG Export Plug-In . SVG Version: 6.00 Build 0)  -->
<svg version="1.1" id="Layer_1" xmlns="http://www.w3.org/2000/svg" xmlns:xlink="http://www.w3.org/1999/xlink" x="0px" y="0px"
	 viewBox="0 0 32 32" style="enable-background:new 0 0 32 32;" xml:space="preserve">
<style type="text/css">
	.st0{fill:#FFFFFF;fill-opacity:0.01;}
	.st1{fill:#333333;}
	.st2{fill:none;stroke:#2E3D98;}
</style>
<circle id="state" class="st0" cx="16" cy="16" r="14"/>
<path id="metaphor" class="st1" d="M16.003,7H9.336C8.452,7,7.604,7.351,6.979,7.976c-0.625,0.625-0.976,1.473-0.976,2.357v3.333
	c0,0.884,0.351,1.732,0.976,2.357C7.604,16.649,8.452,17,9.336,17v1.802c0,0.743,0.454,0.922,1.01,0.396L12.67,17h3.333
	c0.884,0,1.732-0.351,2.357-0.976c0.625-0.625,0.976-1.473,0.976-2.357v-3.333c0-0.884-0.351-1.732-0.976-2.357
	C17.735,7.351,16.887,7,16.003,7z M25.998,15.334v3.33c0,0.89-0.34,1.73-0.97,2.36s-1.47,0.98-2.36,0.98v1.8
	c0,0.1-0.01,0.18-0.02,0.24c-0.03,0.16-0.14,0.3-0.29,0.37c-0.06,0.03-0.13,0.04-0.2,0.04c-0.09,0-0.19-0.02-0.27-0.07
	c-0.06-0.04-0.14-0.1-0.23-0.19l-2.32-2.19h-3.33c-0.79,0-1.55-0.28-2.15-0.79c-0.52-0.44-0.89-1.02-1.07-1.67
	c-0.04-0.18,0.01-0.37,0.14-0.5l0.26-0.24c0.09-0.09,0.22-0.14,0.34-0.14h2.47c1.34,0,2.6-0.52,3.54-1.46
	c0.94-0.95,1.46-2.2,1.46-3.54v-1.16c0-0.28,0.23-0.5,0.5-0.5h1.17c0.89,0,1.73,0.34,2.36,0.97S25.998,14.444,25.998,15.334z"/>
<circle id="focus" class="st2" cx="16" cy="16" r="15.5"/>
</svg>
