<svg width="18" height="18" viewBox="0 0 18 18" fill="none" xmlns="http://www.w3.org/2000/svg">
<g clip-path="url(#clip0_1799_15654)">
<path d="M9 17.5C7.30901 17.5099 5.65308 17.0181 4.24159 16.0868C2.8301 15.1556 1.72646 13.8267 1.07022 12.2682C0.413985 10.7097 0.234629 8.99158 0.554832 7.33116C0.875036 5.67073 1.68042 4.14255 2.86914 2.93985C4.05785 1.73714 5.57652 0.913942 7.23308 0.574341C8.88965 0.234739 10.6097 0.39399 12.1758 1.03195C13.7418 1.66992 15.0836 2.75794 16.0313 4.15844C16.979 5.55894 17.4901 7.20902 17.5 8.9C17.5112 10.0241 17.2998 11.1393 16.8778 12.1812C16.4559 13.2231 15.8318 14.1712 15.0415 14.9707C14.2513 15.7702 13.3106 16.4054 12.2737 16.8395C11.2368 17.2736 10.1241 17.4981 9 17.5Z" fill="#067D14"/>
<path d="M9 0.999955C10.5823 0.999955 12.129 1.46915 13.4446 2.3482C14.7602 3.22725 15.7855 4.47668 16.391 5.93849C16.9965 7.4003 17.155 9.00883 16.8463 10.5607C16.5376 12.1125 15.7757 13.538 14.6569 14.6568C13.538 15.7756 12.1126 16.5376 10.5607 16.8462C9.00888 17.1549 7.40034 16.9965 5.93854 16.391C4.47673 15.7855 3.2273 14.7601 2.34825 13.4445C1.4692 12.1289 1 10.5822 1 8.99995C1.00634 6.88017 1.85122 4.84901 3.35014 3.35009C4.84906 1.85117 6.88022 1.00629 9 0.999955ZM9 -4.53768e-05C7.21997 -4.53768e-05 5.47991 0.527795 3.99987 1.51673C2.51983 2.50566 1.36628 3.91127 0.685088 5.5558C0.00389957 7.20034 -0.17433 9.00994 0.172937 10.7558C0.520203 12.5016 1.37737 14.1052 2.63604 15.3639C3.89472 16.6226 5.49836 17.4798 7.24419 17.827C8.99002 18.1743 10.7996 17.9961 12.4442 17.3149C14.0887 16.6337 15.4943 15.4801 16.4832 14.0001C17.4722 12.52 18 10.78 18 8.99995C18.0049 7.81669 17.7754 6.64416 17.3249 5.55002C16.8743 4.45588 16.2116 3.46178 15.3749 2.62508C14.5382 1.78838 13.5441 1.12563 12.4499 0.675069C11.3558 0.22451 10.1833 -0.00494017 9 -4.53768e-05Z" fill="white"/>
<path d="M4.52093 9.35394C4.41453 9.25166 4.33093 9.12806 4.27562 8.99123C4.2203 8.8544 4.19451 8.70743 4.19993 8.55995C4.20826 8.43969 4.24317 8.32278 4.30214 8.21765C4.36111 8.11251 4.44266 8.02176 4.54093 7.95194C4.74165 7.78878 4.99038 7.69604 5.24893 7.68794C5.37134 7.68886 5.49232 7.71439 5.60468 7.763C5.71703 7.81162 5.81846 7.88234 5.90293 7.97094L7.86293 10.0239L12.1199 5.67294C12.3043 5.49096 12.5529 5.38892 12.8119 5.38892C13.071 5.38892 13.3196 5.49096 13.5039 5.67294C13.6798 5.85181 13.7846 6.08851 13.7989 6.33894C13.8105 6.45005 13.7987 6.56236 13.7643 6.66862C13.7298 6.77489 13.6735 6.87276 13.5989 6.95594L7.86193 12.6999L4.52093 9.35394Z" fill="white"/>
</g>
<defs>
<clipPath id="clip0_1799_15654">
<rect width="18" height="18" fill="white"/>
</clipPath>
</defs>
</svg>
