<svg width="220" height="144" viewBox="0 0 220 144" fill="none" xmlns="http://www.w3.org/2000/svg">
<g clip-path="url(#clip0)">
<path d="M183.485 38.264C186.609 38.3098 189.675 37.4254 192.294 35.7233C194.914 34.0212 196.968 31.5785 198.195 28.7058C199.422 25.8331 199.767 22.6603 199.185 19.5911C198.604 16.5219 197.123 13.6949 194.93 11.4699C192.738 9.24492 189.933 7.72242 186.872 7.09611C183.812 6.4698 180.635 6.768 177.744 7.95276C174.854 9.13753 172.381 11.1553 170.641 13.7494C168.9 16.3435 167.971 19.3966 167.971 22.5204C167.941 26.6654 169.558 30.6526 172.468 33.605C175.377 36.5574 179.34 38.2333 183.485 38.264Z" fill="#D7E2E5"/>
<g opacity="0.9">
<path opacity="0.9" fill-rule="evenodd" clip-rule="evenodd" d="M176.906 2.76445C175.976 2.75073 175.062 3.0141 174.282 3.52106C173.502 4.02801 172.89 4.75563 172.524 5.61135C172.158 6.46707 172.056 7.41221 172.229 8.32653C172.402 9.24084 172.843 10.083 173.496 10.7459C174.149 11.4087 174.985 11.8624 175.896 12.049C176.808 12.2357 177.754 12.1469 178.616 11.794C179.477 11.4412 180.213 10.8401 180.732 10.0674C181.25 9.29469 181.527 8.38519 181.527 7.45464C181.532 6.84325 181.416 6.23695 181.186 5.67036C180.956 5.10377 180.617 4.58798 180.188 4.15246C179.759 3.71693 179.248 3.37019 178.685 3.13203C178.122 2.89388 177.518 2.76897 176.906 2.76445ZM169.643 7.45045C169.664 6.01867 170.108 4.62507 170.919 3.44479C171.729 2.26451 172.871 1.35023 174.2 0.816846C175.529 0.283465 176.986 0.154791 178.388 0.446992C179.789 0.739193 181.073 1.43923 182.079 2.45913C183.084 3.47902 183.765 4.77326 184.037 6.17918C184.308 7.58509 184.158 9.03996 183.606 10.3609C183.053 11.6819 182.122 12.81 180.93 13.6034C179.738 14.3969 178.338 14.8203 176.906 14.8204C175.945 14.8135 174.995 14.6173 174.11 14.2431C173.225 13.8689 172.423 13.3241 171.748 12.6398C171.074 11.9554 170.541 11.1449 170.179 10.2545C169.818 9.36409 169.636 8.41128 169.643 7.45045Z" fill="#999999"/>
</g>
<g opacity="0.5">
<path opacity="0.5" d="M29.2632 143.914C35.1136 143.966 40.8475 142.279 45.7373 139.066C50.627 135.854 54.452 131.261 56.7269 125.87C59.0018 120.48 59.6239 114.536 58.5143 108.791C57.4048 103.047 54.6135 97.7613 50.4949 93.6059C46.3762 89.4506 41.1159 86.6126 35.3815 85.4521C29.6471 84.2916 23.6972 84.8609 18.2869 87.0879C12.8767 89.3148 8.25003 93.0989 4.99417 97.9599C1.73832 102.821 6.71979e-05 108.54 4.46019e-05 114.39C-0.0344849 122.186 3.02917 129.676 8.51706 135.213C14.005 140.75 21.4675 143.88 29.2632 143.914Z" fill="#D7E2E5"/>
</g>
<path d="M9.89263 111.291C10.5124 111.298 11.1201 111.12 11.6385 110.78C12.1568 110.44 12.5625 109.954 12.804 109.383C13.0456 108.812 13.112 108.182 12.9949 107.574C12.8778 106.965 12.5825 106.405 12.1464 105.964C11.7104 105.524 11.1532 105.223 10.5458 105.1C9.93834 104.977 9.30797 105.037 8.73472 105.272C8.16148 105.508 7.67122 105.909 7.3262 106.424C6.98117 106.939 6.79695 107.545 6.79691 108.164C6.79485 108.573 6.87328 108.978 7.02773 109.356C7.18219 109.735 7.40964 110.079 7.69711 110.369C7.98457 110.659 8.32642 110.89 8.70313 111.049C9.07984 111.207 9.48403 111.289 9.89263 111.291Z" fill="#CFCFCF"/>
<path fill-rule="evenodd" clip-rule="evenodd" d="M179.205 24.8231L178.758 24.7487C178.651 24.7306 178.541 24.7339 178.435 24.7585C178.33 24.783 178.23 24.8283 178.141 24.8917C178.053 24.9551 177.978 25.0354 177.921 25.1279C177.864 25.2204 177.825 25.3233 177.808 25.4307C177.774 25.6482 177.827 25.8703 177.956 26.049C178.084 26.2278 178.277 26.3489 178.494 26.3862L179.258 26.5129L179.205 24.8231ZM139.709 114.522C139.817 114.54 139.926 114.537 140.032 114.512C140.138 114.488 140.238 114.442 140.326 114.379C140.414 114.316 140.489 114.235 140.546 114.143C140.603 114.05 140.641 113.948 140.659 113.84C140.693 113.623 140.64 113.401 140.512 113.222C140.383 113.044 140.19 112.922 139.973 112.885L137.414 112.459L137.901 109.438C137.935 109.221 137.882 108.999 137.754 108.821C137.625 108.642 137.432 108.521 137.215 108.484C137.108 108.466 136.998 108.469 136.892 108.494C136.787 108.519 136.687 108.564 136.599 108.627C136.51 108.691 136.435 108.771 136.378 108.863C136.321 108.956 136.283 109.059 136.266 109.166L135.647 113.004C135.613 113.222 135.666 113.444 135.794 113.623C135.922 113.801 136.116 113.923 136.333 113.96L139.709 114.522ZM149.839 116.21C149.946 116.228 150.056 116.225 150.162 116.2C150.267 116.176 150.367 116.13 150.456 116.067C150.544 116.004 150.619 115.923 150.676 115.831C150.733 115.738 150.771 115.635 150.788 115.528C150.822 115.311 150.769 115.089 150.64 114.91C150.512 114.732 150.319 114.611 150.102 114.574L143.35 113.447C143.243 113.429 143.133 113.433 143.027 113.457C142.921 113.482 142.821 113.527 142.732 113.591C142.644 113.654 142.569 113.735 142.512 113.827C142.455 113.92 142.417 114.023 142.4 114.131C142.366 114.348 142.419 114.57 142.547 114.748C142.676 114.927 142.869 115.048 143.086 115.085L149.839 116.21ZM159.967 117.899C160.074 117.917 160.184 117.913 160.29 117.889C160.396 117.864 160.496 117.819 160.584 117.755C160.673 117.692 160.747 117.612 160.805 117.519C160.862 117.427 160.9 117.324 160.917 117.217C160.951 116.999 160.899 116.777 160.77 116.599C160.642 116.42 160.448 116.299 160.231 116.261L153.478 115.136C153.371 115.118 153.261 115.121 153.156 115.146C153.05 115.171 152.95 115.216 152.861 115.279C152.773 115.343 152.698 115.423 152.641 115.516C152.584 115.608 152.546 115.711 152.529 115.818C152.495 116.036 152.548 116.258 152.676 116.437C152.805 116.615 152.998 116.736 153.215 116.774L159.967 117.899ZM170.097 119.587C170.204 119.605 170.314 119.601 170.42 119.577C170.526 119.552 170.626 119.507 170.714 119.444C170.802 119.38 170.877 119.3 170.934 119.207C170.991 119.115 171.03 119.012 171.047 118.905C171.081 118.687 171.028 118.465 170.9 118.286C170.771 118.107 170.578 117.986 170.361 117.949L163.608 116.824C163.501 116.806 163.391 116.809 163.285 116.834C163.179 116.859 163.079 116.904 162.991 116.967C162.902 117.031 162.828 117.111 162.77 117.203C162.713 117.296 162.675 117.399 162.658 117.506C162.624 117.723 162.676 117.946 162.805 118.124C162.933 118.303 163.127 118.424 163.344 118.461L170.097 119.587ZM180.226 121.275C180.333 121.293 180.443 121.29 180.549 121.265C180.655 121.24 180.755 121.195 180.843 121.132C180.932 121.068 181.007 120.988 181.064 120.895C181.121 120.803 181.159 120.7 181.176 120.592C181.21 120.375 181.157 120.153 181.029 119.975C180.9 119.796 180.707 119.675 180.49 119.638L173.737 118.513C173.63 118.495 173.52 118.498 173.414 118.522C173.308 118.547 173.208 118.592 173.12 118.656C173.032 118.719 172.957 118.799 172.9 118.892C172.842 118.984 172.804 119.087 172.787 119.195C172.753 119.412 172.806 119.634 172.935 119.812C173.063 119.991 173.256 120.112 173.473 120.149L180.226 121.275ZM139.761 97.9228C139.794 97.7055 139.741 97.4837 139.613 97.3052C139.485 97.1266 139.291 97.0057 139.075 96.9684C138.967 96.9503 138.858 96.9537 138.752 96.9782C138.646 97.0027 138.546 97.048 138.457 97.1114C138.369 97.1748 138.294 97.2551 138.237 97.3476C138.18 97.4401 138.142 97.5431 138.124 97.6504L136.887 105.327C136.853 105.545 136.906 105.767 137.034 105.946C137.163 106.124 137.356 106.246 137.573 106.283C137.681 106.301 137.79 106.297 137.896 106.273C138.002 106.248 138.102 106.203 138.191 106.139C138.279 106.076 138.354 105.995 138.411 105.903C138.468 105.81 138.506 105.707 138.524 105.6L139.761 97.9228ZM141.617 86.4074C141.651 86.1901 141.598 85.9683 141.469 85.7897C141.341 85.6112 141.148 85.4903 140.931 85.453C140.824 85.4349 140.714 85.4382 140.608 85.4628C140.502 85.4873 140.402 85.5326 140.314 85.596C140.225 85.6594 140.15 85.7397 140.093 85.8322C140.036 85.9247 139.998 86.0276 139.981 86.135L138.744 93.812C138.71 94.0294 138.762 94.2515 138.891 94.4303C139.019 94.6091 139.213 94.7301 139.43 94.7674C139.537 94.7854 139.646 94.7821 139.752 94.7577C139.858 94.7333 139.958 94.6883 140.046 94.6253C140.134 94.5622 140.21 94.4823 140.267 94.3903C140.324 94.2981 140.363 94.1956 140.381 94.0885L141.617 86.4074ZM143.474 74.892C143.508 74.6745 143.455 74.4524 143.326 74.2736C143.198 74.0949 143.004 73.9738 142.787 73.9365C142.68 73.9187 142.57 73.9223 142.464 73.947C142.359 73.9717 142.259 74.0171 142.17 74.0806C142.082 74.1441 142.007 74.2244 141.95 74.3169C141.893 74.4094 141.854 74.5122 141.837 74.6196L140.6 82.2965C140.566 82.5138 140.619 82.7357 140.748 82.9142C140.876 83.0927 141.069 83.2137 141.286 83.2509C141.393 83.269 141.503 83.2657 141.609 83.2412C141.715 83.2166 141.815 83.1713 141.903 83.1079C141.992 83.0445 142.067 82.9642 142.124 82.8717C142.181 82.7792 142.219 82.6763 142.236 82.5689L143.474 74.892ZM145.33 63.3765C145.364 63.1591 145.311 62.937 145.183 62.7582C145.054 62.5794 144.861 62.4584 144.644 62.4211C144.537 62.4031 144.427 62.4066 144.321 62.4312C144.215 62.4558 144.115 62.5011 144.027 62.5644C143.938 62.6278 143.864 62.7081 143.806 62.8005C143.749 62.8929 143.711 62.9958 143.694 63.1031L142.456 70.7811C142.423 70.9984 142.476 71.2202 142.604 71.3988C142.732 71.5773 142.926 71.6982 143.142 71.7355C143.25 71.7534 143.359 71.75 143.465 71.7254C143.571 71.7008 143.671 71.6555 143.759 71.5921C143.847 71.5287 143.922 71.4485 143.979 71.356C144.036 71.2636 144.074 71.1608 144.092 71.0535L145.33 63.3765ZM147.19 51.8611C147.224 51.6438 147.172 51.4218 147.044 51.2431C146.915 51.0644 146.722 50.9432 146.505 50.9057C146.398 50.8877 146.288 50.8911 146.183 50.9157C146.077 50.9403 145.977 50.9856 145.888 51.049C145.8 51.1124 145.725 51.1926 145.668 51.2851C145.611 51.3775 145.572 51.4804 145.555 51.5877L144.318 59.2646C144.284 59.4821 144.337 59.7042 144.465 59.8829C144.594 60.0617 144.787 60.1828 145.004 60.2201C145.111 60.238 145.221 60.2346 145.327 60.21C145.433 60.1854 145.532 60.14 145.621 60.0766C145.709 60.0133 145.784 59.933 145.841 59.8406C145.898 59.7482 145.936 59.6453 145.953 59.5381L147.19 51.8611ZM149.042 40.3457C149.075 40.1285 149.022 39.9068 148.894 39.7283C148.766 39.5498 148.573 39.4288 148.356 39.3913C148.249 39.3732 148.14 39.3765 148.034 39.401C147.928 39.4256 147.828 39.4709 147.739 39.5343C147.651 39.5977 147.576 39.678 147.519 39.7705C147.462 39.863 147.423 39.9659 147.406 40.0733L146.169 47.7502C146.135 47.9675 146.188 48.1895 146.316 48.3682C146.444 48.547 146.637 48.6682 146.854 48.7057C146.961 48.7238 147.071 48.7205 147.177 48.6959C147.283 48.6714 147.383 48.6261 147.471 48.5627C147.56 48.4993 147.635 48.419 147.692 48.3265C147.749 48.234 147.787 48.1311 147.804 48.0237L149.042 40.3457ZM150.898 28.8302C150.932 28.613 150.879 28.3911 150.75 28.2126C150.622 28.0341 150.429 27.9131 150.212 27.8759C150.105 27.8578 149.995 27.8611 149.889 27.8856C149.783 27.9102 149.683 27.9555 149.595 28.0189C149.507 28.0823 149.432 28.1626 149.375 28.2551C149.318 28.3476 149.28 28.4505 149.263 28.5579L148.029 36.2338C147.995 36.4511 148.047 36.673 148.176 36.8518C148.304 37.0305 148.497 37.1517 148.714 37.1892C148.821 37.207 148.931 37.2034 149.037 37.1787C149.142 37.154 149.242 37.1086 149.331 37.0451C149.419 36.9817 149.494 36.9014 149.551 36.8089C149.608 36.7164 149.647 36.6135 149.664 36.5062L150.898 28.8302ZM152.003 21.9715L154.599 22.4042C154.706 22.4223 154.816 22.4189 154.922 22.3944C155.028 22.3699 155.128 22.3246 155.216 22.2612C155.305 22.1978 155.38 22.1175 155.437 22.025C155.494 21.9324 155.532 21.8295 155.549 21.7222C155.583 21.5049 155.53 21.283 155.402 21.1045C155.273 20.926 155.08 20.805 154.863 20.7678L151.45 20.1979C151.343 20.1801 151.233 20.1836 151.127 20.2083C151.021 20.2331 150.921 20.2785 150.833 20.3419C150.745 20.4054 150.67 20.4857 150.613 20.5782C150.556 20.6707 150.517 20.7736 150.5 20.8809L149.881 24.7194C149.847 24.9367 149.9 25.1585 150.029 25.337C150.157 25.5156 150.35 25.6365 150.567 25.6738C150.674 25.6919 150.784 25.6886 150.89 25.664C150.996 25.6395 151.096 25.5942 151.184 25.5308C151.273 25.4674 151.347 25.3871 151.405 25.2946C151.462 25.2021 151.5 25.0992 151.517 24.9918L152.003 21.9715ZM164.84 24.1076C164.947 24.1254 165.057 24.1218 165.163 24.0971C165.269 24.0724 165.368 24.027 165.457 23.9635C165.545 23.9 165.62 23.8197 165.677 23.7273C165.734 23.6348 165.773 23.5319 165.79 23.4245C165.824 23.2072 165.771 22.9854 165.642 22.8069C165.514 22.6283 165.32 22.5074 165.104 22.4702L158.276 21.3324C158.169 21.3143 158.06 21.3177 157.954 21.3422C157.848 21.3668 157.748 21.4121 157.66 21.4755C157.571 21.5389 157.497 21.6192 157.439 21.7117C157.382 21.8042 157.344 21.9071 157.327 22.0144C157.294 22.2316 157.346 22.4533 157.475 22.6318C157.603 22.8103 157.796 22.9313 158.012 22.9688L164.84 24.1076ZM175.08 25.8142C175.187 25.832 175.297 25.8284 175.403 25.8037C175.509 25.7789 175.609 25.7335 175.697 25.6701C175.786 25.6066 175.86 25.5263 175.918 25.4338C175.975 25.3413 176.013 25.2385 176.03 25.1311C176.064 24.9138 176.011 24.692 175.883 24.5135C175.754 24.3349 175.561 24.214 175.344 24.1767L168.517 23.039C168.41 23.0209 168.3 23.0242 168.194 23.0488C168.088 23.0733 167.988 23.1186 167.9 23.1821C167.812 23.2455 167.737 23.3258 167.68 23.4183C167.623 23.5108 167.585 23.6137 167.568 23.721C167.534 23.9383 167.586 24.1603 167.715 24.339C167.843 24.5178 168.036 24.6389 168.253 24.6764L175.08 25.8142Z" fill="#666666"/>
<path fill-rule="evenodd" clip-rule="evenodd" d="M176.435 120.634L176.881 120.709C176.988 120.726 177.098 120.723 177.204 120.698C177.31 120.674 177.41 120.629 177.498 120.565C177.586 120.502 177.661 120.422 177.718 120.329C177.776 120.237 177.814 120.134 177.831 120.027C177.865 119.809 177.812 119.587 177.684 119.408C177.556 119.229 177.362 119.108 177.145 119.071L176.381 118.944L176.435 120.634ZM215.93 30.9349C215.823 30.917 215.713 30.9204 215.607 30.945C215.501 30.9696 215.401 31.0149 215.313 31.0783C215.225 31.1416 215.15 31.2219 215.093 31.3143C215.035 31.4067 214.997 31.5096 214.98 31.6169C214.946 31.8344 214.999 32.0565 215.127 32.2352C215.256 32.414 215.449 32.5351 215.666 32.5723L218.224 32.9987L217.738 36.018C217.704 36.2353 217.757 36.4572 217.885 36.636C218.013 36.8147 218.207 36.9359 218.423 36.9734C218.531 36.9915 218.64 36.9882 218.746 36.9636C218.852 36.9391 218.952 36.8938 219.041 36.8304C219.129 36.767 219.204 36.6867 219.261 36.5942C219.318 36.5017 219.356 36.3988 219.374 36.2914L219.993 32.4529C220.027 32.2355 219.974 32.0134 219.845 31.8346C219.717 31.6558 219.523 31.5347 219.306 31.4975L215.93 30.9349ZM205.801 29.2461C205.693 29.2282 205.584 29.2317 205.478 29.2563C205.372 29.281 205.272 29.3264 205.184 29.3899C205.095 29.4534 205.021 29.5338 204.964 29.6263C204.907 29.7189 204.868 29.8218 204.851 29.9292C204.818 30.1463 204.871 30.368 204.999 30.5465C205.127 30.725 205.32 30.8461 205.537 30.8836L212.29 32.0098C212.397 32.0276 212.507 32.024 212.612 31.9993C212.718 31.9746 212.818 31.9292 212.907 31.8657C212.995 31.8022 213.07 31.7219 213.127 31.6294C213.184 31.5369 213.222 31.4341 213.24 31.3267C213.273 31.1094 213.22 30.8876 213.092 30.7091C212.964 30.5305 212.77 30.4096 212.554 30.3723L205.801 29.2461ZM195.671 27.5584C195.564 27.5405 195.454 27.5439 195.349 27.5685C195.243 27.5931 195.143 27.6384 195.055 27.7018C194.966 27.7652 194.892 27.8455 194.835 27.9379C194.777 28.0303 194.739 28.1332 194.722 28.2404C194.688 28.4579 194.741 28.68 194.869 28.8588C194.998 29.0375 195.191 29.1586 195.408 29.1959L202.16 30.321C202.267 30.339 202.377 30.3355 202.483 30.3109C202.589 30.2863 202.689 30.241 202.777 30.1777C202.865 30.1143 202.94 30.0341 202.997 29.9416C203.055 29.8492 203.093 29.7463 203.11 29.639C203.144 29.4215 203.091 29.1995 202.963 29.0207C202.835 28.8419 202.641 28.7208 202.424 28.6836L195.671 27.5584ZM185.543 25.8707C185.436 25.8525 185.326 25.8557 185.22 25.8802C185.114 25.9046 185.014 25.9499 184.925 26.0133C184.837 26.0768 184.762 26.1571 184.705 26.2497C184.648 26.3423 184.61 26.4453 184.593 26.5527C184.559 26.77 184.612 26.9918 184.74 27.1704C184.869 27.3489 185.062 27.4698 185.279 27.5071L192.029 28.6333C192.136 28.6514 192.246 28.648 192.352 28.6234C192.458 28.5988 192.558 28.5534 192.646 28.4899C192.735 28.4264 192.809 28.346 192.866 28.2534C192.924 28.1607 192.962 28.0577 192.979 27.9502C193.012 27.7329 192.959 27.5111 192.831 27.3326C192.703 27.1541 192.509 27.0331 192.293 26.9959L185.543 25.8707ZM175.413 24.182C175.306 24.164 175.196 24.1674 175.091 24.192C174.985 24.2166 174.885 24.2619 174.796 24.3253C174.708 24.3887 174.633 24.4689 174.576 24.5613C174.519 24.6538 174.48 24.7566 174.463 24.864C174.429 25.0814 174.482 25.3035 174.611 25.4823C174.739 25.661 174.932 25.7821 175.149 25.8194L181.902 26.9445C182.009 26.9626 182.119 26.9593 182.225 26.9347C182.331 26.9102 182.431 26.8649 182.519 26.8015C182.607 26.7381 182.682 26.6578 182.739 26.5653C182.796 26.4728 182.834 26.3699 182.851 26.2625C182.885 26.0452 182.833 25.8233 182.705 25.6445C182.576 25.4658 182.383 25.3446 182.166 25.3071L175.413 24.182ZM215.882 47.5344C215.848 47.7517 215.901 47.9736 216.03 48.1521C216.158 48.3306 216.351 48.4516 216.568 48.4888C216.675 48.5068 216.785 48.5033 216.891 48.4787C216.996 48.4541 217.096 48.4088 217.185 48.3454C217.273 48.282 217.348 48.2018 217.405 48.1093C217.462 48.0169 217.5 47.9141 217.517 47.8068L218.754 40.1299C218.788 39.9126 218.736 39.6906 218.607 39.5119C218.479 39.3331 218.286 39.2119 218.069 39.1744C217.962 39.1565 217.852 39.1599 217.746 39.1846C217.64 39.2093 217.54 39.2547 217.452 39.3181C217.364 39.3816 217.289 39.462 217.232 39.5545C217.174 39.6471 217.136 39.7501 217.119 39.8575L215.882 47.5344ZM214.025 59.0499C213.992 59.2672 214.045 59.489 214.173 59.6675C214.302 59.846 214.495 59.967 214.712 60.0042C214.819 60.0223 214.928 60.019 215.034 59.9945C215.14 59.9699 215.24 59.9246 215.328 59.8612C215.417 59.7978 215.492 59.7175 215.549 59.625C215.606 59.5325 215.644 59.4296 215.661 59.3222L216.899 51.6453C216.933 51.4278 216.88 51.2057 216.752 51.027C216.623 50.8482 216.43 50.7271 216.213 50.6899C216.106 50.6721 215.996 50.6756 215.89 50.7003C215.784 50.7251 215.684 50.7705 215.596 50.8339C215.508 50.8974 215.433 50.9777 215.375 51.0702C215.318 51.1627 215.28 51.2656 215.263 51.3729L214.025 59.0499ZM212.169 70.5653C212.135 70.7826 212.188 71.0044 212.317 71.1829C212.445 71.3615 212.639 71.4824 212.855 71.5197C212.962 71.5378 213.072 71.5344 213.178 71.5099C213.284 71.4853 213.384 71.44 213.472 71.3766C213.56 71.3132 213.635 71.2329 213.692 71.1404C213.749 71.0479 213.787 70.945 213.804 70.8377L215.043 63.1607C215.076 62.9434 215.023 62.7216 214.895 62.5431C214.767 62.3645 214.573 62.2436 214.357 62.2063C214.249 62.1882 214.14 62.1915 214.034 62.2161C213.928 62.2406 213.828 62.2859 213.739 62.3493C213.651 62.4127 213.576 62.493 213.519 62.5855C213.462 62.678 213.423 62.781 213.406 62.8883L212.169 70.5653ZM210.313 82.0807C210.279 82.2982 210.332 82.5203 210.46 82.699C210.588 82.8778 210.782 82.9989 210.999 83.0361C211.106 83.0541 211.216 83.0506 211.322 83.026C211.428 83.0013 211.528 82.9559 211.616 82.8924C211.704 82.8289 211.779 82.7486 211.837 82.656C211.894 82.5635 211.932 82.4605 211.949 82.3531L213.186 74.6761C213.22 74.4589 213.167 74.237 213.039 74.0585C212.91 73.88 212.717 73.759 212.5 73.7218C212.393 73.7037 212.283 73.707 212.177 73.7315C212.071 73.7561 211.971 73.8013 211.883 73.8648C211.795 73.9282 211.72 74.0084 211.663 74.101C211.605 74.1935 211.567 74.2964 211.55 74.4038L210.313 82.0807ZM208.456 93.5961C208.422 93.8136 208.475 94.0357 208.604 94.2145C208.732 94.3932 208.926 94.5143 209.143 94.5516C209.25 94.5695 209.359 94.5661 209.465 94.5415C209.571 94.5169 209.671 94.4716 209.759 94.4082C209.848 94.3448 209.923 94.2646 209.98 94.1722C210.037 94.0797 210.075 93.9769 210.093 93.8696L211.33 86.1916C211.364 85.9743 211.311 85.7525 211.182 85.5739C211.054 85.3954 210.86 85.2745 210.644 85.2372C210.537 85.2192 210.427 85.2227 210.321 85.2473C210.215 85.2719 210.115 85.3172 210.027 85.3806C209.939 85.444 209.864 85.5242 209.807 85.6167C209.75 85.7091 209.712 85.8119 209.695 85.9192L208.456 93.5961ZM206.6 105.113C206.566 105.33 206.619 105.552 206.748 105.73C206.876 105.909 207.069 106.03 207.286 106.067C207.393 106.085 207.503 106.082 207.609 106.057C207.715 106.032 207.815 105.987 207.903 105.924C207.991 105.86 208.066 105.78 208.123 105.688C208.181 105.595 208.219 105.492 208.236 105.385L209.474 97.7081C209.508 97.4906 209.455 97.2685 209.326 97.0897C209.198 96.911 209.004 96.7899 208.787 96.7526C208.68 96.7347 208.571 96.7381 208.465 96.7627C208.359 96.7873 208.259 96.8326 208.171 96.896C208.083 96.9594 208.008 97.0396 207.951 97.1321C207.894 97.2245 207.855 97.3273 207.838 97.4346L206.6 105.113ZM204.744 116.628C204.71 116.845 204.763 117.067 204.891 117.246C205.02 117.424 205.213 117.545 205.43 117.582C205.537 117.601 205.647 117.597 205.753 117.573C205.859 117.548 205.959 117.503 206.047 117.439C206.135 117.376 206.21 117.296 206.267 117.203C206.325 117.111 206.363 117.008 206.38 116.9L207.617 109.223C207.651 109.006 207.598 108.784 207.47 108.605C207.341 108.426 207.148 108.305 206.931 108.268C206.824 108.25 206.714 108.254 206.608 108.278C206.502 108.303 206.402 108.348 206.314 108.412C206.226 108.475 206.151 108.556 206.094 108.648C206.037 108.741 205.999 108.844 205.982 108.951L204.744 116.628ZM203.638 123.486L201.043 123.054C200.936 123.036 200.826 123.039 200.72 123.064C200.615 123.088 200.514 123.134 200.426 123.197C200.338 123.261 200.263 123.341 200.206 123.433C200.149 123.526 200.11 123.629 200.093 123.736C200.059 123.953 200.113 124.175 200.241 124.354C200.369 124.532 200.563 124.653 200.779 124.691L204.193 125.259C204.3 125.277 204.409 125.274 204.515 125.25C204.621 125.225 204.721 125.18 204.81 125.116C204.898 125.053 204.973 124.973 205.03 124.88C205.087 124.788 205.126 124.685 205.143 124.577L205.761 120.739C205.795 120.522 205.742 120.3 205.613 120.122C205.485 119.943 205.292 119.822 205.076 119.785C204.968 119.766 204.859 119.77 204.753 119.794C204.647 119.819 204.547 119.864 204.458 119.928C204.37 119.991 204.295 120.071 204.238 120.164C204.181 120.256 204.143 120.359 204.125 120.467L203.638 123.486ZM190.803 121.347C190.696 121.328 190.586 121.332 190.48 121.356C190.374 121.381 190.274 121.426 190.185 121.49C190.097 121.553 190.022 121.634 189.965 121.726C189.908 121.819 189.87 121.922 189.853 122.03C189.819 122.247 189.872 122.469 190 122.647C190.129 122.826 190.322 122.947 190.539 122.984L197.365 124.122C197.472 124.14 197.582 124.136 197.688 124.112C197.794 124.087 197.894 124.042 197.982 123.979C198.071 123.915 198.146 123.835 198.203 123.742C198.26 123.65 198.298 123.547 198.315 123.44C198.349 123.222 198.296 123 198.168 122.821C198.04 122.643 197.846 122.521 197.629 122.484L190.803 121.347ZM180.562 119.64C180.455 119.622 180.345 119.625 180.24 119.65C180.134 119.674 180.034 119.72 179.945 119.783C179.857 119.846 179.782 119.927 179.725 120.019C179.668 120.112 179.629 120.215 179.612 120.322C179.578 120.539 179.631 120.762 179.76 120.94C179.888 121.119 180.081 121.24 180.298 121.277L187.125 122.415C187.232 122.433 187.342 122.43 187.447 122.405C187.553 122.38 187.653 122.335 187.742 122.272C187.83 122.208 187.905 122.128 187.962 122.036C188.019 121.943 188.058 121.84 188.075 121.733C188.109 121.516 188.056 121.294 187.928 121.115C187.799 120.936 187.606 120.815 187.389 120.778L180.562 119.64Z" fill="#666666"/>
<g opacity="0.5">
<path opacity="0.5" d="M69.3429 89.2873C68.6588 89.2825 67.997 89.0427 67.4687 88.608C66.9403 88.1733 66.5775 87.5702 66.441 86.8998L63.6638 73.375L50.117 76.1543C49.7344 76.234 49.3397 76.2362 48.9562 76.1606C48.5727 76.085 48.2083 75.9333 47.8846 75.7143C47.3971 75.3897 47.0165 74.9283 46.7904 74.3881C46.5643 73.8478 46.5028 73.2528 46.6137 72.6778C46.7246 72.1027 47.003 71.5733 47.4138 71.1559C47.8246 70.7385 48.3495 70.4517 48.9227 70.3317L62.4685 67.5513L59.6881 54.0056C59.5413 53.238 59.7027 52.4435 60.1374 51.7941C60.5721 51.1447 61.2451 50.6926 62.0106 50.5357C62.7762 50.3789 63.5727 50.5298 64.2278 50.9559C64.8829 51.382 65.3438 52.0489 65.5107 52.8123L68.2911 66.358L81.819 63.5808C82.589 63.4203 83.3912 63.5709 84.0505 63.9999C84.3797 64.2125 84.6629 64.4888 84.8835 64.8127C85.1041 65.1366 85.2576 65.5014 85.3348 65.8856C85.4933 66.6601 85.3379 67.4659 84.9029 68.126C84.4678 68.7862 83.7886 69.2467 83.0144 69.4066L69.4886 72.1828L72.2627 85.7076C72.4211 86.4824 72.2656 87.2884 71.8303 87.9488C71.3951 88.6091 70.7157 89.0698 69.9411 89.2297C69.7443 89.2695 69.5438 89.2889 69.3429 89.2873ZM64.9838 71.373L68.1005 86.5635C68.1685 86.8976 68.3658 87.1913 68.6494 87.3806C68.7871 87.474 68.9422 87.5389 69.1054 87.5714C69.2685 87.604 69.4366 87.6036 69.5996 87.5702C69.9343 87.5006 70.2278 87.3013 70.4159 87.0158C70.604 86.7304 70.6713 86.382 70.6032 86.047L67.4855 70.8639L82.676 67.7472C83.0101 67.6778 83.303 67.4789 83.4907 67.194C83.6785 66.9091 83.7456 66.5614 83.6775 66.2271C83.6439 66.0641 83.5782 65.9095 83.4843 65.7721C83.3905 65.6347 83.2702 65.5173 83.1307 65.4267C82.8446 65.2399 82.496 65.1743 82.1616 65.2444L66.9711 68.3621L63.8513 53.1518C63.7802 52.8202 63.5804 52.5303 63.2958 52.3459C63.0112 52.1615 62.665 52.0975 62.3333 52.168C62.1697 52.2004 62.0142 52.2649 61.8758 52.3579C61.7374 52.4508 61.6189 52.5704 61.5272 52.7096C61.4354 52.8489 61.3723 53.0049 61.3415 53.1688C61.3106 53.3326 61.3127 53.501 61.3475 53.6641L64.4694 68.8702L49.2632 71.9911C48.9344 72.0592 48.6459 72.2549 48.4611 72.5353C48.2763 72.8158 48.2103 73.158 48.2774 73.4871C48.3456 73.822 48.5427 74.1167 48.8264 74.3074C48.9645 74.3999 49.1196 74.4641 49.2827 74.4963C49.4458 74.5285 49.6136 74.528 49.7766 74.4949L64.9838 71.373Z" fill="#666666"/>
</g>
<g opacity="0.5">
<path opacity="0.5" d="M178.214 93.3227C178.132 93.3229 178.05 93.3109 177.972 93.2871L172.647 91.6989C172.431 91.6344 172.25 91.4871 172.144 91.2892C172.037 91.0914 172.013 90.8593 172.078 90.644L173.486 85.9244C172.241 85.1838 171.115 84.2615 170.143 83.1881L165.798 85.5379C165.7 85.5911 165.593 85.6246 165.482 85.6362C165.371 85.6479 165.258 85.6376 165.151 85.6059C165.044 85.5742 164.945 85.5217 164.858 85.4514C164.771 85.3811 164.699 85.2945 164.646 85.1963L162.007 80.3113C161.954 80.2132 161.92 80.1056 161.909 79.9946C161.897 79.8836 161.907 79.7714 161.939 79.6643C161.971 79.5573 162.023 79.4576 162.093 79.3709C162.164 79.2842 162.25 79.2121 162.348 79.1589L166.735 76.7892C166.393 75.4013 166.255 73.9709 166.326 72.5432L161.517 71.109C161.301 71.0445 161.12 70.8972 161.014 70.6993C160.907 70.5015 160.883 70.2694 160.948 70.0541L162.534 64.7353C162.565 64.6284 162.618 64.5289 162.688 64.4424C162.758 64.3559 162.845 64.2841 162.943 64.2312C163.041 64.1783 163.149 64.1454 163.259 64.1343C163.37 64.1232 163.482 64.1341 163.589 64.1664L168.46 65.6184C169.189 64.4152 170.088 63.3244 171.131 62.3802L168.703 57.8891C168.597 57.6917 168.573 57.4599 168.637 57.2448C168.701 57.0297 168.847 56.8488 169.045 56.742L173.932 54.0967C174.131 53.99 174.363 53.9659 174.579 54.0297C174.686 54.0615 174.785 54.1141 174.872 54.1844C174.958 54.2547 175.03 54.3413 175.082 54.4393L177.53 58.9744C178.874 58.6355 180.26 58.4944 181.645 58.5554L183.129 53.5855C183.161 53.4785 183.213 53.3789 183.283 53.2923C183.353 53.2056 183.44 53.1337 183.538 53.0808C183.636 53.0278 183.743 52.9947 183.854 52.9836C183.965 52.9724 184.077 52.9833 184.184 53.0156L189.512 54.6059C189.726 54.6699 189.906 54.816 190.013 55.0123C190.12 55.2085 190.145 55.439 190.082 55.6535L188.599 60.6223C189.789 61.3343 190.872 62.2131 191.814 63.232L196.35 60.7795C196.548 60.6736 196.781 60.6499 196.996 60.7135C197.103 60.7452 197.203 60.7978 197.289 60.8681C197.376 60.9383 197.447 61.025 197.5 61.1231L200.136 66.0123C200.19 66.1104 200.223 66.218 200.235 66.3291C200.247 66.4401 200.237 66.5525 200.205 66.6595C200.173 66.7666 200.121 66.8664 200.05 66.9531C199.98 67.0398 199.893 67.1117 199.795 67.1647L195.302 69.5921C195.656 70.953 195.811 72.3583 195.761 73.7637L200.626 75.2146C200.842 75.2791 201.023 75.4265 201.129 75.6243C201.236 75.8221 201.26 76.0542 201.195 76.2696L199.609 81.5894C199.545 81.8047 199.397 81.9857 199.2 82.0926C199.002 82.1994 198.77 82.2234 198.554 82.1593L193.745 80.722C193.025 81.9591 192.124 83.0817 191.072 84.0523L193.449 88.4366C193.502 88.5348 193.536 88.6425 193.547 88.7535C193.559 88.8646 193.549 88.9768 193.517 89.0838C193.485 89.1908 193.432 89.2906 193.362 89.3772C193.292 89.4639 193.205 89.5359 193.107 89.589L188.222 92.2301C188.123 92.2833 188.016 92.3168 187.905 92.3284C187.794 92.3401 187.682 92.3298 187.575 92.2981C187.468 92.2663 187.368 92.2139 187.281 92.1436C187.194 92.0733 187.122 91.9867 187.069 91.8885L184.717 87.5388C183.319 87.9079 181.872 88.0637 180.427 88.0008L179.019 92.7151C178.954 92.9296 178.808 93.1101 178.612 93.218C178.489 93.2841 178.353 93.32 178.214 93.3227ZM173.945 90.3171L177.645 91.4202L179.007 86.8662C179.057 86.6755 179.174 86.5094 179.337 86.399C179.501 86.2885 179.698 86.2412 179.894 86.266C181.581 86.4162 183.281 86.2325 184.896 85.7254C185.084 85.6695 185.286 85.6794 185.467 85.7533C185.649 85.8271 185.8 85.9607 185.896 86.1319L188.168 90.3349L191.561 88.4995L189.269 84.2671C189.178 84.0958 189.148 83.8984 189.185 83.7078C189.221 83.5172 189.322 83.3449 189.47 83.2195C190.756 82.1401 191.817 80.8184 192.592 79.3297C192.682 79.1542 192.831 79.0159 193.012 78.9393C193.194 78.8627 193.397 78.8525 193.585 78.9106L198.237 80.2987L199.338 76.6027L194.642 75.2021C194.456 75.1463 194.295 75.0284 194.185 74.8681C194.076 74.7077 194.024 74.5146 194.04 74.321C194.177 72.671 193.993 71.01 193.499 69.4297C193.441 69.242 193.45 69.0401 193.524 68.8581C193.598 68.6761 193.732 68.5253 193.905 68.4313L198.251 66.0825L196.418 62.6841L192.029 65.0485C191.857 65.1402 191.66 65.1704 191.469 65.1339C191.279 65.0975 191.106 64.9967 190.981 64.8484C189.929 63.5936 188.646 62.552 187.201 61.78C187.029 61.688 186.894 61.5394 186.818 61.3591C186.743 61.1789 186.733 60.9782 186.788 60.791L188.22 55.9866L184.515 54.8814L183.081 59.6858C183.028 59.8743 182.91 60.038 182.747 60.1481C182.585 60.2581 182.389 60.3073 182.195 60.2871C180.563 60.1408 178.919 60.3094 177.351 60.7837C177.165 60.8398 176.964 60.8297 176.784 60.755C176.604 60.6804 176.455 60.5458 176.362 60.3741L173.999 55.9919L170.602 57.8304L172.951 62.176C173.044 62.3492 173.074 62.5492 173.036 62.742C172.998 62.9348 172.894 63.1083 172.742 63.233C171.461 64.2836 170.396 65.5726 169.606 67.0285C169.515 67.2004 169.367 67.335 169.187 67.4094C169.007 67.4837 168.807 67.4932 168.621 67.4361L163.918 66.0343L162.817 69.7293L167.468 71.1163C167.657 71.1726 167.82 71.2926 167.929 71.4558C168.039 71.6191 168.088 71.8154 168.068 72.011C167.904 73.6814 168.066 75.3677 168.543 76.9767C168.598 77.1631 168.588 77.3629 168.514 77.5425C168.439 77.7221 168.305 77.8708 168.134 77.9636L163.903 80.2495L165.736 83.6448L169.935 81.3746C170.109 81.2825 170.309 81.2531 170.501 81.2913C170.694 81.3294 170.867 81.4329 170.992 81.5842C172.07 82.8924 173.393 83.9762 174.888 84.7742C175.061 84.8667 175.196 85.0158 175.271 85.1963C175.346 85.3768 175.357 85.5777 175.301 85.7652L173.945 90.3171Z" fill="#666666"/>
</g>
<path d="M2.40953 121.048C2.87537 121.053 3.33217 120.919 3.72191 120.664C4.11165 120.409 4.41674 120.044 4.59842 119.615C4.7801 119.186 4.83018 118.712 4.74229 118.255C4.65439 117.797 4.4325 117.376 4.10479 117.045C3.77708 116.714 3.35835 116.488 2.90179 116.395C2.44523 116.303 1.97144 116.348 1.54062 116.525C1.1098 116.702 0.741388 117.004 0.482185 117.391C0.222982 117.778 0.0846865 118.233 0.0848675 118.699C0.0818031 119.319 0.32497 119.914 0.760901 120.355C1.19683 120.795 1.78984 121.045 2.40953 121.048Z" fill="#9BAFBA"/>
<g opacity="0.5">
<path opacity="0.5" d="M181.076 82.46C178.658 82.4333 176.349 81.454 174.649 79.7347C172.949 78.0154 171.996 75.6949 171.997 73.2771C171.997 70.8593 172.952 68.5395 174.653 66.8213C176.354 65.1031 178.664 64.1254 181.082 64.1004C183.5 64.1277 185.809 65.1077 187.508 66.8275C189.208 68.5473 190.16 70.8681 190.159 73.2859C190.157 75.7037 189.202 78.0233 187.5 79.741C185.799 81.4586 183.488 82.4357 181.07 82.46H181.076ZM181.082 65.7955C179.602 65.7963 178.155 66.2361 176.924 67.0594C175.694 67.8826 174.735 69.0522 174.169 70.4204C173.603 71.7885 173.456 73.2937 173.746 74.7455C174.035 76.1974 174.749 77.5307 175.797 78.5769C176.844 79.6231 178.178 80.3352 179.631 80.6231C181.083 80.911 182.588 80.7617 183.955 80.1943C185.323 79.6268 186.491 78.6666 187.313 77.435C188.134 76.2035 188.572 74.756 188.571 73.2755C188.568 71.2914 187.778 69.3895 186.375 67.9867C184.972 66.5838 183.07 65.7943 181.086 65.7913L181.082 65.7955Z" fill="#666666"/>
</g>
<path d="M72.8441 103.806L73.0316 1.90958L74.0918 0.833679H145.136L145.905 1.16996L176.943 34.4727L177.234 35.2134L177.308 135.537L176.248 136.617H74.0918L73.0316 135.539V97.4315L72.8441 103.806Z" fill="white"/>
<path d="M177.603 136.578H75.4453L74.3809 135.5V97.3927C74.3809 97.1116 74.4926 96.8419 74.6915 96.6431C74.8903 96.4442 75.1599 96.3325 75.4411 96.3325C75.7223 96.3325 75.992 96.4442 76.1908 96.6431C76.3896 96.8419 76.5013 97.1116 76.5013 97.3927V134.422H176.537L176.465 35.6073L146.038 2.95302H76.5034L76.318 103.773C76.3199 104.056 76.2094 104.328 76.0106 104.53C75.8118 104.732 75.541 104.846 75.2578 104.849C74.9743 104.845 74.7037 104.73 74.5055 104.527C74.3073 104.324 74.1977 104.051 74.2007 103.767L74.3809 1.87083L75.4411 0.794922H146.485L147.254 1.13121L178.294 34.434L178.586 35.1746L178.66 135.498L177.603 136.578Z" fill="#666666"/>
<path d="M176.592 36.7304H146.118C145.834 36.7279 145.563 36.6129 145.364 36.4108C145.165 36.2087 145.054 35.936 145.056 35.6524V2.75711C145.052 2.61501 145.076 2.47347 145.127 2.34087C145.179 2.20828 145.256 2.08734 145.355 1.98525C145.454 1.88315 145.572 1.80198 145.703 1.74654C145.834 1.6911 145.975 1.66254 146.117 1.66254C146.259 1.66254 146.4 1.6911 146.531 1.74654C146.662 1.80198 146.78 1.88315 146.879 1.98525C146.978 2.08734 147.056 2.20828 147.107 2.34087C147.158 2.47347 147.182 2.61501 147.178 2.75711V34.5744H176.592C176.878 34.5744 177.152 34.6879 177.354 34.8901C177.556 35.0923 177.67 35.3664 177.67 35.6524C177.67 35.9383 177.556 36.2124 177.354 36.4146C177.152 36.6168 176.878 36.7304 176.592 36.7304Z" fill="#666666"/>
<path fill-rule="evenodd" clip-rule="evenodd" d="M75.4171 125.631L74.4847 125.817C74.22 125.87 73.9871 126.026 73.8366 126.25C73.6861 126.474 73.6303 126.749 73.6812 127.014C73.7065 127.145 73.7574 127.27 73.8311 127.381C73.9048 127.492 73.9997 127.587 74.1104 127.662C74.2211 127.736 74.3454 127.788 74.4762 127.814C74.607 127.84 74.7416 127.84 74.8723 127.814L75.4171 127.709V125.631ZM19.4229 20.1266C19.1581 20.1798 18.925 20.3355 18.7745 20.5598C18.6239 20.7841 18.5682 21.0588 18.6194 21.3241L19.5266 26.0038C19.5517 26.1347 19.6024 26.2594 19.676 26.3706C19.7495 26.4818 19.8443 26.5773 19.955 26.6516C20.0656 26.7259 20.1899 26.7776 20.3207 26.8036C20.4514 26.8296 20.586 26.8294 20.7167 26.8031C20.9815 26.7502 21.2145 26.5947 21.3651 26.3706C21.5156 26.1464 21.5714 25.8718 21.5202 25.6067L20.8068 21.9244L23.9256 21.3021C24.1905 21.2494 24.4237 21.094 24.5743 20.8698C24.7249 20.6455 24.7805 20.3708 24.7291 20.1057C24.7039 19.9748 24.6531 19.8502 24.5795 19.7391C24.5059 19.628 24.4111 19.5325 24.3005 19.4582C24.1898 19.3839 24.0656 19.3322 23.9349 19.3062C23.8042 19.2801 23.6697 19.2802 23.539 19.3064L19.4229 20.1266ZM27.6572 18.4819C27.3924 18.5348 27.1593 18.6903 27.0088 18.9144C26.8583 19.1386 26.8025 19.4132 26.8537 19.6783C26.8788 19.8091 26.9297 19.9337 27.0033 20.0448C27.0768 20.156 27.1716 20.2514 27.2823 20.3257C27.3929 20.4 27.5171 20.4517 27.6478 20.4778C27.7785 20.5038 27.9131 20.5038 28.0438 20.4776L36.277 18.837C36.5417 18.7836 36.7746 18.6278 36.9251 18.4036C37.0755 18.1794 37.1314 17.9048 37.0805 17.6396C37.0552 17.5087 37.0042 17.3841 36.9306 17.2729C36.8569 17.1618 36.762 17.0664 36.6513 16.9921C36.5406 16.9178 36.4162 16.8661 36.2855 16.8401C36.1547 16.814 36.0201 16.8141 35.8894 16.8403L27.6572 18.4819ZM40.0065 16.02C39.7417 16.0729 39.5085 16.2284 39.3578 16.4525C39.2071 16.6766 39.1511 16.9511 39.2019 17.2164C39.2271 17.3473 39.278 17.472 39.3516 17.5832C39.4253 17.6944 39.5202 17.7899 39.6309 17.8643C39.7417 17.9386 39.866 17.9902 39.9969 18.0162C40.1277 18.0422 40.2623 18.042 40.3931 18.0157L48.6253 16.3751C48.8901 16.3219 49.1232 16.1662 49.2737 15.9419C49.4242 15.7176 49.48 15.4429 49.4288 15.1777C49.4035 15.0469 49.3526 14.9224 49.279 14.8113C49.2054 14.7003 49.1105 14.6049 48.9999 14.5306C48.8893 14.4563 48.7652 14.4046 48.6345 14.3785C48.5039 14.3524 48.3694 14.3523 48.2387 14.3784L40.0065 16.02ZM52.3548 13.5581C52.09 13.6112 51.8569 13.7669 51.7064 13.9913C51.5558 14.2156 51.5001 14.4903 51.5513 14.7555C51.5765 14.8864 51.6273 15.0109 51.7009 15.1221C51.7744 15.2332 51.8693 15.3287 51.9799 15.403C52.0905 15.4773 52.2148 15.5289 52.3454 15.555C52.4761 15.5811 52.6107 15.581 52.7414 15.5548L60.9715 13.9132C61.2361 13.86 61.469 13.7045 61.6195 13.4804C61.77 13.2563 61.8259 12.9819 61.775 12.7168C61.7498 12.5859 61.6989 12.4612 61.6253 12.35C61.5517 12.2388 61.4567 12.1433 61.346 12.0689C61.2352 11.9946 61.1109 11.943 60.9801 11.917C60.8493 11.891 60.7146 11.8912 60.5838 11.9175L52.3548 13.5581ZM64.7041 11.0962C64.4392 11.1493 64.2061 11.305 64.0554 11.5293C63.9047 11.7535 63.8487 12.0282 63.8996 12.2936C63.9249 12.4245 63.9758 12.5491 64.0495 12.6602C64.1232 12.7714 64.2181 12.8668 64.3288 12.9411C64.4395 13.0154 64.5638 13.0671 64.6946 13.0931C64.8253 13.1192 64.96 13.1191 65.0907 13.0929L73.3229 11.4524C73.5877 11.3992 73.8208 11.2435 73.9713 11.0192C74.1219 10.7949 74.1776 10.5202 74.1264 10.2549C74.1012 10.1241 74.0504 9.99948 73.9768 9.88835C73.9033 9.77723 73.8084 9.68177 73.6978 9.60746C73.5872 9.53316 73.4629 9.48148 73.3322 9.45542C73.2015 9.42935 73.067 9.42941 72.9363 9.45559L64.7041 11.0962ZM22.4275 30.2885C22.4024 30.1576 22.3516 30.033 22.2781 29.9218C22.2046 29.8106 22.1098 29.715 21.9991 29.6407C21.8884 29.5664 21.7641 29.5147 21.6334 29.4887C21.5027 29.4627 21.3681 29.4629 21.2374 29.4892C20.9724 29.5419 20.7391 29.6973 20.5883 29.9215C20.4376 30.1456 20.3817 30.4203 20.4328 30.6856L22.2473 40.0461C22.2725 40.1771 22.3233 40.3018 22.397 40.413C22.4706 40.5243 22.5655 40.6199 22.6762 40.6943C22.7869 40.7687 22.9113 40.8204 23.0421 40.8465C23.1729 40.8727 23.3076 40.8726 23.4384 40.8465C23.7031 40.793 23.936 40.6373 24.0865 40.413C24.237 40.1888 24.2928 39.9142 24.2419 39.649L22.4275 30.2885ZM25.1513 44.3266C25.126 44.1957 25.075 44.0711 25.0014 43.9599C24.9277 43.8487 24.8328 43.7532 24.7221 43.6788C24.6114 43.6044 24.4871 43.5527 24.3563 43.5265C24.2256 43.5003 24.0909 43.5002 23.9601 43.5263C23.6954 43.5797 23.4625 43.7354 23.312 43.9597C23.1616 44.1839 23.1057 44.4585 23.1566 44.7237L24.9711 54.0842C24.9961 54.2151 25.0469 54.3398 25.1204 54.451C25.194 54.5621 25.2888 54.6577 25.3995 54.732C25.5101 54.8063 25.6344 54.858 25.7652 54.884C25.8959 54.91 26.0305 54.9098 26.1612 54.8835C26.4259 54.8306 26.659 54.6751 26.8096 54.4509C26.9601 54.2268 27.0159 53.9522 26.9647 53.6871L25.1513 44.3266ZM27.8751 58.3647C27.85 58.2338 27.7993 58.1091 27.7257 57.9979C27.6522 57.8867 27.5574 57.7912 27.4467 57.7169C27.3361 57.6426 27.2118 57.5909 27.081 57.5649C26.9503 57.5389 26.8157 57.5391 26.685 57.5654C26.419 57.6171 26.1845 57.7723 26.0329 57.9968C25.8812 58.2213 25.8249 58.4968 25.8762 58.7628L27.6897 68.1244C27.715 68.2553 27.7659 68.3799 27.8396 68.491C27.9133 68.6021 28.0082 68.6976 28.1189 68.7719C28.2296 68.8462 28.3539 68.8978 28.4847 68.9239C28.6154 68.9499 28.7501 68.9499 28.8808 68.9237C29.1456 68.8705 29.3787 68.7148 29.5292 68.4905C29.6798 68.2662 29.7355 67.9915 29.6843 67.7263L27.8751 58.3647ZM30.5989 72.4028C30.5737 72.272 30.5229 72.1474 30.4493 72.0363C30.3757 71.9251 30.2809 71.8297 30.1703 71.7554C30.0597 71.6811 29.9354 71.6294 29.8047 71.6033C29.674 71.5773 29.5395 71.5773 29.4088 71.6035C29.144 71.6564 28.9108 71.8119 28.7601 72.036C28.6094 72.2601 28.5534 72.5347 28.6042 72.7999L30.4187 82.1614C30.444 82.2923 30.495 82.4169 30.5686 82.5281C30.6423 82.6392 30.7372 82.7346 30.8479 82.8089C30.9587 82.8832 31.083 82.9349 31.2137 82.9609C31.3445 82.987 31.4791 82.9869 31.6098 82.9607C31.8746 82.9073 32.1075 82.7516 32.2579 82.5273C32.4084 82.3031 32.4643 82.0285 32.4134 81.7633L30.5989 72.4028ZM33.3227 86.4409C33.2976 86.31 33.2469 86.1853 33.1734 86.0741C33.0998 85.963 33.005 85.8674 32.8943 85.7931C32.7837 85.7188 32.6594 85.6671 32.5286 85.6411C32.3979 85.6151 32.2633 85.6153 32.1326 85.6416C31.8679 85.6945 31.6348 85.85 31.4842 86.0742C31.3337 86.2983 31.2779 86.5729 31.3291 86.838L33.1436 96.1995C33.1688 96.3304 33.2196 96.455 33.2932 96.5661C33.3667 96.6772 33.4615 96.7727 33.5722 96.847C33.6828 96.9213 33.807 96.9729 33.9377 96.999C34.0684 97.0251 34.203 97.025 34.3337 96.9988C34.5985 96.9457 34.8316 96.79 34.9821 96.5657C35.1326 96.3413 35.1884 96.0666 35.1372 95.8014L33.3227 86.4409ZM36.0465 100.479C36.0213 100.348 35.9705 100.224 35.8969 100.112C35.8234 100.001 35.7285 99.9059 35.6179 99.8316C35.5073 99.7573 35.383 99.7056 35.2523 99.6795C35.1216 99.6535 34.9871 99.6535 34.8564 99.6797C34.5914 99.7326 34.358 99.8882 34.2073 100.113C34.0566 100.337 34.0007 100.612 34.0518 100.877L35.8663 110.238C35.8916 110.368 35.9426 110.493 36.0163 110.604C36.0899 110.715 36.1848 110.811 36.2956 110.885C36.4063 110.959 36.5306 111.011 36.6613 111.037C36.7921 111.063 36.9267 111.063 37.0575 111.037C37.3222 110.984 37.5553 110.829 37.7058 110.604C37.8564 110.38 37.9121 110.106 37.861 109.841L36.0465 100.479ZM38.7703 114.517C38.745 114.386 38.6941 114.262 38.6204 114.15C38.5467 114.039 38.4518 113.944 38.3411 113.87C38.2304 113.795 38.1061 113.744 37.9753 113.718C37.8445 113.692 37.7099 113.692 37.5792 113.718C37.3145 113.771 37.0816 113.927 36.9311 114.151C36.7806 114.375 36.7248 114.65 36.7757 114.915L38.5901 124.276C38.6154 124.407 38.6664 124.531 38.7401 124.642C38.8137 124.753 38.9087 124.849 39.0194 124.923C39.1301 124.998 39.2544 125.049 39.3852 125.075C39.5159 125.101 39.6505 125.101 39.7813 125.075C40.0458 125.022 40.2785 124.866 40.4289 124.642C40.5794 124.418 40.6354 124.144 40.5848 123.879L38.7703 114.517ZM41.4941 128.555C41.4689 128.424 41.4181 128.3 41.3445 128.189C41.271 128.078 41.1761 127.982 41.0655 127.908C40.9549 127.833 40.8306 127.782 40.7 127.756C40.5693 127.73 40.4347 127.73 40.304 127.756C40.0392 127.809 39.8061 127.965 39.6556 128.189C39.5051 128.413 39.4493 128.688 39.5005 128.953L40.4077 133.634C40.4331 133.765 40.484 133.889 40.5576 134C40.6312 134.111 40.726 134.207 40.8366 134.281C40.9472 134.355 41.0714 134.407 41.202 134.433C41.3327 134.459 41.4672 134.459 41.5978 134.433L45.759 133.604C46.0239 133.551 46.2571 133.395 46.4077 133.171C46.5584 132.946 46.6144 132.672 46.5636 132.406C46.5382 132.275 46.4873 132.151 46.4136 132.04C46.34 131.928 46.245 131.833 46.1343 131.759C46.0236 131.684 45.8993 131.633 45.7685 131.607C45.6378 131.581 45.5031 131.581 45.3724 131.607L42.2086 132.235L41.4941 128.555ZM49.5336 130.777C49.2689 130.831 49.0359 130.986 48.8855 131.211C48.735 131.435 48.6791 131.709 48.73 131.975C48.7553 132.106 48.8063 132.23 48.88 132.341C48.9536 132.452 49.0486 132.548 49.1593 132.622C49.27 132.696 49.3943 132.748 49.5251 132.774C49.6558 132.8 49.7904 132.8 49.9212 132.774L58.2435 131.115C58.5084 131.062 58.7418 130.906 58.8925 130.682C59.0433 130.458 59.0992 130.183 59.048 129.918C59.0227 129.787 58.9718 129.663 58.8981 129.552C58.8244 129.44 58.7295 129.345 58.6188 129.271C58.5081 129.196 58.3838 129.145 58.253 129.119C58.1222 129.093 57.9876 129.093 57.8569 129.119L49.5336 130.777ZM62.018 128.289C61.7534 128.342 61.5205 128.498 61.37 128.722C61.2195 128.946 61.1636 129.22 61.2145 129.485C61.2397 129.616 61.2906 129.741 61.3642 129.852C61.4378 129.964 61.5328 130.059 61.6435 130.133C61.7542 130.208 61.8786 130.259 62.0094 130.285C62.1402 130.311 62.2749 130.311 62.4057 130.285L70.7279 128.626C70.9928 128.573 71.226 128.418 71.3767 128.193C71.5274 127.969 71.5834 127.694 71.5325 127.429C71.5072 127.298 71.4562 127.174 71.3826 127.062C71.3089 126.951 71.214 126.856 71.1033 126.782C70.9926 126.707 70.8682 126.656 70.7375 126.629C70.6067 126.603 70.4721 126.604 70.3414 126.63L62.018 128.289Z" fill="#666666"/>
<path d="M140.507 45.7744C140.76 45.7744 152.224 57.0374 152.224 57.4407C152.224 57.8441 147.646 62.4693 147.196 62.4693C146.745 62.4693 143.446 58.7199 143.446 58.7199C145.987 74.3703 136.143 80.1269 127.427 85.2246C118.567 90.3967 111.572 94.494 114.112 107.573C114.256 108.317 114.1 109.087 113.678 109.715C113.255 110.344 112.601 110.779 111.858 110.926C111.676 110.958 111.491 110.975 111.305 110.977C110.644 110.974 110.004 110.741 109.494 110.319C108.984 109.897 108.636 109.311 108.509 108.662C105.201 91.6193 115.484 85.607 124.549 80.3008C133.184 75.2408 140.067 71.2263 137.659 58.7303C137.659 58.7303 133.809 62.8276 133.563 62.8276C133.317 62.8276 128.582 57.7487 128.585 57.799C128.588 57.8493 140.254 45.7744 140.507 45.7744Z" fill="#D7E2E5"/>
<path d="M116.73 65.0695C116.539 65.262 116.431 65.5225 116.431 65.7939C116.431 66.0654 116.539 66.3258 116.73 66.5183L121.58 71.3688C121.772 71.5612 121.879 71.8214 121.879 72.0927C121.879 72.364 121.772 72.6243 121.58 72.8166L117.928 76.4697C117.736 76.661 117.475 76.7684 117.204 76.7684C116.933 76.7684 116.672 76.661 116.48 76.4697L111.629 71.6192C111.437 71.4274 111.177 71.3197 110.905 71.3197C110.634 71.3197 110.373 71.4274 110.181 71.6192L105.33 76.4697C105.137 76.661 104.877 76.7683 104.606 76.7683C104.335 76.7683 104.074 76.661 103.882 76.4697L100.23 72.8166C100.038 72.6245 99.9304 72.3642 99.9304 72.0927C99.9304 71.8213 100.038 71.5609 100.23 71.3688L105.08 66.5183C105.272 66.3258 105.379 66.0654 105.379 65.7939C105.379 65.5225 105.272 65.262 105.08 65.0695L100.23 60.219C100.038 60.0266 99.9308 59.7661 99.9308 59.4946C99.9308 59.223 100.038 58.9626 100.23 58.7702L103.882 55.1171C104.074 54.9258 104.335 54.8184 104.606 54.8184C104.877 54.8184 105.137 54.9258 105.33 55.1171L110.181 59.9676C110.374 60.1589 110.634 60.2662 110.905 60.2662C111.176 60.2662 111.437 60.1589 111.629 59.9676L116.48 55.1171C116.672 54.9258 116.933 54.8184 117.204 54.8184C117.475 54.8184 117.736 54.9258 117.928 55.1171L121.58 58.7691C121.772 58.9616 121.879 59.2221 121.879 59.4935C121.879 59.765 121.772 60.0254 121.58 60.218L116.73 65.0695Z" fill="#D7E2E5"/>
<path d="M115.179 75.2314C114.978 75.2319 114.778 75.1925 114.591 75.1153C114.405 75.0382 114.236 74.9249 114.093 74.782L109.242 69.9305C109.145 69.8351 109.015 69.7816 108.88 69.7816C108.744 69.7816 108.614 69.8351 108.518 69.9305L103.667 74.782C103.374 75.0604 102.985 75.2156 102.581 75.2156C102.177 75.2156 101.788 75.0604 101.494 74.782L97.8477 71.1321C97.5605 70.8436 97.3993 70.4532 97.3993 70.0462C97.3993 69.6392 97.5605 69.2488 97.8477 68.9604L102.698 64.1099C102.793 64.0132 102.846 63.8832 102.846 63.7479C102.846 63.6126 102.793 63.4827 102.698 63.386L97.8477 58.5344C97.5604 58.2458 97.3992 57.8552 97.3992 57.4481C97.3992 57.0409 97.5604 56.6503 97.8477 56.3617L101.5 52.7097C101.793 52.4313 102.182 52.2761 102.586 52.2761C102.99 52.2761 103.379 52.4313 103.672 52.7097L108.523 57.5602C108.57 57.6078 108.627 57.6455 108.689 57.6713C108.751 57.6971 108.818 57.7104 108.885 57.7104C108.952 57.7104 109.019 57.6971 109.081 57.6713C109.143 57.6455 109.199 57.6078 109.247 57.5602L114.098 52.7097C114.391 52.4302 114.78 52.2742 115.184 52.2742C115.589 52.2742 115.978 52.4302 116.27 52.7097L119.922 56.3617C120.21 56.65 120.371 57.0407 120.371 57.4481C120.371 57.8554 120.21 58.2461 119.922 58.5344L115.073 63.386C115.025 63.4335 114.987 63.4899 114.961 63.552C114.936 63.6141 114.922 63.6807 114.922 63.7479C114.922 63.8152 114.936 63.8818 114.961 63.9439C114.987 64.006 115.025 64.0624 115.073 64.1099L119.922 68.9604C120.21 69.2485 120.371 69.639 120.371 70.0462C120.371 70.4534 120.21 70.8439 119.922 71.1321L116.27 74.7851C116.127 74.928 115.957 75.041 115.769 75.1176C115.582 75.1942 115.382 75.2329 115.179 75.2314ZM108.88 68.7582C109.082 68.7577 109.281 68.7971 109.468 68.874C109.654 68.951 109.823 69.064 109.965 69.2065L114.817 74.0581C114.914 74.1512 115.044 74.2032 115.179 74.2032C115.314 74.2032 115.443 74.1512 115.541 74.0581L119.193 70.405C119.288 70.3087 119.342 70.1786 119.342 70.0431C119.342 69.9075 119.288 69.7774 119.193 69.6811L114.342 64.8306C114.055 64.542 113.894 64.1514 113.894 63.7443C113.894 63.3371 114.055 62.9465 114.342 62.6579L119.193 57.8074C119.288 57.7108 119.341 57.5806 119.341 57.4449C119.341 57.3093 119.288 57.1791 119.193 57.0824L115.541 53.4304C115.493 53.3828 115.437 53.3451 115.375 53.3193C115.313 53.2935 115.246 53.2803 115.179 53.2803C115.112 53.2803 115.045 53.2935 114.983 53.3193C114.921 53.3451 114.864 53.3828 114.817 53.4304L109.965 58.2809C109.677 58.5684 109.287 58.7298 108.88 58.7298C108.473 58.7298 108.082 58.5684 107.794 58.2809L102.943 53.4304C102.847 53.3346 102.717 53.2807 102.581 53.2807C102.446 53.2807 102.315 53.3346 102.219 53.4304L98.5663 57.0824C98.5187 57.13 98.4809 57.1865 98.4551 57.2487C98.4293 57.3109 98.4161 57.3776 98.4161 57.4449C98.4161 57.5123 98.4293 57.5789 98.4551 57.6411C98.4809 57.7033 98.5187 57.7598 98.5663 57.8074L103.417 62.6579C103.705 62.9462 103.866 63.3369 103.866 63.7443C103.866 64.1516 103.705 64.5423 103.417 64.8306L98.5663 69.6811C98.5187 69.7286 98.481 69.785 98.4552 69.8471C98.4294 69.9092 98.4161 69.9758 98.4161 70.0431C98.4161 70.1103 98.4294 70.1769 98.4552 70.239C98.481 70.3011 98.5187 70.3575 98.5663 70.405L102.219 74.0581C102.317 74.1512 102.447 74.2032 102.581 74.2032C102.716 74.2032 102.846 74.1512 102.943 74.0581L107.794 69.2065C107.937 69.0646 108.106 68.9522 108.293 68.8759C108.479 68.7995 108.679 68.7605 108.88 68.7613V68.7582Z" fill="#8C8C8C"/>
<path d="M115.179 75.4587C114.948 75.4596 114.719 75.4148 114.505 75.3271C114.291 75.2394 114.097 75.1104 113.933 74.9475L109.082 70.0939C109.028 70.0404 108.955 70.0104 108.879 70.0104C108.803 70.0104 108.73 70.0404 108.676 70.0939L103.827 74.9433C103.492 75.2639 103.046 75.4429 102.581 75.4429C102.117 75.4429 101.671 75.2639 101.335 74.9433L97.6821 71.2913C97.3526 70.9603 97.1676 70.5122 97.1676 70.0452C97.1676 69.5781 97.3526 69.13 97.6821 68.799L102.534 63.9485C102.56 63.9222 102.581 63.8908 102.595 63.8562C102.608 63.8216 102.615 63.7846 102.614 63.7474C102.615 63.7099 102.608 63.6726 102.594 63.6377C102.58 63.6028 102.56 63.571 102.534 63.5442L97.6821 58.6926C97.3526 58.3616 97.1676 57.9136 97.1676 57.4465C97.1676 56.9794 97.3526 56.5314 97.6821 56.2003L101.335 52.5483C101.671 52.2287 102.117 52.0504 102.581 52.0504C103.045 52.0504 103.491 52.2287 103.827 52.5483L108.677 57.3988C108.731 57.4526 108.804 57.4827 108.88 57.4827C108.956 57.4827 109.029 57.4526 109.083 57.3988L113.933 52.5483C114.269 52.2283 114.715 52.0497 115.178 52.0497C115.642 52.0497 116.088 52.2283 116.424 52.5483L120.076 56.2003C120.24 56.364 120.37 56.5582 120.458 56.7721C120.547 56.9859 120.592 57.215 120.592 57.4465C120.592 57.6779 120.547 57.9071 120.458 58.1209C120.37 58.3347 120.24 58.529 120.076 58.6926L115.226 63.5442C115.172 63.5984 115.142 63.6713 115.142 63.7474C115.142 63.8228 115.172 63.895 115.226 63.9485L120.076 68.799C120.24 68.9626 120.37 69.1569 120.458 69.3707C120.547 69.5845 120.592 69.8137 120.592 70.0452C120.592 70.2766 120.547 70.5058 120.458 70.7196C120.37 70.9334 120.24 71.1277 120.076 71.2913L116.424 74.9433C116.261 75.1077 116.067 75.238 115.854 75.3265C115.64 75.415 115.411 75.46 115.179 75.4587ZM108.881 69.5596C108.978 69.5582 109.074 69.576 109.164 69.612C109.254 69.6479 109.336 69.7013 109.405 69.7691L114.254 74.6217C114.506 74.8578 114.838 74.9893 115.183 74.9893C115.528 74.9893 115.859 74.8578 116.111 74.6217L119.762 70.9665C119.884 70.8451 119.98 70.7007 120.046 70.5418C120.112 70.3829 120.146 70.2125 120.146 70.0404C120.146 69.8684 120.112 69.698 120.046 69.5391C119.98 69.3801 119.884 69.2358 119.762 69.1143L114.912 64.2649C114.843 64.1967 114.788 64.1152 114.75 64.0252C114.713 63.9352 114.694 63.8386 114.694 63.7411C114.694 63.6437 114.713 63.5472 114.751 63.4573C114.788 63.3673 114.843 63.2858 114.912 63.2173L119.762 58.3668C119.884 58.2454 119.98 58.101 120.046 57.9421C120.112 57.7832 120.146 57.6128 120.146 57.4407C120.146 57.2686 120.112 57.0983 120.046 56.9394C119.98 56.7804 119.884 56.6361 119.762 56.5146L116.111 52.8616C115.861 52.6228 115.528 52.4896 115.183 52.4896C114.837 52.4896 114.504 52.6228 114.254 52.8616L109.406 57.7131C109.337 57.7822 109.256 57.837 109.166 57.8744C109.076 57.9117 108.98 57.931 108.882 57.931C108.785 57.931 108.688 57.9117 108.599 57.8744C108.509 57.837 108.427 57.7822 108.358 57.7131L103.505 52.8689C103.255 52.6307 102.924 52.4978 102.579 52.4978C102.234 52.4978 101.902 52.6307 101.653 52.8689L97.9996 56.522C97.7552 56.7682 97.618 57.1011 97.618 57.4481C97.618 57.795 97.7552 58.1279 97.9996 58.3742L102.851 63.2246C102.989 63.3642 103.066 63.5524 103.066 63.7484C103.066 63.9445 102.989 64.1327 102.851 64.2723L97.9996 69.1217C97.7552 69.3679 97.618 69.7008 97.618 70.0478C97.618 70.3947 97.7552 70.7276 97.9996 70.9739L101.653 74.629C101.903 74.8651 102.234 74.9966 102.579 74.9966C102.923 74.9966 103.254 74.8651 103.505 74.629L108.355 69.7764C108.495 69.6376 108.684 69.5597 108.881 69.5596ZM102.581 74.431C102.385 74.433 102.197 74.3577 102.057 74.2215L98.4039 70.5684C98.3343 70.5002 98.2789 70.4187 98.2411 70.3287C98.2033 70.2388 98.1838 70.1422 98.1838 70.0446C98.1838 69.9471 98.2033 69.8505 98.2411 69.7605C98.2789 69.6706 98.3343 69.5891 98.4039 69.5208L103.254 64.6693C103.5 64.4236 103.638 64.0905 103.638 63.7432C103.638 63.3959 103.5 63.0628 103.254 62.8171L98.4039 57.9666C98.3351 57.8978 98.2806 57.8162 98.2433 57.7263C98.2061 57.6364 98.1869 57.5401 98.1869 57.4428C98.1869 57.3455 98.2061 57.2492 98.2433 57.1593C98.2806 57.0695 98.3351 56.9878 98.4039 56.919L102.057 53.267C102.126 53.1981 102.207 53.1434 102.297 53.1061C102.387 53.0688 102.483 53.0496 102.581 53.0496C102.678 53.0496 102.774 53.0688 102.864 53.1061C102.954 53.1434 103.036 53.1981 103.105 53.267L107.955 58.1175C108.205 58.3555 108.536 58.4882 108.881 58.4882C109.226 58.4882 109.558 58.3555 109.807 58.1175L114.661 53.267C114.729 53.1982 114.809 53.1435 114.898 53.1063C114.987 53.069 115.083 53.05 115.179 53.0502C115.277 53.0494 115.373 53.0682 115.463 53.1054C115.553 53.1427 115.635 53.1976 115.703 53.267L119.355 56.918C119.492 57.0578 119.569 57.2459 119.569 57.4418C119.569 57.6377 119.492 57.8257 119.355 57.9656L114.505 62.8213C114.259 63.067 114.122 63.4001 114.122 63.7474C114.122 64.0947 114.259 64.4278 114.505 64.6735L119.355 69.525C119.493 69.6645 119.571 69.8527 119.571 70.0488C119.571 70.245 119.493 70.4332 119.355 70.5726L115.701 74.2267C115.561 74.3603 115.374 74.4349 115.181 74.4349C114.987 74.4349 114.8 74.3603 114.66 74.2267L109.806 69.3752C109.557 69.1372 109.225 69.0044 108.88 69.0044C108.535 69.0044 108.204 69.1372 107.954 69.3752L103.105 74.2267C102.964 74.3608 102.775 74.4342 102.581 74.431ZM102.581 53.5101C102.543 53.5098 102.506 53.5171 102.471 53.5314C102.436 53.5458 102.405 53.5671 102.379 53.5939L98.7256 57.2459C98.6721 57.2998 98.6422 57.3727 98.6422 57.4486C98.6422 57.5245 98.6721 57.5974 98.7256 57.6513L103.577 62.5018C103.907 62.8325 104.092 63.2807 104.092 63.7479C104.092 64.2152 103.907 64.6633 103.577 64.9941L98.7256 69.8445C98.6723 69.8981 98.6424 69.9706 98.6424 70.0462C98.6424 70.1218 98.6723 70.1943 98.7256 70.2479L102.379 73.903C102.435 73.9521 102.507 73.9791 102.581 73.9791C102.656 73.9791 102.728 73.9521 102.784 73.903L107.633 69.0504C107.97 68.7315 108.416 68.5537 108.88 68.5537C109.343 68.5537 109.789 68.7315 110.126 69.0504L114.976 73.903C115.033 73.9511 115.105 73.9776 115.179 73.9776C115.254 73.9776 115.326 73.9511 115.383 73.903L119.035 70.2479C119.086 70.1937 119.115 70.1217 119.115 70.0467C119.115 69.9706 119.085 69.8975 119.032 69.8435L114.184 64.9941C114.021 64.8304 113.891 64.6362 113.802 64.4223C113.714 64.2085 113.668 63.9794 113.668 63.7479C113.668 63.5165 113.714 63.2873 113.802 63.0735C113.891 62.8597 114.021 62.6654 114.184 62.5018L119.035 57.6503C119.087 57.5958 119.116 57.5233 119.115 57.4481C119.115 57.3719 119.085 57.2988 119.032 57.2448L115.383 53.5939C115.356 53.567 115.324 53.5457 115.29 53.5311C115.255 53.5165 115.217 53.509 115.179 53.509C115.142 53.5089 115.106 53.5162 115.071 53.5306C115.037 53.545 115.006 53.5662 114.98 53.5928L110.128 58.4443C109.797 58.7741 109.349 58.9593 108.882 58.9593C108.415 58.9593 107.966 58.7741 107.636 58.4443L102.786 53.5939C102.759 53.5669 102.727 53.5456 102.692 53.5312C102.657 53.5168 102.619 53.5096 102.581 53.5101Z" fill="#8C8C8C"/>
<path d="M142.426 108.182C140.382 108.182 138.383 107.576 136.683 106.441C134.983 105.305 133.659 103.691 132.876 101.802C132.094 99.9135 131.889 97.8352 132.288 95.8302C132.686 93.8251 133.671 91.9834 135.116 90.5378C136.562 89.0923 138.404 88.1079 140.409 87.7091C142.414 87.3103 144.492 87.5151 146.381 88.2975C148.269 89.0799 149.884 90.4049 151.019 92.1047C152.155 93.8046 152.761 95.8031 152.761 97.8474C152.759 100.588 151.669 103.215 149.732 105.153C147.794 107.091 145.166 108.18 142.426 108.182ZM142.426 93.725C141.612 93.725 140.816 93.9665 140.139 94.4189C139.462 94.8713 138.934 95.5143 138.622 96.2666C138.311 97.0189 138.229 97.8467 138.388 98.6454C138.547 99.444 138.939 100.178 139.515 100.753C140.091 101.329 140.824 101.721 141.623 101.88C142.421 102.039 143.249 101.958 144.002 101.646C144.754 101.334 145.397 100.807 145.849 100.13C146.302 99.4525 146.543 98.6564 146.543 97.8421C146.54 96.7516 146.105 95.7067 145.334 94.9361C144.562 94.1655 143.516 93.7319 142.426 93.7303V93.725Z" fill="#D7E2E5"/>
<path d="M140.544 106.479C138.399 106.479 136.302 105.843 134.518 104.651C132.734 103.459 131.344 101.765 130.523 99.7824C129.702 97.8003 129.487 95.6193 129.906 93.5151C130.325 91.411 131.358 89.4782 132.875 87.9613C134.392 86.4443 136.325 85.4113 138.429 84.9929C140.533 84.5745 142.714 84.7895 144.696 85.6106C146.678 86.4318 148.372 87.8222 149.564 89.6061C150.756 91.3901 151.392 93.4873 151.391 95.6327C151.388 98.5083 150.244 101.265 148.21 103.298C146.177 105.332 143.42 106.475 140.544 106.479ZM140.544 85.8092C138.602 85.8094 136.703 86.3856 135.088 87.465C133.473 88.5444 132.214 90.0785 131.47 91.8733C130.727 93.668 130.533 95.6429 130.912 97.5482C131.291 99.4535 132.226 101.204 133.6 102.577C134.974 103.951 136.724 104.886 138.629 105.265C140.534 105.644 142.509 105.45 144.304 104.707C146.099 103.963 147.633 102.705 148.712 101.089C149.792 99.4743 150.368 97.5753 150.368 95.6327C150.364 93.0288 149.328 90.5325 147.487 88.6915C145.645 86.8505 143.148 85.8151 140.544 85.8123V85.8092ZM140.544 100.26C139.629 100.26 138.734 99.9886 137.973 99.48C137.212 98.9713 136.619 98.2484 136.268 97.4026C135.918 96.5569 135.826 95.6262 136.005 94.7283C136.184 93.8305 136.625 93.0058 137.272 92.3585C137.919 91.7113 138.744 91.2706 139.642 91.0921C140.54 90.9136 141.471 91.0054 142.316 91.3559C143.162 91.7064 143.885 92.2998 144.393 93.061C144.902 93.8223 145.173 94.7173 145.173 95.6327C145.171 96.8596 144.683 98.0358 143.815 98.9033C142.948 99.7707 141.771 100.259 140.544 100.26ZM140.544 92.0279C139.831 92.0279 139.134 92.2393 138.542 92.6354C137.949 93.0315 137.487 93.5945 137.214 94.2532C136.941 94.9119 136.87 95.6367 137.009 96.336C137.148 97.0353 137.491 97.6776 137.995 98.1817C138.5 98.6859 139.142 99.0292 139.841 99.1683C140.54 99.3074 141.265 99.236 141.924 98.9632C142.583 98.6903 143.146 98.2283 143.542 97.6355C143.938 97.0427 144.149 96.3457 144.149 95.6327C144.148 94.677 143.768 93.7607 143.092 93.0849C142.416 92.4091 141.5 92.029 140.544 92.0279Z" fill="#8C8C8C"/>
<path d="M140.546 106.705C138.356 106.705 136.215 106.056 134.394 104.84C132.573 103.623 131.153 101.894 130.315 99.8706C129.477 97.8475 129.258 95.6212 129.685 93.4733C130.112 91.3254 131.166 89.3524 132.715 87.8038C134.263 86.2552 136.236 85.2006 138.384 84.7733C140.532 84.346 142.758 84.5652 144.781 85.4032C146.805 86.2412 148.534 87.6603 149.751 89.4812C150.967 91.302 151.617 93.4428 151.617 95.6327C151.613 98.5681 150.446 101.382 148.37 103.458C146.295 105.534 143.481 106.701 140.546 106.705ZM140.546 85.0109C138.445 85.0117 136.392 85.6354 134.645 86.8031C132.899 87.9707 131.539 89.6299 130.735 91.5708C129.932 93.5118 129.722 95.6474 130.132 97.7075C130.543 99.7677 131.555 101.66 133.04 103.145C134.526 104.63 136.419 105.641 138.479 106.051C140.539 106.46 142.675 106.25 144.615 105.446C146.556 104.642 148.215 103.28 149.382 101.533C150.549 99.7868 151.172 97.7333 151.172 95.6327C151.168 92.8159 150.047 90.1155 148.055 88.1242C146.063 86.1328 143.362 85.0131 140.546 85.0109ZM140.546 105.678C138.558 105.678 136.615 105.089 134.963 103.985C133.311 102.881 132.023 101.311 131.262 99.4753C130.502 97.6392 130.303 95.6188 130.691 93.6697C131.079 91.7205 132.036 89.9302 133.441 88.5251C134.847 87.12 136.637 86.1632 138.587 85.7757C140.536 85.3883 142.556 85.5876 144.392 86.3484C146.228 87.1092 147.797 88.3973 148.901 90.0499C150.005 91.7026 150.594 93.6454 150.593 95.6327C150.59 98.2964 149.531 100.85 147.647 102.733C145.763 104.617 143.209 105.676 140.546 105.678ZM140.546 86.0344C138.647 86.0346 136.792 86.5977 135.214 87.6523C133.636 88.7069 132.406 90.2058 131.68 91.9595C130.953 93.7131 130.763 95.6427 131.134 97.5043C131.504 99.3659 132.418 101.076 133.76 102.418C135.102 103.76 136.812 104.674 138.674 105.044C140.536 105.415 142.465 105.225 144.219 104.499C145.972 103.772 147.471 102.542 148.526 100.964C149.581 99.3862 150.144 97.5308 150.144 95.6327C150.14 93.0881 149.128 90.6487 147.329 88.8494C145.53 87.0501 143.09 86.0378 140.546 86.0344ZM140.546 100.484C139.585 100.484 138.647 100.2 137.849 99.6661C137.051 99.1327 136.428 98.3746 136.061 97.4875C135.694 96.6005 135.598 95.6245 135.785 94.683C135.973 93.7414 136.435 92.8766 137.114 92.1979C137.793 91.5192 138.658 91.0571 139.6 90.87C140.542 90.683 141.518 90.7794 142.404 91.1471C143.291 91.5148 144.049 92.1372 144.582 92.9356C145.115 93.7341 145.4 94.6727 145.399 95.6327C145.396 96.9184 144.884 98.1504 143.974 99.0588C143.064 99.9672 141.831 100.478 140.546 100.479V100.484ZM140.546 91.2285C139.675 91.2285 138.825 91.4866 138.101 91.9701C137.377 92.4536 136.813 93.1407 136.48 93.9447C136.147 94.7487 136.06 95.6334 136.23 96.4869C136.4 97.3405 136.819 98.1245 137.434 98.7398C138.05 99.3552 138.834 99.7742 139.687 99.944C140.541 100.114 141.425 100.027 142.229 99.6936C143.033 99.3606 143.72 98.7966 144.204 98.073C144.687 97.3495 144.946 96.4988 144.946 95.6285C144.943 94.4624 144.478 93.3449 143.654 92.5203C142.829 91.6958 141.712 91.2313 140.546 91.2285ZM140.546 99.4607C139.788 99.4609 139.048 99.2365 138.418 98.8159C137.788 98.3952 137.297 97.7972 137.007 97.0975C136.717 96.3978 136.641 95.6278 136.789 94.8849C136.937 94.1421 137.301 93.4597 137.837 92.9241C138.372 92.3886 139.055 92.0239 139.798 91.8762C140.541 91.7285 141.311 91.8044 142.01 92.0943C142.71 92.3842 143.308 92.8752 143.729 93.505C144.149 94.1349 144.374 94.8753 144.374 95.6327C144.372 96.6476 143.968 97.6204 143.251 98.338C142.533 99.0556 141.56 99.4594 140.546 99.4607ZM140.546 92.2521C139.877 92.2517 139.223 92.4495 138.667 92.8205C138.111 93.1916 137.678 93.7192 137.422 94.3367C137.166 94.9541 137.098 95.6337 137.228 96.2893C137.358 96.945 137.68 97.5474 138.153 98.0203C138.625 98.4932 139.227 98.8154 139.883 98.9461C140.538 99.0768 141.218 99.0101 141.836 98.7546C142.453 98.499 142.981 98.066 143.353 97.5103C143.724 96.9546 143.923 96.3012 143.923 95.6327C143.922 94.7369 143.566 93.878 142.933 93.2443C142.3 92.6105 141.441 92.2537 140.546 92.2521Z" fill="#8C8C8C"/>
<path d="M126.919 55.005C127.18 54.7484 128.281 53.6211 129.538 52.3315C138.736 42.9029 138.797 42.9029 139.127 42.9029C139.698 42.9029 151.357 54.5116 151.357 55.0815C151.357 55.8064 146.538 60.6224 145.815 60.6224C145.605 60.6224 145.237 60.6224 142.803 57.952C144.455 72.6909 134.835 78.3187 126.313 83.3044C117.617 88.378 110.762 92.382 113.236 105.117C113.402 105.992 113.217 106.898 112.719 107.637C112.222 108.377 111.453 108.89 110.579 109.066C110.364 109.105 110.145 109.125 109.926 109.127C109.146 109.124 108.391 108.851 107.79 108.355C107.188 107.858 106.777 107.169 106.627 106.403C103.251 89.0128 113.69 82.8989 122.899 77.5079C131.181 72.6543 137.737 68.8126 135.951 57.4669C132.624 60.9817 132.429 60.9817 132.179 60.9817C131.865 60.9817 131.787 60.9817 127.844 56.8425C127.407 56.3847 127.068 56.0285 126.925 55.885L126.919 55.005ZM136.591 55.2921L136.781 56.2758C139.254 69.1112 131.935 73.3991 123.461 78.3648C114.5 83.6113 104.394 89.5272 107.631 106.206C107.762 106.813 108.122 107.346 108.637 107.692C109.152 108.038 109.782 108.171 110.393 108.063C110.998 107.938 111.53 107.58 111.874 107.066C112.217 106.552 112.345 105.924 112.228 105.317C109.617 91.8686 117.11 87.4938 125.789 82.4286C134.348 77.4188 144.043 71.7428 141.561 56.4476L141.276 54.6918L142.45 56.0275C143.502 57.2621 144.626 58.434 145.816 59.537C147.401 58.1762 148.88 56.6969 150.241 55.1119C148.97 53.5865 140.756 45.5471 139.136 44.0815C137.898 45.2339 133.013 50.2436 130.275 53.0502C129.063 54.2926 128.353 55.0197 127.915 55.4366C128.089 55.6126 128.308 55.8421 128.591 56.1396C129.499 57.0919 131.471 59.162 132.191 59.8293C132.819 59.2552 134.454 57.5738 135.909 56.0254L136.591 55.2921Z" fill="#8C8C8C"/>
<path d="M109.925 109.357C109.092 109.353 108.286 109.062 107.644 108.531C107.002 108 106.564 107.264 106.405 106.446C102.998 88.8944 113.51 82.7428 122.783 77.3141C130.887 72.5641 137.31 68.8011 135.794 57.9593C132.708 61.2069 132.518 61.2069 132.18 61.2069C131.761 61.2069 131.693 61.2069 127.684 56.9976L127.64 56.9525C127.221 56.5188 126.906 56.1825 126.768 56.0442L126.702 55.9793L126.691 54.9107L126.762 54.8447C126.993 54.6184 127.867 53.7227 128.926 52.6363L129.379 52.1743C138.644 42.6787 138.68 42.6787 139.129 42.6787C139.829 42.6787 151.583 54.3869 151.583 55.0825C151.583 55.9447 146.68 60.8497 145.821 60.8497C145.554 60.8497 145.193 60.8497 143.103 58.6046C144.407 72.9863 134.866 78.5681 126.433 83.5013C117.822 88.5299 111.021 92.5014 113.466 105.076C113.643 106.01 113.444 106.977 112.913 107.766C112.382 108.555 111.562 109.103 110.63 109.291C110.397 109.334 110.161 109.356 109.925 109.357ZM136.101 56.9756L136.172 57.4292C137.983 68.9268 131.378 72.7978 123.015 77.6996C113.867 83.0529 103.503 89.1186 106.848 106.355C106.986 107.07 107.369 107.715 107.93 108.18C108.491 108.645 109.196 108.901 109.925 108.904C110.131 108.902 110.337 108.882 110.54 108.844C111.354 108.679 112.07 108.2 112.533 107.51C112.996 106.82 113.168 105.976 113.013 105.16C110.508 92.274 117.432 88.2271 126.196 83.1095C134.643 78.1679 144.215 72.5683 142.577 57.975L142.5 57.2825L142.97 57.7969C145.335 60.394 145.693 60.394 145.814 60.394C146.482 60.3227 151.052 55.7488 151.13 55.0752C150.815 54.3241 139.883 43.4403 139.082 43.1198C138.888 43.1271 138.047 43.9338 129.703 52.4865L129.252 52.9485C128.275 53.9501 127.454 54.7902 127.15 55.0951L127.156 55.7886C127.317 55.9542 127.608 56.258 127.97 56.6382L128.014 56.6843C131.715 60.5679 131.961 60.7533 132.184 60.7533C132.368 60.7533 132.78 60.4893 135.79 57.3087L136.101 56.9756ZM109.994 108.319C109.39 108.325 108.803 108.121 108.332 107.744C107.861 107.366 107.535 106.838 107.409 106.247C104.142 89.412 114.343 83.4384 123.344 78.171C131.748 73.2472 139.002 68.9949 136.558 56.3166L136.453 55.7666L136.071 56.1741C134.756 57.5738 133.033 59.3642 132.34 59.9906L132.185 60.131L132.034 59.9896C131.3 59.3076 129.287 57.1935 128.426 56.2904L128.329 56.1857C128.092 55.9374 127.905 55.7425 127.751 55.5864L127.59 55.422L127.755 55.2648C128.184 54.8583 128.88 54.1439 130.037 52.9601L130.418 52.5693C133.172 49.7481 137.782 45.0264 138.977 43.9086L139.13 43.7672L139.284 43.9065C140.926 45.3858 149.132 53.4231 150.416 54.96L150.53 55.0982L150.426 55.2397C149.052 56.8436 147.557 58.3391 145.953 59.713L145.816 59.8115L145.682 59.7067C144.481 58.5947 143.346 57.4131 142.283 56.1679L141.629 55.422L141.787 56.4025C144.294 71.8539 134.528 77.5718 125.909 82.6161C117.304 87.6446 109.873 91.9755 112.455 105.268C112.583 105.934 112.444 106.623 112.067 107.187C111.69 107.751 111.106 108.144 110.441 108.28C110.294 108.307 110.144 108.321 109.994 108.323V108.319ZM136.73 54.8123L137.003 56.2297C139.506 69.2201 132.123 73.5479 123.575 78.5555C114.701 83.7538 104.646 89.6414 107.853 106.159C107.975 106.707 108.302 107.187 108.768 107.499C109.234 107.811 109.803 107.932 110.355 107.835C110.902 107.722 111.381 107.398 111.69 106.934C111.999 106.469 112.112 105.901 112.004 105.354C109.364 91.7461 116.928 87.3345 125.673 82.2295C134.169 77.2564 143.797 71.6202 141.337 56.4759L140.927 53.9438L142.62 55.8703C143.74 57.1463 145.181 58.6832 145.821 59.2395C147.285 57.9531 148.663 56.5737 149.949 55.1098C148.4 53.3435 141.02 46.1128 139.133 44.3811C137.747 45.7074 133.385 50.1734 130.74 52.8836L130.357 53.2743C129.336 54.322 128.672 55.004 128.231 55.4324L128.655 55.8735L128.751 55.9782C129.555 56.8163 131.37 58.723 132.19 59.5129C132.923 58.8152 134.486 57.1987 135.739 55.8641L136.73 54.8123Z" fill="#8C8C8C"/>
</g>
<defs>
<clipPath id="clip0">
<rect y="0.0846252" width="220" height="143.831" fill="white"/>
</clipPath>
</defs>
</svg>
