<svg width="421" height="32" viewBox="0 0 421 32" fill="none" xmlns="http://www.w3.org/2000/svg">
<path d="M149.944 17.065C149.86 17.821 149.671 18.528 149.377 19.186C149.083 19.83 148.684 20.39 148.18 20.866C147.676 21.342 147.06 21.713 146.332 21.979C145.618 22.245 144.785 22.378 143.833 22.378C142.797 22.378 141.866 22.203 141.04 21.853C140.214 21.503 139.514 20.992 138.94 20.32C138.366 19.648 137.918 18.829 137.596 17.863C137.288 16.883 137.134 15.77 137.134 14.524C137.134 13.264 137.302 12.144 137.638 11.164C137.974 10.184 138.443 9.358 139.045 8.686C139.647 8.014 140.354 7.503 141.166 7.153C141.992 6.803 142.881 6.628 143.833 6.628C144.757 6.628 145.555 6.747 146.227 6.985C146.899 7.223 147.466 7.559 147.928 7.993C148.404 8.427 148.782 8.945 149.062 9.547C149.356 10.149 149.58 10.814 149.734 11.542L147.844 11.857C147.718 11.311 147.55 10.821 147.34 10.387C147.144 9.939 146.885 9.561 146.563 9.253C146.255 8.945 145.877 8.714 145.429 8.56C144.995 8.392 144.463 8.308 143.833 8.308C143.091 8.308 142.426 8.462 141.838 8.77C141.264 9.064 140.774 9.484 140.368 10.03C139.976 10.562 139.675 11.213 139.465 11.983C139.255 12.739 139.15 13.579 139.15 14.503C139.15 15.427 139.255 16.274 139.465 17.044C139.675 17.8 139.976 18.451 140.368 18.997C140.774 19.543 141.264 19.963 141.838 20.257C142.426 20.551 143.098 20.698 143.854 20.698C144.54 20.698 145.121 20.614 145.597 20.446C146.087 20.264 146.486 20.012 146.794 19.69C147.116 19.368 147.368 18.983 147.55 18.535C147.732 18.087 147.865 17.597 147.949 17.065H149.944ZM157.188 22.336C156.362 22.336 155.627 22.203 154.983 21.937C154.339 21.671 153.793 21.293 153.345 20.803C152.897 20.313 152.554 19.711 152.316 18.997C152.078 18.283 151.959 17.485 151.959 16.603C151.959 15.721 152.085 14.923 152.337 14.209C152.589 13.495 152.946 12.886 153.408 12.382C153.87 11.878 154.423 11.493 155.067 11.227C155.725 10.947 156.453 10.807 157.251 10.807C158.063 10.807 158.791 10.94 159.435 11.206C160.079 11.472 160.625 11.857 161.073 12.361C161.535 12.851 161.885 13.446 162.123 14.146C162.361 14.846 162.48 15.637 162.48 16.519C162.48 17.415 162.354 18.22 162.102 18.934C161.864 19.648 161.514 20.257 161.052 20.761C160.604 21.265 160.051 21.657 159.393 21.937C158.735 22.203 158 22.336 157.188 22.336ZM157.209 20.824C157.797 20.824 158.301 20.719 158.721 20.509C159.141 20.299 159.484 20.005 159.75 19.627C160.03 19.249 160.233 18.801 160.359 18.283C160.485 17.751 160.548 17.17 160.548 16.54C160.548 15.924 160.485 15.357 160.359 14.839C160.233 14.321 160.03 13.88 159.75 13.516C159.484 13.138 159.141 12.844 158.721 12.634C158.301 12.424 157.797 12.319 157.209 12.319C156.621 12.319 156.117 12.424 155.697 12.634C155.291 12.844 154.948 13.138 154.668 13.516C154.402 13.88 154.206 14.321 154.08 14.839C153.954 15.357 153.891 15.931 153.891 16.561C153.891 17.191 153.954 17.765 154.08 18.283C154.206 18.801 154.402 19.249 154.668 19.627C154.934 20.005 155.277 20.299 155.697 20.509C156.117 20.719 156.621 20.824 157.209 20.824ZM164.928 11.143H166.734V12.802C167.266 12.088 167.854 11.577 168.498 11.269C169.142 10.961 169.821 10.807 170.535 10.807C171.767 10.807 172.677 11.143 173.265 11.815C173.867 12.487 174.168 13.474 174.168 14.776V22H172.341V15.133C172.341 14.125 172.159 13.418 171.795 13.012C171.431 12.592 170.871 12.382 170.115 12.382C169.709 12.382 169.303 12.452 168.897 12.592C168.505 12.732 168.148 12.956 167.826 13.264C167.476 13.572 167.21 13.901 167.028 14.251C166.846 14.587 166.755 15.028 166.755 15.574V22H164.928V11.143ZM177.535 12.592H175.855V11.143H177.535V8.182H179.362V11.143H182.239V12.592H179.362V18.955C179.362 19.487 179.481 19.914 179.719 20.236C179.957 20.558 180.321 20.719 180.811 20.719C181.119 20.719 181.385 20.698 181.609 20.656C181.847 20.614 182.064 20.558 182.26 20.488L182.575 21.895C182.295 21.993 181.987 22.07 181.651 22.126C181.329 22.196 180.944 22.231 180.496 22.231C179.88 22.231 179.383 22.14 179.005 21.958C178.627 21.776 178.326 21.517 178.102 21.181C177.878 20.845 177.724 20.446 177.64 19.984C177.57 19.522 177.535 19.018 177.535 18.472V12.592ZM193.265 18.955C193.083 20.005 192.614 20.831 191.858 21.433C191.116 22.035 190.045 22.336 188.645 22.336C186.993 22.336 185.726 21.839 184.844 20.845C183.962 19.837 183.521 18.437 183.521 16.645C183.521 15.707 183.647 14.874 183.899 14.146C184.151 13.418 184.501 12.809 184.949 12.319C185.411 11.829 185.957 11.458 186.587 11.206C187.217 10.94 187.903 10.807 188.645 10.807C189.485 10.807 190.206 10.94 190.808 11.206C191.41 11.472 191.9 11.843 192.278 12.319C192.67 12.781 192.957 13.334 193.139 13.978C193.335 14.622 193.433 15.329 193.433 16.099V17.023H185.369C185.369 17.569 185.439 18.08 185.579 18.556C185.733 19.018 185.943 19.424 186.209 19.774C186.489 20.11 186.832 20.376 187.238 20.572C187.644 20.768 188.113 20.866 188.645 20.866C189.555 20.866 190.22 20.698 190.64 20.362C191.06 20.012 191.347 19.543 191.501 18.955H193.265ZM191.606 15.658C191.606 15.14 191.55 14.671 191.438 14.251C191.326 13.831 191.151 13.474 190.913 13.18C190.675 12.872 190.367 12.634 189.989 12.466C189.611 12.298 189.156 12.214 188.624 12.214C187.658 12.214 186.902 12.508 186.356 13.096C185.824 13.684 185.509 14.538 185.411 15.658H191.606ZM195.854 11.143H197.66V12.802C198.192 12.088 198.78 11.577 199.424 11.269C200.068 10.961 200.747 10.807 201.461 10.807C202.693 10.807 203.603 11.143 204.191 11.815C204.793 12.487 205.094 13.474 205.094 14.776V22H203.267V15.133C203.267 14.125 203.085 13.418 202.721 13.012C202.357 12.592 201.797 12.382 201.041 12.382C200.635 12.382 200.229 12.452 199.823 12.592C199.431 12.732 199.074 12.956 198.752 13.264C198.402 13.572 198.136 13.901 197.954 14.251C197.772 14.587 197.681 15.028 197.681 15.574V22H195.854V11.143ZM208.461 12.592H206.781V11.143H208.461V8.182H210.288V11.143H213.165V12.592H210.288V18.955C210.288 19.487 210.407 19.914 210.645 20.236C210.883 20.558 211.247 20.719 211.737 20.719C212.045 20.719 212.311 20.698 212.535 20.656C212.773 20.614 212.99 20.558 213.186 20.488L213.501 21.895C213.221 21.993 212.913 22.07 212.577 22.126C212.255 22.196 211.87 22.231 211.422 22.231C210.806 22.231 210.309 22.14 209.931 21.958C209.553 21.776 209.252 21.517 209.028 21.181C208.804 20.845 208.65 20.446 208.566 19.984C208.496 19.522 208.461 19.018 208.461 18.472V12.592ZM221.131 17.737C221.299 18.787 221.712 19.55 222.37 20.026C223.042 20.488 224.036 20.719 225.352 20.719C226.01 20.719 226.556 20.649 226.99 20.509C227.438 20.355 227.795 20.159 228.061 19.921C228.327 19.669 228.516 19.382 228.628 19.06C228.74 18.724 228.796 18.374 228.796 18.01C228.796 17.716 228.761 17.436 228.691 17.17C228.621 16.89 228.481 16.638 228.271 16.414C228.075 16.19 227.795 15.994 227.431 15.826C227.081 15.658 226.626 15.525 226.066 15.427L224.176 15.091C223.434 14.965 222.776 14.797 222.202 14.587C221.628 14.377 221.138 14.111 220.732 13.789C220.34 13.453 220.039 13.04 219.829 12.55C219.633 12.06 219.535 11.465 219.535 10.765C219.535 10.079 219.675 9.477 219.955 8.959C220.249 8.441 220.641 8.007 221.131 7.657C221.621 7.307 222.202 7.048 222.874 6.88C223.546 6.712 224.274 6.628 225.058 6.628C226.052 6.628 226.878 6.74 227.536 6.964C228.208 7.174 228.754 7.461 229.174 7.825C229.594 8.189 229.909 8.609 230.119 9.085C230.343 9.547 230.511 10.023 230.623 10.513L228.817 10.87C228.705 10.45 228.558 10.079 228.376 9.757C228.208 9.421 227.977 9.148 227.683 8.938C227.403 8.714 227.053 8.546 226.633 8.434C226.213 8.322 225.702 8.266 225.1 8.266C224.414 8.266 223.84 8.329 223.378 8.455C222.916 8.581 222.545 8.756 222.265 8.98C221.985 9.19 221.782 9.449 221.656 9.757C221.544 10.051 221.488 10.366 221.488 10.702C221.488 11.066 221.53 11.388 221.614 11.668C221.712 11.934 221.866 12.172 222.076 12.382C222.3 12.578 222.587 12.746 222.937 12.886C223.287 13.012 223.721 13.124 224.239 13.222L226.339 13.6C227.893 13.894 229.034 14.384 229.762 15.07C230.49 15.742 230.854 16.736 230.854 18.052C230.854 18.654 230.735 19.221 230.497 19.753C230.273 20.271 229.93 20.726 229.468 21.118C229.02 21.51 228.453 21.818 227.767 22.042C227.081 22.266 226.276 22.378 225.352 22.378C224.47 22.378 223.665 22.287 222.937 22.105C222.223 21.937 221.6 21.664 221.068 21.286C220.536 20.908 220.109 20.425 219.787 19.837C219.465 19.249 219.269 18.549 219.199 17.737H221.131ZM233.218 11.143H235.045V17.989C235.045 18.997 235.206 19.711 235.528 20.131C235.864 20.551 236.403 20.761 237.145 20.761C237.957 20.761 238.692 20.467 239.35 19.879C239.7 19.571 239.966 19.249 240.148 18.913C240.33 18.563 240.421 18.115 240.421 17.569V11.143H242.248V22H240.442V20.32C239.91 21.02 239.336 21.531 238.72 21.853C238.104 22.175 237.439 22.336 236.725 22.336C235.493 22.336 234.597 22.007 234.037 21.349C233.491 20.677 233.218 19.676 233.218 18.346V11.143ZM245.095 11.143H246.922V22H245.095V11.143ZM245.032 7.006H246.985V9.127H245.032V7.006ZM250.399 12.592H248.719V11.143H250.399V8.182H252.226V11.143H255.103V12.592H252.226V18.955C252.226 19.487 252.345 19.914 252.583 20.236C252.821 20.558 253.185 20.719 253.675 20.719C253.983 20.719 254.249 20.698 254.473 20.656C254.711 20.614 254.928 20.558 255.124 20.488L255.439 21.895C255.159 21.993 254.851 22.07 254.515 22.126C254.193 22.196 253.808 22.231 253.36 22.231C252.744 22.231 252.247 22.14 251.869 21.958C251.491 21.776 251.19 21.517 250.966 21.181C250.742 20.845 250.588 20.446 250.504 19.984C250.434 19.522 250.399 19.018 250.399 18.472V12.592ZM266.129 18.955C265.947 20.005 265.478 20.831 264.722 21.433C263.98 22.035 262.909 22.336 261.509 22.336C259.857 22.336 258.59 21.839 257.708 20.845C256.826 19.837 256.385 18.437 256.385 16.645C256.385 15.707 256.511 14.874 256.763 14.146C257.015 13.418 257.365 12.809 257.813 12.319C258.275 11.829 258.821 11.458 259.451 11.206C260.081 10.94 260.767 10.807 261.509 10.807C262.349 10.807 263.07 10.94 263.672 11.206C264.274 11.472 264.764 11.843 265.142 12.319C265.534 12.781 265.821 13.334 266.003 13.978C266.199 14.622 266.297 15.329 266.297 16.099V17.023H258.233C258.233 17.569 258.303 18.08 258.443 18.556C258.597 19.018 258.807 19.424 259.073 19.774C259.353 20.11 259.696 20.376 260.102 20.572C260.508 20.768 260.977 20.866 261.509 20.866C262.419 20.866 263.084 20.698 263.504 20.362C263.924 20.012 264.211 19.543 264.365 18.955H266.129ZM264.47 15.658C264.47 15.14 264.414 14.671 264.302 14.251C264.19 13.831 264.015 13.474 263.777 13.18C263.539 12.872 263.231 12.634 262.853 12.466C262.475 12.298 262.02 12.214 261.488 12.214C260.522 12.214 259.766 12.508 259.22 13.096C258.688 13.684 258.373 14.538 258.275 15.658H264.47ZM273.646 7.006H278.665C279.771 7.006 280.681 7.125 281.395 7.363C282.123 7.601 282.69 7.923 283.096 8.329C283.516 8.735 283.803 9.211 283.957 9.757C284.125 10.289 284.209 10.856 284.209 11.458C284.209 12.088 284.125 12.69 283.957 13.264C283.789 13.838 283.495 14.342 283.075 14.776C282.655 15.21 282.088 15.553 281.374 15.805C280.66 16.057 279.757 16.183 278.665 16.183H275.557V22H273.646V7.006ZM278.644 14.545C279.372 14.545 279.974 14.475 280.45 14.335C280.926 14.195 281.297 13.992 281.563 13.726C281.829 13.46 282.011 13.145 282.109 12.781C282.221 12.403 282.277 11.983 282.277 11.521C282.277 11.045 282.221 10.625 282.109 10.261C281.997 9.897 281.801 9.596 281.521 9.358C281.241 9.12 280.863 8.945 280.387 8.833C279.925 8.707 279.337 8.644 278.623 8.644H275.557V14.545H278.644ZM286.582 7.006H288.409V22H286.582V7.006ZM298.019 20.509C297.627 20.985 297.13 21.398 296.528 21.748C295.926 22.084 295.177 22.252 294.281 22.252C293.735 22.252 293.231 22.182 292.769 22.042C292.321 21.916 291.929 21.72 291.593 21.454C291.271 21.174 291.019 20.831 290.837 20.425C290.655 20.019 290.564 19.543 290.564 18.997C290.564 18.255 290.718 17.653 291.026 17.191C291.348 16.729 291.768 16.365 292.286 16.099C292.818 15.833 293.413 15.644 294.071 15.532C294.729 15.42 295.408 15.35 296.108 15.322L297.977 15.259V14.839C297.977 13.915 297.781 13.25 297.389 12.844C296.997 12.438 296.36 12.235 295.478 12.235C294.61 12.235 293.973 12.382 293.567 12.676C293.161 12.956 292.895 13.348 292.769 13.852L291.11 13.663C291.306 12.669 291.775 11.948 292.517 11.5C293.259 11.038 294.267 10.807 295.541 10.807C296.325 10.807 296.983 10.905 297.515 11.101C298.061 11.283 298.502 11.549 298.838 11.899C299.174 12.249 299.412 12.683 299.552 13.201C299.706 13.719 299.783 14.3 299.783 14.944V22H298.019V20.509ZM297.977 16.561L296.234 16.624C295.492 16.652 294.876 16.722 294.386 16.834C293.896 16.946 293.504 17.1 293.21 17.296C292.93 17.478 292.727 17.709 292.601 17.989C292.489 18.269 292.433 18.591 292.433 18.955C292.433 19.501 292.594 19.942 292.916 20.278C293.252 20.6 293.798 20.761 294.554 20.761C295.632 20.761 296.472 20.495 297.074 19.963C297.676 19.431 297.977 18.703 297.977 17.779V16.561ZM303.186 12.592H301.506V11.143H303.186V8.182H305.013V11.143H307.89V12.592H305.013V18.955C305.013 19.487 305.132 19.914 305.37 20.236C305.608 20.558 305.972 20.719 306.462 20.719C306.77 20.719 307.036 20.698 307.26 20.656C307.498 20.614 307.715 20.558 307.911 20.488L308.226 21.895C307.946 21.993 307.638 22.07 307.302 22.126C306.98 22.196 306.595 22.231 306.147 22.231C305.531 22.231 305.034 22.14 304.656 21.958C304.278 21.776 303.977 21.517 303.753 21.181C303.529 20.845 303.375 20.446 303.291 19.984C303.221 19.522 303.186 19.018 303.186 18.472V12.592ZM310.898 12.592H309.197V11.143H310.898V10.198C310.898 9.61 310.982 9.106 311.15 8.686C311.332 8.266 311.57 7.923 311.864 7.657C312.172 7.377 312.522 7.174 312.914 7.048C313.32 6.908 313.747 6.838 314.195 6.838C314.517 6.838 314.825 6.859 315.119 6.901C315.413 6.929 315.721 6.992 316.043 7.09L315.749 8.518C315.525 8.448 315.308 8.406 315.098 8.392C314.902 8.364 314.706 8.35 314.51 8.35C314.02 8.35 313.6 8.483 313.25 8.749C312.9 9.001 312.725 9.47 312.725 10.156V11.143H315.476V12.592H312.725V22H310.898V12.592ZM321.722 22.336C320.896 22.336 320.161 22.203 319.517 21.937C318.873 21.671 318.327 21.293 317.879 20.803C317.431 20.313 317.088 19.711 316.85 18.997C316.612 18.283 316.493 17.485 316.493 16.603C316.493 15.721 316.619 14.923 316.871 14.209C317.123 13.495 317.48 12.886 317.942 12.382C318.404 11.878 318.957 11.493 319.601 11.227C320.259 10.947 320.987 10.807 321.785 10.807C322.597 10.807 323.325 10.94 323.969 11.206C324.613 11.472 325.159 11.857 325.607 12.361C326.069 12.851 326.419 13.446 326.657 14.146C326.895 14.846 327.014 15.637 327.014 16.519C327.014 17.415 326.888 18.22 326.636 18.934C326.398 19.648 326.048 20.257 325.586 20.761C325.138 21.265 324.585 21.657 323.927 21.937C323.269 22.203 322.534 22.336 321.722 22.336ZM321.743 20.824C322.331 20.824 322.835 20.719 323.255 20.509C323.675 20.299 324.018 20.005 324.284 19.627C324.564 19.249 324.767 18.801 324.893 18.283C325.019 17.751 325.082 17.17 325.082 16.54C325.082 15.924 325.019 15.357 324.893 14.839C324.767 14.321 324.564 13.88 324.284 13.516C324.018 13.138 323.675 12.844 323.255 12.634C322.835 12.424 322.331 12.319 321.743 12.319C321.155 12.319 320.651 12.424 320.231 12.634C319.825 12.844 319.482 13.138 319.202 13.516C318.936 13.88 318.74 14.321 318.614 14.839C318.488 15.357 318.425 15.931 318.425 16.561C318.425 17.191 318.488 17.765 318.614 18.283C318.74 18.801 318.936 19.249 319.202 19.627C319.468 20.005 319.811 20.299 320.231 20.509C320.651 20.719 321.155 20.824 321.743 20.824ZM329.463 11.143H331.269V12.823C331.675 12.221 332.151 11.759 332.697 11.437C333.243 11.115 333.824 10.954 334.44 10.954C334.818 10.954 335.14 10.982 335.406 11.038L335.175 12.739C335.035 12.711 334.895 12.69 334.755 12.676C334.615 12.648 334.461 12.634 334.293 12.634C333.957 12.634 333.614 12.697 333.264 12.823C332.914 12.935 332.585 13.131 332.277 13.411C331.969 13.677 331.724 13.985 331.542 14.335C331.374 14.685 331.29 15.091 331.29 15.553V22H329.463V11.143ZM337.153 11.143H338.959V12.802C339.449 12.13 339.988 11.633 340.576 11.311C341.164 10.975 341.766 10.807 342.382 10.807C343.194 10.807 343.845 10.982 344.335 11.332C344.839 11.682 345.21 12.186 345.448 12.844C345.938 12.172 346.498 11.668 347.128 11.332C347.758 10.982 348.43 10.807 349.144 10.807C350.208 10.807 351.027 11.101 351.601 11.689C352.189 12.263 352.483 13.194 352.483 14.482V22H350.656V14.902C350.656 14.412 350.614 14.006 350.53 13.684C350.446 13.348 350.32 13.089 350.152 12.907C349.998 12.711 349.802 12.578 349.564 12.508C349.326 12.424 349.053 12.382 348.745 12.382C348.423 12.382 348.087 12.438 347.737 12.55C347.387 12.662 347.044 12.858 346.708 13.138C346.428 13.376 346.197 13.663 346.015 13.999C345.833 14.335 345.742 14.72 345.742 15.154V22H343.915V14.923C343.915 13.971 343.747 13.313 343.411 12.949C343.089 12.571 342.62 12.382 342.004 12.382C341.29 12.382 340.618 12.676 339.988 13.264C339.75 13.488 339.519 13.775 339.295 14.125C339.085 14.475 338.98 14.944 338.98 15.532V22H337.153V11.143Z" fill="black"/>
<path d="M129 2.89999H128V25.9H129V2.89999Z" fill="black"/>
<path d="M17.1 14.5C17.1 18.3 14.9 22.4 9.09997 22.4C4.89997 22.4 1.09997 20.1 1.09997 14.5C0.999974 9.9 3.89997 6.4 9.59997 6.7C15.7 7 17.1 11.7 17.1 14.5ZM6.19997 11.6C5.69997 12.4 5.49997 13.4 5.49997 14.4C5.49997 16.7 6.59997 18.8 9.09997 18.8C11.5 18.8 12.7 16.9 12.7 14.6C12.7 13 12.3 11.7 11.5 10.9C10.6 10.1 9.59997 10 8.89997 10.1C7.49997 10.2 6.79997 10.7 6.19997 11.6Z" fill="black"/>
<path d="M56.1 8.40001C56.5 7.90001 56.8 7.60001 57.6 7.20001C58.3 6.90001 59.3 6.70001 60.3 6.70001C61.2 6.70001 62.2 6.80001 63 7.30001C64.6 8.10001 65 9.50001 65 11.8V22H60.6V13.6C60.6 12.3 60.6 11.8 60.4 11.4C60.1 10.6 59.3 10.3 58.4 10.3C56.1 10.3 56.1 12.2 56.1 14V22.1H51.7V7.00001H56.1V8.40001Z" fill="black"/>
<path d="M49.6 18.1C49.2 19 47.9 22.3 42.2 22.3C37.8 22.3 34.6 19.6 34.6 14.7C34.6 11.1 36.4 6.6 42.3 6.6C43.2 6.6 45.8 6.5 47.7 8.6C49.6 10.7 49.8 13.6 49.8 15.3H39.1C39.1 17.2 40.1 19 42.5 19C44.9 19 45.7 17.4 46.3 16.4L49.6 18.1ZM45.2 12.6C45.1 12 45 11.1 44.4 10.5C43.9 9.9 43 9.6 42.3 9.6C41.2 9.6 40.5 10.1 40.1 10.6C39.5 11.3 39.4 11.9 39.2 12.6H45.2Z" fill="black"/>
<path d="M110.9 10.1H113.8V6.99999H111V3.89999H106.6V6.99999H105.9L103.9 10.1H106.6V17.2C106.6 18.6 106.6 19.7 107.2 20.6C108.1 22 109.8 22.1 111.3 22.1C112.1 22.1 112.7 22 113.6 21.9V18.5L112 18.6C110.8 18.6 110.8 17.8 110.9 16.9V10.1Z" fill="black"/>
<path d="M67.2 3.89999H71.6V6.99999H76.2L74.2 10.1H71.6V16.7C71.6 17.6 71.6 18.4 72.7 18.4L74.3 18.3V21.7C73.4 21.8 72.8 21.9 72 21.9C70.5 21.9 68.8 21.8 67.9 20.4C67.3 19.5 67.3 18.5 67.3 17V3.89999H67.2Z" fill="black"/>
<path d="M117.9 10.1H117.4V7.5H116.4V7H118.9V7.5H117.9V10.1ZM122.2 10.1H121.7V8.2V7.6L121.6 8.1L121 10.1H120.5L119.9 8.1L119.7 7.6V8.2V10.1H119.2V7H119.9L120.7 9.4L121.5 7H122.2V10.1Z" fill="black"/>
<path d="M89.9 18.1L89.1 19.4C88.3 20.6 86.8 22.3 82.6 22.3C78.2 22.3 75.2 19.6 75.2 14.7C75.2 11.1 77 6.6 82.9 6.6C83.8 6.6 86.4 6.5 88.3 8.6C90.2 10.7 90.4 13.6 90.4 15.3H79.7C79.7 17.2 80.6 19 83 19C85.4 19 86.1 17.4 86.6 16.4L89.9 18.1ZM85.8 12.6C85.7 12 85.6 11.1 85 10.5C84.5 10 83.6 9.7 82.9 9.7C81.8 9.7 81.1 10.2 80.7 10.7C80.1 11.4 80 12 79.8 12.7H85.8V12.6Z" fill="black"/>
<path d="M104.9 22L99.5 14.1L104 7H99L96.9 10.4L94.5 7H89.5L94.4 14.1L89.4 22H94.4L97 17.8L99.9 22H104.9Z" fill="black"/>
<path d="M23.1 8.40001C23.5 7.80001 24.9 6.70001 27 6.70001C30.7 6.70001 33.2 9.50001 33.2 14.5C33.2 17.6 32.1 22.4 26.8 22.4C24.9 22.4 23.4 21.3 23 20.7V26.9H18.6V7.00001H23V8.40001H23.1ZM26.1 10.1C25.3 10.1 24.5 10.4 23.8 11.2C23.2 12 22.9 13.2 22.9 14.5C22.9 16.3 23.4 17.3 24 17.9C24.5 18.5 25.3 18.8 26 18.8C28.1 18.8 29.1 16.5 29.1 14.4C29.1 12.6 28.6 10.6 26.8 10.2C26.5 10.1 26.3 10.1 26.1 10.1Z" fill="black"/>
<path d="M377.96 18.475C377.9 19.015 377.765 19.52 377.555 19.99C377.345 20.45 377.06 20.85 376.7 21.19C376.34 21.53 375.9 21.795 375.38 21.985C374.87 22.175 374.275 22.27 373.595 22.27C372.855 22.27 372.19 22.145 371.6 21.895C371.01 21.645 370.51 21.28 370.1 20.8C369.69 20.32 369.37 19.735 369.14 19.045C368.92 18.345 368.81 17.55 368.81 16.66C368.81 15.76 368.93 14.96 369.17 14.26C369.41 13.56 369.745 12.97 370.175 12.49C370.605 12.01 371.11 11.645 371.69 11.395C372.28 11.145 372.915 11.02 373.595 11.02C374.255 11.02 374.825 11.105 375.305 11.275C375.785 11.445 376.19 11.685 376.52 11.995C376.86 12.305 377.13 12.675 377.33 13.105C377.54 13.535 377.7 14.01 377.81 14.53L376.46 14.755C376.37 14.365 376.25 14.015 376.1 13.705C375.96 13.385 375.775 13.115 375.545 12.895C375.325 12.675 375.055 12.51 374.735 12.4C374.425 12.28 374.045 12.22 373.595 12.22C373.065 12.22 372.59 12.33 372.17 12.55C371.76 12.76 371.41 13.06 371.12 13.45C370.84 13.83 370.625 14.295 370.475 14.845C370.325 15.385 370.25 15.985 370.25 16.645C370.25 17.305 370.325 17.91 370.475 18.46C370.625 19 370.84 19.465 371.12 19.855C371.41 20.245 371.76 20.545 372.17 20.755C372.59 20.965 373.07 21.07 373.61 21.07C374.1 21.07 374.515 21.01 374.855 20.89C375.205 20.76 375.49 20.58 375.71 20.35C375.94 20.12 376.12 19.845 376.25 19.525C376.38 19.205 376.475 18.855 376.535 18.475H377.96ZM379.834 11.29H386.764V12.505H381.214V15.865H386.464V17.095H381.214V20.785H387.049L386.824 22H379.834V11.29ZM391.871 20.92C392.251 20.58 392.661 20.22 393.101 19.84C393.541 19.46 393.986 19.07 394.436 18.67C394.916 18.25 395.336 17.87 395.696 17.53C396.056 17.18 396.356 16.845 396.596 16.525C396.836 16.205 397.016 15.88 397.136 15.55C397.256 15.22 397.316 14.865 397.316 14.485C397.316 13.855 397.146 13.375 396.806 13.045C396.466 12.705 395.991 12.535 395.381 12.535C395.011 12.535 394.696 12.575 394.436 12.655C394.176 12.735 393.956 12.855 393.776 13.015C393.596 13.165 393.446 13.355 393.326 13.585C393.216 13.815 393.116 14.085 393.026 14.395L391.781 14.2C391.871 13.84 391.996 13.49 392.156 13.15C392.316 12.81 392.536 12.51 392.816 12.25C393.096 11.98 393.446 11.765 393.866 11.605C394.286 11.435 394.801 11.35 395.411 11.35C395.941 11.35 396.411 11.425 396.821 11.575C397.231 11.725 397.571 11.935 397.841 12.205C398.121 12.465 398.331 12.78 398.471 13.15C398.621 13.52 398.696 13.93 398.696 14.38C398.696 14.83 398.631 15.25 398.501 15.64C398.381 16.03 398.191 16.415 397.931 16.795C397.671 17.175 397.341 17.565 396.941 17.965C396.541 18.365 396.066 18.8 395.516 19.27C395.226 19.52 394.926 19.775 394.616 20.035C394.316 20.285 394.021 20.54 393.731 20.8H398.801L398.606 22H391.871V20.92ZM404.212 13.09L401.827 14.53L401.257 13.555L404.347 11.635H405.562V22H404.212V13.09ZM409.579 20.245H411.079V22H409.579V20.245ZM414.059 19.135C414.139 19.805 414.349 20.305 414.689 20.635C415.029 20.955 415.599 21.115 416.399 21.115C417.109 21.115 417.649 20.945 418.019 20.605C418.389 20.255 418.574 19.75 418.574 19.09C418.574 18.41 418.384 17.925 418.004 17.635C417.634 17.345 417.124 17.2 416.474 17.2H415.289V16.015H416.519C417.089 16.015 417.534 15.86 417.854 15.55C418.184 15.24 418.349 14.785 418.349 14.185C418.349 13.645 418.179 13.235 417.839 12.955C417.509 12.665 417.014 12.52 416.354 12.52C415.674 12.52 415.164 12.66 414.824 12.94C414.494 13.22 414.244 13.66 414.074 14.26L412.844 14.065C412.914 13.715 413.029 13.38 413.189 13.06C413.349 12.73 413.564 12.44 413.834 12.19C414.114 11.93 414.464 11.725 414.884 11.575C415.304 11.425 415.809 11.35 416.399 11.35C416.959 11.35 417.444 11.42 417.854 11.56C418.264 11.7 418.604 11.895 418.874 12.145C419.144 12.385 419.344 12.67 419.474 13C419.614 13.32 419.684 13.665 419.684 14.035C419.684 14.625 419.564 15.115 419.324 15.505C419.084 15.895 418.709 16.22 418.199 16.48C418.799 16.72 419.234 17.055 419.504 17.485C419.784 17.915 419.924 18.43 419.924 19.03C419.924 19.5 419.854 19.935 419.714 20.335C419.574 20.725 419.359 21.065 419.069 21.355C418.779 21.645 418.414 21.87 417.974 22.03C417.534 22.19 417.019 22.27 416.429 22.27C415.719 22.27 415.129 22.175 414.659 21.985C414.199 21.785 413.829 21.535 413.549 21.235C413.269 20.935 413.069 20.6 412.949 20.23C412.839 19.86 412.774 19.495 412.754 19.135H414.059Z" fill="black"/>
</svg>
